<?xml version="1.0" encoding="utf-8"?>
<?xml-stylesheet type="text/css" href="../css/main.css" ?>
<!-- Generator: Adobe Illustrator 16.0.0, SVG Export Plug-In . SVG Version: 6.00 Build 0)  -->
<!DOCTYPE svg PUBLIC "-//W3C//DTD SVG 1.1//EN" "http://www.w3.org/Graphics/SVG/1.1/DTD/svg11.dtd">
<svg version="1.1" id="Layer_1" xmlns="http://www.w3.org/2000/svg" xmlns:xlink="http://www.w3.org/1999/xlink" x="0px" y="0px"
	 width="300px" height="300px" viewBox="0 0 500 500" enable-background="new 0 0 500 500" xml:space="preserve">
	<a xlink:href="../wat-is-het" target='_top'>
		<g id="HOEPAGE-wat" class="svgnavani">
			<path fill-rule="evenodd" clip-rule="evenodd" fill="#F8E44A" d="M395-1c0.008,12.38,3.865,23.86,8.703,34.994
				c1.672,3.849,1.341,5.515-2.406,7.737c-86.305,51.186-172.529,102.508-258.713,153.896c-3.35,1.998-4.824,1.709-6.751-1.839
				c-25.461-46.87-42.017-96.625-48.998-149.541C84.853,29.226,83.352,14.183,84-1C187.667-1,291.334-1,395-1z M192.042,90.938
				c2.92,0.092,7.785-6.709,6.983-9.602c-1.461-5.274-3.166-10.481-4.661-15.747c-0.514-1.812-1.116-3.096-3.364-2.533
				c-2.401,0.602-2.046,2.077-1.479,3.84c1.169,3.631,2.333,7.271,3.274,10.966c0.614,2.41,2.476,5.773-1.032,6.889
				c-3.462,1.101-3.997-2.482-4.752-4.976c-1.155-3.811-2.274-7.632-3.408-11.45c-0.465-1.566-1.132-2.732-3.146-2.208
				c-2.254,0.587-2.231,1.872-1.631,3.764c1.304,4.111,2.305,8.319,3.629,12.422c0.73,2.262,1.144,4.796-1.296,5.569
				c-2.813,0.891-3.849-1.629-4.523-4.057c-1.11-3.996-2.401-7.94-3.589-11.915c-0.495-1.655-0.887-3.364-3.282-2.601
				c-2.181,0.695-2.1,2.339-1.601,4.034c1.547,5.252,3.067,10.515,4.786,15.712c0.98,2.965,9.254,6.356,10.729,4.3
				C186.144,89.914,188.566,88.582,192.042,90.938z M280.15,38.695c1.951,6.484,4.195,13.939,6.438,21.395
				c0.479,1.592,0.734,3.428,3.201,2.666c2.611-0.807,1.947-2.501,1.361-4.364c-0.896-2.842-1.766-5.713-2.324-8.633
				c-0.434-2.266,0.969-3.985,3.009-4.554c2.222-0.62,2.642,1.459,3.138,3.011c1.01,3.155,1.973,6.327,2.893,9.51
				c0.428,1.479,1.024,2.448,2.795,1.74c1.293-0.518,2.633-1.021,1.982-2.797c-1.594-4.35-2.163-9.045-4.425-13.166
				c-1.819-3.315-4.702-4.753-7.815-2.451c-3.933,2.909-4.496,0.511-5.201-2.477c-0.189-0.802-0.431-1.603-0.748-2.362
				c-0.561-1.346-1.693-1.428-2.918-1.161C280.084,35.368,279.776,36.381,280.15,38.695z M219.007,83.18
				c2.733,0.039,4.117-0.838,3.092-3.885c-0.95-2.82-1.565-5.753-2.524-8.57c-3.169-9.31-0.61-8.538-10.868-5.625
				c-6.738,1.914-8.044,4.295-6.42,10.974c0.428,1.759,1.023,3.51,1.791,5.148c2.549,5.441,6.32,6.404,11.215,2.892
				C216.453,83.281,217.296,81.706,219.007,83.18z M302.809,43.112c0.702,4.14,1.156,9.378,6.504,11.755
				c4.261,1.894,8.092,0.147,11.504-2.543c0.993-0.783,2.378-1.625,1.239-3.23c-1.085-1.528-2.397-1.541-3.823-0.368
				c-1.708,1.404-3.622,2.313-5.902,2.305c-1.301-0.005-2.417-0.52-2.78-1.704c-0.594-1.932,1.38-1.498,2.198-1.82
				c2.148-0.848,4.441-1.324,6.646-2.042c1.074-0.35,2.165-0.689,2.219-2.264c0.133-3.841-3.818-8.745-7.323-8.914
				C307.373,34.001,302.768,37.519,302.809,43.112z M266.213,47.591c-1.511,0.533-3.438,1.083-5.254,1.884
				c-2.4,1.059-4.35,2.601-3.929,5.648c0.405,2.934,2.149,4.742,4.931,5.663c2.148,0.711,5.959-0.807,6.277,1.527
				c0.408,3.003-3.684,2.321-5.717,3.405c-1.219,0.649-1.834,1.294-1.555,2.667c0.297,1.46,1.274,1.917,2.576,1.601
				c2.734-0.663,5.58-1.172,7.779-3.097c1.69-1.479,2.789-3.267,2.007-5.719c-0.79-2.479-2.313-3.925-4.98-4.169
				c-2.207-0.202-5.584,0.614-5.972-2.069c-0.385-2.659,3.217-1.998,4.995-2.895c1.206-0.608,1.897-1.237,1.661-2.635
				C268.798,48.015,268.02,47.383,266.213,47.591z M344.117,16.569c-5.527,0.124-10.346,3.138-10.838,6.966
				c-0.226,1.744-0.554,3.979,1.902,4.408c2.059,0.36,3.498-0.618,3.396-3.095c-0.126-3.085,2.51-3.101,4.46-3.648
				c1.523-0.427,2.414,0.595,2.957,1.989c0.824,2.119,1.405,4.077-1.072,5.615c-2.113,1.313-3.293,3.253-3.044,5.841
				c0.11,1.14,0.14,2.525,1.729,2.542c1.29,0.014,3.146-0.052,3.111-1.713c-0.051-2.514,1.799-3.346,3.156-4.704
				c3.009-3.009,2.126-6.395,0.737-9.707C349.433,18.254,347.324,16.554,344.117,16.569z M231.958,79.931
				c0.575-0.15,1.412-0.264,2.159-0.586c1.373-0.591,3.78-0.132,3.481-2.627c-0.287-2.398-1.821-2.659-4.006-1.953
				c-1.972,0.637-2.845-1.256-2.934-2.577c-0.189-2.812-3.486-5.294-0.875-8.393c5.1-6.051-5.603-3.262-4.36-7.621
				c0.262-0.918-3.088-0.689-3.242,0.045c-0.606,2.894-2.993,7.156-1.008,8.54c3.757,2.621,3.503,6.362,4.895,9.627
				C227.204,77.055,228.245,79.67,231.958,79.931z M334.069,44.746c-2.019,0.923-3.254-0.784-3.416-2.595
				c-0.25-2.789-3.473-5.242-0.849-8.382c5.012-5.995-5.583-3.274-4.401-7.625c0.245-0.901-3.134-0.616-3.252,0.086
				c-0.493,2.924-3.042,7.142-0.966,8.566c3.965,2.721,3.573,6.704,5.02,10.11c2.044,4.81,4.629,6.02,9.406,4.075
				c1.318-0.537,2.539-0.938,1.863-2.777C336.948,44.773,336.215,43.848,334.069,44.746z M251.613,74.064
				c1.527-0.471,3.336-0.859,4.998-1.583c2.127-0.926,2.066-3.374,0.604-3.901c-3.549-1.278-3.053-4.438-4.059-6.849
				c-0.953-2.286-1.445-4.762-2.192-7.138c-0.453-1.441-1.542-1.706-2.77-1.111c-1.421,0.689-3.614,0.1-4.18,2.151
				c-0.296,1.077,0.015,2.17,1.098,3.063c3.816,3.146,4.895,7.274,3.513,12.033C247.965,73.002,248.879,74.243,251.613,74.064z
				M346.842,40.887c-1.432,0.153-2.852,0.28-2.749,2.105c0.074,1.318,0.422,2.805,2.16,2.564c1.146-0.159,2.752-0.291,2.72-2.146
				C348.947,41.958,348.468,40.861,346.842,40.887z M246.284,50.12c1.191-0.206,2.679-0.196,2.629-2.049
				c-0.036-1.335-0.354-2.816-2.081-2.631c-1.142,0.123-2.765,0.23-2.783,2.064C244.035,48.926,244.464,50.077,246.284,50.12z"/>
			<path fill-rule="evenodd" clip-rule="evenodd" fill="#F2F8F0" d="M192.042,90.938c-3.476-2.356-5.897-1.024-8.361,2.408
				c-1.476,2.056-9.749-1.335-10.729-4.3c-1.719-5.197-3.239-10.46-4.786-15.712c-0.499-1.695-0.58-3.339,1.601-4.034
				c2.395-0.763,2.787,0.946,3.282,2.601c1.188,3.974,2.479,7.919,3.589,11.915c0.674,2.428,1.71,4.948,4.523,4.057
				c2.44-0.773,2.026-3.307,1.296-5.569c-1.325-4.104-2.325-8.312-3.629-12.422c-0.601-1.892-0.623-3.177,1.631-3.764
				c2.015-0.524,2.682,0.642,3.146,2.208c1.134,3.817,2.253,7.639,3.408,11.45c0.755,2.494,1.29,6.077,4.752,4.976
				c3.508-1.116,1.646-4.479,1.032-6.889c-0.941-3.694-2.105-7.334-3.274-10.966c-0.567-1.763-0.922-3.238,1.479-3.84
				c2.248-0.563,2.85,0.721,3.364,2.533c1.495,5.266,3.2,10.473,4.661,15.747C199.826,84.229,194.961,91.03,192.042,90.938z"/>
			<path fill-rule="evenodd" clip-rule="evenodd" fill="#F2F8F0" d="M280.15,38.695c-0.374-2.314-0.066-3.328,1.385-3.644
				c1.225-0.267,2.357-0.185,2.918,1.161c0.317,0.76,0.559,1.56,0.748,2.362c0.705,2.988,1.269,5.386,5.201,2.477
				c3.113-2.302,5.996-0.865,7.815,2.451c2.262,4.121,2.831,8.816,4.425,13.166c0.65,1.775-0.689,2.279-1.982,2.797
				c-1.771,0.708-2.367-0.261-2.795-1.74c-0.92-3.183-1.883-6.355-2.893-9.51c-0.496-1.551-0.916-3.63-3.138-3.011
				c-2.04,0.569-3.442,2.288-3.009,4.554c0.559,2.92,1.429,5.791,2.324,8.633c0.586,1.863,1.25,3.557-1.361,4.364
				c-2.467,0.762-2.722-1.073-3.201-2.666C284.346,52.635,282.102,45.18,280.15,38.695z"/>
			<path fill-rule="evenodd" clip-rule="evenodd" fill="#F2F8F0" d="M219.007,83.18c-1.711-1.474-2.554,0.101-3.715,0.934
				c-4.896,3.512-8.667,2.549-11.215-2.892c-0.768-1.638-1.363-3.389-1.791-5.148c-1.624-6.679-0.318-9.06,6.42-10.974
				c10.258-2.914,7.699-3.686,10.868,5.625c0.959,2.817,1.575,5.75,2.524,8.57C223.125,82.342,221.74,83.219,219.007,83.18z
				M206.355,72.989c0.43,1.494,0.836,3.26,1.446,4.954c1.429,3.969,3.98,4.361,6.811,1.301c2.666-2.882,0.483-5.562-0.081-8.305
				c-0.438-2.133-1.991-2.524-3.734-1.765C209.042,69.938,206.185,69.496,206.355,72.989z"/>
			<path fill-rule="evenodd" clip-rule="evenodd" fill="#F2F8F0" d="M302.809,43.112c-0.041-5.593,4.564-9.111,10.48-8.826
				c3.505,0.168,7.456,5.072,7.323,8.914c-0.054,1.574-1.145,1.914-2.219,2.264c-2.204,0.719-4.497,1.195-6.646,2.042
				c-0.818,0.323-2.792-0.112-2.198,1.82c0.363,1.184,1.479,1.699,2.78,1.704c2.28,0.009,4.194-0.9,5.902-2.305
				c1.426-1.173,2.738-1.16,3.823,0.368c1.139,1.605-0.246,2.448-1.239,3.23c-3.412,2.691-7.243,4.437-11.504,2.543
				C303.965,52.49,303.511,47.252,302.809,43.112z M314.984,41.542c-0.527-2.024-1.682-2.814-3.371-2.455
				c-1.902,0.404-4.082,0.746-4.247,3.308c-0.101,1.573,1.11,1.961,2.359,1.576C311.598,43.394,313.971,43.655,314.984,41.542z"/>
			<path fill-rule="evenodd" clip-rule="evenodd" fill="#F2F8F0" d="M266.213,47.591c1.807-0.208,2.585,0.424,2.82,1.811
				c0.236,1.398-0.455,2.027-1.661,2.635c-1.778,0.896-5.38,0.235-4.995,2.895c0.388,2.683,3.765,1.867,5.972,2.069
				c2.667,0.244,4.19,1.69,4.98,4.169c0.782,2.452-0.316,4.239-2.007,5.719c-2.199,1.925-5.045,2.434-7.779,3.097
				c-1.302,0.316-2.279-0.141-2.576-1.601c-0.279-1.373,0.336-2.017,1.555-2.667c2.033-1.084,6.125-0.402,5.717-3.405
				c-0.318-2.334-4.129-0.816-6.277-1.527c-2.781-0.921-4.525-2.729-4.931-5.663c-0.421-3.047,1.528-4.589,3.929-5.648
				C262.775,48.673,264.702,48.124,266.213,47.591z"/>
			<path fill-rule="evenodd" clip-rule="evenodd" fill="#F2F8F0" d="M344.117,16.569c3.207-0.016,5.315,1.685,6.496,4.497
				c1.389,3.312,2.271,6.697-0.737,9.707c-1.357,1.358-3.207,2.189-3.156,4.704c0.034,1.661-1.821,1.727-3.111,1.713
				c-1.59-0.017-1.619-1.403-1.729-2.542c-0.249-2.588,0.931-4.529,3.044-5.841c2.478-1.538,1.896-3.497,1.072-5.615
				c-0.543-1.394-1.434-2.417-2.957-1.989c-1.95,0.547-4.586,0.563-4.46,3.648c0.102,2.478-1.338,3.456-3.396,3.095
				c-2.456-0.43-2.128-2.664-1.902-4.408C333.771,19.707,338.59,16.693,344.117,16.569z"/>
			<path fill-rule="evenodd" clip-rule="evenodd" fill="#F2F8F0" d="M231.958,79.931c-3.713-0.26-4.754-2.876-5.891-5.545
				c-1.391-3.265-1.137-7.006-4.895-9.627c-1.985-1.384,0.401-5.646,1.008-8.54c0.154-0.734,3.504-0.964,3.242-0.045
				c-1.242,4.359,9.46,1.57,4.36,7.621c-2.611,3.098,0.686,5.581,0.875,8.393c0.089,1.321,0.962,3.214,2.934,2.577
				c2.185-0.706,3.72-0.445,4.006,1.953c0.299,2.495-2.108,2.036-3.481,2.627C233.37,79.667,232.533,79.781,231.958,79.931z"/>
			<path fill-rule="evenodd" clip-rule="evenodd" fill="#F2F8F0" d="M334.069,44.746c2.146-0.898,2.879,0.028,3.405,1.458
				c0.676,1.84-0.545,2.241-1.863,2.777c-4.777,1.945-7.362,0.735-9.406-4.075c-1.446-3.406-1.055-7.389-5.02-10.11
				c-2.076-1.425,0.473-5.642,0.966-8.566c0.118-0.702,3.497-0.987,3.252-0.086c-1.182,4.35,9.413,1.63,4.401,7.625
				c-2.624,3.14,0.599,5.593,0.849,8.382C330.815,43.962,332.051,45.668,334.069,44.746z"/>
			<path fill-rule="evenodd" clip-rule="evenodd" fill="#F2F8F0" d="M251.613,74.064c-2.734,0.179-3.648-1.062-2.988-3.334
				c1.382-4.759,0.303-8.887-3.513-12.033c-1.083-0.893-1.394-1.986-1.098-3.063c0.565-2.051,2.759-1.462,4.18-2.151
				c1.229-0.595,2.317-0.33,2.77,1.111c0.747,2.376,1.239,4.852,2.192,7.138c1.006,2.411,0.51,5.571,4.059,6.849
				c1.463,0.527,1.523,2.975-0.604,3.901C254.949,73.205,253.141,73.593,251.613,74.064z"/>
			<path fill-rule="evenodd" clip-rule="evenodd" fill="#F2F8F0" d="M346.842,40.887c1.626-0.026,2.105,1.071,2.131,2.523
				c0.032,1.856-1.574,1.988-2.72,2.146c-1.738,0.241-2.086-1.246-2.16-2.564C343.99,41.167,345.41,41.041,346.842,40.887z"/>
			<path fill-rule="evenodd" clip-rule="evenodd" fill="#F2F8F0" d="M246.284,50.12c-1.82-0.043-2.25-1.194-2.235-2.616
				c0.018-1.834,1.641-1.941,2.783-2.064c1.728-0.185,2.045,1.295,2.081,2.631C248.963,49.924,247.475,49.915,246.284,50.12z"/>
			<path fill-rule="evenodd" clip-rule="evenodd" fill="#F8E44A" d="M206.355,72.989c-0.17-3.494,2.687-3.051,4.441-3.815
				c1.744-0.759,3.296-0.368,3.734,1.765c0.564,2.743,2.747,5.423,0.081,8.305c-2.831,3.06-5.381,2.668-6.811-1.301
				C207.192,76.25,206.786,74.483,206.355,72.989z"/>
			<path fill-rule="evenodd" clip-rule="evenodd" fill="#F8E44A" d="M314.984,41.542c-1.014,2.112-3.387,1.851-5.259,2.429
				c-1.249,0.385-2.46-0.002-2.359-1.576c0.165-2.562,2.345-2.903,4.247-3.308C313.303,38.729,314.457,39.518,314.984,41.542z"/>
		</g>
	</a>
	<a xlink:href="../hun-verhaal" target='_top'>
		<g id="HOEPAGE-hun" class="svgnavani">
			<path fill-rule="evenodd" clip-rule="evenodd" fill="#F2F8F0" d="M403.63,333.692c8.416,2.309,15.603,4.311,22.811,6.232
				c1.521,0.405,2.338,0.911,1.888,2.728c-0.43,1.732-1.119,2.724-3.039,2.231c-1.285-0.33-2.646-0.505-3.834-1.05
				c-3.685-1.691-5.115-0.48-6.092,3.391c-0.901,3.568-0.233,4.893,3.287,5.89c2.104,0.596,6.938-0.768,5.607,3.922
				c-1.244,4.385-4.768,1.126-7.001,0.662c-5.669-1.177-11.201-3.003-16.804-4.51c-1.666-0.448-3.232-0.591-2.665-3.132
				c0.639-2.863,2.424-2.117,4.19-1.738c0.807,0.173,1.583,0.483,2.383,0.699c5.323,1.436,7.604-0.493,7.658-6.163
				c0.016-1.731-0.958-1.787-2.087-2.083c-2.085-0.547-4.146-1.183-6.228-1.746c-1.592-0.432-2.782-0.99-2.167-3.079
				C402.073,334.126,403.063,333.505,403.63,333.692z"/>
			<path fill-rule="evenodd" clip-rule="evenodd" fill="#F2F8F0" d="M425.061,334.431c-3.65-0.997-7.8-2.182-11.98-3.246
				c-1.577-0.402-2.346-1.125-1.893-2.798c0.463-1.707,1.35-2.539,3.271-1.955c3.015,0.917,6.044,1.83,9.125,2.467
				c1.593,0.329,3.984,1.488,4.509-1.262c0.416-2.179-0.255-4.304-2.957-5.004c-2.892-0.75-5.735-1.69-8.634-2.407
				c-1.66-0.411-2.807-0.929-2.316-2.981c0.535-2.239,1.83-2.316,3.745-1.762c4.624,1.341,9.31,2.469,13.939,3.791
				c1.027,0.293,3.154,0.895,2.567,1.744c-2.531,3.663-0.52,8.608-3.652,11.937C429.397,334.43,427.464,334.263,425.061,334.431z"/>
			<path fill-rule="evenodd" clip-rule="evenodd" fill="#F2F8F0" d="M424.902,295.706c4.327,1.134,8.656,2.263,12.981,3.405
				c1.554,0.41,2.176,1.235,1.584,2.936c-0.524,1.508-1.306,2.265-2.917,1.824c-3.201-0.875-6.372-1.869-9.601-2.622
				c-1.512-0.352-3.649-1.177-4.266,1.05c-0.604,2.182,0.079,4.42,2.549,5.253c2.828,0.953,5.754,1.614,8.636,2.411
				c1.609,0.444,3.348,0.63,2.567,3.196c-0.722,2.378-2.268,2.003-3.916,1.562c-4.649-1.245-9.288-2.529-13.928-3.81
				c-1.121-0.309-2.988-1.088-2.292-1.981c2.608-3.345,0.757-7.794,3.146-11.045C420.787,296.059,422.771,295.862,424.902,295.706z"/>
			<path fill-rule="evenodd" clip-rule="evenodd" fill="#F2F8F0" d="M439.421,276.661c-3.647-2.854-5.999-5.991-10.031-6.698
				c-1.511-0.266-2.418-0.971-1.938-2.733c0.448-1.641,1.162-2.582,3.124-2.225c6.904,1.255,10.853,6.643,15.271,11.184
				c1.067,1.096,0.62,4.375-1.809,4.854c-5.57,1.097-10.986,3.795-16.943,1.975c-1.877-0.574-3.58-0.9-2.956-3.511
				c0.577-2.413,2.134-2,3.837-1.559C431.653,278.901,435.13,277.883,439.421,276.661z"/>
			<path fill-rule="evenodd" clip-rule="evenodd" fill="#72C04D" d="M434.814,254.963c0.389-1.794,0.321-4.08,3.129-4.178
				c0.978-0.034,2.403,0.213,1.733,1.554c-0.947,1.897,0.33,5.172-2.892,5.597C435.261,258.138,434.69,256.594,434.814,254.963z"/>
			<g>
				<path fill-rule="evenodd" clip-rule="evenodd" fill="#72C04D" d="M503,416c-9.277-0.597-18.56-1.122-27.831-1.803
					c-48.868-3.59-95.418-16.196-140.027-36.225c-7.441-3.341-14.621-7.266-22.063-10.603c-3.496-1.567-3.752-3.083-1.909-6.332
					c21.846-38.509,43.553-77.095,65.294-115.661c27.627-49.006,55.283-97.996,82.812-147.058c1.938-3.456,3.266-4.627,7.508-2.769
					c11.479,5.028,23.721,7.442,36.218,8.449C503,208,503,312,503,416z M403.63,333.692c-0.567-0.188-1.557,0.434-2.092,2.254
					c-0.615,2.089,0.575,2.647,2.167,3.079c2.081,0.563,4.143,1.199,6.228,1.746c1.129,0.296,2.103,0.352,2.087,2.083
					c-0.054,5.67-2.335,7.599-7.658,6.163c-0.8-0.216-1.576-0.526-2.383-0.699c-1.767-0.379-3.552-1.125-4.19,1.738
					c-0.567,2.541,0.999,2.684,2.665,3.132c5.603,1.507,11.135,3.333,16.804,4.51c2.233,0.464,5.757,3.723,7.001-0.662
					c1.331-4.689-3.503-3.326-5.607-3.922c-3.521-0.997-4.188-2.321-3.287-5.89c0.977-3.871,2.407-5.082,6.092-3.391
					c1.188,0.545,2.549,0.72,3.834,1.05c1.92,0.492,2.609-0.499,3.039-2.231c0.45-1.816-0.366-2.322-1.888-2.728
					C419.232,338.003,412.046,336.001,403.63,333.692z M462.74,216.78c0.059-0.68-0.527-1.296-1.37-1.492
					c-4.833-1.119-9.448-3.201-14.511-3.313c-3.181-0.07-5.634,1.73-5.509,4.561c0.245,5.567-2.383,4.833-5.913,3.617
					c-1.52-0.523-3.238-1.048-4.006,1.381c-0.77,2.435,0.794,2.867,2.473,3.324c7.204,1.961,14.406,3.927,21.617,5.863
					c1.647,0.443,3.193,0.815,3.915-1.562c0.779-2.565-0.956-2.752-2.566-3.197c-2.881-0.796-5.803-1.466-8.635-2.406
					c-2.49-0.828-3.148-3.066-2.558-5.245c0.604-2.231,2.744-1.419,4.256-1.066c3.065,0.715,6.086,1.637,9.104,2.542
					C461.51,220.53,462.337,219.16,462.74,216.78z M458.775,210.673c4.554-0.125,7.305-3.37,7.123-8.008
					c-0.043-1.094-1.366-2.265-0.229-3.229c5.297-4.493,0.697-4.913-2.395-5.921c-1.569-0.512-3.182-0.896-4.775-1.331
					c-10.97-2.997-10.929-2.988-13.179,8.026c-0.735,3.597,0.361,6.103,3.648,7.78C452.131,209.604,455.537,210.176,458.775,210.673z
					M437.509,245.96c-2.38-0.537-4.599,0.681-5.73,3.511c-1.352,3.375-3.03,6.872-0.715,10.455
					c1.883,2.914,10.424,5.293,14.317,3.987c4.405-1.478,5.922-5.198,6.221-9.357c0.146-2.043,0.997-5.33-2.322-5.543
					c-3.67-0.235-1.765,3.074-2.198,4.872c-0.116,0.479-0.033,1.006-0.145,1.486c-0.467,2.01-1.263,4.536-3.578,3.937
					c-2.703-0.7-0.097-2.965-0.292-4.531c-0.074-0.598,0.386-1.254,0.563-1.894C445.233,247.105,444.428,246.081,437.509,245.96z
					M461.273,159.897c-2.919-0.515-4.817,1.553-6.033,4.622c-3.102,7.822-0.568,11.878,8.38,13.436
					c7.948,1.383,13.782-4.77,11.877-12.548c-0.309-1.259-0.429-2.688-2.388-2.526c-1.777,0.146-2.172,1.132-2.104,2.684
					c0.057,1.325,0.131,2.694-0.128,3.978c-0.404,2.008-1.299,4.435-3.697,3.76c-2.48-0.698-0.019-2.752-0.167-4.207
					c-0.062-0.61,0.331-1.27,0.528-1.903C469.398,161.25,469.848,160.748,461.273,159.897z M425.061,334.431
					c2.403-0.168,4.337-0.001,5.725-1.477c3.133-3.328,1.121-8.273,3.652-11.937c0.587-0.85-1.54-1.451-2.567-1.744
					c-4.63-1.322-9.315-2.45-13.939-3.791c-1.915-0.555-3.21-0.478-3.745,1.762c-0.49,2.053,0.656,2.57,2.316,2.981
					c2.898,0.717,5.742,1.657,8.634,2.407c2.702,0.7,3.373,2.825,2.957,5.004c-0.524,2.75-2.916,1.591-4.509,1.262
					c-3.081-0.637-6.11-1.55-9.125-2.467c-1.922-0.584-2.809,0.248-3.271,1.955c-0.453,1.673,0.315,2.396,1.893,2.798
					C417.261,332.249,421.41,333.434,425.061,334.431z M424.902,295.706c-2.131,0.156-4.115,0.353-5.456,2.179
					c-2.389,3.251-0.537,7.7-3.146,11.045c-0.696,0.894,1.171,1.673,2.292,1.981c4.64,1.28,9.278,2.564,13.928,3.81
					c1.648,0.441,3.194,0.816,3.916-1.562c0.78-2.566-0.958-2.752-2.567-3.196c-2.882-0.797-5.808-1.458-8.636-2.411
					c-2.47-0.833-3.153-3.071-2.549-5.253c0.616-2.227,2.754-1.401,4.266-1.05c3.229,0.753,6.399,1.747,9.601,2.622
					c1.611,0.44,2.393-0.316,2.917-1.824c0.592-1.7-0.03-2.525-1.584-2.936C433.559,297.969,429.229,296.84,424.902,295.706z
					M468.177,140.057c-3.368-0.158-5.238-0.053-6.492,1.572c-2.572,3.334-1.092,7.889-3.379,11.438
					c-0.595,0.923,1.314,1.569,2.434,1.876c4.642,1.276,9.279,2.563,13.923,3.829c1.741,0.475,3.213,0.545,3.819-1.759
					c0.688-2.616-1.217-2.644-2.763-3.077c-2.559-0.717-5.118-1.439-7.698-2.074c-2.819-0.693-3.95-2.871-3.415-5.24
					c0.646-2.856,3.123-1.604,4.956-1.157c3.063,0.747,6.093,1.623,9.141,2.427c1.715,0.452,2.322-0.588,2.812-1.991
					c0.498-1.427,0.042-2.325-1.296-2.689C475.743,141.994,471.246,140.856,468.177,140.057z M439.421,276.661
					c-4.291,1.222-7.768,2.24-11.444,1.286c-1.703-0.441-3.26-0.854-3.837,1.559c-0.624,2.61,1.079,2.937,2.956,3.511
					c5.957,1.82,11.373-0.878,16.943-1.975c2.429-0.479,2.876-3.758,1.809-4.854c-4.419-4.541-8.367-9.929-15.271-11.184
					c-1.962-0.357-2.676,0.584-3.124,2.225c-0.48,1.763,0.427,2.468,1.938,2.733C433.422,270.67,435.773,273.807,439.421,276.661z
					M471.362,184.504c0.309-2.071-1.563-3.095-2.632-2.345c-3.728,2.615-6.89,0.042-10.182-0.625
					c-4.225-0.856-8.344-2.229-12.521-3.332c-1.328-0.35-2.69-0.558-3.192,1.291c-0.47,1.728-1.643,3.503-0.436,5.203
					c0.421,0.593,2.389,0.981,2.654,0.653c2.386-2.936,4.916-0.827,7.263-0.28c4.527,1.055,9.084,2.143,13.44,3.733
					C470.246,190.441,470.91,187.838,471.362,184.504z M452.215,244.857c1.876,0.59,2.78-0.184,3.299-1.935
					c0.546-1.844-0.544-2.39-1.894-2.782c-1.902-0.553-3.855-0.939-5.737-1.55c-3.383-1.099-8.223-0.836-6.499-6.904
					c0.286-1.006-0.909-1.582-1.996-1.696c-1.118-0.118-2.264,0.221-2.214,1.358c0.112,2.563-0.906,4.685-1.893,6.914
					c-0.608,1.373,0.52,2.161,1.707,2.49C442.075,242.162,447.181,243.506,452.215,244.857z"/>
				<path fill-rule="evenodd" clip-rule="evenodd" fill="#F2F8F0" d="M462.74,216.78c-0.403,2.38-1.23,3.75-3.703,3.008
					c-3.018-0.906-6.038-1.827-9.104-2.542c-1.512-0.353-3.651-1.165-4.256,1.066c-0.591,2.178,0.067,4.417,2.558,5.245
					c2.832,0.94,5.754,1.61,8.635,2.406c1.61,0.445,3.346,0.632,2.566,3.197c-0.722,2.377-2.268,2.005-3.915,1.562
					c-7.211-1.936-14.413-3.901-21.617-5.863c-1.679-0.457-3.242-0.89-2.473-3.324c0.768-2.43,2.486-1.905,4.006-1.381
					c3.53,1.215,6.158,1.95,5.913-3.617c-0.125-2.831,2.328-4.631,5.509-4.561c5.063,0.112,9.678,2.194,14.511,3.313
					C462.213,215.483,462.799,216.1,462.74,216.78z"/>
				<path fill-rule="evenodd" clip-rule="evenodd" fill="#F2F8F0" d="M458.775,210.673c-3.238-0.497-6.645-1.068-9.807-2.683
					c-3.287-1.678-4.384-4.184-3.648-7.78c2.25-11.015,2.209-11.023,13.179-8.026c1.594,0.436,3.206,0.819,4.775,1.331
					c3.092,1.008,7.691,1.429,2.395,5.921c-1.137,0.963,0.187,2.134,0.229,3.229C466.08,207.303,463.329,210.548,458.775,210.673z
					M457.108,205.724c3.129,0.741,4.241-0.816,4.353-3.063c0.263-5.317-3.976-5.741-7.635-6.585
					c-4.277-0.987-3.625,2.932-3.747,4.729C449.715,206.204,455.052,204.12,457.108,205.724z"/>
				<path fill-rule="evenodd" clip-rule="evenodd" fill="#F2F8F0" d="M437.509,245.96c6.919,0.121,7.725,1.145,6.121,6.923
					c-0.178,0.64-0.638,1.296-0.563,1.894c0.195,1.566-2.411,3.831,0.292,4.531c2.315,0.6,3.111-1.927,3.578-3.937
					c0.111-0.48,0.028-1.008,0.145-1.486c0.434-1.798-1.472-5.107,2.198-4.872c3.319,0.213,2.469,3.5,2.322,5.543
					c-0.299,4.159-1.815,7.88-6.221,9.357c-3.894,1.306-12.435-1.073-14.317-3.987c-2.315-3.583-0.637-7.08,0.715-10.455
					C432.91,246.641,435.129,245.423,437.509,245.96z M434.814,254.963c-0.124,1.631,0.446,3.175,1.971,2.973
					c3.222-0.425,1.944-3.699,2.892-5.597c0.67-1.341-0.756-1.588-1.733-1.554C435.136,250.883,435.203,253.169,434.814,254.963z"/>
				<path fill-rule="evenodd" clip-rule="evenodd" fill="#F2F8F0" d="M461.273,159.897c8.574,0.851,8.125,1.353,6.268,7.294
					c-0.197,0.633-0.59,1.293-0.528,1.903c0.148,1.455-2.313,3.509,0.167,4.207c2.398,0.675,3.293-1.752,3.697-3.76
					c0.259-1.284,0.185-2.652,0.128-3.978c-0.067-1.552,0.327-2.538,2.104-2.684c1.959-0.162,2.079,1.267,2.388,2.526
					c1.905,7.778-3.929,13.932-11.877,12.548c-8.948-1.557-11.481-5.613-8.38-13.436C456.456,161.45,458.354,159.382,461.273,159.897z
					M461.275,172.164c2.084-0.974,1.519-3.519,2.313-5.314c0.715-1.613-0.248-2.108-1.645-2.077
					c-2.494,0.056-2.739,1.991-3.063,3.814C458.588,170.241,458.926,171.57,461.275,172.164z"/>
				<path fill-rule="evenodd" clip-rule="evenodd" fill="#F2F8F0" d="M468.177,140.057c3.069,0.799,7.566,1.937,12.041,3.155
					c1.338,0.364,1.794,1.262,1.296,2.689c-0.489,1.403-1.097,2.443-2.812,1.991c-3.048-0.804-6.078-1.68-9.141-2.427
					c-1.833-0.447-4.311-1.699-4.956,1.157c-0.535,2.37,0.596,4.547,3.415,5.24c2.58,0.634,5.14,1.357,7.698,2.074
					c1.546,0.433,3.451,0.46,2.763,3.077c-0.606,2.305-2.078,2.234-3.819,1.759c-4.644-1.266-9.281-2.553-13.923-3.829
					c-1.119-0.308-3.028-0.954-2.434-1.876c2.287-3.549,0.807-8.104,3.379-11.438C462.938,140.004,464.809,139.899,468.177,140.057z"
					/>
				<path fill-rule="evenodd" clip-rule="evenodd" fill="#F2F8F0" d="M471.362,184.504c-0.452,3.334-1.116,5.937-5.605,4.298
					c-4.356-1.59-8.913-2.678-13.44-3.733c-2.347-0.547-4.877-2.655-7.263,0.28c-0.266,0.328-2.233-0.06-2.654-0.653
					c-1.207-1.7-0.034-3.476,0.436-5.203c0.502-1.849,1.864-1.641,3.192-1.291c4.178,1.102,8.297,2.475,12.521,3.332
					c3.292,0.667,6.454,3.24,10.182,0.625C469.799,181.409,471.671,182.433,471.362,184.504z"/>
				<path fill-rule="evenodd" clip-rule="evenodd" fill="#F2F8F0" d="M452.215,244.857c-5.034-1.351-10.14-2.696-15.227-4.106
					c-1.188-0.329-2.315-1.117-1.707-2.49c0.986-2.229,2.005-4.35,1.893-6.914c-0.05-1.137,1.096-1.476,2.214-1.358
					c1.087,0.115,2.282,0.69,1.996,1.696c-1.724,6.068,3.116,5.805,6.499,6.904c1.882,0.611,3.835,0.998,5.737,1.55
					c1.35,0.392,2.439,0.938,1.894,2.782C454.995,244.673,454.091,245.447,452.215,244.857z"/>
				<path fill-rule="evenodd" clip-rule="evenodd" fill="#72C04D" d="M457.108,205.724c-2.057-1.604-7.394,0.48-7.029-4.918
					c0.122-1.797-0.53-5.717,3.747-4.729c3.659,0.845,7.897,1.268,7.635,6.585C461.35,204.908,460.237,206.465,457.108,205.724z"/>
				<path fill-rule="evenodd" clip-rule="evenodd" fill="#72C04D" d="M461.275,172.164c-2.35-0.594-2.688-1.923-2.395-3.577
					c0.324-1.823,0.569-3.758,3.063-3.814c1.396-0.032,2.359,0.464,1.645,2.077C462.794,168.645,463.359,171.189,461.275,172.164z"/>
			</g>
		</g>
	</a>
	<a xlink:href="../waar-kan-je-terecht" target='_top'>
		<g id="HOEPAGE-waar" class="svgnavani">
			<path fill-rule="evenodd" clip-rule="evenodd" fill="#FFFEFE" d="M290.996,354.856c1.634-0.523,1.91-1.959,2.527-3.053
				c49.761-88.23,99.49-176.479,149.289-264.688c1.422-2.519,1.371-3.871-1.171-5.62c-8.562-5.894-16.014-13.093-22.269-21.352
				c-2.616-3.454-4.342-3.545-7.921-1.399c-40.088,24.033-80.294,47.87-120.464,71.766c-46.031,27.383-92.033,54.817-138.138,82.076
				c-3.581,2.117-3.984,3.483-1.687,7.015c35.641,54.789,81.181,99.382,136.922,133.539
				C289.072,353.745,290.078,354.316,290.996,354.856z"/>
			<path fill-rule="evenodd" clip-rule="evenodd" fill="#E1503B" d="M290.996,354.856c-0.918-0.54-1.924-1.111-2.91-1.716
				c-55.741-34.156-101.281-78.75-136.922-133.539c-2.297-3.532-1.894-4.898,1.687-7.015c46.105-27.259,92.106-54.692,138.138-82.076
				c40.17-23.896,80.376-47.732,120.464-71.766c3.579-2.146,5.305-2.055,7.921,1.399c6.255,8.259,13.707,15.458,22.269,21.352
				c2.542,1.749,2.593,3.102,1.171,5.62c-49.799,88.209-99.528,176.457-149.289,264.688
				C292.906,352.897,292.63,354.333,290.996,354.856z M255.271,261.462c0.281-1.267-0.378-2.153-1.265-3.003
				c-3.961-3.797-7.913-7.604-11.825-11.453c-1.42-1.397-2.562-2.423-4.445-0.381c-2.047,2.22-0.242,3.198,1.008,4.41
				c2.984,2.892,5.974,5.779,9.039,8.584c1.863,1.704,3.496,3.935,1.505,5.875c-1.561,1.521-3.941,0.404-5.645-1.374
				c-2.989-3.12-6.165-6.063-9.263-9.078c-1.182-1.15-2.185-2.59-4.066-0.75c-1.827,1.786-1.299,3.044,0.338,4.519
				c3.087,2.778,6.018,5.733,9.131,8.48c1.934,1.705,3.457,4.136,1.87,5.976c-1.817,2.105-4.181,0.289-5.919-1.399
				c-3.22-3.128-6.501-6.193-9.657-9.384c-1.354-1.369-2.38-1.4-3.72-0.02c-1.301,1.342-1.429,2.417-0.004,3.758
				c4.236,3.988,8.313,8.15,12.634,12.043c3.686,3.319,11.183,0.498,12.001-4.403c0.226-1.354,0.241-2.9,2.038-2.862
				C256.217,271.149,254.549,265.535,255.271,261.462z M360.326,130.018c-1.765-1.61-3.5-3.131-5.16-4.729
				c-1.104-1.062-2.052-1.616-3.286-0.127c-1.055,1.272-1.736,2.272-0.165,3.752c5.81,5.471,11.544,11.024,17.26,16.593
				c1.347,1.312,2.379,1.346,3.743-0.029c1.5-1.512,0.908-2.508-0.35-3.687c-2.304-2.159-4.587-4.345-6.773-6.621
				c-1.855-1.931-1.347-4.238,0.2-5.81c1.544-1.569,3.035,0.103,4.233,1.209c2.441,2.254,4.82,4.575,7.224,6.87
				c1.248,1.192,2.342,0.879,3.42-0.283c1.086-1.171,1.23-2.219-0.043-3.393c-2.321-2.141-4.552-4.379-6.86-6.534
				C367.439,121.321,363.905,122.002,360.326,130.018z M260.512,258.002c1.205,0,1.539,0.032,1.865-0.005
				c1.455-0.165,10.317-8.421,10.605-9.822c0.292-1.421-0.762-2.094-1.573-2.867c-2.272-2.166-4.562-4.317-6.888-6.426
				c-5.818-5.276-5.848-5.286-11.384,0.445c-2.389,2.473-5.56,4.887-3.507,8.912C252.106,253.095,255.872,256.674,260.512,258.002z
				M277.532,242.218c1.091-0.338,2.106-0.473,2.936-0.94c3.552-2.002,4.284-6.647,8.149-8.578c1.371-0.685-0.059-2.321-1.033-3.235
				c-2.41-2.262-4.817-4.528-7.262-6.753c-5.601-5.098-5.637-5.115-11.016,0.45c-2.492,2.578-5.875,5.063-3.563,9.311
				C268.336,237.237,272.02,240.908,277.532,242.218z M342.084,173.393c4.365,0.083,9.762-4.955,10.41-9.378
				c0.246-1.677-0.678-2.013-1.695-2.529c-1.436-0.727-2.233,0.1-2.667,1.302c-0.752,2.085-1.808,3.952-3.68,5.179
				c-1.084,0.71-2.392,1.57-3.621,0.351c-1.607-1.594,0.398-2.209,1.087-3.02c1.506-1.771,3.228-3.356,4.786-5.084
				c0.612-0.679,1.349-1.271,0.757-2.558c-2.114-4.59-8.747-6.369-12.566-3.083c-2.893,2.489-6.06,5.097-4.555,9.642
				C331.604,168.035,338.573,173.327,342.084,173.393z M318.107,198.394c4.363,0.068,9.775-5,10.396-9.4
				c0.237-1.685-0.713-2.006-1.725-2.514c-1.444-0.725-2.218,0.135-2.652,1.331c-0.758,2.081-1.814,3.948-3.692,5.17
				c-1.089,0.709-2.406,1.557-3.619,0.323c-1.57-1.6,0.431-2.208,1.12-3.021c1.504-1.771,3.226-3.357,4.784-5.085
				c0.613-0.68,1.338-1.272,0.729-2.561c-2.174-4.605-8.741-6.352-12.571-3.048c-2.891,2.493-6.056,5.103-4.527,9.648
				C307.645,193.087,314.583,198.338,318.107,198.394z M396.066,99.572c-0.297-3.355-3.04-5.993-6.71-7.448
				c-4.658-1.847-7.469,1.546-10.072,4.575c-2.228,2.592-2.974,5.605-0.765,8.663c0.787,1.089,1.458,3.075,3.382,1.721
				c1.276-0.898,2.979-1.995,1.342-4.003c-2.035-2.497,0.021-3.887,1.478-5.396c1.273-1.318,2.712-1.164,3.999-0.062
				c1.679,1.438,3.201,2.874,1.641,5.479c-1.287,2.149-1.005,4.511,0.4,6.599c0.595,0.885,1.161,2.285,2.652,1.506
				c1.016-0.53,2.528-1.732,2.092-2.494C393.813,105.759,396.014,103.279,396.066,99.572z M356.494,158.358
				c4.542-0.124,8.988-4.653,9.387-9.53c0.114-1.4,0.175-2.635-1.674-3.021c-1.8-0.375-2.496,0.657-2.804,2.04
				c-0.481,2.171-0.967,4.335-3.363,5.137c-3.829,1.28-5.722-1.629-7.911-3.847c-2.315-2.346-0.308-3.844,1.083-5.421
				c0.99-1.124,2.091-2.149,3.113-3.245c0.979-1.048,0.872-2.091-0.146-3.048c-0.746-0.7-1.426-1.128-2.602-0.523
				c-3.683,1.893-8.115,8.773-7.33,11.645C345.463,152.991,352.305,158.473,356.494,158.358z M303.911,192.964
				c-1.378-4.45-6.872,1.223-8.876-2.815c-0.246-0.498-2.782,2.081-2.666,2.205c2.075,2.232,1.385,7.295,3.513,7.468
				c5.001,0.404,6.89,4.295,10.014,6.707c3.642,2.812,6.57,2.446,9.385-0.951c0.882-1.063,2.594-1.874,0.971-3.657
				c-1.289-1.417-2.474-1.448-3.727-0.006c-0.995,1.146-2.505,1.766-3.425,0.547C307.022,199.714,301.572,198.809,303.911,192.964z
				M386.964,123.995c-2.823,0.106-7.832-5.981-7.513-8.433c0.979-7.529-6.592,0.262-7.858-4.272c-0.291-1.04-3.212,1.802-3.111,1.923
				c2.006,2.395,0.777,7.684,3.648,7.817c5.004,0.232,6.606,4.148,9.626,6.407c3.615,2.705,6.532,2.73,9.397-0.745
				c0.856-1.039,2.706-1.788,1.213-3.646c-1.414-1.759-2.729-1.415-4.106,0.067C387.84,123.564,387.217,123.828,386.964,123.995z
				M297.001,224.603c-2.624-2.6-5.022-5.136-7.597-7.479c-2.216-2.018-3.564-4.019-1.166-6.737c1.433-1.625,0.627-3.276-0.842-3.531
				c-4.051-0.703-3.309,5.235-7.041,5.554c-0.865,0.074-1.275,1.509-0.333,2.428c4.163,4.063,8.356,8.095,12.54,12.137
				c0.861,0.832,1.752,0.889,2.57-0.024C295.776,226.229,296.342,225.438,297.001,224.603z M337.178,182.443
				c-2.072-1.934-4.069-3.676-5.926-5.558c-2.555-2.59-6.639-4.797-2.507-9.299c0.845-0.919-0.162-1.852-0.882-2.521
				c-0.638-0.594-1.738-1.059-2.161-0.208c-1.353,2.721-4.005,4.092-5.924,6.199c-0.759,0.833-0.016,1.542,0.554,2.096
				c4.046,3.945,8.115,7.866,12.185,11.787c0.829,0.799,1.721,1,2.573,0.05C335.737,184.268,336.322,183.492,337.178,182.443z
				M401.806,114.508c-0.298-1.45-1.304-2.439-2.578-2.538c-1.63-0.125-2.764,1.168-2.908,2.656c-0.136,1.398,1.106,2.5,2.406,2.57
				C400.347,117.283,401.186,115.894,401.806,114.508z"/>
			<path fill-rule="evenodd" clip-rule="evenodd" fill="#FCEFEC" d="M255.271,261.462c-0.722,4.073,0.946,9.688-6.244,9.537
				c-1.797-0.038-1.812,1.509-2.038,2.862c-0.819,4.901-8.316,7.723-12.001,4.403c-4.321-3.893-8.397-8.055-12.634-12.043
				c-1.424-1.341-1.296-2.416,0.004-3.758c1.34-1.381,2.366-1.35,3.72,0.02c3.156,3.19,6.438,6.256,9.657,9.384
				c1.739,1.688,4.103,3.505,5.919,1.399c1.587-1.84,0.064-4.271-1.87-5.976c-3.114-2.747-6.044-5.702-9.131-8.48
				c-1.637-1.475-2.165-2.732-0.338-4.519c1.881-1.84,2.884-0.4,4.066,0.75c3.098,3.016,6.274,5.958,9.263,9.078
				c1.704,1.778,4.084,2.895,5.645,1.374c1.991-1.94,0.358-4.171-1.505-5.875c-3.065-2.805-6.055-5.692-9.039-8.584
				c-1.25-1.212-3.055-2.189-1.008-4.41c1.883-2.042,3.024-1.016,4.445,0.381c3.912,3.848,7.864,7.656,11.825,11.453
				C254.893,259.309,255.552,260.195,255.271,261.462z"/>
			<path fill-rule="evenodd" clip-rule="evenodd" fill="#FCEFEC" d="M260.512,258.002c-4.64-1.328-8.405-4.907-10.881-9.764
				c-2.053-4.025,1.119-6.439,3.507-8.912c5.536-5.73,5.565-5.721,11.384-0.445c2.326,2.109,4.615,4.26,6.888,6.426
				c0.812,0.773,1.865,1.446,1.573,2.867c-0.288,1.401-9.15,9.657-10.605,9.822C262.051,258.034,261.717,258.002,260.512,258.002z
				M265.049,247.92c-0.047-1.345-4.242-6.829-5.736-7.033c-2.615-0.358-3.556,2.104-4.548,3.676
				c-2.286,3.623,1.856,4.635,3.375,6.593c1.02,1.315,2.646,2.893,4.688,1.518C264.433,251.593,265.098,249.875,265.049,247.92z"/>
			<path fill-rule="evenodd" clip-rule="evenodd" fill="#FCEFEC" d="M277.532,242.218c-5.513-1.311-9.196-4.981-11.788-9.746
				c-2.313-4.248,1.07-6.733,3.563-9.311c5.379-5.564,5.415-5.547,11.016-0.45c2.444,2.225,4.852,4.492,7.262,6.753
				c0.975,0.914,2.404,2.55,1.033,3.235c-3.865,1.931-4.598,6.576-8.149,8.578C279.639,241.745,278.623,241.88,277.532,242.218z
				M274.682,224.277c-1.891,1.871-4.158,3.273-4.633,5.829c-0.341,1.83,5.938,7.437,7.695,6.968c2.709-0.723,3.591-3.039,3.229-5.449
				C280.428,228.012,276.862,226.759,274.682,224.277z"/>
			<path fill-rule="evenodd" clip-rule="evenodd" fill="#FCEFEC" d="M303.911,192.964c-2.339,5.845,3.111,6.75,5.188,9.498
				c0.92,1.218,2.43,0.599,3.425-0.547c1.253-1.442,2.438-1.412,3.727,0.006c1.623,1.783-0.089,2.593-0.971,3.657
				c-2.814,3.397-5.743,3.763-9.385,0.951c-3.124-2.412-5.013-6.302-10.014-6.707c-2.128-0.172-1.438-5.235-3.513-7.468
				c-0.116-0.125,2.42-2.703,2.666-2.205C297.039,194.187,302.533,188.515,303.911,192.964z"/>
			<path fill-rule="evenodd" clip-rule="evenodd" fill="#FCEFEC" d="M297.001,224.603c-0.659,0.835-1.225,1.627-1.868,2.347
				c-0.818,0.914-1.709,0.856-2.57,0.024c-4.184-4.042-8.377-8.074-12.54-12.137c-0.942-0.919-0.532-2.354,0.333-2.428
				c3.732-0.318,2.99-6.257,7.041-5.554c1.469,0.255,2.274,1.907,0.842,3.531c-2.398,2.718-1.05,4.719,1.166,6.737
				C291.979,219.466,294.377,222.002,297.001,224.603z"/>
			<path fill-rule="evenodd" clip-rule="evenodd" fill="#E1503B" d="M265.052,247.921c0.046,1.954-0.619,3.672-2.224,4.753
				c-2.043,1.375-3.669-0.202-4.688-1.518c-1.519-1.958-5.661-2.97-3.375-6.593c0.992-1.572,1.933-4.034,4.548-3.676
				C260.807,241.091,265.002,246.575,265.052,247.921z"/>
			<path fill-rule="evenodd" clip-rule="evenodd" fill="#E1503B" d="M274.682,224.277c2.181,2.482,5.746,3.735,6.291,7.348
				c0.362,2.411-0.52,4.727-3.229,5.449c-1.758,0.469-8.036-5.138-7.695-6.968C270.523,227.55,272.791,226.147,274.682,224.277z"/>
			<path fill-rule="evenodd" clip-rule="evenodd" fill="#FCEFEC" d="M360.326,130.018c3.579-8.016,7.113-8.697,13.442-2.791
				c2.309,2.155,4.539,4.393,6.86,6.534c1.273,1.174,1.129,2.222,0.043,3.393c-1.078,1.162-2.172,1.475-3.42,0.283
				c-2.403-2.294-4.782-4.616-7.224-6.87c-1.198-1.106-2.689-2.778-4.233-1.209c-1.547,1.572-2.056,3.879-0.2,5.81
				c2.187,2.276,4.47,4.462,6.773,6.621c1.258,1.179,1.85,2.175,0.35,3.687c-1.364,1.375-2.396,1.341-3.743,0.029
				c-5.716-5.569-11.45-11.122-17.26-16.593c-1.571-1.479-0.89-2.479,0.165-3.752c1.234-1.489,2.183-0.934,3.286,0.127
				C356.826,126.887,358.562,128.408,360.326,130.018z"/>
			<path fill-rule="evenodd" clip-rule="evenodd" fill="#FCEFEC" d="M342.084,173.393c-3.511-0.066-10.479-5.358-11.744-9.177
				c-1.505-4.545,1.662-7.153,4.555-9.642c3.819-3.287,10.452-1.508,12.566,3.083c0.592,1.287-0.145,1.879-0.757,2.558
				c-1.559,1.728-3.28,3.313-4.786,5.084c-0.688,0.81-2.694,1.425-1.087,3.02c1.229,1.219,2.537,0.36,3.621-0.351
				c1.872-1.228,2.928-3.094,3.68-5.179c0.434-1.203,1.231-2.029,2.667-1.302c1.018,0.516,1.941,0.852,1.695,2.529
				C351.846,168.438,346.449,173.476,342.084,173.393z M338.851,157.586c-1.505,0.981-3.523,1.897-3.809,4.314
				c-0.131,1.113,0.603,2.741,1.749,2.339c2.18-0.765,3.841-2.675,4.818-4.691C342.126,158.482,340.451,157.863,338.851,157.586z"/>
			<path fill-rule="evenodd" clip-rule="evenodd" fill="#FCEFEC" d="M396.066,99.572c-0.053,3.707-2.253,6.187-0.562,9.141
				c0.437,0.762-1.076,1.963-2.092,2.494c-1.491,0.779-2.058-0.622-2.652-1.506c-1.405-2.088-1.688-4.45-0.4-6.599
				c1.561-2.605,0.038-4.041-1.641-5.479c-1.287-1.102-2.726-1.256-3.999,0.062c-1.457,1.51-3.513,2.899-1.478,5.396
				c1.638,2.009-0.065,3.105-1.342,4.003c-1.924,1.354-2.595-0.632-3.382-1.721c-2.209-3.058-1.463-6.071,0.765-8.663
				c2.604-3.029,5.414-6.422,10.072-4.575C393.026,93.579,395.77,96.217,396.066,99.572z"/>
			<path fill-rule="evenodd" clip-rule="evenodd" fill="#FCEFEC" d="M356.494,158.358c-4.189,0.114-11.031-5.367-12.246-9.812
				c-0.785-2.872,3.647-9.752,7.33-11.645c1.176-0.605,1.855-0.177,2.602,0.523c1.018,0.957,1.124,2,0.146,3.048
				c-1.022,1.096-2.123,2.121-3.113,3.245c-1.391,1.578-3.398,3.075-1.083,5.421c2.189,2.218,4.082,5.127,7.911,3.847
				c2.396-0.802,2.882-2.966,3.363-5.137c0.308-1.383,1.004-2.415,2.804-2.04c1.849,0.386,1.788,1.62,1.674,3.021
				C365.482,153.706,361.036,158.234,356.494,158.358z"/>
			<path fill-rule="evenodd" clip-rule="evenodd" fill="#FCEFEC" d="M386.964,123.995c0.253-0.167,0.876-0.431,1.296-0.882
				c1.378-1.481,2.692-1.826,4.106-0.067c1.493,1.858-0.356,2.607-1.213,3.646c-2.865,3.475-5.782,3.45-9.397,0.745
				c-3.02-2.258-4.622-6.175-9.626-6.407c-2.871-0.133-1.643-5.422-3.648-7.817c-0.101-0.121,2.82-2.963,3.111-1.923
				c1.267,4.534,8.838-3.257,7.858,4.272C379.132,118.013,384.141,124.101,386.964,123.995z"/>
			<path fill-rule="evenodd" clip-rule="evenodd" fill="#FCEFEC" d="M337.178,182.443c-0.855,1.049-1.44,1.825-2.088,2.546
				c-0.853,0.95-1.744,0.749-2.573-0.05c-4.069-3.921-8.139-7.842-12.185-11.787c-0.569-0.554-1.313-1.263-0.554-2.096
				c1.919-2.107,4.571-3.478,5.924-6.199c0.423-0.851,1.523-0.386,2.161,0.208c0.72,0.669,1.727,1.602,0.882,2.521
				c-4.132,4.502-0.048,6.709,2.507,9.299C333.108,178.767,335.105,180.509,337.178,182.443z"/>
			<path fill-rule="evenodd" clip-rule="evenodd" fill="#FCEFEC" d="M318.107,198.394c-3.524-0.055-10.463-5.307-11.758-9.157
				c-1.528-4.545,1.637-7.155,4.527-9.648c3.83-3.304,10.397-1.558,12.571,3.048c0.608,1.288-0.116,1.88-0.729,2.561
				c-1.559,1.729-3.28,3.314-4.784,5.085c-0.689,0.813-2.69,1.421-1.12,3.021c1.213,1.234,2.53,0.386,3.619-0.323
				c1.878-1.222,2.935-3.089,3.692-5.17c0.435-1.195,1.208-2.056,2.652-1.331c1.012,0.508,1.962,0.829,1.725,2.514
				C327.883,193.394,322.471,198.462,318.107,198.394z M313.107,189.582c1.556-1.672,3.421-3.16,4.518-5.085
				c0.514-0.902-1.238-1.99-2.385-1.759c-2.221,0.446-3.858,1.876-4.195,4.215C310.883,188.082,311.608,189.046,313.107,189.582z"/>
			<path fill-rule="evenodd" clip-rule="evenodd" fill="#E1503B" d="M313.107,189.582c-1.499-0.536-2.225-1.5-2.063-2.629
				c0.337-2.339,1.975-3.769,4.195-4.215c1.146-0.231,2.898,0.857,2.385,1.759C316.528,186.421,314.663,187.909,313.107,189.582z"/>
			<path fill-rule="evenodd" clip-rule="evenodd" fill="#E1503B" d="M338.851,157.586c1.601,0.276,3.275,0.896,2.759,1.961
				c-0.978,2.017-2.639,3.926-4.818,4.691c-1.146,0.402-1.88-1.226-1.749-2.339C335.327,159.484,337.346,158.568,338.851,157.586z"/>
			<path fill-rule="evenodd" clip-rule="evenodd" fill="#FCEFEC" d="M401.806,114.508c-0.62,1.386-1.459,2.775-3.08,2.688
				c-1.3-0.07-2.542-1.172-2.406-2.57c0.145-1.488,1.278-2.781,2.908-2.656C400.502,112.068,401.508,113.058,401.806,114.508z"/>
		</g>
	</a>
</svg>
