<?xml version="1.0" encoding="utf-8"?>
<?xml-stylesheet type="text/css" href="../css/main.css" ?>
<!-- Generator: Adobe Illustrator 16.0.0, SVG Export Plug-In . SVG Version: 6.00 Build 0)  -->
<!DOCTYPE svg PUBLIC "-//W3C//DTD SVG 1.1//EN" "http://www.w3.org/Graphics/SVG/1.1/DTD/svg11.dtd">
<svg version="1.1" id="Layer_1" xmlns="http://www.w3.org/2000/svg" xmlns:xlink="http://www.w3.org/1999/xlink" x="0px" y="0px"
	 width="300px" height="300px" viewBox="0 0 500 500" enable-background="new 0 0 500 500" xml:space="preserve">
	<a xlink:href="../wat-is-het" target='_top'>
		<g id="WAARPAGE-wat" class="svgnavani">
			<path fill-rule="evenodd" clip-rule="evenodd" fill="#F8E44A" d="M395-1c0.025,12.554,4.005,24.156,8.897,35.456
				c1.487,3.436,1.154,5.055-2.173,7.03C315.151,92.87,228.639,144.355,142.156,195.892c-2.968,1.769-4.374,1.459-6.081-1.669
				c-25.468-46.674-42.013-96.271-49.14-148.982C84.862,29.898,83.331,14.518,84-1C187.667-1,291.334-1,395-1z M167.883,72.324
				c1.762,5.879,3.231,11.87,5.391,17.6c1.422,3.773,9.435,4.65,11.946,1.537c1.389-1.722,2.733-1.949,4.732-1.402
				c4.735,1.296,10.285-4.352,8.977-9.146c-1.354-4.96-2.91-9.865-4.406-14.785c-0.518-1.703-0.71-3.769-3.462-3.081
				c-2.837,0.709-1.932,2.461-1.393,4.263c1.238,4.131,2.265,8.329,3.618,12.419c0.727,2.195,0.691,4.345-1.449,5.06
				c-2.555,0.854-3.743-1.259-4.396-3.517c-1.247-4.303-2.567-8.585-3.802-12.892c-0.546-1.906-1.518-2.882-3.605-2.146
				c-1.965,0.692-1.715,1.984-1.216,3.588c1.331,4.277,2.453,8.619,3.793,12.894c0.667,2.13,0.749,4.444-1.39,5.164
				c-2.479,0.834-3.767-1.167-4.423-3.527c-1.202-4.315-2.566-8.585-3.856-12.876c-0.467-1.553-1.089-2.866-3.118-2.188
				C168.363,69.773,167.611,70.693,167.883,72.324z M288.844,50.441c-0.33-2.816,0.83-4.572,2.818-5.186
				c2.522-0.778,2.847,1.566,3.387,3.264c0.954,3,1.878,6.009,2.771,9.027c0.403,1.363,0.788,2.648,2.664,1.98
				c1.484-0.528,2.814-1.057,2.081-3.16c-1.471-4.217-2.169-8.699-4.262-12.701c-1.586-3.033-4.245-4.995-7.272-2.881
				c-4.518,3.154-5.304,0.609-6.032-2.997c-0.353-1.748-1.012-3.254-3.281-2.765c-2.522,0.544-1.907,2.407-1.46,3.941
				c2.089,7.157,4.298,14.279,6.428,21.424c0.449,1.506,0.797,2.993,2.924,2.41c2.068-0.567,2.463-1.747,1.759-3.762
				C290.331,56.069,289.582,53.001,288.844,50.441z M308.772,48.368c3.397-0.998,6.275-1.77,9.098-2.708
				c1.174-0.391,2.637-0.574,2.745-2.405c0.188-3.149-3.344-8.208-6.294-8.841c-3.593-0.771-10.081,2.012-11.301,4.848
				c-1.472,3.42,1.139,12.01,4.442,14.625c3.286,2.6,8.381,2.329,12.462-0.85c1.168-0.91,3.396-1.681,2.172-3.805
				c-1.33-2.309-2.904-1.083-4.572-0.023C314.847,50.911,311.98,52.54,308.772,48.368z M218.97,83.173
				c2.697,0.054,4.162-0.757,3.136-3.836c-0.993-2.981-1.743-6.042-2.694-9.038c-2.894-9.115-1.04-7.914-10.182-5.322
				c-7.537,2.136-8.745,4.475-6.642,12.002c0.399,1.429,0.841,2.87,1.469,4.208c2.554,5.437,6.337,6.431,11.209,2.959
				C216.411,83.33,217.23,81.668,218.97,83.173z M273.645,62.49c-0.502-2.679-1.6-4.977-4.803-5.418
				c-1.478-0.204-2.982-0.243-4.44-0.53c-0.925-0.182-2.126-0.358-2.245-1.596c-0.119-1.222,0.988-1.464,1.851-1.966
				c1.854-1.078,6.286-0.238,4.731-3.988c-1.479-3.566-4.526-0.124-6.887,0.025c-0.159,0.01-0.32,0.09-0.469,0.162
				c-2.493,1.205-4.783,2.631-4.343,5.912c0.454,3.381,2.565,5.214,5.862,5.876c1.931,0.388,5.133-0.91,5.381,1.813
				c0.18,1.976-3.07,1.888-4.842,2.623c-0.614,0.255-1.396,0.354-1.809,0.798c-1.246,1.344-1.141,2.822,0.491,3.674
				C265.326,71.547,273.597,66.253,273.645,62.49z M344.233,16.472c-5.478-0.04-10.696,3.41-11.018,7.413
				c-0.128,1.603-0.319,3.656,1.824,4.051c1.993,0.367,3.657-0.406,3.519-2.943c-0.169-3.108,2.376-3.228,4.341-3.772
				c1.803-0.499,2.611,0.739,3.216,2.308c0.785,2.035,1.088,3.792-1.086,5.189c-2.266,1.457-3.447,3.486-3.122,6.292
				c0.342,2.958,3.602,2.549,3.759,1.706c0.761-4.072,5.237-5.441,6.065-9.259C352.818,22.449,348.795,16.505,344.233,16.472z
				M334.721,44.454c-2.534,1.056-3.686-0.28-3.963-2.015c-0.451-2.833-3.587-5.781-1.091-8.402c1.945-2.041,1.944-4.287,0.108-4.445
				c-2.556-0.22-3.255-1.107-4.063-3.09c-0.683-1.677-2.197-0.949-3.441-0.448c-0.153,0.062-0.41,0.14-0.423,0.236
				c-0.359,2.841-1.893,7.497-0.819,8.208c4.096,2.712,3.754,6.99,5.248,10.568c1.916,4.588,4.343,5.705,9.016,3.979
				c1.238-0.457,2.781-0.613,2.27-2.533C337.133,44.902,336.34,43.712,334.721,44.454z M232.028,79.925
				c1.209-0.323,2.669-0.642,4.078-1.111c1.23-0.41,1.986-1.171,1.357-2.637c-0.48-1.121-0.986-2.334-2.475-1.739
				c-3.792,1.516-4.398-1.405-4.817-3.73c-0.466-2.588-2.309-4.642,0.431-8.136c3.066-3.911-5.85-2.254-5.552-6.718
				c0.052-0.776-2.885-0.137-2.94,0.376c-0.319,2.968-3.054,7.109-0.911,8.59c3.786,2.617,3.488,6.365,4.887,9.626
				C227.232,77.116,228.294,79.723,232.028,79.925z M258.078,70.128c-0.437-2.505-3.938-2.442-4.219-5.511
				c-0.293-3.226-1.82-6.332-2.725-9.514c-0.449-1.578-1.352-2.36-2.895-1.701c-1.447,0.619-3.624,0.188-4.178,2.151
				c-0.419,1.485,0.48,2.356,1.807,3.49c3.189,2.726,4.419,6.833,3.332,10.808c-0.424,1.553-1.088,3.07,0.036,3.838
				c2.381,1.626,4.628-0.657,6.976-1.024C257.396,72.48,258.297,71.625,258.078,70.128z M345.958,45.686
				c1.104-0.473,2.734-0.239,2.966-1.945c0.188-1.381-0.129-2.729-1.85-2.813c-1.261-0.062-2.796-0.049-2.97,1.734
				C343.974,44.005,344.378,45.229,345.958,45.686z M246.106,50.116c1.397-0.163,2.849-0.208,2.806-2.045
				c-0.031-1.335-0.353-2.816-2.08-2.631c-1.142,0.123-2.766,0.23-2.784,2.064C244.035,48.926,244.464,50.077,246.106,50.116z"/>
			<path fill-rule="evenodd" clip-rule="evenodd" fill="#F2F8F0" d="M167.883,72.324c-0.271-1.63,0.48-2.551,1.94-3.038
				c2.029-0.677,2.651,0.635,3.118,2.188c1.291,4.291,2.655,8.561,3.856,12.876c0.657,2.36,1.944,4.361,4.423,3.527
				c2.139-0.719,2.058-3.033,1.39-5.164c-1.34-4.274-2.462-8.616-3.793-12.894c-0.499-1.604-0.75-2.896,1.216-3.588
				c2.087-0.735,3.059,0.24,3.605,2.146c1.235,4.306,2.556,8.588,3.802,12.892c0.654,2.258,1.842,4.37,4.396,3.517
				c2.14-0.715,2.175-2.865,1.449-5.06c-1.353-4.091-2.38-8.289-3.618-12.419c-0.54-1.802-1.445-3.554,1.393-4.263
				c2.751-0.688,2.944,1.378,3.462,3.081c1.496,4.92,3.052,9.825,4.406,14.785c1.308,4.794-4.242,10.442-8.977,9.146
				c-2-0.547-3.344-0.319-4.732,1.402c-2.512,3.114-10.524,2.236-11.946-1.537C171.114,84.193,169.645,78.203,167.883,72.324z"/>
			<path fill-rule="evenodd" clip-rule="evenodd" fill="#F2F8F0" d="M288.844,50.441c0.738,2.561,1.487,5.628,2.524,8.596
				c0.704,2.015,0.31,3.194-1.759,3.762c-2.127,0.583-2.475-0.904-2.924-2.41c-2.13-7.145-4.339-14.267-6.428-21.424
				c-0.447-1.535-1.063-3.397,1.46-3.941c2.27-0.489,2.929,1.018,3.281,2.765c0.729,3.606,1.515,6.15,6.032,2.997
				c3.027-2.113,5.687-0.151,7.272,2.881c2.093,4.002,2.791,8.484,4.262,12.701c0.733,2.103-0.597,2.632-2.081,3.16
				c-1.876,0.667-2.261-0.617-2.664-1.98c-0.894-3.018-1.817-6.028-2.771-9.027c-0.54-1.697-0.864-4.042-3.387-3.264
				C289.674,45.869,288.514,47.625,288.844,50.441z"/>
			<path fill-rule="evenodd" clip-rule="evenodd" fill="#F2F8F0" d="M308.772,48.368c3.208,4.172,6.074,2.543,8.752,0.841
				c1.668-1.06,3.242-2.286,4.572,0.023c1.224,2.124-1.004,2.895-2.172,3.805c-4.081,3.178-9.176,3.45-12.462,0.85
				c-3.304-2.615-5.914-11.205-4.442-14.625c1.22-2.835,7.708-5.619,11.301-4.848c2.95,0.633,6.481,5.691,6.294,8.841
				c-0.108,1.831-1.571,2.014-2.745,2.405C315.048,46.598,312.17,47.37,308.772,48.368z M309.7,44.031
				c1.539-0.747,4.339-0.111,5.088-2.467c0.481-1.514-1.028-2.719-2.807-2.498c-1.957,0.244-4.055,0.596-4.59,2.964
				C307.075,43.432,307.888,44.173,309.7,44.031z"/>
			<path fill-rule="evenodd" clip-rule="evenodd" fill="#F2F8F0" d="M218.97,83.173c-1.739-1.504-2.559,0.157-3.704,0.973
				c-4.872,3.472-8.655,2.478-11.209-2.959c-0.628-1.338-1.07-2.779-1.469-4.208c-2.103-7.527-0.895-9.866,6.642-12.002
				c9.142-2.592,7.288-3.793,10.182,5.322c0.951,2.996,1.701,6.057,2.694,9.038C223.131,82.416,221.667,83.227,218.97,83.173z
				M215.963,76.6c0.233-6.076-2.939-8.747-7.48-6.699c-4.468,2.015-1.14,5.032-0.816,7.54c0.241,1.863,0.861,4.213,3.582,3.767
				C213.941,80.766,215.434,78.848,215.963,76.6z"/>
			<path fill-rule="evenodd" clip-rule="evenodd" fill="#F2F8F0" d="M273.645,62.49c-0.048,3.764-8.318,9.057-11.521,7.385
				c-1.632-0.852-1.737-2.33-0.491-3.674c0.412-0.443,1.194-0.543,1.809-0.798c1.771-0.735,5.021-0.647,4.842-2.623
				c-0.248-2.723-3.45-1.425-5.381-1.813c-3.297-0.663-5.408-2.495-5.862-5.876c-0.44-3.281,1.85-4.708,4.343-5.912
				c0.148-0.071,0.31-0.152,0.469-0.162c2.36-0.148,5.408-3.591,6.887-0.025c1.555,3.75-2.877,2.91-4.731,3.988
				c-0.862,0.501-1.97,0.744-1.851,1.966c0.119,1.238,1.32,1.415,2.245,1.596c1.458,0.287,2.963,0.326,4.44,0.53
				C272.045,57.513,273.143,59.811,273.645,62.49z"/>
			<path fill-rule="evenodd" clip-rule="evenodd" fill="#F2F8F0" d="M344.233,16.472c4.562,0.033,8.585,5.977,7.498,10.984
				c-0.828,3.818-5.305,5.188-6.065,9.259c-0.157,0.843-3.417,1.251-3.759-1.706c-0.325-2.807,0.856-4.836,3.122-6.292
				c2.174-1.398,1.871-3.155,1.086-5.189c-0.604-1.568-1.413-2.807-3.216-2.308c-1.965,0.544-4.51,0.664-4.341,3.772
				c0.139,2.537-1.525,3.311-3.519,2.943c-2.144-0.395-1.952-2.448-1.824-4.051C333.537,19.882,338.756,16.432,344.233,16.472z"/>
			<path fill-rule="evenodd" clip-rule="evenodd" fill="#F2F8F0" d="M334.721,44.454c1.619-0.742,2.412,0.449,2.842,2.06
				c0.512,1.919-1.031,2.076-2.27,2.533c-4.673,1.725-7.1,0.609-9.016-3.979c-1.494-3.579-1.152-7.856-5.248-10.568
				c-1.073-0.711,0.46-5.367,0.819-8.208c0.013-0.096,0.27-0.174,0.423-0.236c1.244-0.501,2.759-1.229,3.441,0.448
				c0.808,1.983,1.507,2.87,4.063,3.09c1.836,0.158,1.837,2.404-0.108,4.445c-2.496,2.621,0.64,5.569,1.091,8.402
				C331.035,44.173,332.187,45.509,334.721,44.454z"/>
			<path fill-rule="evenodd" clip-rule="evenodd" fill="#F2F8F0" d="M232.028,79.925c-3.734-0.202-4.796-2.809-5.942-5.478
				c-1.399-3.261-1.102-7.01-4.887-9.626c-2.144-1.481,0.592-5.623,0.911-8.59c0.055-0.513,2.992-1.152,2.94-0.376
				c-0.298,4.463,8.618,2.807,5.552,6.718c-2.739,3.494-0.897,5.548-0.431,8.136c0.419,2.325,1.026,5.246,4.817,3.73
				c1.488-0.595,1.994,0.618,2.475,1.739c0.629,1.466-0.127,2.227-1.357,2.637C234.697,79.283,233.238,79.602,232.028,79.925z"/>
			<path fill-rule="evenodd" clip-rule="evenodd" fill="#F2F8F0" d="M258.078,70.128c0.219,1.497-0.682,2.352-1.865,2.536
				c-2.348,0.367-4.595,2.65-6.976,1.024c-1.124-0.768-0.46-2.285-0.036-3.838c1.087-3.975-0.143-8.082-3.332-10.808
				c-1.327-1.134-2.227-2.005-1.807-3.49c0.554-1.963,2.731-1.532,4.178-2.151c1.543-0.66,2.446,0.123,2.895,1.701
				c0.904,3.182,2.432,6.288,2.725,9.514C254.14,67.686,257.642,67.624,258.078,70.128z"/>
			<path fill-rule="evenodd" clip-rule="evenodd" fill="#F2F8F0" d="M345.958,45.686c-1.58-0.457-1.984-1.681-1.854-3.023
				c0.174-1.783,1.709-1.795,2.97-1.734c1.721,0.083,2.037,1.432,1.85,2.813C348.692,45.447,347.062,45.213,345.958,45.686z"/>
			<path fill-rule="evenodd" clip-rule="evenodd" fill="#F2F8F0" d="M246.106,50.116c-1.642-0.039-2.071-1.19-2.057-2.612
				c0.018-1.834,1.642-1.941,2.784-2.064c1.727-0.185,2.049,1.296,2.08,2.631C248.955,49.908,247.503,49.953,246.106,50.116z"/>
			<path fill-rule="evenodd" clip-rule="evenodd" fill="#F8E44A" d="M309.7,44.031c-1.813,0.142-2.625-0.599-2.309-2
				c0.535-2.369,2.633-2.72,4.59-2.964c1.778-0.221,3.288,0.984,2.807,2.498C314.039,43.92,311.239,43.284,309.7,44.031z"/>
			<path fill-rule="evenodd" clip-rule="evenodd" fill="#F8E44A" d="M215.963,76.6c-0.529,2.249-2.021,4.166-4.714,4.607
				c-2.721,0.446-3.341-1.904-3.582-3.767c-0.324-2.508-3.652-5.525,0.816-7.54C213.023,67.853,216.196,70.523,215.963,76.6z"/>
		</g>
	</a>
	<a xlink:href="../hun-verhaal" target='_top'>
		<g id="WAARPAGE-hun" class="svgnavani">
			<path fill-rule="evenodd" clip-rule="evenodd" fill="#F2F8F0" d="M458.76,210.67c-3.442-0.503-7.014-1.13-10.27-2.939
				c-2.845-1.58-3.8-3.934-3.271-7.084c1.91-11.392,2.097-11.525,13.327-8.451c1.594,0.436,3.198,0.841,4.774,1.333
				c3.215,1.001,7.57,1.546,2.32,5.95c-1.092,0.916,0.223,2.131,0.263,3.235C466.071,207.337,463.288,210.572,458.76,210.67z
				M450.136,200.11c-1.026,3.321,1.041,4.252,2.959,4.503c2.547,0.333,5.186,2.97,7.771,0.1c0.205-0.228,0.251-0.604,0.351-0.919
				c0.658-2.088,0.238-4.129-1.313-5.471c-2.179-1.884-5.153-2.563-7.844-2.268C450.13,196.267,450.736,199.084,450.136,200.11z"/>
			<path fill-rule="evenodd" clip-rule="evenodd" fill="#F2F8F0" d="M475.778,168.192c-0.703,4.342-1.847,8.332-6.594,9.75
				c-4.11,1.228-12.332-1.279-14.253-4.169c-1.73-2.604-0.726-9.47,2.025-12.129c3.148-3.043,6.806-1.708,10.308-0.694
				c1.765,0.511,1.495,1.808,1.048,3.225c-0.698,2.216-1.217,4.488-1.812,6.736c-0.245,0.927-0.813,2.021,0.53,2.489
				c1.043,0.364,1.966-0.251,2.62-1.046c1.105-1.344,1.302-2.975,1.461-4.669c0.174-1.842-1.361-5.07,2.363-4.676
				C476.439,163.321,475.294,166.336,475.778,168.192z M458.815,168.962c-0.125,1.631,0.445,3.175,1.97,2.974
				c3.222-0.426,1.944-3.7,2.892-5.597c0.67-1.341-0.756-1.588-1.733-1.554C459.136,164.883,459.203,167.169,458.815,168.962z"/>
			<path fill-rule="evenodd" clip-rule="evenodd" fill="#F2F8F0" d="M481.685,145.183c-0.353,2.196-1.381,3.302-3.758,2.585
				c-2.859-0.862-5.732-1.688-8.631-2.4c-1.692-0.415-4.008-1.416-4.646,1.053c-0.615,2.382,0.389,4.613,3.165,5.378
				c2.723,0.75,5.461,1.441,8.182,2.196c1.413,0.392,3.063,0.553,2.549,2.813c-0.488,2.142-1.752,2.556-3.674,2.021
				c-4.797-1.334-9.605-2.625-14.405-3.95c-1.131-0.312-2.94-1.211-2.169-2.069c2.741-3.046,0.889-7.059,2.669-10.201
				c1.364-2.407,3.607-3.031,5.985-2.571c4.389,0.849,8.715,2.027,13.056,3.114C481.012,143.403,481.878,143.913,481.685,145.183z"/>
			<path fill-rule="evenodd" clip-rule="evenodd" fill="#F2F8F0" d="M471.535,183.177c-0.684,4.425-1.079,7.285-5.701,5.649
				c-5.156-1.824-10.532-3.035-15.828-4.457c-1.233-0.332-2.828-1.246-3.73-0.014c-1.318,1.802-2.888,1.343-3.805,0.356
				c-1.44-1.55-0.117-3.432,0.346-5.143c0.585-2.162,2.166-1.651,3.617-1.261c4.171,1.122,8.28,2.551,12.509,3.361
				c3.128,0.6,6.164,3.206,9.716,0.504C469.69,181.39,471.595,182.366,471.535,183.177z"/>
			<path fill-rule="evenodd" clip-rule="evenodd" fill="#72C04D" d="M503,416c-9.278-0.597-18.562-1.123-27.834-1.803
				c-48.869-3.584-95.419-16.193-140.028-36.226c-7.44-3.342-14.618-7.271-22.067-10.594c-3.534-1.576-3.732-3.105-1.9-6.336
				c21.842-38.511,43.551-77.097,65.292-115.664c27.627-49.007,55.284-97.998,82.813-147.06c1.938-3.456,3.266-4.626,7.508-2.768
				c11.479,5.028,23.721,7.441,36.218,8.449C503,208,503,312,503,416z M423.963,344.512c2.906,0.805,3.87,0.245,4.313-1.665
				c0.385-1.66,0.032-2.441-1.637-2.884c-7.212-1.909-14.4-3.906-21.601-5.856c-1.592-0.432-2.817-0.349-3.443,1.646
				c-0.757,2.411,0.636,2.883,2.4,3.338c1.926,0.497,3.796,1.293,5.747,1.593c2.327,0.357,2.434,1.471,1.994,3.444
				c-1.445,6.496-1.454,6.555-8.157,4.741c-1.118-0.303-2.227-0.662-3.361-0.878c-1.451-0.276-2.039,0.537-2.355,1.877
				c-0.293,1.239-0.517,2.46,0.958,2.871c7.663,2.135,15.35,4.188,23.036,6.236c1.8,0.479,2.224-0.852,2.682-2.164
				c0.613-1.754-0.3-2.437-1.797-2.807c-1.448-0.357-2.873-0.833-4.338-1.096c-3.317-0.596-3.96-2.083-3.12-5.496
				c1.014-4.117,2.694-5.195,6.46-3.518C422.79,344.361,423.976,344.516,423.963,344.512z M433.668,219.638
				c-0.986-0.375-1.88,0.559-2.34,2.273c-0.585,2.182,1.03,2.52,2.473,2.916c7.199,1.976,14.404,3.932,21.618,5.854
				c1.587,0.422,3.195,1.011,3.976-1.419c0.944-2.944-1.22-2.902-2.906-3.376c-2.557-0.719-5.13-1.382-7.69-2.089
				c-2.785-0.77-3.771-2.997-3.146-5.379c0.646-2.465,2.956-1.461,4.647-1.047c3.061,0.749,6.079,1.665,9.123,2.479
				c1.511,0.404,2.454-0.063,3.007-1.676c0.561-1.631,0.205-2.613-1.42-3.021c-4.338-1.089-8.648-2.395-13.052-3.09
				c-4.198-0.663-6.88,1.537-6.778,5.86c0.074,3.208-1.004,3.786-3.72,2.798C436.527,220.378,435.549,220.168,433.668,219.638z
				M458.76,210.67c4.528-0.099,7.312-3.333,7.144-7.958c-0.04-1.104-1.354-2.319-0.263-3.235c5.25-4.403,0.895-4.948-2.32-5.95
				c-1.576-0.491-3.181-0.896-4.774-1.333c-11.23-3.074-11.417-2.941-13.327,8.451c-0.528,3.15,0.427,5.505,3.271,7.084
				C451.746,209.54,455.317,210.167,458.76,210.67z M437.45,245.963c-2.443-0.56-4.604,0.772-5.71,3.583
				c-1.33,3.38-3.019,6.893-0.631,10.451c2.035,3.034,11.09,5.219,14.843,3.778c3.612-1.387,6.313-6.585,5.677-11.291
				c-0.199-1.472,0.131-3.624-2.426-3.585c-2.577,0.039-2.168,1.903-2.151,3.569c0.013,1.16,0.053,2.369-0.241,3.471
				c-0.48,1.805-1.403,3.998-3.545,3.395c-2.603-0.733-0.133-2.723-0.269-4.147c-0.058-0.614,0.33-1.271,0.508-1.909
				C445.255,247.002,444.556,246.054,437.45,245.963z M475.778,168.192c-0.484-1.856,0.661-4.871-2.303-5.184
				c-3.725-0.394-2.189,2.834-2.363,4.676c-0.159,1.694-0.355,3.326-1.461,4.669c-0.654,0.795-1.577,1.41-2.62,1.046
				c-1.344-0.469-0.775-1.562-0.53-2.489c0.595-2.248,1.113-4.521,1.812-6.736c0.447-1.417,0.717-2.714-1.048-3.225
				c-3.502-1.015-7.159-2.349-10.308,0.694c-2.751,2.659-3.756,9.524-2.025,12.129c1.921,2.891,10.143,5.397,14.253,4.169
				C473.932,176.524,475.075,172.535,475.778,168.192z M426.526,334.331c4.095,0.186,5.74-2.253,6.106-5.813
				c0.18-1.748-0.058-3.366,1.213-5.017c1.559-2.023,0.691-3.618-1.894-4.267c-4.671-1.17-9.331-2.393-13.956-3.728
				c-1.869-0.54-3.207-0.599-3.797,1.667c-0.644,2.47,1.057,2.717,2.716,3.159c2.726,0.727,5.416,1.592,8.152,2.272
				c2.708,0.675,3.407,2.764,3.042,4.962c-0.465,2.803-2.859,1.673-4.454,1.344c-3.081-0.635-6.113-1.539-9.129-2.453
				c-1.557-0.473-2.63-0.167-3.166,1.387c-0.46,1.334-0.674,2.671,1.178,3.176C417.178,332.288,421.732,333.921,426.526,334.331z
				M481.685,145.183c0.193-1.27-0.673-1.78-1.678-2.031c-4.341-1.087-8.667-2.265-13.056-3.114c-2.378-0.46-4.621,0.164-5.985,2.571
				c-1.78,3.142,0.072,7.155-2.669,10.201c-0.771,0.858,1.038,1.757,2.169,2.069c4.8,1.325,9.608,2.615,14.405,3.95
				c1.922,0.535,3.186,0.122,3.674-2.021c0.515-2.259-1.136-2.42-2.549-2.813c-2.721-0.755-5.459-1.446-8.182-2.196
				c-2.776-0.766-3.78-2.996-3.165-5.378c0.639-2.469,2.954-1.468,4.646-1.053c2.898,0.711,5.771,1.538,8.631,2.4
				C480.304,148.484,481.332,147.379,481.685,145.183z M424.753,295.685c-1.949,0.214-3.821,0.32-5.07,1.948
				c-2.562,3.337-1.103,7.886-3.377,11.438c-0.592,0.924,1.317,1.566,2.437,1.874c4.641,1.275,9.278,2.563,13.922,3.829
				c1.743,0.476,3.213,0.542,3.817-1.762c0.688-2.616-1.219-2.642-2.764-3.075c-2.559-0.717-5.118-1.438-7.697-2.073
				c-2.819-0.693-3.95-2.871-3.415-5.24c0.646-2.855,3.124-1.606,4.955-1.156c2.9,0.713,5.771,1.545,8.647,2.349
				c1.777,0.496,2.764-0.114,3.314-1.914c0.553-1.803-0.315-2.443-1.789-2.828C433.407,297.943,429.08,296.814,424.753,295.685z
				M439.599,276.801c-4.482,0.959-7.941,2.126-11.622,1.148c-1.701-0.451-3.259-0.85-3.835,1.562
				c-0.625,2.615,1.088,2.934,2.962,3.506c5.955,1.82,11.371-0.879,16.941-1.978c2.424-0.478,2.871-3.756,1.801-4.854
				c-4.421-4.539-8.368-9.927-15.272-11.181c-1.963-0.356-2.674,0.589-3.121,2.228c-0.481,1.764,0.429,2.467,1.939,2.731
				C433.423,270.671,435.773,273.807,439.599,276.801z M471.535,183.177c0.06-0.811-1.845-1.788-2.877-1.002
				c-3.552,2.701-6.588,0.095-9.716-0.504c-4.229-0.811-8.338-2.24-12.509-3.361c-1.451-0.39-3.032-0.901-3.617,1.261
				c-0.463,1.711-1.786,3.592-0.346,5.143c0.917,0.986,2.486,1.446,3.805-0.356c0.902-1.232,2.497-0.318,3.73,0.014
				c5.296,1.422,10.672,2.633,15.828,4.457C470.456,190.462,470.852,187.603,471.535,183.177z M455.751,241.813
				c-0.203-0.896-1.122-1.421-2.295-1.733c-2.233-0.594-4.44-1.297-6.689-1.82c-3.352-0.78-6.76-1.338-5.424-6.251
				c0.417-1.533-0.91-1.913-2.13-2.025c-1.441-0.133-2.276,0.662-2.18,2.022c0.146,2.048-0.364,3.757-1.494,5.495
				c-1.049,1.614-0.155,2.821,1.615,3.304c5.094,1.39,10.191,2.761,15.29,4.131C454.755,245.556,455.267,243.978,455.751,241.813z"/>
			<path fill-rule="evenodd" clip-rule="evenodd" fill="#F2F8F0" d="M423.963,344.512c0.013,0.004-1.173-0.15-2.22-0.617
				c-3.766-1.678-5.446-0.6-6.46,3.518c-0.84,3.413-0.197,4.9,3.12,5.496c1.465,0.263,2.89,0.738,4.338,1.096
				c1.497,0.37,2.41,1.053,1.797,2.807c-0.458,1.313-0.882,2.644-2.682,2.164c-7.687-2.049-15.373-4.102-23.036-6.236
				c-1.475-0.411-1.251-1.632-0.958-2.871c0.316-1.34,0.904-2.153,2.355-1.877c1.135,0.216,2.243,0.575,3.361,0.878
				c6.703,1.813,6.712,1.755,8.157-4.741c0.439-1.974,0.333-3.087-1.994-3.444c-1.951-0.3-3.821-1.096-5.747-1.593
				c-1.765-0.455-3.157-0.927-2.4-3.338c0.626-1.994,1.852-2.077,3.443-1.646c7.2,1.95,14.389,3.947,21.601,5.856
				c1.669,0.442,2.021,1.224,1.637,2.884C427.833,344.757,426.869,345.316,423.963,344.512z"/>
			<path fill-rule="evenodd" clip-rule="evenodd" fill="#F2F8F0" d="M433.668,219.638c1.881,0.53,2.859,0.74,3.791,1.08
				c2.716,0.988,3.794,0.409,3.72-2.798c-0.102-4.323,2.58-6.523,6.778-5.86c4.403,0.695,8.714,2.001,13.052,3.09
				c1.625,0.408,1.98,1.39,1.42,3.021c-0.553,1.613-1.496,2.08-3.007,1.676c-3.044-0.813-6.063-1.729-9.123-2.479
				c-1.691-0.414-4.002-1.418-4.647,1.047c-0.624,2.383,0.361,4.61,3.146,5.379c2.561,0.708,5.134,1.371,7.69,2.089
				c1.687,0.474,3.851,0.432,2.906,3.376c-0.78,2.431-2.389,1.842-3.976,1.419c-7.214-1.921-14.419-3.878-21.618-5.854
				c-1.442-0.396-3.058-0.733-2.473-2.916C431.788,220.197,432.682,219.263,433.668,219.638z"/>
			<path fill-rule="evenodd" clip-rule="evenodd" fill="#F2F8F0" d="M437.45,245.963c7.105,0.091,7.805,1.039,6.055,7.314
				c-0.178,0.639-0.565,1.295-0.508,1.909c0.136,1.425-2.334,3.414,0.269,4.147c2.142,0.604,3.064-1.59,3.545-3.395
				c0.294-1.102,0.254-2.311,0.241-3.471c-0.017-1.666-0.426-3.53,2.151-3.569c2.557-0.038,2.227,2.114,2.426,3.585
				c0.637,4.706-2.064,9.904-5.677,11.291c-3.753,1.44-12.808-0.744-14.843-3.778c-2.388-3.559-0.699-7.071,0.631-10.451
				C432.847,246.735,435.007,245.403,437.45,245.963z M439.102,253.83c0.996-1.89,0.932-2.918-0.765-3.063
				c-2.446-0.208-3.058,1.491-3.401,3.428c-0.277,1.563-0.367,3.462,1.489,3.658C439.884,258.22,438.332,254.716,439.102,253.83z"/>
			<path fill-rule="evenodd" clip-rule="evenodd" fill="#F2F8F0" d="M426.526,334.331c-4.794-0.41-9.349-2.043-13.988-3.31
				c-1.852-0.505-1.638-1.842-1.178-3.176c0.536-1.554,1.609-1.859,3.166-1.387c3.016,0.914,6.048,1.818,9.129,2.453
				c1.595,0.329,3.989,1.459,4.454-1.344c0.365-2.198-0.334-4.287-3.042-4.962c-2.736-0.681-5.427-1.546-8.152-2.272
				c-1.659-0.442-3.359-0.689-2.716-3.159c0.59-2.266,1.928-2.207,3.797-1.667c4.625,1.335,9.285,2.558,13.956,3.728
				c2.585,0.648,3.452,2.243,1.894,4.267c-1.271,1.65-1.033,3.269-1.213,5.017C432.267,332.078,430.621,334.517,426.526,334.331z"/>
			<path fill-rule="evenodd" clip-rule="evenodd" fill="#F2F8F0" d="M424.753,295.685c4.327,1.13,8.654,2.259,12.98,3.389
				c1.474,0.385,2.342,1.025,1.789,2.828c-0.551,1.8-1.537,2.41-3.314,1.914c-2.877-0.804-5.747-1.636-8.647-2.349
				c-1.831-0.45-4.31-1.699-4.955,1.156c-0.535,2.369,0.596,4.547,3.415,5.24c2.579,0.635,5.139,1.356,7.697,2.073
				c1.545,0.434,3.451,0.459,2.764,3.075c-0.604,2.304-2.074,2.237-3.817,1.762c-4.644-1.266-9.281-2.554-13.922-3.829
				c-1.119-0.308-3.028-0.95-2.437-1.874c2.274-3.552,0.815-8.101,3.377-11.438C420.932,296.005,422.804,295.898,424.753,295.685z"/>
			<path fill-rule="evenodd" clip-rule="evenodd" fill="#F2F8F0" d="M439.599,276.801c-3.825-2.994-6.176-6.13-10.207-6.838
				c-1.511-0.265-2.421-0.968-1.939-2.731c0.447-1.639,1.158-2.584,3.121-2.228c6.904,1.254,10.852,6.642,15.272,11.181
				c1.07,1.099,0.623,4.377-1.801,4.854c-5.57,1.099-10.986,3.798-16.941,1.978c-1.874-0.572-3.587-0.891-2.962-3.506
				c0.576-2.411,2.134-2.013,3.835-1.562C431.657,278.927,435.116,277.76,439.599,276.801z"/>
			<path fill-rule="evenodd" clip-rule="evenodd" fill="#F2F8F0" d="M455.751,241.813c-0.484,2.165-0.996,3.743-3.307,3.122
				c-5.099-1.37-10.196-2.741-15.29-4.131c-1.771-0.483-2.664-1.689-1.615-3.304c1.13-1.738,1.64-3.446,1.494-5.495
				c-0.097-1.36,0.738-2.155,2.18-2.022c1.22,0.112,2.547,0.492,2.13,2.025c-1.336,4.913,2.072,5.471,5.424,6.251
				c2.249,0.523,4.456,1.226,6.689,1.82C454.629,240.393,455.548,240.917,455.751,241.813z"/>
			<path fill-rule="evenodd" clip-rule="evenodd" fill="#72C04D" d="M450.136,200.11c0.601-1.025-0.006-3.843,1.923-4.055
				c2.69-0.296,5.665,0.384,7.844,2.268c1.552,1.342,1.972,3.383,1.313,5.471c-0.1,0.314-0.146,0.691-0.351,0.919
				c-2.585,2.87-5.224,0.233-7.771-0.1C451.177,204.362,449.109,203.431,450.136,200.11z"/>
			<path fill-rule="evenodd" clip-rule="evenodd" fill="#72C04D" d="M439.102,253.83c-0.77,0.886,0.782,4.39-2.677,4.023
				c-1.856-0.196-1.767-2.096-1.489-3.658c0.344-1.937,0.955-3.636,3.401-3.428C440.033,250.912,440.098,251.94,439.102,253.83z"/>
			<path fill-rule="evenodd" clip-rule="evenodd" fill="#72C04D" d="M458.815,168.962c0.388-1.793,0.32-4.08,3.128-4.177
				c0.978-0.034,2.403,0.213,1.733,1.554c-0.947,1.897,0.33,5.171-2.892,5.597C459.261,172.137,458.69,170.593,458.815,168.962z"/>
		</g>
	</a>
	<a xlink:href="../hoe-reageren" target='_top'>
		<g id="WAARPAGE-hoe" class="svgnavani">
			<path fill-rule="evenodd" clip-rule="evenodd" fill="#F3F8FC" d="M368.368,146.183c-3.697,0.042-10.274-4.716-11.888-8.81
				c-1.697-4.309,1.313-6.862,3.96-9.333c3.998-3.733,9.907-2.5,12.521,2.314c0.748,1.377,0.169,2.182-0.605,3.044
				c-1.549,1.725-3.199,3.359-4.714,5.113c-0.647,0.751-2.266,1.382-0.91,2.764c0.987,1.005,2.089,0.59,3.188,0.006
				c2.201-1.169,3.305-3.149,4.209-5.335c0.471-1.136,1.165-2.057,2.65-1.387c1.111,0.502,1.84,0.957,1.59,2.564
				C377.695,141.446,372.705,146.135,368.368,146.183z M367.804,132.493c-0.403-1.461-1.612-2.196-2.614-1.922
				c-2.289,0.625-4.137,2.047-4.146,4.744c-0.003,0.944,0.723,2.367,1.591,2.039C364.964,136.474,366.41,134.411,367.804,132.493z"/>
			<path fill-rule="evenodd" clip-rule="evenodd" fill="#F3F8FC" d="M379.306,116.831c-1.115-0.112-1.942,0.341-2.294,1.433
				c-0.503,1.563-1.303,3.163,0.22,4.646c2.267,2.207,4.505,4.444,6.798,6.625c1.313,1.249,2.314,2.338,0.504,4.073
				c-1.566,1.5-2.604,0.758-3.771-0.389c-3.563-3.503-7.155-6.975-10.704-10.491c-0.904-0.896-2.481-2.425-0.729-3.142
				c3.238-1.324,3.936-4.542,6.074-6.6c2.319-2.232,4.972-1.972,7.231-0.113c3.334,2.741,6.412,5.793,9.592,8.72
				c1.146,1.054,1.409,2.198,0.314,3.477c-1.364,1.595-2.657,0.939-3.847-0.171c-2.191-2.044-4.314-4.161-6.485-6.226
				C381.37,117.873,380.59,116.956,379.306,116.831z"/>
			<path fill-rule="evenodd" clip-rule="evenodd" fill="#F3F8FC" d="M397.091,99.525c-0.688,2.709-1.669,5.489-1.024,8.53
				c0.116,0.547-1.077,1.703-1.89,2.044c-1.456,0.612-1.97-0.821-2.509-1.77c-1.241-2.182-1.165-4.438-0.033-6.648
				c1.199-2.342-0.21-3.775-1.794-5.074c-1.513-1.241-3.072-1.124-4.415,0.319c-1.327,1.427-3.145,2.812-1.312,5.041
				c1.612,1.959,0.165,3.115-1.168,4.035c-1.933,1.333-2.554-0.627-3.376-1.721c-2.33-3.1-1.246-6.031,0.839-8.627
				c2.558-3.185,5.546-6.168,10.121-4.354C394.047,92.696,396.595,95.287,397.091,99.525z"/>
			<path fill-rule="evenodd" clip-rule="evenodd" fill="#F3F8FC" d="M359.289,158.505c-1.343,0.055-14.515-12.575-14.607-13.641
				c-0.104-1.198,0.905-1.676,1.586-2.332c0.786-0.757,2.26-0.397,2.704-1.88c0.53-1.772,1.306-3.831,3.769-2.388
				c2.301,1.348,0.505,2.75-0.268,4.112c-1.074,1.893-0.493,3.434,1.035,4.858c2.431,2.267,4.774,4.627,7.145,6.958
				c0.731,0.719,1.437,1.528,0.559,2.545C360.583,157.465,359.792,158.05,359.289,158.505z"/>
			<path fill-rule="evenodd" clip-rule="evenodd" fill="#F3F8FC" d="M400.108,110.984c1.353,0.373,2.667,1.1,2.476,2.559
				c-0.163,1.241-1.151,2.513-2.675,2.478c-1.443-0.034-2.638-1.007-2.471-2.467C397.586,112.267,398.658,111.285,400.108,110.984z"/>
			<path fill-rule="evenodd" clip-rule="evenodd" fill="#FEFEFE" d="M444.031,84.75c0.028-2.078-1.611-2.606-2.757-3.434
				c-8.159-5.895-15.455-12.758-21.505-20.745c-2.875-3.796-4.931-3.893-8.841-1.56c-85.924,51.274-171.915,102.437-257.967,153.495
				c-3.542,2.102-4.155,3.456-1.812,7.062c35.625,54.819,81.182,99.398,136.887,133.652c3.381,2.079,4.307,0.868,5.846-1.866
				c49.478-87.922,99.019-175.807,148.548-263.698C443.001,86.644,443.552,85.622,444.031,84.75z"/>
			<path fill-rule="evenodd" clip-rule="evenodd" fill="#1792D0" d="M444.031,84.75c-0.479,0.872-1.03,1.894-1.601,2.905
				c-49.529,87.892-99.07,175.776-148.548,263.698c-1.539,2.734-2.465,3.945-5.846,1.866
				c-55.706-34.254-101.262-78.833-136.887-133.652c-2.343-3.606-1.729-4.96,1.812-7.062
				c86.052-51.059,172.043-102.221,257.967-153.495c3.91-2.333,5.966-2.236,8.841,1.56c6.05,7.987,13.346,14.85,21.505,20.745
				C442.42,82.144,444.06,82.672,444.031,84.75z M232.943,251.646c-1.375,0.029-1.884,0.99-2.494,1.709
				c-0.732,0.861-0.682,1.849,0.15,2.674c1.415,1.403,2.759,2.904,4.316,4.131c2.433,1.917,2.023,3.243,0.101,5.555
				c-2.958,3.559-5.226,3.895-7.968,0.083c-0.57-0.793-1.455-1.355-2.167-2.052c-1.224-1.198-2.338-2.472-4.11-0.626
				c-1.564,1.629-1.076,2.803,0.369,4.164c5.318,5.009,10.595,10.063,15.835,15.153c1.363,1.324,2.415,1.312,3.768-0.036
				c1.531-1.524,0.837-2.596-0.388-3.729c-1.098-1.015-2.105-2.142-3.284-3.05c-2.379-1.834-2.17-3.169-0.241-5.59
				c2.793-3.507,4.904-4.367,7.792-0.442c0.574,0.78,1.543,1.257,2.228,1.971c1.166,1.215,2.163,1.852,3.736,0.381
				c1.805-1.687,0.969-2.765-0.384-4.052c-5.294-5.036-10.545-10.116-15.826-15.165C233.91,252.277,233.338,251.939,232.943,251.646z
				M344.183,183.83c0.041-3.68-1.906-5.583-3.757-7.464c-2.091-2.126-4.359-4.076-6.513-6.142c-7.455-7.152-7.371-7.089-14.349,0.732
				c-2.939,3.295-3.221,6.403-0.395,9.728c1.284,1.51,2.64,2.995,4.15,4.269c5.605,4.727,8.971,4.14,12.715-2.114
				c0.471-0.786,0.568-2.189,1.942-1.474c1.186,0.617,1.528,1.904,0.718,2.978c-1.092,1.446-2.463,2.681-3.704,4.016
				c-0.691,0.745-1.381,1.538-0.573,2.584c0.609,0.789,1.529,1.837,2.441,1.128C339.956,189.665,343.271,187.348,344.183,183.83z
				M313.01,204.125c1.018-0.163,1.708-0.16,2.313-0.387c4.554-1.71,5.21-7.315,9.448-9.509c0.907-0.47-0.474-2.001-1.321-2.795
				c-2.303-2.156-4.605-4.313-6.913-6.465c-5.733-5.346-5.773-5.382-11.115,0.165c-2.365,2.455-5.752,4.795-3.765,8.889
				C304.055,198.963,307.895,202.51,313.01,204.125z M269.108,249.181c4.366,0.079,9.231-4.28,10.173-8.809
				c0.306-1.469-0.04-2.119-1.256-2.725c-1.391-0.692-2.29-0.158-2.788,1.064c-0.762,1.871-1.616,3.684-3.268,4.891
				c-1.312,0.959-2.978,2.246-4.368,0.484c-1.191-1.509,0.823-2.19,1.566-3.093c1.364-1.66,2.926-3.158,4.336-4.782
				c0.629-0.725,1.145-1.43,0.599-2.636c-2.049-4.528-8.348-6.263-12.081-3.019c-2.85,2.476-6.123,5.034-4.645,9.582
				C258.625,243.976,265.522,249.117,269.108,249.181z M344.22,171.182c4.054,0.021,8.339-3.507,9.766-7.97
				c0.476-1.488,1.01-2.828-1.061-3.619c-1.793-0.685-2.378,0.349-2.922,1.677c-0.765,1.867-1.761,3.595-3.523,4.689
				c-1.115,0.691-2.388,1.567-3.625,0.4c-1.688-1.593,0.351-2.246,1.044-3.09c1.364-1.661,2.945-3.14,4.361-4.76
				c0.73-0.834,1.488-1.598,0.784-3.03c-2.248-4.567-8.336-6.169-12.106-2.854c-2.835,2.492-6.105,5.064-4.514,9.611
				C333.806,166.186,340.589,171.163,344.22,171.182z M299.023,218.18c4.505,0.125,9.937-4.794,10.387-9.204
				c0.131-1.283-0.378-1.773-1.313-2.284c-1.32-0.721-2.281-0.315-2.82,0.945c-0.724,1.69-1.428,3.404-2.875,4.58
				c-1.382,1.123-3.117,2.779-4.721,0.906c-1.433-1.674,0.995-2.383,1.786-3.415c1.204-1.57,2.685-2.926,3.981-4.43
				c0.625-0.724,1.194-1.421,0.694-2.627c-1.859-4.485-8.356-6.336-12.057-3.151c-2.863,2.464-6.132,5.019-4.747,9.562
				C288.484,212.816,295.471,218.082,299.023,218.18z M368.368,146.183c4.337-0.048,9.327-4.737,10.001-9.06
				c0.25-1.607-0.479-2.062-1.59-2.564c-1.485-0.67-2.18,0.251-2.65,1.387c-0.904,2.186-2.008,4.166-4.209,5.335
				c-1.099,0.583-2.2,0.999-3.188-0.006c-1.355-1.382,0.263-2.013,0.91-2.764c1.515-1.754,3.165-3.388,4.714-5.113
				c0.774-0.863,1.354-1.667,0.605-3.044c-2.614-4.814-8.523-6.047-12.521-2.314c-2.647,2.472-5.657,5.025-3.96,9.333
				C358.094,141.467,364.671,146.225,368.368,146.183z M252.447,242.676c-3.782-0.032-9.473,5.734-9.441,9.565
				c0.032,3.942,8.014,11.633,12.203,11.759c3.79,0.114,9.516-5.605,9.479-9.47C264.65,250.725,256.375,242.709,252.447,242.676z
				M379.306,116.831c1.284,0.125,2.064,1.042,2.904,1.841c2.171,2.065,4.294,4.182,6.485,6.226c1.189,1.11,2.482,1.766,3.847,0.171
				c1.095-1.279,0.831-2.422-0.314-3.477c-3.18-2.927-6.258-5.979-9.592-8.72c-2.26-1.858-4.912-2.119-7.231,0.113
				c-2.139,2.058-2.836,5.276-6.074,6.6c-1.753,0.716-0.176,2.246,0.729,3.142c3.549,3.516,7.142,6.988,10.704,10.491
				c1.167,1.147,2.204,1.889,3.771,0.389c1.811-1.734,0.81-2.824-0.504-4.073c-2.293-2.18-4.531-4.417-6.798-6.625
				c-1.522-1.483-0.723-3.083-0.22-4.646C377.363,117.172,378.19,116.719,379.306,116.831z M397.091,99.525
				c-0.496-4.238-3.044-6.829-6.561-8.224c-4.575-1.815-7.563,1.169-10.121,4.354c-2.085,2.596-3.169,5.527-0.839,8.627
				c0.822,1.094,1.443,3.054,3.376,1.721c1.333-0.92,2.78-2.076,1.168-4.035c-1.833-2.229-0.016-3.614,1.312-5.041
				c1.343-1.443,2.902-1.561,4.415-0.319c1.584,1.299,2.993,2.732,1.794,5.074c-1.132,2.211-1.208,4.466,0.033,6.648
				c0.539,0.948,1.053,2.382,2.509,1.77c0.813-0.342,2.006-1.497,1.89-2.044C395.422,105.014,396.403,102.234,397.091,99.525z
				M283.154,208.512c-2.11,2.291-4.348,4.669-6.472,7.144c-0.136,0.158,0.501,1.166,0.947,1.608
				c3.773,3.749,7.612,7.433,11.374,11.193c1.365,1.365,2.457,1.281,3.754-0.098c1.229-1.305,0.904-2.269-0.256-3.346
				c-1.826-1.696-3.559-3.495-5.392-5.183c-2.442-2.25-4.673-4.347-1.714-7.92C286.835,210.173,285.072,209.365,283.154,208.512z
				M359.289,158.505c0.503-0.455,1.294-1.04,1.922-1.767c0.878-1.018,0.173-1.827-0.559-2.545c-2.37-2.332-4.714-4.692-7.145-6.958
				c-1.528-1.424-2.109-2.965-1.035-4.858c0.772-1.363,2.568-2.764,0.268-4.112c-2.463-1.443-3.238,0.616-3.769,2.388
				c-0.444,1.483-1.918,1.123-2.704,1.88c-0.681,0.656-1.689,1.134-1.586,2.332C344.774,145.93,357.946,158.56,359.289,158.505z
				M400.108,110.984c-1.45,0.3-2.522,1.283-2.67,2.569c-0.167,1.46,1.027,2.434,2.471,2.467c1.523,0.035,2.512-1.237,2.675-2.478
				C402.775,112.084,401.461,111.357,400.108,110.984z"/>
			<path fill-rule="evenodd" clip-rule="evenodd" fill="#F3F8FC" d="M232.943,251.646c0.395,0.294,0.966,0.632,1.434,1.079
				c5.281,5.049,10.532,10.129,15.826,15.165c1.354,1.287,2.189,2.365,0.384,4.052c-1.573,1.471-2.57,0.834-3.736-0.381
				c-0.685-0.714-1.654-1.19-2.228-1.971c-2.888-3.925-4.999-3.064-7.792,0.442c-1.929,2.421-2.138,3.756,0.241,5.59
				c1.178,0.908,2.186,2.035,3.284,3.05c1.226,1.133,1.919,2.204,0.388,3.729c-1.353,1.348-2.404,1.36-3.768,0.036
				c-5.24-5.091-10.517-10.145-15.835-15.153c-1.445-1.361-1.933-2.535-0.369-4.164c1.771-1.846,2.886-0.572,4.11,0.626
				c0.712,0.696,1.597,1.259,2.167,2.052c2.743,3.812,5.01,3.476,7.968-0.083c1.922-2.312,2.332-3.638-0.101-5.555
				c-1.557-1.227-2.901-2.728-4.316-4.131c-0.832-0.825-0.882-1.813-0.15-2.674C231.06,252.636,231.568,251.675,232.943,251.646z"/>
			<path fill-rule="evenodd" clip-rule="evenodd" fill="#F3F8FC" d="M344.183,183.83c-0.912,3.518-4.227,5.834-7.323,8.241
				c-0.912,0.709-1.832-0.339-2.441-1.128c-0.808-1.046-0.118-1.84,0.573-2.584c1.241-1.335,2.612-2.569,3.704-4.016
				c0.811-1.074,0.468-2.361-0.718-2.978c-1.374-0.715-1.472,0.688-1.942,1.474c-3.744,6.254-7.109,6.841-12.715,2.114
				c-1.511-1.274-2.866-2.759-4.15-4.269c-2.826-3.325-2.545-6.433,0.395-9.728c6.978-7.822,6.894-7.885,14.349-0.732
				c2.153,2.066,4.422,4.016,6.513,6.142C342.276,178.247,344.224,180.15,344.183,183.83z M333.128,177.369
				c-0.12-2.978-3.501-4.821-6.179-6.529c-1.598-1.019-3.153,1.89-4.106,3.382c-2.617,4.099,1.94,5.165,3.625,7.355
				c0.832,1.083,2.322,2.117,3.931,1.341C332.17,182.064,332.95,180.432,333.128,177.369z"/>
			<path fill-rule="evenodd" clip-rule="evenodd" fill="#F3F8FC" d="M313.01,204.125c-5.115-1.615-8.955-5.163-11.353-10.102
				c-1.987-4.094,1.399-6.434,3.765-8.889c5.342-5.547,5.382-5.511,11.115-0.165c2.308,2.151,4.61,4.309,6.913,6.465
				c0.848,0.793,2.229,2.325,1.321,2.795c-4.238,2.194-4.895,7.799-9.448,9.509C314.718,203.965,314.027,203.963,313.01,204.125z
				M317.128,193.369c-0.12-2.978-3.501-4.821-6.179-6.529c-1.598-1.019-3.153,1.89-4.106,3.382c-2.617,4.099,1.94,5.165,3.625,7.355
				c0.832,1.083,2.322,2.117,3.931,1.341C316.17,198.064,316.95,196.432,317.128,193.369z"/>
			<path fill-rule="evenodd" clip-rule="evenodd" fill="#F3F8FC" d="M269.108,249.181c-3.586-0.063-10.483-5.205-11.731-9.042
				c-1.479-4.548,1.795-7.106,4.645-9.582c3.733-3.244,10.032-1.509,12.081,3.019c0.546,1.206,0.03,1.911-0.599,2.636
				c-1.41,1.625-2.972,3.122-4.336,4.782c-0.743,0.903-2.758,1.584-1.566,3.093c1.391,1.762,3.057,0.475,4.368-0.484
				c1.651-1.207,2.506-3.02,3.268-4.891c0.498-1.222,1.397-1.756,2.788-1.064c1.216,0.605,1.562,1.256,1.256,2.725
				C278.34,244.9,273.475,249.26,269.108,249.181z M268.816,235.53c-0.357-1.479-1.553-2.174-2.581-1.969
				c-2.2,0.439-3.794,1.931-4.21,4.223c-0.21,1.154,0.559,2.852,1.563,2.549C265.979,239.612,267.354,237.393,268.816,235.53z"/>
			<path fill-rule="evenodd" clip-rule="evenodd" fill="#F3F8FC" d="M344.22,171.182c-3.631-0.019-10.414-4.997-11.796-8.945
				c-1.592-4.547,1.679-7.119,4.514-9.611c3.771-3.315,9.858-1.713,12.106,2.854c0.704,1.432-0.054,2.195-0.784,3.03
				c-1.416,1.62-2.997,3.099-4.361,4.76c-0.693,0.844-2.732,1.497-1.044,3.09c1.237,1.167,2.51,0.291,3.625-0.4
				c1.763-1.094,2.759-2.822,3.523-4.689c0.544-1.328,1.129-2.362,2.922-1.677c2.07,0.791,1.536,2.13,1.061,3.619
				C352.559,167.675,348.273,171.203,344.22,171.182z M343.785,157.672c-0.142-1.574-1.403-2.224-2.384-2.112
				c-2.291,0.26-3.774,1.875-4.377,4.053c-0.327,1.184,0.582,2.935,1.398,2.748C340.914,161.789,342.166,159.417,343.785,157.672z"/>
			<path fill-rule="evenodd" clip-rule="evenodd" fill="#F3F8FC" d="M299.023,218.18c-3.553-0.099-10.539-5.364-11.684-9.118
				c-1.385-4.542,1.884-7.097,4.747-9.562c3.7-3.186,10.197-1.334,12.057,3.151c0.5,1.206-0.069,1.903-0.694,2.627
				c-1.297,1.503-2.777,2.859-3.981,4.43c-0.791,1.031-3.219,1.74-1.786,3.415c1.604,1.874,3.339,0.217,4.721-0.906
				c1.447-1.175,2.151-2.89,2.875-4.58c0.539-1.26,1.5-1.667,2.82-0.945c0.935,0.511,1.443,1.001,1.313,2.284
				C308.96,213.386,303.528,218.306,299.023,218.18z M298.771,204.658c-0.169-1.591-1.452-2.248-2.422-2.107
				c-2.25,0.327-3.782,1.893-4.325,4.113c-0.289,1.181,0.577,2.907,1.447,2.69C295.934,208.74,297.218,206.407,298.771,204.658z"/>
			<path fill-rule="evenodd" clip-rule="evenodd" fill="#F3F8FC" d="M252.447,242.676c3.928,0.033,12.203,8.049,12.24,11.854
				c0.037,3.864-5.688,9.584-9.479,9.47c-4.189-0.126-12.171-7.816-12.203-11.759C242.974,248.41,248.665,242.644,252.447,242.676z
				M255.566,259.118c2.043-0.389,3.529-1.934,4.121-4.065c0.492-1.775-5.185-7.67-7.205-7.468c-2.335,0.233-3.907,1.847-4.445,4.074
				C247.582,253.548,253.025,258.982,255.566,259.118z"/>
			<path fill-rule="evenodd" clip-rule="evenodd" fill="#F3F8FC" d="M283.154,208.512c1.918,0.853,3.681,1.661,2.242,3.399
				c-2.959,3.574-0.729,5.67,1.714,7.92c1.833,1.688,3.565,3.487,5.392,5.183c1.16,1.077,1.484,2.041,0.256,3.346
				c-1.297,1.378-2.389,1.462-3.754,0.098c-3.762-3.761-7.601-7.444-11.374-11.193c-0.446-0.443-1.083-1.45-0.947-1.608
				C278.807,213.181,281.044,210.803,283.154,208.512z"/>
			<path fill-rule="evenodd" clip-rule="evenodd" fill="#1792D0" d="M343.785,157.672c-1.619,1.745-2.871,4.117-5.362,4.689
				c-0.816,0.187-1.726-1.564-1.398-2.748c0.603-2.179,2.086-3.793,4.377-4.053C342.382,155.448,343.644,156.098,343.785,157.672z"/>
			<path fill-rule="evenodd" clip-rule="evenodd" fill="#1792D0" d="M367.804,132.493c-1.394,1.918-2.84,3.98-5.17,4.86
				c-0.868,0.328-1.594-1.095-1.591-2.039c0.01-2.696,1.857-4.119,4.146-4.744C366.191,130.297,367.4,131.032,367.804,132.493z"/>
			<path fill-rule="evenodd" clip-rule="evenodd" fill="#1792D0" d="M333.128,177.369c-0.178,3.063-0.958,4.695-2.729,5.549
				c-1.608,0.776-3.099-0.259-3.931-1.341c-1.685-2.19-6.242-3.256-3.625-7.355c0.953-1.492,2.509-4.401,4.106-3.382
				C329.627,172.548,333.008,174.392,333.128,177.369z"/>
			<path fill-rule="evenodd" clip-rule="evenodd" fill="#1792D0" d="M317.128,193.369c-0.178,3.063-0.958,4.695-2.729,5.549
				c-1.608,0.776-3.099-0.259-3.931-1.341c-1.685-2.19-6.242-3.256-3.625-7.355c0.953-1.492,2.509-4.401,4.106-3.382
				C313.627,188.548,317.008,190.392,317.128,193.369z"/>
			<path fill-rule="evenodd" clip-rule="evenodd" fill="#1792D0" d="M268.816,235.53c-1.462,1.862-2.838,4.082-5.229,4.803
				c-1.004,0.303-1.772-1.395-1.563-2.549c0.416-2.292,2.01-3.784,4.21-4.223C267.264,233.356,268.459,234.051,268.816,235.53z"/>
			<path fill-rule="evenodd" clip-rule="evenodd" fill="#1792D0" d="M298.771,204.658c-1.553,1.749-2.837,4.082-5.3,4.696
				c-0.87,0.217-1.736-1.509-1.447-2.69c0.543-2.22,2.075-3.787,4.325-4.113C297.318,202.41,298.602,203.067,298.771,204.658z"/>
			<path fill-rule="evenodd" clip-rule="evenodd" fill="#1792D0" d="M255.566,259.118c-2.541-0.136-7.985-5.57-7.529-7.46
				c0.538-2.227,2.109-3.841,4.445-4.074c2.021-0.202,7.697,5.693,7.205,7.468C259.096,257.185,257.609,258.729,255.566,259.118z"/>
		</g>
	</a>
</svg>
