<?xml version="1.0" encoding="utf-8"?>
<?xml-stylesheet type="text/css" href="homenav.css" ?>
<!-- Generator: Adobe Illustrator 16.0.0, SVG Export Plug-In . SVG Version: 6.00 Build 0)  -->
<!DOCTYPE svg PUBLIC "-//W3C//DTD SVG 1.1//EN" "http://www.w3.org/Graphics/SVG/1.1/DTD/svg11.dtd">
<svg version="1.1" id="Layer_1" xmlns="http://www.w3.org/2000/svg" xmlns:xlink="http://www.w3.org/1999/xlink" x="0px" y="0px"
	 width="500px" height="500px" viewBox="0 0 500 500" enable-background="new 0 0 500 500" xml:space="preserve">
	<a xlink:href="game">
		<g id="console">
			<path fill="#010101" d="M266.224,252.586c-0.144,1.217-0.219,2.447-0.441,3.646c-0.522,2.787-2.565,3.5-4.773,1.686
				c-0.746-0.615-1.543-1.23-2.092-2.006c-1.424-2.01-3.287-2.76-5.678-2.391c-0.441,0.066-0.909,0.061-1.354,0
				c-4.21-0.566-7.841,0.242-10.478,3.971c-0.725,1.023-1.919,1.861-3.369,1.313c-1.381-0.525-1.695-1.77-1.913-3.111
				c-0.751-4.643,0.048-8.99,2.356-13.06c2.17-3.829,5.514-4.813,9.318-2.651c2.18,1.239,4.188,1.255,6.371,0.014
				c3.818-2.169,7.145-1.19,9.336,2.604C265.256,245.633,266.128,248.948,266.224,252.586z"/>
			<path fill="#FDFEFF" d="M244.298,243.425c0.564-0.004,1.094,0.099,0.998,0.823c-0.162,1.261,0.457,1.561,1.567,1.463
				c0.756-0.066,0.757,0.576,0.753,1.072c-0.008,0.516-0.104,1.079-0.852,0.979c-1.109-0.15-1.724,0.16-1.545,1.435
				c0.097,0.69-0.426,0.857-0.996,0.854c-0.566-0.002-1.093-0.174-0.99-0.861c0.189-1.26-0.38-1.562-1.51-1.445
				c-0.709,0.073-0.779-0.509-0.786-1.057c-0.011-0.59,0.171-1.076,0.854-0.982c1.212,0.164,1.627-0.327,1.479-1.503
				C243.179,243.453,243.761,243.428,244.298,243.425z"/>
			<path fill="#F7F8F8" d="M256.893,246.827c0.999,0.059,1.572,0.589,1.58,1.563c0.009,0.964-0.573,1.579-1.524,1.62
				c-1.067,0.047-1.691-0.604-1.659-1.655C255.317,247.402,255.929,246.875,256.893,246.827z"/>
			<path fill="#F7F8F8" d="M262.644,246.258c-0.119,0.891-0.593,1.558-1.535,1.653c-0.965,0.097-1.614-0.458-1.713-1.414
				c-0.11-1.069,0.529-1.745,1.548-1.796C261.876,244.655,262.431,245.309,262.644,246.258z"/>
			<path fill="#F7F8F8" d="M256.756,242.273c1.033,0.086,1.675,0.563,1.706,1.563c0.029,0.989-0.53,1.601-1.524,1.637
				c-0.997,0.035-1.591-0.567-1.646-1.531C255.238,242.945,255.856,242.424,256.756,242.273z"/>
		</g>
	</a>
	<a xlink:href="wat">
		<g id="wat">
			<path fill="#F7E348" d="M246.015,83.336c0.219,0.119,0.438,0.237,0.655,0.356c0.396,0.529,0.608,1.119,0.593,1.785
				c0.006,38.46,0.004,76.921,0,115.382c0,0.968,0.086,1.944-0.15,2.899c-0.268,0.769-0.966,0.938-1.619,1.166
				c-14.871,1.666-26.21,8.933-34.147,21.588c-1.699,3.049-3.349,6.12-4.293,9.51c-0.158,0.451-0.298,0.908-0.432,1.368
				c-0.319,1.056-0.549,2.133-0.757,3.217c-0.268,1.258-0.514,2.512-0.612,3.802c-0.084,1.096-0.289,2.21-1.594,2.607
				c-0.965,0.172-1.937,0.131-2.906,0.131c-37.719,0.002-75.438,0.002-113.156,0.002c-0.97,0-1.942,0.029-2.904-0.109
				c-1.184-0.279-1.343-1.076-1.347-2.193c-0.051-16.754,2.62-33.068,7.795-48.987c0.06-0.183,0.083-0.38,0.119-0.567
				c4.771-14.161,11.183-27.53,19.517-39.946c4.865-7.246,10.244-14.096,16.252-20.444c1.417-1.497,2.69-3.129,4.246-4.5
				c5.268-4.973,10.62-9.85,16.407-14.22c5.778-4.363,11.821-8.331,18.119-11.898c8.898-5.038,18.176-9.259,27.846-12.586
				c9.014-3.103,18.286-5.219,27.673-6.776c4.278-0.709,8.635-0.933,12.969-1.274C238.198,83.341,242.104,83.326,246.015,83.336z"/>
			<g>
				<path fill="#FFFFFF" d="M193.481,161.908c0,0.841-0.131,1.708,0.023,2.521c0.607,3.172-0.762,5.219-3.4,6.814
					c-1.127,0.683-1.983,0.903-2.899-0.072c-1.181-1.256-2.327-1.448-3.556-0.089c-1.053,1.166-1.973,0.799-3.2,0.035
					c-2.588-1.611-3.62-3.667-3.273-6.746c0.295-2.622,0.097-5.303,0.046-7.957c-0.022-1.14,0.334-1.613,1.548-1.625
					c1.218-0.012,1.552,0.432,1.525,1.591c-0.067,2.782-0.021,5.568-0.021,8.352c0,0.388-0.011,0.778,0.006,1.166
					c0.053,1.198,0.969,2.179,1.813,2.173c0.861-0.006,1.732-0.987,1.723-2.23c-0.022-3.042,0.024-6.086-0.021-9.129
					c-0.017-1.199,0.14-1.931,1.648-1.933c1.523-0.002,1.449,0.846,1.441,1.874c-0.022,2.849-0.014,5.698-0.002,8.547
					c0.002,0.511-0.098,1.153,0.162,1.501c0.436,0.583,1.019,1.615,1.664,1.378c0.871-0.319,1.752-1.01,1.725-2.305
					c-0.063-3.107,0.009-6.216-0.035-9.323c-0.016-1.074,0.165-1.663,1.461-1.667c1.29-0.005,1.702,0.428,1.643,1.686
					C193.417,158.278,193.481,160.095,193.481,161.908z"/>
				<path fill="#FFFFFF" d="M177.577,188.978c0-2.461,0.03-4.921-0.014-7.379c-0.018-1.013,0.203-1.551,1.382-1.537
					c1.14,0.014,1.725,0.365,1.639,1.558c-0.018,0.258-0.005,0.518-0.001,0.777c0.018,1.034-0.326,2.298,0.147,3.045
					c0.618,0.975,1.603-0.332,2.529-0.341c2.443-0.024,3.851,1.259,3.974,4.183c0.103,2.456-0.005,4.92,0.05,7.378
					c0.022,1.036-0.401,1.353-1.38,1.333c-0.942-0.019-1.682-0.112-1.672-1.313c0.018-2.201,0.018-4.401-0.008-6.602
					c-0.011-0.864,0.234-2.137-1.053-2.09c-1.201,0.044-2.487,0.633-2.558,2.163c-0.094,2.002-0.054,4.014-0.019,6.02
					c0.019,1.116-0.167,1.813-1.564,1.844c-1.511,0.035-1.474-0.81-1.462-1.854C177.596,193.768,177.577,191.373,177.577,188.978z"/>
				<path fill="#FFFFFF" d="M206.606,165.546c0,1.548,0.006,3.097-0.002,4.645c-0.003,0.635,0.125,1.432-0.668,1.632
					c-0.708,0.178-1.711,0.466-2.118-0.341c-0.51-1.012-0.893-0.475-1.451-0.182c-3.042,1.597-5.691,0.528-6.324-2.761
					c-0.437-2.263-0.48-4.616,0.183-6.893c0.492-1.689,1.592-2.58,3.403-2.553c1.805,0.028,3.611,0.048,5.414-0.01
					c1.194-0.039,1.605,0.492,1.575,1.623C206.573,162.319,206.606,163.933,206.606,165.546z"/>
				<path fill="#FFFFFF" d="M192.422,192.921c0.299,2.208,1.827,2.331,3.323,2.244c0.806-0.047,1.62-0.433,2.37-0.792
					c0.894-0.428,1.186,0.177,1.478,0.746c0.281,0.546,0.723,1.133-0.132,1.653c-2.178,1.327-4.49,1.719-6.856,0.742
					c-2.26-0.935-2.965-2.917-2.983-5.217c-0.002-0.388-0.003-0.777-0.002-1.166c0.002-5.271,1.65-6.691,6.912-5.947
					c1.655,0.234,2.704,1.216,3.101,2.803c1.127,4.509,0.778,4.934-3.855,4.934C194.691,192.921,193.606,192.921,192.422,192.921z"/>
				<path fill="#FFFFFF" d="M215.633,180.091c3.343,0.005,4.573,0.934,5.188,3.922c0.634,3.077-0.409,5.146-3.233,6.351
					c-0.619,0.264-1.145,0.526-1.238,1.309c-0.173,1.416-1.264,1.338-2.208,1.131c-1.218-0.267-0.851-1.298-0.672-2.064
					c0.344-1.473,1.198-2.553,2.739-2.961c1.838-0.487,1.89-1.846,1.621-3.355c-0.296-1.667-1.558-1.678-2.826-1.592
					c-1.006,0.069-1.736,0.526-1.733,1.67c0.002,1.301-0.841,1.385-1.836,1.377c-1.254-0.01-1.252-0.824-1.223-1.722
					C210.306,181.429,212.088,180.086,215.633,180.091z"/>
				<path fill="#FFFFFF" d="M164.177,197.96c-0.859-0.321-2.76,0.868-2.745-1.353c0.013-2.187,1.872-1.078,2.947-1.351
					c0.122-0.031,0.258-0.001,0.386-0.005c0.84-0.022,1.977,0.006,2.151-0.857c0.207-1.024-1.026-1.126-1.749-1.42
					c-2.903-1.179-4.088-2.872-3.642-5.123c0.35-1.765,1.556-2.458,3.126-2.65c1.081-0.132,2.192,0,3.285-0.067
					c1.053-0.065,1.505,0.287,1.51,1.414c0.005,1.213-0.62,1.379-1.588,1.331c-0.771-0.038-1.553-0.046-2.318,0.039
					c-0.487,0.054-1.065,0.186-1.164,0.822c-0.092,0.599,0.3,0.988,0.771,1.225c0.688,0.348,1.417,0.612,2.124,0.92
					c2.134,0.926,2.86,2.153,2.5,4.224c-0.278,1.603-1.686,2.71-3.665,2.848C165.53,197.995,164.947,197.96,164.177,197.96z"/>
				<path fill="#FFFFFF" d="M213.652,171.927c-2.499-0.017-3.495-0.864-3.75-3.407c-0.136-1.343-0.013-2.711-0.077-4.063
					c-0.053-1.101,0.458-2.334-1.181-3.006c-0.637-0.262-0.677-1.83,0.156-2.124c1.158-0.407,1.082-1.106,1.025-1.916
					c-0.081-1.141,0.381-1.708,1.534-1.696c1.175,0.013,1.606,0.682,1.509,1.761c-0.092,1.037,0.062,1.742,1.383,1.677
					c0.759-0.038,0.854,0.715,0.856,1.284c0.002,0.65-0.12,1.414-0.999,1.356c-1.31-0.086-1.26,0.718-1.239,1.606
					c0.026,1.097,0.052,2.198-0.005,3.293c-0.081,1.545,0.131,2.742,2.137,2.53c1.093-0.116,0.997,0.717,1.014,1.438
					c0.016,0.717-0.081,1.307-1.008,1.268C214.555,171.909,214.103,171.925,213.652,171.927z"/>
				<path fill="#FFFFFF" d="M206.301,197.97c-2.571-0.011-3.581-0.914-3.797-3.565c-0.108-1.348-0.008-2.711-0.057-4.066
					c-0.037-1.053,0.409-2.202-1.164-2.821c-0.662-0.26-0.684-1.858,0.111-2.128c1.283-0.434,1.085-1.251,1.05-2.098
					c-0.048-1.103,0.499-1.526,1.506-1.528c1.017-0.002,1.559,0.479,1.544,1.536c-0.012,0.945-0.261,2.02,1.349,1.893
					c0.763-0.06,0.873,0.689,0.882,1.26c0.011,0.648-0.092,1.429-0.969,1.38c-1.27-0.07-1.307,0.658-1.271,1.583
					c0.039,1.031,0.061,2.069-0.003,3.097c-0.103,1.678,0.066,3.005,2.302,2.773c0.989-0.103,0.816,0.769,0.843,1.389
					c0.031,0.693-0.022,1.328-0.973,1.296C207.204,197.957,206.751,197.97,206.301,197.97z"/>
				<path fill="#FFFFFD" d="M158.442,190.521c0,1.034-0.022,2.068,0.008,3.101c0.02,0.659-0.201,1.338,0.76,1.74
					c0.886,0.372,0.49,1.368,0.387,2.08c-0.102,0.706-0.79,0.513-1.273,0.526c-0.968,0.027-1.938,0.034-2.904,0
					c-0.591-0.022-1.459,0.256-1.487-0.732c-0.02-0.724-0.542-1.806,0.818-1.98c0.769-0.1,0.675-0.647,0.678-1.147
					c0.01-1.681,0.003-3.36,0.003-5.04c0-0.59,0.038-1.102-0.819-1.236c-1.178-0.186-0.671-1.208-0.693-1.894
					c-0.029-0.854,0.675-0.756,1.252-0.794c3.198-0.213,3.267-0.153,3.268,3.053C158.443,188.97,158.442,189.745,158.442,190.521z"/>
				<path fill="#FEFEF8" d="M214.779,197.951c-1.218,0.203-1.454-0.396-1.478-1.426c-0.03-1.25,0.674-1.271,1.592-1.293
					c1.074-0.026,1.513,0.412,1.487,1.474C216.351,197.867,215.684,198.099,214.779,197.951z"/>
				<path fill="#FFFFFD" d="M156.756,182.795c-1.231,0.216-1.317-0.521-1.343-1.486c-0.028-1.113,0.554-1.21,1.441-1.241
					c1.066-0.036,1.573,0.394,1.556,1.432C158.392,182.582,157.777,182.964,156.756,182.795z"/>
				<path fill="#F7E348" d="M203.622,164.997c0.333,1.553-0.218,2.998-1.973,3.849c-1.644,0.798-2.817,0.235-3.038-1.555
					c-0.141-1.142-0.126-2.32-0.028-3.47c0.157-1.871,0.773-2.066,3.748-2.035c1.844,0.021,1.155,1.258,1.286,2.134
					C203.653,164.173,203.622,164.436,203.622,164.997z"/>
				<path fill="#F7E349" d="M194.689,190.708c-0.701-0.583-2.197,0.744-2.267-0.938c-0.051-1.244,0.86-1.953,2.191-1.902
					c1.247,0.046,2.479,0.259,2.368,1.862C196.864,191.431,195.411,190.149,194.689,190.708z"/>
			</g>
		</g>
	</a>
	<a xlink:href="hunVerhalen">
		<g id="hunVerhalen">
			<g>
				<path fill="#71BF4D" d="M246.69,295.268c-0.038,0.102-0.025,0.197,0.037,0.285c0.283,0.441,0.365,0.947,0.465,1.447
					c0.124,0.902,0.072,1.809,0.073,2.715c0.003,37.541,0.003,75.084-0.003,112.623c0,1.096,0.105,2.201-0.152,3.285
					c-0.52,1.146-1.593,0.938-2.525,0.969c-6.863,0.229-13.68-0.41-20.469-1.299c-11.056-1.443-21.8-4.178-32.333-7.842
					c-10.802-3.756-20.951-8.836-30.762-14.648c-6.715-4.373-13.372-8.826-19.479-14.055c-7.228-6.188-13.988-12.82-20.064-20.158
					c-6.615-7.984-12.622-16.381-17.601-25.49c-4.037-7.385-7.68-14.953-10.534-22.885c-0.438-1.217-0.893-2.424-1.422-3.609
					c-3.516-10.51-6.047-21.232-7.393-32.242c-0.723-5.91-1.245-11.816-1.129-17.779c0.031-1.6,0.354-2.609,2.238-2.543
					c0.758,0.027,1.544-0.082,2.319-0.082c37.602-0.004,75.203-0.004,112.804-0.002c1.343,0,2.69-0.039,3.975,0.465l-0.037-0.049
					c0.792,0.963,0.738,2.178,0.938,3.305c1.634,9.266,5.764,17.168,12.396,23.893c3.924,3.979,8.371,7.061,13.362,9.416
					c4.11,1.941,8.472,3.078,12.985,3.561C245.233,294.639,245.995,294.781,246.69,295.268z"/>
				<path fill="#FFFFFF" d="M195.419,304.605c0,2.332-0.062,4.664,0.024,6.992c0.049,1.289-0.546,1.473-1.632,1.479
					c-1.077,0.004-1.523-0.32-1.468-1.443c0.073-1.484-0.015-2.977,0.029-4.465c0.024-0.824-0.252-1.225-1.107-1.117
					c-0.064,0.006-0.129,0.002-0.193,0c-4.234-0.207-4.234-0.207-4.234,4.004c-0.001,0.584-0.031,1.168,0.002,1.748
					c0.072,1.281-0.778,1.225-1.669,1.26c-0.969,0.041-1.403-0.254-1.395-1.303c0.036-4.855,0.037-9.709,0-14.563
					c-0.008-1.084,0.494-1.295,1.427-1.273c0.922,0.02,1.682,0.043,1.643,1.295c-0.049,1.617,0.025,3.236-0.021,4.855
					c-0.025,0.873,0.204,1.223,1.173,1.281c4.365,0.262,4.362,0.299,4.362-4.09c0-0.391-0.014-0.779,0.003-1.166
					c0.043-1.025-0.404-2.201,1.479-2.213c1.785-0.012,1.585,1.01,1.579,2.119C195.411,300.205,195.419,302.406,195.419,304.605z"/>
				<path fill="#FDFEFF" d="M169.748,327.223c0.68-0.311,1.127-0.557,1.603-0.727c2.515-0.898,4.729,0.289,4.948,2.945
					c0.238,2.893,0.086,5.816,0.108,8.729c0.008,1.16-0.857,0.855-1.517,0.928c-1.014,0.113-1.433-0.406-1.439-1.342
					c-0.015-2.135,0.02-4.271-0.032-6.404c-0.022-0.893,0.339-2.311-1.079-2.238c-1.242,0.064-2.547,0.732-2.582,2.375
					c-0.042,2.006-0.053,4.014,0.004,6.018c0.033,1.135-0.306,1.619-1.531,1.623c-1.24,0.004-1.532-0.51-1.524-1.631
					c0.038-4.916,0.042-9.834-0.002-14.75c-0.011-1.184,0.411-1.559,1.583-1.572c1.295-0.016,1.508,0.609,1.47,1.68
					C169.711,324.254,169.748,325.658,169.748,327.223z"/>
				<path fill="#FDFEFF" d="M189.593,332.629c0,1.615,0.016,3.234-0.008,4.85c-0.008,0.547,0.223,1.307-0.521,1.496
					c-0.709,0.178-1.682,0.5-2.127-0.287c-0.503-0.891-0.859-0.543-1.472-0.23c-3.262,1.668-5.596,0.459-6.391-3.164
					c-0.455-2.078-0.317-4.115,0.139-6.139c0.458-2.033,1.583-2.857,3.757-2.887c1.616-0.021,3.234,0.063,4.844-0.025
					c1.313-0.072,1.899,0.322,1.805,1.732C189.513,329.521,189.593,331.078,189.593,332.629z"/>
				<path fill="#FDFEFF" d="M145.366,331.98c-0.021-1.1,0.027-2.189,0.379-3.252c0.188-0.564,0.419-1.102,0.881-1.473
					c1.933-1.543,4.192-1.117,6.316-0.789c1.861,0.289,2.416,1.928,2.663,3.615c0.028,0.191,0.083,0.379,0.108,0.57
					c0.427,3.188,0.25,3.387-2.971,3.387c-1.033,0-2.066-0.033-3.096,0.018c-0.444,0.021-1.137-0.307-1.238,0.498
					c-0.081,0.646,0.317,1.096,0.873,1.381c1.318,0.676,2.643,0.443,3.922-0.084c0.912-0.377,1.656-0.945,2.299,0.48
					c0.659,1.467-0.382,1.654-1.21,2.059C149.183,340.879,145.328,338.105,145.366,331.98z"/>
				<path fill="#FFFFFF" d="M204.757,334.039c-0.71,0-1.423-0.041-2.128,0.016c-0.459,0.037-1.139-0.311-1.323,0.387
					c-0.197,0.75,0.367,1.207,0.953,1.506c1.461,0.748,2.902,0.404,4.251-0.295c1.002-0.518,1.497-0.242,1.909,0.738
					c0.345,0.818,0.196,1.236-0.584,1.705c-4.734,2.828-9.469,0.266-9.607-5.238c-0.008-0.324-0.011-0.646,0-0.969
					c0.188-5.545,2.213-6.189,7.733-5.387c1.711,0.248,2.267,1.76,2.56,3.287c0.096,0.5,0.092,1.025,0.103,1.541
					c0.059,2.709,0.054,2.709-2.703,2.711C205.53,334.039,205.143,334.039,204.757,334.039z"/>
				<path fill="#FDFEFF" d="M210.728,332.578c0-1.551-0.037-3.104,0.011-4.652c0.045-1.49,1.769-2.537,2.55-1.484
					c0.909,1.223,1.376,0.359,2.013,0.115c2.503-0.959,4.383-0.045,4.998,2.557c0.707,2.994,0.251,6.047,0.293,9.072
					c0.017,1.209-1.05,0.84-1.762,0.904c-0.953,0.09-1.231-0.439-1.223-1.295c0.018-2.133,0.006-4.266,0.001-6.398
					c0-0.961,0.162-2.061-1.114-2.352c-0.966-0.223-2.744,1.371-2.773,2.482c-0.054,2.066-0.053,4.139-0.003,6.203
					c0.024,0.963-0.229,1.412-1.292,1.391c-0.967-0.021-1.678-0.164-1.683-1.311c-0.008-1.744-0.001-3.488-0.001-5.232
					C210.736,332.578,210.731,332.578,210.728,332.578z"/>
				<path fill="#FDFEFF" d="M210.731,306.594c-0.001-1.615-0.047-3.23,0.012-4.844c0.049-1.371,2.06-2.369,2.656-1.316
					c0.732,1.297,1.159,0.383,1.662,0.172c2.669-1.129,4.613-0.215,5.257,2.588c0.673,2.934,0.213,5.92,0.285,8.881
					c0.028,1.215-0.98,0.914-1.708,0.973c-0.902,0.074-1.298-0.324-1.289-1.234c0.022-2.133,0.015-4.266-0.001-6.398
					c-0.007-1.008,0.226-2.227-1.237-2.418c-1.048-0.135-2.628,1.465-2.652,2.615c-0.041,2.002-0.035,4.008-0.002,6.01
					c0.014,0.885-0.085,1.469-1.222,1.457c-1.067-0.012-1.77-0.207-1.759-1.443C210.745,309.955,210.734,308.275,210.731,306.594z"/>
				<path fill="#FDFEFF" d="M207.852,306.684c0,1.488,0.005,2.979-0.001,4.467c-0.008,1.863-1.092,2.627-2.596,1.615
					c-0.712-0.48-1.056-0.334-1.666-0.09c-2.896,1.156-5.085-0.096-5.323-3.244c-0.203-2.705-0.042-5.434-0.086-8.152
					c-0.018-1.076,0.645-1.059,1.404-1.072c0.848-0.014,1.564,0.037,1.558,1.172c-0.014,2.199-0.04,4.402,0.038,6.6
					c0.032,0.881-0.287,2.299,1.144,2.225c1.279-0.066,2.535-0.74,2.563-2.385c0.035-2.004,0.048-4.014-0.003-6.02
					c-0.03-1.127,0.311-1.602,1.537-1.623c1.311-0.021,1.486,0.582,1.447,1.654C207.807,303.445,207.852,305.066,207.852,306.684z"/>
				<path fill="#FDFEFF" d="M138.149,335.15c1.018-2.637,2.631-4.781,2.286-7.559c-0.144-1.164,0.611-1.334,1.592-1.354
					c1.035-0.021,1.595,0.293,1.619,1.385c0.035,1.555,0.054,3.076-0.703,4.533c-0.982,1.891-1.871,3.828-2.736,5.775
					c-0.398,0.898-0.969,1.23-1.948,1.188c-0.937-0.039-1.716-0.035-2.178-1.104c-0.972-2.252-2.081-4.443-3.101-6.674
					c-0.619-1.354-0.349-2.809-0.27-4.209c0.066-1.162,1.099-0.795,1.82-0.871c0.931-0.098,1.405,0.43,1.314,1.242
					C135.536,330.268,136.981,332.465,138.149,335.15z"/>
				<path fill="#FDFEFD" d="M195.421,328.988c0,1.74-0.032,3.484,0.014,5.225c0.024,0.918-0.474,2.041,1.121,2.389
					c0.599,0.131,0.424,1.139,0.324,1.768c-0.103,0.639-0.623,0.738-1.179,0.725c-0.516-0.01-1.038-0.051-1.546,0.012
					c-1.341,0.16-1.81-0.371-1.784-1.74c0.074-3.936,0.035-7.871,0.017-11.807c-0.003-0.703,0.294-1.502-0.923-1.738
					c-0.884-0.172-0.639-1.145-0.563-1.822c0.087-0.77,0.703-0.805,1.315-0.791c0.45,0.01,0.909,0.053,1.353-0.008
					c1.402-0.195,1.98,0.279,1.883,1.789C195.326,324.982,195.421,326.988,195.421,328.988z"/>
				<path fill="#FDFEFD" d="M160.261,326.363c0.687,0.309,1.791,0.529,3.022-0.043c0.625-0.289,1.468-0.076,1.468,0.977
					c0,0.814,0.248,1.711-1.143,1.717c-1.704,0.004-2.541,0.873-2.431,2.701c0.117,1.936-0.021,3.885,0.043,5.824
					c0.039,1.174-0.377,1.604-1.567,1.586c-1.083-0.016-1.502-0.367-1.488-1.467c0.042-3.301,0.048-6.605-0.002-9.906
					C158.143,326.535,158.635,326.09,160.261,326.363z"/>
			</g>
			<path fill="#71BF4D" d="M181.789,332.643c0-0.258-0.001-0.516,0-0.773c0.009-2.592,1.952-3.867,4.335-2.836
				c0.162,0.07,0.338,0.186,0.427,0.33c0.769,1.232-0.139,5.67-1.34,6.381c-0.774,0.461-1.599,0.869-2.549,0.424
				c-0.967-0.455-0.857-1.336-0.871-2.17C181.784,333.547,181.789,333.096,181.789,332.643z"/>
			<path fill="#71BF4D" d="M150.535,331.83c-0.694-0.553-2.168,0.717-2.187-1.105c-0.015-1.521,1.063-1.75,2.252-1.73
				c1.206,0.018,2.258,0.336,2.161,1.834C152.645,332.594,151.202,331.225,150.535,331.83z"/>
			<path fill="#72C04E" d="M205.793,331.707c-1.096,0-2.179,0.027-3.258-0.014c-0.503-0.02-1.25,0.289-1.304-0.65
				c-0.042-0.723,0.028-1.361,0.811-1.777C203.925,328.27,205.488,329.211,205.793,331.707z"/>
		</g>
	</a>
	<a xlink:href="hoe">
		<g id="hoe">
			<path fill="#1490D0" d="M254.608,294.842c0.104,0.027,0.193,0,0.268-0.078c5.737-1.004,11.33-2.459,16.432-5.4
				c12.835-7.396,20.344-18.516,22.998-33.02c0.125-0.684,0.055-1.436,0.654-1.963l-0.041,0.055c0.617-0.555,1.361-0.266,2.037-0.266
				c39.012-0.016,78.025-0.016,117.039-0.014c2.508,0,2.596,0.072,2.615,2.602c0.096,13.93-2.17,27.525-5.795,40.93
				c-2.25,8.324-5.271,16.365-8.852,24.197c-3.959,7.922-8.047,15.779-13.088,23.086c-4.883,7.078-10.191,13.809-16.082,20.104
				c-8.787,9.387-18.566,17.553-29.195,24.736c-1.979,1.338-4.033,2.568-6.012,3.914c-8.035,4.744-16.365,8.852-25.07,12.225
				c-10.402,4.029-21.094,6.945-32.098,8.699c-7.586,1.211-15.203,2.16-22.916,2c-3.354-0.068-3.557-0.209-3.559-3.486
				c-0.002-38.467-0.002-76.932,0.008-115.4C253.954,296.756,253.739,295.67,254.608,294.842z"/>
			<path fill="#FFFFFF" d="M319.2,337.877c-0.592,0.311-1.139,0.637-1.717,0.891c-2.467,1.088-4.752,0.115-5.492-2.469
				c-0.705-2.461-0.64-4.982-0.01-7.459c0.435-1.703,1.564-2.605,3.385-2.578c1.746,0.023,3.494,0.059,5.236-0.018
				c1.236-0.057,1.75,0.344,1.729,1.643c-0.059,3.688,0.086,7.381-0.057,11.064c-0.108,2.795-0.666,4.76-4.596,4.428
				c-0.836-0.07-1.684-0.051-2.521,0c-1.036,0.064-1.675-0.068-1.676-1.408c-0.001-1.434,0.802-1.363,1.751-1.328
				c0.58,0.021,1.164,0.008,1.746,0.004C319.158,340.633,319.44,340.297,319.2,337.877z"/>
			<path fill="#FFFFFF" d="M290.583,304.648c0,2.33-0.048,4.662,0.021,6.99c0.032,1.123-0.386,1.447-1.464,1.438
				c-1.073-0.01-1.721-0.156-1.636-1.463c0.098-1.482-0.015-2.979,0.037-4.465c0.028-0.842-0.271-1.066-1.106-1.123
				c-4.438-0.291-4.396-0.316-4.462,4.195c-0.017,1.215,0.798,3.094-1.79,2.857c-0.918-0.084-1.241-0.361-1.236-1.264
				c0.023-4.855,0.043-9.709-0.01-14.564c-0.016-1.23,0.596-1.32,1.559-1.334c1.041-0.014,1.566,0.266,1.52,1.414
				c-0.065,1.615,0.013,3.236-0.025,4.855c-0.02,0.787,0.184,1.254,1.068,1.141c0.063-0.01,0.131-0.004,0.195,0
				c4.273,0.225,4.273,0.225,4.273-4.127c0-0.584,0.057-1.172-0.011-1.748c-0.14-1.207,0.378-1.545,1.546-1.549
				c1.186-0.004,1.584,0.369,1.545,1.563C290.526,299.857,290.583,302.254,290.583,304.648z"/>
			<path fill="#FDFEFF" d="M309.104,332.813c0,1.553,0.01,3.107-0.006,4.658c-0.004,0.629,0.14,1.443-0.738,1.555
				c-0.708,0.088-1.73,0.48-2.07-0.449c-0.382-1.039-0.752-0.467-1.223-0.221c-3.608,1.891-6.47,0.279-6.642-3.814
				c-0.079-1.861-0.268-3.744,0.291-5.59c0.536-1.766,1.606-2.73,3.517-2.695c1.746,0.035,3.493,0.074,5.236-0.014
				c1.32-0.068,1.697,0.502,1.649,1.717C309.057,329.574,309.104,331.193,309.104,332.813z"/>
			<path fill="#FFFFFF" d="M311.58,307.994c-0.776,0-1.554-0.041-2.325,0.016c-0.439,0.031-1.127-0.322-1.225,0.504
				c-0.066,0.568,0.266,1.016,0.73,1.279c1.426,0.809,2.873,0.58,4.263-0.084c0.925-0.443,1.558-0.648,2.124,0.578
				c0.6,1.303-0.203,1.553-1.033,1.973c-4.945,2.486-9.059-0.021-9.107-5.566c-0.002-0.193,0.002-0.387-0.002-0.58
				c-0.147-6.24,2.691-6.232,7.424-5.738c1.631,0.17,2.375,1.479,2.697,3.123C315.979,307.842,315.907,307.994,311.58,307.994z"/>
			<path fill="#FFFFFF" d="M351.146,334.039c-0.711,0-1.426-0.043-2.133,0.018c-0.451,0.037-1.125-0.326-1.301,0.412
				c-0.156,0.664,0.324,1.123,0.828,1.406c1.354,0.756,2.75,0.57,4.08-0.066c0.969-0.461,1.693-0.748,2.256,0.598
				c0.559,1.34-0.355,1.527-1.158,1.924c-4.746,2.346-8.848-0.057-9.049-5.313c-0.012-0.324-0.01-0.646-0.002-0.971
				c0.133-5.861,2.285-6.201,7.594-5.604c1.199,0.135,2.066,1.021,2.404,2.271c0.016,0.064,0.023,0.127,0.043,0.191
				C355.991,333.012,355.28,334.039,351.146,334.039z"/>
			<path fill="#FFFFFF" d="M329.706,326.264c4.109,0.002,6.287,2.992,5.154,7.021c-0.223,0.797-0.77,0.75-1.349,0.752
				c-1.55,0.006-3.104-0.023-4.651,0.02c-0.455,0.014-1.138-0.33-1.327,0.371c-0.2,0.748,0.356,1.219,0.94,1.518
				c1.459,0.744,2.904,0.428,4.256-0.287c0.987-0.521,1.496-0.291,1.916,0.713c0.338,0.809,0.248,1.229-0.553,1.707
				c-4.742,2.846-9.482,0.305-9.617-5.213c-0.02-0.773-0.01-1.559,0.092-2.322C325.027,327.078,326.023,326.264,329.706,326.264z"/>
			<path fill="#FFFFFF" d="M289.071,334.039c0.916,2.398,2.404,2.846,5.145,1.756c0.764-0.303,1.448-0.887,2.057,0.313
				c0.51,1.008,0.444,1.537-0.633,2.107c-3.753,1.988-9.667,1.109-9.307-5.404c0.012-0.191,0.002-0.387,0.002-0.582
				c0.006-5.24,1.698-6.689,6.92-5.922c1.885,0.277,2.889,1.406,3.171,3.564c0.544,4.168,0.544,4.168-3.53,4.168
				C291.671,334.039,290.446,334.039,289.071,334.039z"/>
			<path fill="#FFFFFF" d="M303.401,306.516c0,0.258-0.003,0.516,0,0.773c0.087,6.119-2.916,6.139-7.56,5.559
				c-1.38-0.172-2.182-1.287-2.473-2.678c-0.493-2.367-0.557-4.738,0.005-7.1c0.13-0.549,0.334-1.162,0.707-1.555
				c1.884-1.988,4.313-1.395,6.556-1.092c1.887,0.254,2.487,1.885,2.692,3.574c0.1,0.826,0.018,1.678,0.018,2.518
				C303.364,306.516,303.382,306.516,303.401,306.516z"/>
			<path fill="#FDFEFF" d="M357.417,332.682c0-1.551-0.01-3.102,0.004-4.652c0.012-1.67,1.193-2.488,2.557-1.561
				c0.654,0.441,0.963,0.48,1.621,0.217c2.971-1.193,5.09-0.074,5.387,3.09c0.262,2.754,0.08,5.549,0.121,8.324
				c0.016,1.123-0.76,0.965-1.465,1c-0.863,0.043-1.557-0.076-1.553-1.18c0.008-2.197,0.023-4.393-0.016-6.59
				c-0.016-0.904,0.307-2.285-1.1-2.225c-1.268,0.053-2.539,0.736-2.582,2.361c-0.051,2.002-0.045,4.008-0.002,6.008
				c0.021,1.084-0.238,1.646-1.502,1.658c-1.262,0.016-1.535-0.492-1.488-1.609C357.47,335.912,357.417,334.295,357.417,332.682z"/>
			<path fill="#FDFEFF" d="M374.673,321.209c4.59,0,6.965,4.031,4.818,8.18c-0.461,0.891-1.104,1.613-2.104,1.875
				c-0.986,0.258-1.77,0.594-1.967,1.789c-0.195,1.172-1.221,0.961-2.031,0.889c-1.096-0.094-0.842-0.984-0.791-1.641
				c0.137-1.721,1.078-2.813,2.711-3.393c1.566-0.559,2.084-1.855,1.584-3.709c-0.432-1.598-1.752-1.279-2.857-1.229
				c-0.91,0.041-1.574,0.539-1.6,1.59c-0.039,1.559-1.152,1.527-2.205,1.383c-1.244-0.172-0.98-1.07-0.82-1.938
				C369.935,322.145,371.208,321.209,374.673,321.209z"/>
			<path fill="#FBFEFF" d="M337.286,332.678c-0.002-1.486-0.012-2.973,0-4.459c0.018-1.912,1.268-2.77,2.799-1.662
				c0.729,0.527,0.959,0.176,1.396-0.018c0.746-0.332,1.525-0.504,2.195,0.002c0.496,0.375,0.43,1.045,0.33,1.633
				c-0.172,1.051-1.025,0.697-1.67,0.838c-1.318,0.287-2.156,0.92-2.063,2.508c0.121,2.061-0.027,4.137,0.051,6.203
				c0.043,1.162-0.457,1.406-1.494,1.398c-1.023-0.006-1.586-0.266-1.557-1.404C337.317,336.039,337.286,334.357,337.286,332.678z"/>
			<path fill="#FDFEFF" d="M278.955,332.541c0-1.484-0.009-2.971,0.001-4.457c0.014-1.736,1.113-2.586,2.499-1.635
				c0.846,0.58,1.171,0.168,1.792-0.002c0.828-0.229,1.904-0.639,2.231,0.639c0.278,1.09,0.149,1.965-1.468,1.965
				c-1.313,0-2.215,0.746-2.123,2.369c0.119,2.061-0.014,4.135,0.044,6.199c0.036,1.234-0.536,1.49-1.649,1.51
				c-1.219,0.021-1.367-0.572-1.341-1.551C278.987,335.9,278.955,334.219,278.955,332.541z"/>
			<path fill="#FBFEFF" d="M373.938,339.074c-1.121,0.219-1.381-0.324-1.406-1.375c-0.027-1.162,0.475-1.346,1.482-1.359
				c1.072-0.014,1.516,0.393,1.506,1.426C375.511,338.838,374.985,339.262,373.938,339.074z"/>
			<path fill="#1490D0" d="M319.378,331.844c0,2.713-0.74,3.939-2.652,4.416c-1.197,0.297-1.986-0.049-2.273-1.332
				c-0.3-1.338-0.203-2.695-0.106-4.023c0.132-1.826,0.964-2.111,3.978-1.941c1.781,0.1,0.814,1.361,1.043,2.111
				C319.438,331.309,319.378,331.584,319.378,331.844z"/>
			<path fill="#1490D0" d="M306.171,332.201c0.336,1.631-0.244,3.102-2.158,3.869c-1.738,0.697-2.715,0.139-2.89-1.748
				c-0.101-1.084-0.093-2.189-0.004-3.275c0.16-1.99,0.681-2.154,3.854-2.092c1.907,0.037,0.979,1.357,1.188,2.168
				C306.224,331.363,306.171,331.635,306.171,332.201z"/>
			<path fill="#0F91D1" d="M310.218,305.9c-0.813-0.662-2.297,0.598-2.241-1.26c0.044-1.504,1.099-1.709,2.272-1.695
				c1.195,0.014,2.227,0.314,2.168,1.803C312.335,306.791,310.655,304.844,310.218,305.9z"/>
			<path fill="#1291D0" d="M352.249,331.707c-1.096,0-2.174,0.039-3.248-0.018c-0.488-0.025-1.266,0.365-1.338-0.596
				c-0.061-0.799,0.035-1.492,0.945-1.893C350.54,328.355,351.913,329.215,352.249,331.707z"/>
			<path fill="#1291D0" d="M332.035,331.707c-1.103,0-2.196,0.031-3.284-0.016c-0.495-0.02-1.26,0.322-1.291-0.65
				c-0.023-0.723,0.027-1.369,0.82-1.785C330.175,328.266,331.738,329.219,332.035,331.707z"/>
			<path fill="#1291D0" d="M291.295,331.824c-0.691-0.523-2.046,0.602-2.169-0.813c-0.117-1.352,0.83-2.07,2.242-2.029
				c1.262,0.039,2.477,0.291,2.34,1.873C293.554,332.65,292.038,331.223,291.295,331.824z"/>
			<path fill="#0F91D1" d="M295.981,306.381c0-2.957,0.707-3.811,2.866-3.424c0.79,0.141,1.468,0.432,1.584,1.404
				c0.147,1.207,0.298,2.375,0.147,3.625c-0.2,1.658-0.858,2.439-2.564,2.346c-1.875-0.102-2.141-1.285-2.039-2.793
				C296.003,307.154,295.981,306.766,295.981,306.381z"/>
		</g>
	</a>
	<a xlink:href="waar">
		<g id="waar">
			<path fill="#DF4F3A" d="M254.519,204.471c-0.037-0.645-0.113-1.29-0.113-1.935c-0.003-38.802-0.004-77.603,0.008-116.405
				c0.001-2.927-0.32-2.548,2.607-2.527c1.747,0.014,3.492,0.01,5.238,0.015c23.777,1.499,46.357,7.376,67.424,18.65
				c28.203,15.09,50.238,36.528,65.943,64.442c0.408,0.728,0.869,1.426,1.307,2.139c1.74,2.656,3.068,5.525,4.406,8.393
				c2.455,5.256,4.77,10.567,6.611,16.073c3.078,9.196,5.465,18.563,6.949,28.156c1.014,7.31,1.912,14.623,1.732,22.027
				c-0.086,3.48-0.223,3.688-3.791,3.691c-9.705,0.009-19.408,0.003-29.111,0.003c-28.139,0-56.277,0-84.418-0.001
				c-4.506,0-4.549,0.004-5.252-4.431c-0.387-2.432-0.856-4.834-1.67-7.156c-5.014-14.68-14.926-24.344-29.698-29.042
				c-2.165-0.689-4.376-1.139-6.617-1.472C255.51,205.008,254.902,205.018,254.519,204.471z"/>
			<path fill="#FFFFFF" d="M294.856,161.905c0,0.841-0.121,1.703,0.021,2.521c0.527,3.032-0.578,5.106-3.227,6.69
				c-1.259,0.752-2.137,1.098-3.182-0.049c-1.118-1.228-2.219-1.308-3.369-0.038c-1.102,1.215-2.033,0.831-3.348,0.03
				c-2.586-1.576-3.447-3.622-3.174-6.571c0.25-2.693,0.098-5.432,0.033-8.147c-0.031-1.199,0.408-1.535,1.574-1.557
				c1.263-0.023,1.51,0.492,1.484,1.612c-0.064,2.716-0.021,5.434-0.021,8.152c0,0.388,0.017,0.777-0.001,1.163
				c-0.057,1.323,0.96,2.357,1.823,2.361c0.908,0.003,1.775-1.051,1.746-2.396c-0.066-3.039,0.015-6.082-0.037-9.122
				c-0.021-1.158,0.184-1.761,1.566-1.78c1.436-0.018,1.542,0.66,1.521,1.783c-0.048,2.976,0.064,5.955-0.049,8.927
				c-0.057,1.456,0.924,2.553,1.791,2.571c0.88,0.018,1.877-1.046,1.823-2.52c-0.114-3.102,0.005-6.211-0.056-9.315
				c-0.021-1.139,0.416-1.426,1.479-1.428c1.097-0.001,1.684,0.205,1.621,1.484C294.789,158.149,294.856,160.029,294.856,161.905z"/>
			<path fill="#FFFFFF" d="M334.356,185.99c0.504-0.173,0.744-0.243,0.975-0.336c3.34-1.353,5.512-0.06,5.703,3.542
				c0.133,2.52,0.012,5.052,0.057,7.577c0.02,0.953-0.379,1.252-1.273,1.216c-0.861-0.035-1.756,0.091-1.752-1.192
				c0.004-2.137,0.033-4.276-0.02-6.412c-0.021-0.948,0.436-2.258-1.135-2.445c-1.146-0.136-2.521,1.344-2.545,2.652
				c-0.033,1.877-0.043,3.757,0.004,5.634c0.027,1.141-0.186,1.795-1.581,1.795c-1.357,0-1.413-0.679-1.407-1.697
				c0.026-4.858,0.025-9.716,0.002-14.574c-0.008-1.014,0.041-1.701,1.402-1.702c1.393,0,1.627,0.645,1.584,1.79
				C334.319,183.17,334.356,184.505,334.356,185.99z"/>
			<path fill="#FFFFFF" d="M307.944,165.641c0,1.552,0.008,3.105-0.006,4.657c-0.004,0.628,0.136,1.44-0.735,1.56
				c-0.708,0.097-1.725,0.477-2.074-0.441c-0.388-1.016-0.748-0.475-1.231-0.224c-3.611,1.886-6.469,0.274-6.638-3.818
				c-0.077-1.86-0.267-3.742,0.292-5.588c0.534-1.764,1.605-2.731,3.514-2.694c1.744,0.033,3.492,0.072,5.234-0.015
				c1.309-0.066,1.707,0.489,1.659,1.712C307.896,162.405,307.944,164.023,307.944,165.641z"/>
			<path fill="#FFFFFF" d="M321.151,165.648c0,1.553,0.01,3.105-0.006,4.658c-0.005,0.629,0.131,1.439-0.743,1.553
				c-0.708,0.092-1.724,0.476-2.071-0.449c-0.391-1.037-0.763-0.456-1.23-0.211c-3.537,1.845-6.403,0.313-6.623-3.639
				c-0.107-1.921-0.291-3.871,0.285-5.78c0.532-1.767,1.609-2.727,3.517-2.688c1.745,0.035,3.493,0.073,5.233-0.015
				c1.32-0.067,1.699,0.505,1.653,1.72C321.104,162.412,321.151,164.031,321.151,165.648z"/>
			<path fill="#FFFFFF" d="M289.572,192.921c0.624,2.382,2.196,2.944,5.056,1.705c1.128-0.489,1.721-0.45,2.211,0.756
				c0.313,0.773,0.193,1.129-0.52,1.533c-2.291,1.296-4.674,1.605-7.02,0.392c-2.148-1.112-2.639-3.203-2.578-5.462
				c0.008-0.258,0.001-0.518,0.001-0.776c0.009-5.206,1.763-6.693,6.958-5.874c1.727,0.272,2.736,1.326,3.088,3.018
				c0.104,0.503,0.125,1.022,0.201,1.533c0.436,2.976,0.264,3.177-2.756,3.177C292.679,192.922,291.143,192.921,289.572,192.921z"/>
			<path fill="#FFFFFF" d="M309.791,192.921c0.55,2.345,2.179,2.942,5.007,1.725c1.093-0.47,1.735-0.558,2.226,0.703
				c0.288,0.738,0.272,1.13-0.472,1.551c-2.29,1.297-4.67,1.621-7.022,0.423c-2.156-1.097-2.663-3.182-2.606-5.444
				c0.006-0.259,0-0.519,0-0.777c0.006-5.235,1.703-6.686,6.923-5.915c1.886,0.279,2.884,1.403,3.167,3.567
				c0.545,4.165,0.545,4.165-3.531,4.165C312.259,192.921,311.036,192.921,309.791,192.921z"/>
			<path fill="#FFFFFF" d="M325.007,185.146c0.709,0,1.422,0.038,2.129-0.009c0.992-0.065,1.405,0.362,1.403,1.349
				c-0.001,0.953-0.331,1.448-1.362,1.393c-0.965-0.052-1.947,0.093-2.9-0.032c-1.939-0.257-2.517,0.802-2.586,2.453
				c-0.018,0.386,0.015,0.776-0.01,1.162c-0.188,3.01,2.285,4.935,5.063,2.902c0.839-0.614,1.646-1.112,2.368,0.2
				c0.373,0.681,0.348,1.143-0.267,1.669c-1.97,1.691-4.192,2.316-6.638,1.389c-2.439-0.925-3.189-3.011-3.242-5.438
				c-0.008-0.323-0.002-0.646-0.002-0.968C318.952,185.527,320.622,184.805,325.007,185.146z"/>
			<path fill="#FFFFFF" d="M357.284,180.091c4.658,0,7.045,4.211,4.74,8.345c-0.428,0.769-1.027,1.375-1.834,1.652
				c-1.057,0.362-2.031,0.566-2.207,2.028c-0.121,1.002-1.209,0.741-1.955,0.713c-0.918-0.035-0.975-0.712-0.895-1.396
				c0.203-1.737,0.951-3.116,2.748-3.602c1.947-0.526,2.023-1.889,1.717-3.486c-0.328-1.713-1.654-1.588-2.881-1.507
				c-0.994,0.068-1.707,0.553-1.693,1.712c0.014,1.347-0.934,1.311-1.889,1.309c-1.324-0.001-1.18-0.92-1.135-1.765
				C352.138,181.359,353.821,180.09,357.284,180.091z"/>
			<path fill="#FFFFFF" d="M344.239,191.617c0-0.777,0.004-1.554-0.004-2.332c-0.006-0.683,0.057-1.184-0.9-1.568
				c-1.061-0.428-0.951-2.034-0.141-2.337c1.277-0.475,1.064-1.25,1.027-2.073c-0.053-1.107,0.459-1.519,1.496-1.516
				c1.018,0.002,1.619,0.401,1.533,1.5c-0.088,1.11-0.104,2.036,1.506,1.926c0.738-0.052,0.727,0.797,0.721,1.358
				c-0.01,0.667-0.141,1.38-1.057,1.277c-1.191-0.135-1.193,0.58-1.174,1.428c0.033,1.359,0.033,2.72,0.004,4.079
				c-0.027,1.253,0.414,2.039,1.797,1.883c1.188-0.133,1.369,0.472,1.383,1.491c0.016,1.111-0.523,1.23-1.434,1.259
				c-3.586,0.112-4.672-0.868-4.756-4.434C344.226,192.912,344.239,192.265,344.239,191.617z"/>
			<path fill="#FFFFFF" d="M283.226,197.976c-2.714-0.011-3.737-0.968-3.854-3.674c-0.053-1.226,0.057-2.462-0.053-3.682
				c-0.097-1.102,0.685-2.508-1.222-3.093c-0.554-0.171-0.62-1.947,0.106-2.149c1.291-0.358,1.191-1.105,1.129-1.974
				c-0.074-1.014,0.227-1.604,1.354-1.616c1.149-0.012,1.655,0.513,1.624,1.646c-0.023,0.882-0.223,1.878,1.266,1.74
				c0.85-0.08,0.831,0.638,0.81,1.223c-0.024,0.603,0.208,1.504-0.786,1.433c-1.481-0.106-1.299,0.834-1.294,1.738
				c0.007,1.164,0.021,2.327-0.003,3.49c-0.029,1.3,0.162,2.388,1.86,2.192c1.22-0.141,1.339,0.57,1.349,1.542
				c0.011,1.149-0.656,1.239-1.513,1.186C283.741,197.962,283.482,197.976,283.226,197.976z"/>
			<path fill="#FFFEFE" d="M326.081,159.152c0.842,0.52,1.986,0.47,3.242-0.008c0.834-0.316,1.499,0.194,1.523,1.207
				c0.02,0.857-0.135,1.478-1.254,1.494c-1.779,0.026-2.656,0.896-2.523,2.817c0.133,1.927-0.016,3.873,0.047,5.808
				c0.033,1.055-0.265,1.533-1.408,1.484c-0.951-0.04-1.646-0.123-1.636-1.322c0.026-3.422,0.022-6.844,0.002-10.266
				C324.065,159.155,324.784,159.003,326.081,159.152z"/>
			<path fill="#FFFEFE" d="M299.542,191.429c0-1.484-0.009-2.968,0.002-4.452c0.012-1.749,1.084-2.585,2.492-1.647
				c0.834,0.556,1.17,0.184,1.795,0.002c0.829-0.239,1.902-0.638,2.232,0.635c0.281,1.093,0.145,1.962-1.467,1.964
				c-1.316,0.001-2.209,0.752-2.117,2.371c0.117,2.058-0.015,4.13,0.044,6.193c0.032,1.228-0.536,1.495-1.649,1.513
				c-1.211,0.02-1.371-0.566-1.345-1.548C299.574,194.786,299.542,193.107,299.542,191.429z"/>
			<path fill="#FDF8F7" d="M356.499,197.965c-1.121,0.202-1.396-0.348-1.424-1.413c-0.031-1.243,0.619-1.304,1.568-1.328
				c1.078-0.026,1.516,0.367,1.51,1.453C358.144,197.862,357.493,198.088,356.499,197.965z"/>
			<path fill="#DF4F3A" d="M305.006,165.051c0.345,1.639-0.263,3.095-2.172,3.859c-1.677,0.671-2.644,0.18-2.852-1.578
				c-0.135-1.141-0.118-2.314-0.026-3.462c0.156-1.965,0.729-2.158,3.863-2.079c1.903,0.048,0.961,1.375,1.178,2.184
				C305.06,164.215,305.006,164.486,305.006,165.051z"/>
			<path fill="#DF4F3A" d="M318.212,164.769c0,2.605-0.697,3.747-2.555,4.291c-1.31,0.383-2.195-0.038-2.373-1.384
				c-0.168-1.262-0.203-2.562-0.115-3.832c0.135-1.928,0.786-2.151,3.883-2.05c1.909,0.062,0.913,1.407,1.15,2.207
				C318.271,164.237,318.212,164.512,318.212,164.769z"/>
			<path fill="#DF503B" d="M291.729,190.721c-0.666-0.635-2.188,0.777-2.219-0.955c-0.022-1.384,1.008-1.974,2.378-1.9
				c1.19,0.064,2.297,0.342,2.215,1.811C293.999,191.528,292.468,190.111,291.729,190.721z"/>
			<path fill="#DF503B" d="M311.882,190.704c-0.693-0.516-2.046,0.597-2.168-0.812c-0.115-1.349,0.83-2.07,2.24-2.027
				c1.26,0.039,2.475,0.29,2.34,1.871C314.142,191.53,312.624,190.107,311.882,190.704z"/>
		</g>
	</a>
</svg>
