<?xml version="1.0" encoding="utf-8"?>
<?xml-stylesheet type="text/css" href="../css/homenav.css" ?>
<!-- Generator: Adobe Illustrator 16.0.0, SVG Export Plug-In . SVG Version: 6.00 Build 0)  -->
<!DOCTYPE svg PUBLIC "-//W3C//DTD SVG 1.1//EN" "http://www.w3.org/Graphics/SVG/1.1/DTD/svg11.dtd">
<svg version="1.1" id="Layer_1" xmlns="http://www.w3.org/2000/svg" xmlns:xlink="http://www.w3.org/1999/xlink" x="0px" y="0px"
	 width="500px" height="500px" viewBox="0 0 800 800" enable-background="new 0 0 800 800" xml:space="preserve">
	<a xlink:href="../wat-is-het" target='_top'>
		<g id="wat">
			<path fill-rule="evenodd" clip-rule="evenodd" fill="#FBFBFB" d="M169.414,395.665c42.027,0,84.054,0.001,126.081,0
				c6.062,0,6.042-0.005,6.791-5.988c2.667-21.325,11.537-39.783,26.228-55.342c16.203-17.16,36.101-27.341,59.575-30.37
				c5.832-0.753,5.833-0.754,5.833-6.51c0-83.347,0-166.693-0.001-250.04c0-1.556-0.122-3.123,0.016-4.667
				c0.222-2.493-0.906-3.195-3.241-3.059c-6.63,0.387-13.269,0.384-19.913,0.843c-29.393,2.03-57.948,8.15-85.75,17.62
				c-66.771,22.743-122.79,61.307-166.884,116.377C67.68,237.56,40.405,309.497,37.933,390.527c-0.123,4.023,0.749,5.253,4.976,5.236
				C85.077,395.6,127.245,395.664,169.414,395.665z"/>
			<path fill-rule="evenodd" clip-rule="evenodd" fill="#F8E44A" d="M169.414,395.665c-42.168-0.001-84.337-0.065-126.505,0.099
				c-4.227,0.017-5.098-1.213-4.976-5.236c2.472-81.03,29.747-152.968,80.215-215.998c44.095-55.07,100.113-93.635,166.884-116.377
				c27.802-9.47,56.357-15.589,85.75-17.62c6.644-0.459,13.282-0.456,19.913-0.843c2.335-0.136,3.463,0.566,3.241,3.059
				c-0.138,1.544-0.016,3.111-0.016,4.667c0.001,83.347,0.001,166.693,0.001,250.04c0,5.755-0.001,5.757-5.833,6.51
				c-23.475,3.029-43.373,13.21-59.575,30.37c-14.691,15.56-23.561,34.018-26.228,55.342c-0.749,5.983-0.729,5.988-6.791,5.988
				C253.467,395.666,211.44,395.665,169.414,395.665z M284.504,210.724c0-3.821-0.068-7.644,0.025-11.463
				c0.058-2.368-0.065-4.063-3.275-4.024c-2.99,0.037-3.526,1.377-3.488,3.917c0.1,6.65-0.087,13.306,0.087,19.953
				c0.078,2.994-1.867,4.63-3.887,5.501c-1.783,0.77-2.917-1.675-4.179-2.875c-1.042-0.992-0.542-2.417-0.55-3.647
				c-0.043-6.368-0.073-12.737,0.007-19.105c0.028-2.27-0.226-3.733-3.131-3.736c-2.846-0.003-3.691,1.071-3.641,3.764
				c0.124,6.507-0.092,13.023,0.093,19.527c0.098,3.431-1.864,6.037-4.475,6.015c-2.171-0.019-4.342-2.558-4.227-5.897
				c0.225-6.502-0.013-13.019,0.105-19.527c0.045-2.529-0.378-3.911-3.422-3.889c-3.137,0.021-3.378,1.652-3.345,4.05
				c0.075,5.518,0.537,11.099-0.104,16.542c-0.832,7.053,1.566,11.69,7.684,15.184c2.778,1.586,4.741,2.094,7.016-0.228
				c2.747-2.803,5.401-3.081,8.236-0.01c2.164,2.343,4.205,1.931,6.998,0.228c5.746-3.503,8.895-7.798,7.523-14.772
				C284.208,214.461,284.504,212.563,284.504,210.724z M242.888,264.193c0-4.014-0.084-7.389,0.03-10.758
				c0.076-2.241-0.877-2.958-3.025-2.952c-2.147,0.006-3.556,0.399-3.546,2.963c0.045,11.032,0.047,22.064-0.005,33.096
				c-0.012,2.456,1.154,3.077,3.413,3.113c2.435,0.039,3.233-0.897,3.17-3.25c-0.12-4.523-0.117-9.053,0.001-13.576
				c0.069-2.639,3.549-5.604,6.074-5.335c3.221,0.341,2.524,2.999,2.589,4.921c0.162,4.804,0.085,9.616,0.056,14.424
				c-0.014,2.292,1.251,2.821,3.271,2.792c1.903-0.028,3.334-0.196,3.284-2.674c-0.116-5.655,0.188-11.331-0.195-16.964
				c-0.502-7.385-5.749-10.253-12.578-7.233C244.799,263.038,244.224,263.434,242.888,264.193z M314.808,218.581
				c0-3.532-0.051-7.066,0.018-10.597c0.045-2.282-0.825-3.391-3.23-3.337c-4.237,0.094-8.478-0.013-12.716,0.061
				c-4.016,0.069-6.572,2.069-7.716,5.975c-1.139,3.887-0.949,7.833-0.698,11.772c0.592,9.264,7.057,12.795,15.338,8.44
				c1.117-0.587,2.032-2.086,2.757,0.656c0.525,1.985,2.923,1.173,4.507,0.99c1.6-0.186,1.74-1.604,1.739-2.939
				C314.803,225.929,314.805,222.255,314.808,218.581z M275.509,261.569c-8.34,0.016-11.113,2.737-11.371,11.176
				c-0.03,0.988-0.011,1.979-0.022,2.968c-0.056,5.059,0.964,9.704,5.878,12.267c5.177,2.7,10.344,1.959,15.43-0.596
				c1.879-0.944,1.922-2.051,1.134-3.756c-1.021-2.211-2.445-1.778-4.178-1.054c-2.933,1.226-5.983,1.744-9.07,0.6
				c-1.573-0.583-2.746-1.777-2.463-3.537c0.3-1.872,2.028-1.1,3.142-1.135c3.39-0.106,6.785-0.051,10.178-0.042
				c1.555,0.004,2.917-0.331,2.973-2.207C287.394,267.685,286.928,261.207,275.509,261.569z M211.618,261.578
				c-1.153,0-2.003-0.028-2.852,0.004c-5.523,0.211-8.599,2.127-9.219,5.725c-0.84,4.877,1.318,8.481,6.37,10.61
				c1.172,0.495,2.352,0.973,3.545,1.411c1.261,0.463,2.491,1.068,2.18,2.636c-0.305,1.54-1.71,1.716-3.023,1.741
				c-2.122,0.042-4.247,0.085-6.367,0.028c-1.955-0.052-2.818,0.769-2.843,2.76c-0.027,2.079,0.646,3.22,2.914,3.115
				c2.824-0.13,5.699,0.143,8.47-0.288c3.896-0.606,6.921-2.577,7.412-6.96c0.47-4.188-1.793-6.603-5.421-8.095
				c-1.822-0.75-3.666-1.475-5.405-2.391c-1.159-0.61-2.089-1.698-1.652-3.116c0.401-1.3,1.732-1.277,2.865-1.302
				c1.839-0.04,3.684-0.112,5.518-0.018c3.169,0.165,3.724-1.852,3.053-4.124C216.219,260.117,213.268,262.213,211.618,261.578z
				M323.197,250.528c-7.811-0.016-11.856,2.813-12.286,8.62c-0.116,1.565-0.364,3.419,1.989,3.342
				c1.719-0.056,4.356,1.193,4.596-2.051c0.352-4.778,3.813-3.967,6.859-4.056c2.577-0.074,4.031,1.172,4.242,3.678
				c0.269,3.187,0.403,6.266-3.875,7.218c-3.626,0.808-5.867,3.186-6.397,7.009c-0.191,1.375-0.921,3.167,1.116,3.389
				c1.67,0.181,4.203,1.408,4.927-1.482c0.573-2.291,2.013-3.127,4.084-3.684c3.402-0.916,5.484-3.19,6.408-6.65
				C337.342,256.563,332.803,250.547,323.197,250.528z M332.273,232.694c0.708,0,1.417-0.04,2.122,0.007
				c2.049,0.136,2.73-0.886,2.691-2.825c-0.036-1.794-0.426-3.214-2.554-2.998c-4.58,0.466-5.083-2.408-5.024-5.866
				c0.04-2.404,0.104-4.814-0.021-7.213c-0.111-2.145,0.213-3.587,2.889-3.318c1.943,0.195,2.3-1.151,2.242-2.768
				c-0.052-1.451,0.042-3.196-2.008-2.968c-3.413,0.379-3.257-1.741-3.084-3.942c0.168-2.144-0.676-3.11-2.895-3.103
				c-2.066,0.008-3.661,0.251-3.66,2.87c0.001,1.85,0.403,3.525-2.28,4.669c-1.905,0.813-1.991,3.961,0.497,5.065
				c1.813,0.804,1.762,1.858,1.795,3.258c0.089,3.812-0.089,7.656,0.358,11.425C324.062,231.071,326.107,232.651,332.273,232.694z
				M302.478,289.595c0.708,0,1.417-0.039,2.122,0.008c1.987,0.132,2.814-0.754,2.761-2.755c-0.046-1.752-0.33-3.278-2.485-3.061
				c-4.524,0.457-5.17-2.292-5.094-5.809c0.052-2.403,0.086-4.812-0.014-7.213c-0.085-2.062,0.057-3.668,2.819-3.377
				c1.896,0.2,2.386-1.043,2.306-2.708c-0.068-1.421,0.121-3.234-1.939-3.022c-3.305,0.34-3.365-1.584-3.16-3.881
				c0.185-2.069-0.522-3.199-2.813-3.17c-2.013,0.025-3.829,0.134-3.689,2.791c0.116,2.203-0.054,3.804-2.616,4.905
				c-1.45,0.623-1.459,3.797,0.027,4.385c3.429,1.357,2.428,3.919,2.542,6.251c0.146,2.96-0.036,5.955,0.344,8.881
				C294.382,287.937,296.356,289.542,302.478,289.595z M191.935,273.105c0-1.697,0-3.394,0-5.09c0-6.793,0-6.779-6.678-6.457
				c-1.436,0.069-3.003-0.104-3.16,1.9c-0.116,1.495-0.574,3.36,1.517,3.866c1.425,0.344,1.8,1.055,1.79,2.349
				c-0.031,3.958-0.035,7.918,0.001,11.877c0.012,1.332-0.473,1.942-1.842,2.308c-2.051,0.548-1.576,2.408-1.459,3.907
				c0.133,1.703,1.42,1.85,2.786,1.838c2.545-0.023,5.09-0.004,7.635-0.009c1.327-0.002,2.674-0.069,2.745-1.851
				c0.054-1.361,0.552-3.29-1.179-3.661c-2.458-0.526-2.171-2.093-2.159-3.766C191.947,277.912,191.936,275.509,191.935,273.105z
				M324.384,286.758c0.388-2.385-0.707-3.186-3.084-3.164c-2.205,0.021-3.492,0.51-3.438,3.021c0.046,2.122,0.879,3.061,3.057,3.013
				C322.913,289.585,324.742,289.6,324.384,286.758z M191.9,253.368c0.357-2.845-1.476-2.825-3.467-2.869
				c-2.179-0.049-3.009,0.895-3.054,3.015c-0.054,2.514,1.238,2.998,3.44,3.019C191.197,256.556,192.289,255.751,191.9,253.368z"/>
			<path fill-rule="evenodd" clip-rule="evenodd" fill="#FBFBFB" d="M284.504,210.724c0,1.839-0.295,3.737,0.052,5.509
				c1.371,6.974-1.777,11.269-7.523,14.772c-2.793,1.703-4.834,2.115-6.998-0.228c-2.835-3.071-5.489-2.792-8.236,0.01
				c-2.275,2.322-4.238,1.813-7.016,0.228c-6.118-3.493-8.516-8.131-7.684-15.184c0.642-5.444,0.18-11.024,0.104-16.542
				c-0.033-2.398,0.208-4.028,3.345-4.05c3.043-0.021,3.467,1.36,3.422,3.889c-0.118,6.508,0.12,13.024-0.105,19.527
				c-0.116,3.34,2.055,5.879,4.227,5.897c2.611,0.022,4.573-2.584,4.475-6.015c-0.186-6.504,0.031-13.02-0.093-19.527
				c-0.051-2.693,0.795-3.767,3.641-3.764c2.905,0.003,3.159,1.466,3.131,3.736c-0.08,6.368-0.051,12.737-0.007,19.105
				c0.008,1.23-0.492,2.655,0.55,3.647c1.261,1.2,2.396,3.645,4.179,2.875c2.02-0.871,3.965-2.507,3.887-5.501
				c-0.174-6.647,0.013-13.302-0.087-19.953c-0.038-2.54,0.498-3.88,3.488-3.917c3.21-0.039,3.333,1.656,3.275,4.024
				C284.436,203.08,284.504,206.902,284.504,210.724z"/>
			<path fill-rule="evenodd" clip-rule="evenodd" fill="#FBFBFB" d="M242.888,264.193c1.336-0.76,1.912-1.156,2.539-1.434
				c6.829-3.02,12.075-0.152,12.578,7.233c0.383,5.633,0.079,11.309,0.195,16.964c0.05,2.479-1.381,2.646-3.284,2.674
				c-2.02,0.03-3.285-0.499-3.271-2.792c0.029-4.809,0.106-9.621-0.056-14.424c-0.065-1.922,0.632-4.58-2.589-4.921
				c-2.524-0.268-6.005,2.696-6.074,5.335c-0.118,4.523-0.121,9.053-0.001,13.576c0.063,2.354-0.735,3.289-3.17,3.25
				c-2.259-0.036-3.425-0.657-3.413-3.113c0.052-11.032,0.05-22.064,0.005-33.096c-0.01-2.564,1.399-2.957,3.546-2.963
				c2.147-0.006,3.101,0.71,3.025,2.952C242.804,256.804,242.888,260.179,242.888,264.193z"/>
			<path fill-rule="evenodd" clip-rule="evenodd" fill="#FBFBFB" d="M314.807,218.581c-0.002,3.674-0.004,7.348-0.001,11.021
				c0.001,1.335-0.139,2.753-1.739,2.939c-1.584,0.183-3.982,0.995-4.507-0.99c-0.725-2.743-1.64-1.244-2.757-0.656
				c-8.281,4.355-14.746,0.824-15.338-8.44c-0.251-3.938-0.441-7.885,0.698-11.772c1.145-3.906,3.701-5.906,7.716-5.975
				c4.238-0.074,8.479,0.033,12.716-0.061c2.405-0.053,3.275,1.056,3.23,3.337C314.757,211.515,314.808,215.049,314.807,218.581z
				M308.277,216.831c0-6.341,0-6.341-6.172-6.308c-0.423,0.002-0.852,0.046-1.268-0.006c-2.966-0.375-4.167,1.343-4.314,3.911
				c-0.161,2.807-0.156,5.639,0.008,8.447c0.188,3.194,2.079,4.357,5.188,3.899C306.212,226.112,308.277,223.036,308.277,216.831z"/>
			<path fill-rule="evenodd" clip-rule="evenodd" fill="#FBFBFB" d="M275.509,261.569c11.419-0.362,11.884,6.116,11.631,14.684
				c-0.056,1.876-1.418,2.21-2.973,2.207c-3.393-0.008-6.788-0.064-10.178,0.042c-1.114,0.035-2.842-0.737-3.142,1.135
				c-0.283,1.76,0.89,2.954,2.463,3.537c3.087,1.145,6.137,0.626,9.07-0.6c1.733-0.725,3.157-1.157,4.178,1.054
				c0.789,1.706,0.745,2.813-1.134,3.756c-5.086,2.555-10.253,3.296-15.43,0.596c-4.914-2.563-5.935-7.208-5.878-12.267
				c0.011-0.99-0.008-1.98,0.022-2.968C264.396,264.306,267.169,261.585,275.509,261.569z M275.506,273.706
				c1.669-1.332,5.009,1.805,5.402-1.947c0.353-3.363-2.039-4.364-5.241-4.41c-3.299-0.047-5.493,1.185-5.217,4.442
				C270.74,275.211,273.893,272.527,275.506,273.706z"/>
			<path fill-rule="evenodd" clip-rule="evenodd" fill="#FBFBFB" d="M211.618,261.578c1.649,0.635,4.601-1.461,5.544,1.737
				c0.67,2.272,0.116,4.289-3.053,4.124c-1.834-0.095-3.679-0.022-5.518,0.018c-1.133,0.024-2.464,0.002-2.865,1.302
				c-0.437,1.417,0.494,2.506,1.652,3.116c1.739,0.916,3.583,1.642,5.405,2.391c3.628,1.492,5.891,3.907,5.421,8.095
				c-0.491,4.384-3.516,6.354-7.412,6.96c-2.771,0.431-5.646,0.158-8.47,0.288c-2.269,0.105-2.941-1.036-2.914-3.115
				c0.025-1.991,0.888-2.813,2.843-2.76c2.121,0.057,4.245,0.013,6.367-0.028c1.313-0.025,2.718-0.201,3.023-1.741
				c0.311-1.568-0.919-2.173-2.18-2.636c-1.194-0.438-2.374-0.917-3.545-1.411c-5.052-2.129-7.209-5.732-6.37-10.61
				c0.62-3.598,3.696-5.514,9.219-5.725C209.615,261.55,210.465,261.578,211.618,261.578z"/>
			<path fill-rule="evenodd" clip-rule="evenodd" fill="#FBFBFB" d="M323.197,250.528c9.606,0.02,14.145,6.035,11.663,15.332
				c-0.924,3.46-3.005,5.735-6.408,6.65c-2.071,0.557-3.511,1.394-4.084,3.684c-0.724,2.89-3.256,1.664-4.927,1.482
				c-2.037-0.221-1.307-2.013-1.116-3.389c0.53-3.823,2.771-6.201,6.397-7.009c4.278-0.952,4.144-4.031,3.875-7.218
				c-0.211-2.506-1.666-3.752-4.242-3.678c-3.046,0.089-6.508-0.722-6.859,4.056c-0.239,3.244-2.876,1.995-4.596,2.051
				c-2.353,0.077-2.105-1.777-1.989-3.342C311.341,253.341,315.386,250.512,323.197,250.528z"/>
			<path fill-rule="evenodd" clip-rule="evenodd" fill="#FBFBFB" d="M332.273,232.696c-6.167-0.045-8.211-1.625-8.932-7.708
				c-0.447-3.77-0.269-7.614-0.358-11.425c-0.033-1.4,0.018-2.454-1.795-3.258c-2.488-1.104-2.402-4.252-0.497-5.065
				c2.683-1.145,2.281-2.82,2.28-4.669c-0.001-2.618,1.594-2.862,3.66-2.87c2.218-0.008,3.063,0.958,2.895,3.103
				c-0.173,2.202-0.328,4.321,3.084,3.942c2.05-0.228,1.956,1.518,2.008,2.968c0.058,1.616-0.299,2.963-2.242,2.768
				c-2.676-0.269-3,1.174-2.889,3.318c0.124,2.398,0.061,4.809,0.021,7.213c-0.058,3.458,0.444,6.332,5.024,5.866
				c2.128-0.216,2.518,1.204,2.554,2.998c0.04,1.939-0.642,2.961-2.691,2.825C333.691,232.654,332.981,232.694,332.273,232.696z"/>
			<path fill-rule="evenodd" clip-rule="evenodd" fill="#FBFBFB" d="M302.478,289.597c-6.121-0.056-8.096-1.66-8.889-7.778
				c-0.379-2.926-0.198-5.92-0.344-8.881c-0.115-2.332,0.887-4.894-2.542-6.251c-1.486-0.588-1.477-3.762-0.027-4.385
				c2.562-1.102,2.732-2.703,2.616-4.905c-0.14-2.657,1.676-2.766,3.689-2.791c2.291-0.029,2.998,1.101,2.813,3.17
				c-0.205,2.296-0.145,4.221,3.16,3.881c2.06-0.212,1.872,1.601,1.939,3.022c0.08,1.666-0.41,2.909-2.306,2.708
				c-2.762-0.291-2.905,1.315-2.819,3.377c0.1,2.401,0.065,4.81,0.014,7.213c-0.076,3.517,0.57,6.266,5.094,5.809
				c2.155-0.218,2.438,1.309,2.485,3.061c0.053,2.001-0.774,2.887-2.761,2.755C303.895,289.556,303.185,289.595,302.478,289.597z"/>
			<path fill-rule="evenodd" clip-rule="evenodd" fill="#FBFBFB" d="M191.936,273.105c0,2.404,0.012,4.807-0.004,7.211
				c-0.012,1.673-0.298,3.24,2.159,3.766c1.731,0.371,1.233,2.3,1.179,3.661c-0.071,1.781-1.417,1.848-2.745,1.851
				c-2.545,0.005-5.09-0.014-7.635,0.009c-1.366,0.012-2.653-0.135-2.786-1.838c-0.117-1.499-0.592-3.359,1.459-3.907
				c1.369-0.366,1.854-0.976,1.842-2.308c-0.036-3.959-0.032-7.918-0.001-11.877c0.01-1.294-0.365-2.005-1.79-2.349
				c-2.091-0.505-1.633-2.371-1.517-3.866c0.157-2.005,1.724-1.831,3.16-1.9c6.679-0.322,6.678-0.336,6.678,6.457
				C191.936,269.711,191.935,271.408,191.936,273.105z"/>
			<path fill-rule="evenodd" clip-rule="evenodd" fill="#FBFBFB" d="M324.384,286.758c0.358,2.842-1.472,2.827-3.465,2.871
				c-2.177,0.048-3.011-0.891-3.057-3.013c-0.054-2.512,1.233-3.001,3.438-3.021C323.677,283.572,324.772,284.373,324.384,286.758z"/>
			<path fill-rule="evenodd" clip-rule="evenodd" fill="#FBFBFB" d="M191.9,253.368c0.389,2.383-0.703,3.188-3.081,3.165
				c-2.202-0.021-3.494-0.505-3.44-3.019c0.045-2.12,0.875-3.063,3.054-3.015C190.424,250.543,192.257,250.523,191.9,253.368z"/>
			<path fill-rule="evenodd" clip-rule="evenodd" fill="#F8E44A" d="M308.277,216.831c0,6.205-2.065,9.281-6.559,9.943
				c-3.108,0.458-5-0.706-5.188-3.899c-0.164-2.808-0.169-5.64-0.008-8.447c0.147-2.568,1.348-4.286,4.314-3.911
				c0.416,0.052,0.845,0.008,1.268,0.006C308.277,210.49,308.277,210.49,308.277,216.831z"/>
			<path fill-rule="evenodd" clip-rule="evenodd" fill="#F8E44A" d="M275.506,273.706c-1.613-1.179-4.766,1.505-5.056-1.916
				c-0.276-3.257,1.918-4.489,5.217-4.442c3.202,0.046,5.593,1.047,5.241,4.41C280.515,275.511,277.175,272.374,275.506,273.706z"/>
		</g>
	</a>
	<a xlink:href="../hoe-reageren#game"  target='_top'>
		<g id="console">
			<path fill-rule="evenodd" clip-rule="evenodd" fill="#FBFBFB" d="M455.199,404.218c-0.005-29.673-23.643-53.427-53.211-53.471
				c-29.976-0.044-53.761,23.53-53.791,53.315c-0.03,29.935,23.59,53.67,53.422,53.683
				C431.511,457.759,455.204,434.087,455.199,404.218z"/>
			<path fill-rule="evenodd" clip-rule="evenodd" fill="#0F0E0E" d="M455.199,404.218c0.005,29.869-23.688,53.541-53.579,53.527
				c-29.832-0.013-53.452-23.748-53.422-53.683c0.03-29.786,23.815-53.36,53.791-53.315
				C431.557,350.791,455.194,374.545,455.199,404.218z M401.4,453.176c22.48,1.096,50.645-17.416,49.308-51.796
				c-0.9-23.149-19.943-47.502-52.089-46.103c-23.09,1.004-47.301,19.946-45.903,51.834
				C353.923,434.632,377.131,453.523,401.4,453.176z"/>
			<path fill-rule="evenodd" clip-rule="evenodd" fill="#FBFBFB" d="M401.4,453.176c-24.269,0.348-47.478-18.544-48.684-46.064
				c-1.398-31.888,22.813-50.83,45.903-51.834c32.146-1.399,51.188,22.954,52.089,46.103
				C452.045,435.76,423.881,454.271,401.4,453.176z M434.816,412.071c0.229-7.977-1.923-15.341-5.961-22.139
				c-4.563-7.682-11.804-9.937-19.514-5.627c-5.23,2.924-9.838,3.037-15.081,0.091c-7.758-4.357-15.008-2.236-19.607,5.359
				c-5.315,8.778-6.977,18.367-5.765,28.478c0.372,3.11,0.958,6.389,4.327,7.716c3.533,1.393,6.33-0.842,8.046-3.288
				c5.618-8.008,13.396-9.408,22.265-8.267c0.835,0.106,1.713,0.122,2.543-0.004c5.521-0.832,9.878,0.852,13.151,5.531
				c1.106,1.582,2.783,2.799,4.312,4.048c5.074,4.15,9.169,2.615,10.678-3.881C434.827,417.433,434.802,414.757,434.816,412.071z"/>
			<path fill-rule="evenodd" clip-rule="evenodd" fill="#0F0E0E" d="M434.818,412.07c-0.017,2.687,0.009,5.362-0.608,8.019
				c-1.509,6.496-5.604,8.031-10.678,3.881c-1.528-1.249-3.205-2.466-4.312-4.048c-3.273-4.68-7.63-6.363-13.151-5.531
				c-0.83,0.126-1.708,0.11-2.543,0.004c-8.869-1.142-16.646,0.259-22.265,8.267c-1.716,2.446-4.513,4.681-8.046,3.288
				c-3.369-1.327-3.955-4.605-4.327-7.716c-1.212-10.11,0.449-19.7,5.765-28.478c4.6-7.595,11.85-9.717,19.607-5.359
				c5.243,2.946,9.851,2.833,15.081-0.091c7.71-4.309,14.951-2.054,19.514,5.627C432.894,396.73,435.045,404.095,434.818,412.07z
				M387.097,406.706c1.39-0.098,2.106-0.854,1.911-2.223c-0.328-2.302,0.683-3.089,2.853-2.765c1.584,0.236,2.301-0.411,2.363-2.069
				c0.071-1.898-0.761-2.542-2.529-2.3c-2.097,0.288-2.813-0.74-2.585-2.702c0.18-1.552-0.385-2.357-2.106-2.351
				c-1.7,0.006-2.302,0.794-2.143,2.346c0.192,1.868-0.269,3.033-2.492,2.725c-1.425-0.197-2.534,0.171-2.559,1.943
				c-0.025,1.781,0.769,2.665,2.579,2.403c1.883-0.272,2.582,0.51,2.337,2.353C384.491,405.83,385.306,406.731,387.097,406.706z
				M414.765,406.616c1.84-0.374,3.278-1.332,3.169-3.587c-0.095-1.969-1.191-3.08-3.218-3.147c-2.269-0.076-3.501,1.296-3.558,3.295
				C411.101,405.229,412.458,406.47,414.765,406.616z M427.143,398.769c-0.345-2.018-1.478-3.478-3.514-3.556
				c-1.804-0.069-3.209,0.973-3.38,2.992c-0.183,2.157,0.791,3.53,3.021,3.708C425.498,402.092,426.47,400.587,427.143,398.769z
				M417.981,393.231c-0.271-2.189-1.533-3.398-3.628-3.328c-1.92,0.064-3.188,1.389-3.183,3.264c0.006,2.012,1.139,3.489,3.381,3.484
				C416.764,396.646,417.775,395.296,417.981,393.231z"/>
			<path fill-rule="evenodd" clip-rule="evenodd" fill="#FBFBFB" d="M387.099,406.709c-1.793,0.022-2.607-0.879-2.373-2.643
				c0.245-1.843-0.454-2.625-2.337-2.353c-1.81,0.262-2.604-0.622-2.579-2.403c0.025-1.771,1.134-2.14,2.559-1.943
				c2.224,0.308,2.685-0.857,2.492-2.725c-0.159-1.551,0.443-2.34,2.143-2.346c1.722-0.006,2.286,0.799,2.106,2.351
				c-0.228,1.961,0.488,2.989,2.585,2.702c1.768-0.242,2.6,0.401,2.529,2.3c-0.062,1.658-0.779,2.306-2.363,2.069
				c-2.17-0.324-3.181,0.463-2.853,2.765C389.203,405.853,388.486,406.608,387.099,406.709z"/>
			<path fill-rule="evenodd" clip-rule="evenodd" fill="#FBFBFB" d="M414.765,406.616c-2.307-0.146-3.664-1.387-3.606-3.438
				c0.057-1.999,1.289-3.371,3.558-3.295c2.026,0.067,3.123,1.178,3.218,3.147C418.043,405.284,416.604,406.242,414.765,406.616z"/>
			<path fill-rule="evenodd" clip-rule="evenodd" fill="#FBFBFB" d="M427.143,398.769c-0.673,1.818-1.645,3.323-3.873,3.144
				c-2.229-0.179-3.203-1.552-3.021-3.708c0.171-2.019,1.576-3.061,3.38-2.992C425.665,395.291,426.798,396.751,427.143,398.769z"/>
			<path fill-rule="evenodd" clip-rule="evenodd" fill="#FBFBFB" d="M417.981,393.231c-0.206,2.065-1.218,3.415-3.43,3.42
				c-2.242,0.005-3.375-1.472-3.381-3.484c-0.006-1.875,1.263-3.2,3.183-3.264C416.448,389.833,417.711,391.042,417.981,393.231z"/>
		</g>
	</a>
	<a xlink:href="../hun-verhaal" target='_top'>
		<g id="hunVerhalen">
			<path fill-rule="evenodd" clip-rule="evenodd" fill="#FBFBFB" d="M632.533,412.742c-18.399,0-36.799,0-55.197,0
				c-24.627,0-49.254,0.042-73.881-0.057c-2.83-0.011-4.005,0.705-4.185,3.696c-0.192,3.213-0.968,6.409-1.692,9.565
				c-8.822,38.403-42.774,69.771-81.481,74.854c-4.535,0.595-5.361,2.114-5.354,6.221c0.109,67.936,0.075,135.871,0.073,203.808
				c-0.001,17.125,0.097,34.251-0.079,51.375c-0.036,3.437,0.999,4.128,4.288,4.095c14.61-0.148,29.115-1.499,43.483-3.94
				c91.352-15.522,167.105-58.549,225.501-130.556c50.488-62.255,77.567-133.82,80.547-214.216c0.138-3.715-0.56-4.966-4.644-4.949
				C717.453,412.808,674.993,412.742,632.533,412.742z"/>
			<path fill-rule="evenodd" clip-rule="evenodd" fill="#72BF4D" d="M632.533,412.742c42.46,0,84.92,0.065,127.379-0.104
				c4.084-0.017,4.781,1.234,4.644,4.949c-2.979,80.396-30.059,151.961-80.547,214.216
				c-58.396,72.007-134.149,115.033-225.501,130.556c-14.368,2.441-28.873,3.792-43.483,3.94c-3.289,0.033-4.324-0.658-4.288-4.095
				c0.176-17.124,0.078-34.25,0.079-51.375c0.002-67.937,0.036-135.872-0.073-203.808c-0.007-4.106,0.819-5.626,5.354-6.221
				c38.707-5.083,72.659-36.45,81.481-74.854c0.725-3.156,1.5-6.353,1.692-9.565c0.18-2.991,1.354-3.707,4.185-3.696
				c24.627,0.099,49.254,0.057,73.881,0.057C595.734,412.742,614.134,412.742,632.533,412.742z M490.024,527.542
				c0-5.233-0.09-10.468,0.04-15.698c0.059-2.393-0.769-3.22-3.179-3.209c-2.423,0.012-3.842,0.549-3.58,3.29
				c0.107,1.121,0.017,2.261,0.017,3.393c-0.001,10.089-0.001,10.089-10.054,9.618c-0.142-0.007-0.285-0.019-0.424,0
				c-1.895,0.25-2.438-0.65-2.382-2.447c0.105-3.39-0.052-6.789,0.057-10.181c0.074-2.285-0.221-3.702-3.127-3.694
				c-2.808,0.007-3.683,0.946-3.65,3.695c0.12,10.04,0.153,20.085-0.014,30.123c-0.054,3.171,1.265,3.844,4.055,3.681
				c4.611-0.269,2.572-3.729,2.612-5.729c0.209-10.441,0.095-10.386,10.556-9.646c1.846,0.131,2.457,0.67,2.398,2.477
				c-0.104,3.25,0.099,6.512-0.063,9.757c-0.144,2.879,1.429,3.107,3.715,3.166c2.54,0.065,3.107-1.058,3.058-3.319
				C489.948,537.728,490.024,532.634,490.024,527.542z M547.774,578.317c0-3.744-0.079-6.979,0.027-10.209
				c0.071-2.162-0.309-3.454-2.953-3.425c-2.428,0.026-3.642,0.575-3.617,3.294c0.095,10.893,0.097,21.786,0,32.677
				c-0.025,2.779,1.308,3.192,3.671,3.235c2.709,0.05,2.937-1.374,2.896-3.475c-0.082-4.385-0.085-8.771,0-13.154
				c0.052-2.655,3.263-5.672,5.86-5.549c3.561,0.169,2.758,3.084,2.835,5.11c0.185,4.803,0.092,9.617,0.059,14.427
				c-0.018,2.435,1.488,2.646,3.384,2.6c1.659-0.041,3.169-0.002,3.13-2.33c-0.102-6.079,0.252-12.196-0.316-18.229
				c-0.61-6.482-5.717-9.106-11.721-6.621C550.135,577.038,549.295,577.541,547.774,578.317z M593.339,589.967c0-1.13,0-2.26,0-3.389
				c0-10.785,0-10.785-10.937-10.785c-11.13,0-13.614,2.471-13.663,13.637c-0.005,1.125,0.132,2.251,0.225,3.375
				c0.862,10.482,6.176,13.531,15.77,9.002c1.096-0.517,1.68-1.252,2.25,0.692c0.638,2.169,2.862,1.313,4.424,1.229
				c1.908-0.104,1.933-1.707,1.932-3.171C593.334,597.026,593.337,593.496,593.339,589.967z M628.551,592.681
				c1.98,0,3.962-0.01,5.942,0.005c1.045,0.007,1.934-0.205,2.478-1.236c2.244-4.26-1.134-13.384-5.542-14.929
				c-10.707-3.752-17.328,0.796-17.419,11.965c-0.002,0.282,0,0.565,0,0.849c0.012,12.633,10.001,18.424,21.166,12.403
				c2.383-1.285,2.041-2.561,1.008-4.399c-1.154-2.056-2.555-1.056-3.984-0.504c-2.966,1.145-5.989,1.744-9.072,0.512
				c-1.572-0.627-2.718-1.884-2.426-3.588c0.315-1.843,2.065-0.926,3.184-1.034C625.427,592.575,626.994,592.687,628.551,592.681z
				M503.933,575.793c-7.39,0.019-10.356,2.169-11.14,8.232c-0.234,1.815-0.187,3.67-0.223,5.508
				c-0.099,5.013,0.665,9.776,5.508,12.482c5.259,2.938,10.568,2.208,15.818-0.391c1.893-0.937,1.959-1.999,1.173-3.722
				c-0.977-2.143-2.297-1.96-4.119-1.188c-3.191,1.35-6.506,2.051-9.813,0.334c-1.353-0.704-2.237-1.944-1.828-3.477
				c0.405-1.518,1.899-0.828,2.904-0.853c3.535-0.086,7.074-0.057,10.61-0.025c1.612,0.014,2.87-0.41,2.894-2.272
				C515.833,580.937,514.865,575.479,503.933,575.793z M519.451,532.348c0-3.672-0.102-7.348,0.035-11.015
				c0.099-2.643-1.037-3.356-3.541-3.362c-2.554-0.004-3.086,1.109-3.03,3.347c0.11,4.517,0.188,9.045-0.019,13.556
				c-0.168,3.669-3.084,4.995-6.092,5.205c-3.319,0.231-3.071-2.781-3.14-4.914c-0.156-4.797-0.134-9.605-0.021-14.403
				c0.058-2.404-1.166-2.779-3.163-2.754c-1.893,0.024-3.421,0.186-3.371,2.613c0.119,5.781-0.191,11.607,0.42,17.336
				c0.802,7.52,5.878,10.069,12.685,6.866c1.358-0.64,2.189-1.592,3.33,0.646c0.701,1.373,3.178,0.831,4.745,0.358
				c1.508-0.454,1.14-2.081,1.151-3.311C519.474,539.127,519.452,535.737,519.451,532.348z M642.332,589.531
				c0,3.671,0.103,7.345-0.035,11.011c-0.099,2.647,1.05,3.349,3.546,3.354c2.557,0.007,3.081-1.115,3.026-3.349
				c-0.11-4.515-0.112-9.036,0-13.552c0.063-2.561,3.619-5.562,6.098-5.288c3.195,0.352,2.523,3.011,2.592,4.924
				c0.17,4.794,0.122,9.6,0.04,14.398c-0.046,2.684,1.548,2.796,3.594,2.84c2.192,0.046,3.012-0.752,2.962-2.962
				c-0.12-5.362,0.137-10.738-0.133-16.09c-0.4-7.93-5.641-10.996-12.805-7.747c-0.949,0.429-1.734,1.899-2.718-0.361
				c-0.792-1.822-3.073-0.978-4.63-0.771c-1.937,0.258-1.503,2.089-1.521,3.427C642.298,582.754,642.331,586.143,642.332,589.531z
				M526.833,531.794c0,3.671,0.104,7.346-0.035,11.011c-0.101,2.663,1.077,3.332,3.558,3.342c2.57,0.01,3.067-1.14,3.014-3.36
				c-0.108-4.515-0.112-9.036,0.002-13.552c0.063-2.556,3.638-5.559,6.109-5.276c3.187,0.366,2.509,3.022,2.579,4.937
				c0.171,4.652,0.158,9.318,0.022,13.974c-0.079,2.733,1.218,3.245,3.624,3.274c2.641,0.033,2.988-1.268,2.945-3.42
				c-0.104-5.222,0.141-10.457-0.129-15.667c-0.409-7.923-5.646-10.981-12.813-7.724c-0.974,0.442-1.738,1.84-2.717-0.381
				c-0.798-1.811-3.078-0.974-4.633-0.76c-1.932,0.266-1.491,2.1-1.511,3.438C526.798,525.017,526.832,528.405,526.833,531.794z
				M475.022,595.546c-2.445-6.137-6.24-10.627-5.502-16.729c0.208-1.719-0.24-3.227-2.446-2.993
				c-1.507,0.159-3.994-0.948-4.099,1.588c-0.143,3.449-0.921,7.032,0.798,10.394c2.308,4.517,4.671,9.012,6.762,13.629
				c1.039,2.297,2.678,2.396,4.76,2.447c2.068,0.053,3.398-0.469,4.316-2.465c1.94-4.22,3.872-8.473,6.228-12.464
				c2.127-3.605,1.444-7.372,1.477-11.118c0.02-2.319-1.857-2.031-3.397-2.04c-1.567-0.01-3.502-0.196-3.19,2.169
				C481.571,584.389,477.669,589.163,475.022,595.546z M606.373,581.606c0-4.095-0.27-8.212,0.078-12.277
				c0.329-3.855-1.092-5.177-4.757-4.596c-0.827,0.131-1.692,0.035-2.539,0.019c-1.18-0.022-2.462,0.027-2.579,1.502
				c-0.115,1.45-0.805,3.665,1.082,4.065c2.813,0.596,2.188,2.438,2.194,4.134c0.032,8.189,0.242,16.389-0.081,24.565
				c-0.161,4.087,1.304,5.385,5.085,4.821c0.691-0.103,1.41-0.006,2.116-0.02c1.126-0.024,2.47,0.102,2.672-1.396
				c0.182-1.342,0.736-3.542-0.647-3.863c-3.581-0.83-2.563-3.361-2.604-5.518C606.32,589.233,606.373,585.42,606.373,581.606z
				M521.735,589.89c0,3.24,0.053,6.481-0.017,9.721c-0.052,2.439-0.048,4.343,3.431,4.317c3.347-0.025,3.129-1.905,3.104-4.113
				c-0.045-4.226,0.188-8.466-0.072-12.676c-0.229-3.715,1.721-5.043,4.886-5.467c1.328-0.178,3.057,0.425,3.525-1.457
				c0.293-1.178,0.562-2.613-0.481-3.6c-1.461-1.383-3.114-0.814-4.737-0.183c-1.339,0.522-2.16,1.643-4.075-0.17
				c-2.452-2.321-5.514-0.161-5.555,3.482C521.706,583.127,521.735,586.508,521.735,589.89z"/>
			<path fill-rule="evenodd" clip-rule="evenodd" fill="#FBFBFB" d="M490.024,527.542c0,5.092-0.076,10.186,0.035,15.274
				c0.05,2.262-0.518,3.385-3.058,3.319c-2.286-0.059-3.858-0.287-3.715-3.166c0.161-3.245-0.042-6.507,0.063-9.757
				c0.059-1.807-0.553-2.346-2.398-2.477c-10.461-0.739-10.347-0.795-10.556,9.646c-0.04,2,1.999,5.461-2.612,5.729
				c-2.79,0.163-4.108-0.51-4.055-3.681c0.167-10.038,0.134-20.083,0.014-30.123c-0.032-2.749,0.843-3.688,3.65-3.695
				c2.906-0.008,3.201,1.409,3.127,3.694c-0.108,3.392,0.049,6.791-0.057,10.181c-0.057,1.797,0.487,2.697,2.382,2.447
				c0.139-0.019,0.282-0.007,0.424,0c10.053,0.471,10.053,0.471,10.054-9.618c0-1.132,0.091-2.271-0.017-3.393
				c-0.262-2.741,1.157-3.278,3.58-3.29c2.41-0.011,3.237,0.816,3.179,3.209C489.935,517.074,490.024,522.309,490.024,527.542z"/>
			<path fill-rule="evenodd" clip-rule="evenodd" fill="#FBFBFB" d="M547.774,578.317c1.521-0.776,2.36-1.279,3.255-1.649
				c6.004-2.485,11.11,0.139,11.721,6.621c0.568,6.033,0.215,12.15,0.316,18.229c0.039,2.328-1.471,2.289-3.13,2.33
				c-1.896,0.046-3.401-0.165-3.384-2.6c0.033-4.81,0.126-9.624-0.059-14.427c-0.077-2.026,0.726-4.941-2.835-5.11
				c-2.598-0.123-5.809,2.894-5.86,5.549c-0.085,4.383-0.082,8.77,0,13.154c0.04,2.101-0.188,3.524-2.896,3.475
				c-2.363-0.043-3.696-0.456-3.671-3.235c0.097-10.891,0.095-21.784,0-32.677c-0.024-2.719,1.189-3.268,3.617-3.294
				c2.645-0.029,3.024,1.263,2.953,3.425C547.695,571.338,547.774,574.573,547.774,578.317z"/>
			<path fill-rule="evenodd" clip-rule="evenodd" fill="#FBFBFB" d="M593.338,589.967c-0.001,3.529-0.004,7.06,0.001,10.59
				c0.001,1.464-0.023,3.066-1.932,3.171c-1.562,0.084-3.786,0.94-4.424-1.229c-0.57-1.944-1.154-1.209-2.25-0.692
				c-9.594,4.529-14.907,1.48-15.77-9.002c-0.093-1.124-0.229-2.25-0.225-3.375c0.049-11.166,2.533-13.637,13.663-13.637
				c10.937,0,10.937,0,10.937,10.785C593.339,587.707,593.339,588.837,593.338,589.967z M586.833,588.066c0-6.465,0-6.464-6.43-6.421
				c-0.565,0.004-1.136,0.051-1.696-0.003c-2.158-0.207-3.121,1.036-3.42,2.916c-0.556,3.51-0.575,7.037,0.035,10.542
				c0.382,2.193,1.827,2.938,3.979,2.883C584.19,597.857,586.833,594.437,586.833,588.066z"/>
			<path fill-rule="evenodd" clip-rule="evenodd" fill="#FBFBFB" d="M628.551,592.684c-1.557,0.003-3.124-0.108-4.666,0.04
				c-1.118,0.108-2.868-0.809-3.184,1.034c-0.292,1.704,0.854,2.961,2.426,3.588c3.083,1.232,6.106,0.633,9.072-0.512
				c1.43-0.552,2.83-1.552,3.984,0.504c1.033,1.839,1.375,3.114-1.008,4.399c-11.165,6.021-21.154,0.229-21.166-12.403
				c0-0.283-0.002-0.566,0-0.849c0.091-11.169,6.712-15.717,17.419-11.965c4.408,1.545,7.786,10.669,5.542,14.929
				c-0.544,1.031-1.433,1.243-2.478,1.236C632.513,592.671,630.531,592.681,628.551,592.684z M625.58,587.954
				c1.611-1.349,4.976,1.788,5.22-2.086c0.216-3.429-2.237-4.29-5.393-4.291c-3.088,0-5.183,1.081-5.004,4.219
				C620.625,589.731,623.98,586.619,625.58,587.954z"/>
			<path fill-rule="evenodd" clip-rule="evenodd" fill="#FBFBFB" d="M503.933,575.793c10.933-0.314,11.9,5.144,11.784,14.629
				c-0.023,1.862-1.281,2.286-2.894,2.272c-3.536-0.031-7.075-0.061-10.61,0.025c-1.005,0.024-2.499-0.665-2.904,0.853
				c-0.409,1.532,0.476,2.772,1.828,3.477c3.308,1.717,6.622,1.016,9.813-0.334c1.822-0.771,3.143-0.954,4.119,1.188
				c0.786,1.723,0.72,2.785-1.173,3.722c-5.25,2.599-10.56,3.329-15.818,0.391c-4.843-2.706-5.606-7.47-5.508-12.482
				c0.036-1.838-0.012-3.692,0.223-5.508C493.576,577.962,496.543,575.812,503.933,575.793z M504.459,588.224
				c1.027-2.385,4.731,1.954,4.913-2.355c0.146-3.445-2.257-4.289-5.41-4.291c-3.088,0-5.182,1.083-5.004,4.22
				C499.183,589.732,502.538,586.619,504.459,588.224z"/>
			<path fill-rule="evenodd" clip-rule="evenodd" fill="#FBFBFB" d="M519.452,532.348c0,3.39,0.021,6.779-0.011,10.169
				c-0.012,1.229,0.356,2.856-1.151,3.311c-1.567,0.473-4.044,1.015-4.745-0.358c-1.141-2.238-1.972-1.286-3.33-0.646
				c-6.807,3.203-11.883,0.653-12.685-6.866c-0.611-5.729-0.301-11.555-0.42-17.336c-0.05-2.428,1.479-2.589,3.371-2.613
				c1.997-0.025,3.221,0.35,3.163,2.754c-0.113,4.798-0.136,9.606,0.021,14.403c0.068,2.133-0.18,5.146,3.14,4.914
				c3.008-0.21,5.924-1.536,6.092-5.205c0.207-4.511,0.129-9.039,0.019-13.556c-0.056-2.237,0.477-3.351,3.03-3.347
				c2.504,0.006,3.64,0.72,3.541,3.362C519.35,525,519.451,528.676,519.452,532.348z"/>
			<path fill-rule="evenodd" clip-rule="evenodd" fill="#FBFBFB" d="M642.331,589.531c0-3.389-0.033-6.777,0.017-10.166
				c0.019-1.338-0.415-3.169,1.521-3.427c1.557-0.206,3.838-1.051,4.63,0.771c0.983,2.261,1.769,0.79,2.718,0.361
				c7.164-3.249,12.404-0.183,12.805,7.747c0.27,5.352,0.013,10.728,0.133,16.09c0.05,2.21-0.77,3.008-2.962,2.962
				c-2.046-0.044-3.64-0.156-3.594-2.84c0.082-4.799,0.13-9.604-0.04-14.398c-0.068-1.913,0.604-4.572-2.592-4.924
				c-2.479-0.273-6.035,2.728-6.098,5.288c-0.112,4.516-0.11,9.037,0,13.552c0.055,2.233-0.47,3.355-3.026,3.349
				c-2.496-0.006-3.645-0.707-3.546-3.354C642.435,596.876,642.332,593.202,642.331,589.531z"/>
			<path fill-rule="evenodd" clip-rule="evenodd" fill="#FBFBFB" d="M526.832,531.794c0-3.389-0.034-6.777,0.017-10.165
				c0.02-1.338-0.421-3.172,1.511-3.438c1.555-0.214,3.835-1.051,4.633,0.76c0.979,2.221,1.743,0.823,2.717,0.381
				c7.168-3.258,12.404-0.199,12.813,7.724c0.27,5.21,0.024,10.445,0.129,15.667c0.043,2.152-0.305,3.453-2.945,3.42
				c-2.406-0.029-3.703-0.541-3.624-3.274c0.136-4.655,0.148-9.321-0.022-13.974c-0.07-1.914,0.607-4.57-2.579-4.937
				c-2.472-0.282-6.046,2.721-6.109,5.276c-0.114,4.516-0.11,9.037-0.002,13.552c0.054,2.221-0.443,3.37-3.014,3.36
				c-2.48-0.01-3.658-0.679-3.558-3.342C526.937,539.14,526.833,535.465,526.832,531.794z"/>
			<path fill-rule="evenodd" clip-rule="evenodd" fill="#FBFBFB" d="M475.022,595.546c2.646-6.383,6.549-11.157,5.705-17.582
				c-0.312-2.365,1.623-2.179,3.19-2.169c1.54,0.009,3.417-0.279,3.397,2.04c-0.032,3.746,0.65,7.513-1.477,11.118
				c-2.355,3.991-4.287,8.244-6.228,12.464c-0.918,1.996-2.248,2.518-4.316,2.465c-2.082-0.052-3.721-0.15-4.76-2.447
				c-2.091-4.617-4.454-9.112-6.762-13.629c-1.719-3.361-0.94-6.944-0.798-10.394c0.104-2.536,2.592-1.429,4.099-1.588
				c2.206-0.233,2.654,1.274,2.446,2.993C468.782,584.919,472.577,589.409,475.022,595.546z"/>
			<path fill-rule="evenodd" clip-rule="evenodd" fill="#FBFBFB" d="M606.373,581.606c0,3.813-0.053,7.627,0.021,11.438
				c0.04,2.156-0.978,4.688,2.604,5.518c1.384,0.321,0.829,2.521,0.647,3.863c-0.202,1.497-1.546,1.371-2.672,1.396
				c-0.706,0.014-1.425-0.083-2.116,0.02c-3.781,0.563-5.246-0.734-5.085-4.821c0.323-8.177,0.113-16.376,0.081-24.565
				c-0.007-1.695,0.618-3.538-2.194-4.134c-1.887-0.4-1.197-2.615-1.082-4.065c0.117-1.475,1.399-1.524,2.579-1.502
				c0.847,0.017,1.712,0.112,2.539-0.019c3.665-0.581,5.086,0.74,4.757,4.596C606.104,573.395,606.373,577.512,606.373,581.606z"/>
			<path fill-rule="evenodd" clip-rule="evenodd" fill="#FBFBFB" d="M521.735,589.89c0-3.382-0.029-6.763,0.009-10.145
				c0.041-3.644,3.103-5.804,5.555-3.482c1.915,1.813,2.736,0.692,4.075,0.17c1.623-0.632,3.276-1.2,4.737,0.183
				c1.043,0.986,0.774,2.422,0.481,3.6c-0.469,1.882-2.197,1.279-3.525,1.457c-3.165,0.424-5.115,1.752-4.886,5.467
				c0.26,4.21,0.027,8.45,0.072,12.676c0.024,2.208,0.242,4.088-3.104,4.113c-3.479,0.025-3.482-1.878-3.431-4.317
				C521.788,596.371,521.735,593.13,521.735,589.89z"/>
			<path fill-rule="evenodd" clip-rule="evenodd" fill="#72BF4D" d="M586.833,588.066c0,6.37-2.643,9.791-7.531,9.917
				c-2.152,0.055-3.598-0.689-3.979-2.883c-0.61-3.505-0.591-7.032-0.035-10.542c0.299-1.88,1.262-3.123,3.42-2.916
				c0.561,0.054,1.131,0.007,1.696,0.003C586.833,581.603,586.833,581.602,586.833,588.066z"/>
			<path fill-rule="evenodd" clip-rule="evenodd" fill="#72BF4D" d="M625.58,587.954c-1.6-1.335-4.955,1.777-5.177-2.158
				c-0.179-3.138,1.916-4.219,5.004-4.219c3.155,0.001,5.608,0.862,5.393,4.291C630.556,589.742,627.191,586.605,625.58,587.954z"/>
			<path fill-rule="evenodd" clip-rule="evenodd" fill="#72BF4D" d="M504.459,588.224c-1.921-1.604-5.276,1.509-5.501-2.427
				c-0.178-3.137,1.916-4.22,5.004-4.22c3.153,0.002,5.557,0.846,5.41,4.291C509.19,590.178,505.486,585.839,504.459,588.224z"/>
		</g>
	</a>
	<a xlink:href="../waar-kan-je-terecht"  target='_top'>
		<g id="waar">
			<path fill-rule="evenodd" clip-rule="evenodd" fill="#FBFBFB" d="M393.882,634.22c0-40.765,0.013-81.527-0.025-122.292
				c-0.002-3.227,1.308-7.262-0.642-9.437c-1.523-1.699-5.546-1.145-8.455-1.62c-1.25-0.205-2.486-0.502-3.734-0.727
				c-40.393-7.282-74.082-43.203-78.639-83.981c-0.299-2.674-1.19-3.484-3.925-3.482c-85.633,0.075-171.267,0.078-256.9-0.006
				c-3.081-0.003-3.641,0.939-3.606,3.827c0.224,18.883,2.491,37.532,6.134,56.023C78.683,648.127,230.242,762.97,389.439,766.343
				c3.498,0.075,4.534-0.688,4.523-4.31C393.835,719.43,393.881,676.824,393.882,634.22z"/>
			<path fill-rule="evenodd" clip-rule="evenodd" fill="#E14F3A" d="M393.882,634.22c-0.001,42.604-0.046,85.21,0.081,127.813
				c0.011,3.622-1.025,4.385-4.523,4.31C230.242,762.97,78.683,648.127,44.088,472.525c-3.643-18.491-5.91-37.141-6.134-56.023
				c-0.035-2.888,0.526-3.83,3.606-3.827c85.633,0.084,171.267,0.081,256.9,0.006c2.735-0.002,3.626,0.809,3.925,3.482
				c4.557,40.778,38.246,76.699,78.639,83.981c1.248,0.225,2.484,0.521,3.734,0.727c2.909,0.476,6.932-0.079,8.455,1.62
				c1.95,2.175,0.64,6.21,0.642,9.437C393.895,552.692,393.882,593.455,393.882,634.22z M256.479,524.331
				c0-4.102-0.136-8.209,0.049-12.302c0.118-2.619-0.799-3.419-3.388-3.405s-3.48,0.865-3.429,3.45
				c0.132,6.645-0.139,13.3,0.12,19.938c0.13,3.35-2.08,5.94-4.133,5.918c-2.374-0.025-4.701-2.419-4.573-5.973
				c0.239-6.639-0.037-13.294,0.121-19.938c0.062-2.623-0.822-3.405-3.399-3.396c-2.599,0.01-3.472,0.883-3.421,3.458
				c0.13,6.645-0.129,13.3,0.116,19.938c0.123,3.333-2.073,5.938-4.137,5.911c-2.371-0.031-4.694-2.43-4.565-5.98
				c0.239-6.639-0.038-13.294,0.121-19.937c0.063-2.632-0.838-3.396-3.407-3.39c-2.607,0.006-3.477,0.896-3.414,3.465
				c0.138,5.653,0.631,11.391-0.102,16.951c-0.99,7.5,1.891,12.139,8.2,15.718c2.548,1.444,4.291,1.78,6.234-0.313
				c2.986-3.215,5.869-3.251,8.858-0.003c2.139,2.324,3.991,1.573,6.59,0.086c6.08-3.477,8.937-8.072,7.606-15.115
				C256.215,527.774,256.479,526.027,256.479,524.331z M272.614,577.46c0-3.75-0.078-6.985,0.028-10.213
				c0.07-2.139-0.242-3.491-2.921-3.407c-2.307,0.071-3.74,0.36-3.714,3.19c0.099,10.882,0.092,21.765,0,32.647
				c-0.022,2.64,1.036,3.361,3.543,3.371c2.476,0.009,3.172-0.913,3.103-3.245c-0.134-4.52-0.111-9.046-0.01-13.566
				c0.057-2.557,3.557-5.6,6.044-5.363c3.234,0.308,2.531,2.969,2.592,4.896c0.151,4.8,0.115,9.609,0.032,14.414
				c-0.046,2.696,1.567,2.79,3.606,2.836c2.129,0.048,3.075-0.585,3.018-2.874c-0.142-5.65,0.162-11.321-0.192-16.953
				c-0.447-7.104-5.778-10.106-12.276-7.247C274.712,576.278,274.003,576.719,272.614,577.46z M285.968,532.478
				c0-3.809-0.044-7.618,0.017-11.425c0.035-2.149-0.889-3.063-3.042-3.026c-4.372,0.073-8.746-0.011-13.118,0.058
				c-3.83,0.061-6.357,1.957-7.467,5.658c-1.192,3.977-1.22,8.009-0.819,12.115c0.917,9.392,6.94,12.803,15.297,8.542
				c1.112-0.566,2.043-2.026,2.855,0.613c0.606,1.97,2.96,1.042,4.527,0.929c1.619-0.117,1.757-1.543,1.753-2.884
				C285.962,539.531,285.969,536.004,285.968,532.478z M316.544,532.21c0-3.526-0.121-7.059,0.038-10.578
				c0.127-2.816-1.054-3.735-3.759-3.628c-3.943,0.158-7.899-0.022-11.847,0.067c-4.813,0.109-7.266,1.994-8.389,6.728
				c-0.88,3.709-0.867,7.502-0.479,11.328c0.921,9.072,7.052,12.527,15.149,8.319c1.433-0.744,2.218-1.682,3.146,0.79
				c0.629,1.677,3.067,0.932,4.645,0.652c1.56-0.276,1.5-1.805,1.498-3.099C316.54,539.264,316.544,535.736,316.544,532.21z
				M209.764,587.371c-0.117,13.622,9.411,19.695,21.16,13.569c1.916-0.998,2.357-1.95,1.385-3.945
				c-1.027-2.109-2.261-1.994-4.084-1.216c-3.168,1.354-6.449,2.149-9.771,0.432c-1.352-0.699-2.285-1.874-1.95-3.416
				c0.345-1.586,1.854-0.875,2.841-0.9c3.524-0.088,7.053-0.04,10.58-0.033c1.15,0.002,2.221-0.016,2.859-1.279
				c1.903-3.769-0.876-13.491-4.725-14.552C218.481,573.388,208.868,573.95,209.764,587.371z M177.744,591.854
				c1.975,0,3.95-0.024,5.925,0.007c1.5,0.025,2.562-0.584,2.574-2.136c0.063-8.616-0.319-15.224-11.523-14.783
				c-0.986,0.038-1.977,0.004-2.96,0.076c-5.255,0.384-7.91,2.886-8.526,8.156c-0.195,1.675-0.169,3.381-0.172,5.071
				c-0.026,12.876,9.769,18.723,21.159,12.642c2.187-1.168,2.439-3.943,0.451-5.334c-1.28-0.896-2.392,0.015-3.557,0.435
				c-3.103,1.116-6.24,1.888-9.396,0.209c-1.341-0.714-2.279-1.887-1.914-3.43c0.37-1.562,1.865-0.803,2.863-0.874
				C174.352,591.773,176.051,591.86,177.744,591.854z M250.333,574.947c-1.413,0-2.827-0.031-4.239,0.005
				c-5.252,0.134-7.948,2.202-8.864,7.248c-0.474,2.612-0.642,5.341-0.506,7.993c0.257,5.014,1.729,9.568,6.868,11.697
				c5.61,2.325,10.746,1.025,15.519-2.477c1.6-1.173,1.771-2.313,0.684-3.909c-1.012-1.484-2.02-2.287-3.785-1.027
				c-1.024,0.73-2.175,1.312-3.328,1.831c-4.413,1.985-8.094,0.168-9.386-4.482c-0.623-2.244-0.394-4.466-0.223-6.714
				c0.25-3.272,1.804-4.732,5.229-4.344c2.372,0.269,4.803-0.041,7.2,0.077c2.25,0.11,3.002-0.974,3.034-3.039
				c0.033-2.199-0.968-3.035-3.116-2.886C253.731,575.038,252.029,574.944,250.333,574.947z M324.582,563.903
				c-7.855,0.008-11.981,3.227-12.056,9.268c-0.023,1.863,0.403,3.124,2.508,2.948c1.646-0.137,4.069,0.847,4.18-2.109
				c0.178-4.763,3.535-4.176,6.66-4.25c2.783-0.066,4.238,1.221,4.454,3.925c0.263,3.293,0.007,6.159-4.168,7.022
				c-3.926,0.811-5.741,3.745-6.394,7.538c-0.231,1.341-0.431,2.757,1.259,3.024c1.593,0.251,4.362,0.893,4.632-0.613
				c0.723-4.03,3.831-4.333,6.578-5.528c2.031-0.883,3.244-2.638,4.015-4.69C339.818,570.942,334.845,563.894,324.582,563.903z
				M304.159,602.971c0.847,0,1.695-0.037,2.539,0.008c1.893,0.102,2.438-0.915,2.373-2.623c-0.06-1.58,0.14-3.476-2.192-3.206
				c-5.098,0.59-5.458-2.61-5.396-6.316c0.036-2.115,0.103-4.237-0.019-6.346c-0.137-2.365,0.006-4.173,3.211-3.73
				c1.759,0.242,1.99-1.179,1.901-2.56c-0.085-1.316,0.443-3.389-1.68-3.147c-3.924,0.446-3.585-1.99-3.386-4.389
				c0.2-2.409-1.208-2.845-3.121-2.856c-1.843-0.01-3.411,0.253-3.472,2.639c-0.053,2.075,0.715,4.297-2.61,5.172
				c-1.367,0.36-1.426,3.846-0.052,4.372c3.837,1.472,2.476,4.398,2.638,6.902c0.172,2.67-0.08,5.378,0.228,8.024
				C295.858,601.24,297.864,602.93,304.159,602.971z M155.673,602.968c0.846,0,1.694-0.027,2.539,0.005
				c1.987,0.078,2.262-1.144,2.243-2.75c-0.02-1.663-0.049-3.365-2.331-3.088c-4.816,0.584-5.304-2.427-5.26-6.013
				c0.028-2.257,0.056-4.517-0.01-6.771c-0.06-2.075-0.22-4.021,2.911-3.571c1.979,0.283,2.249-1.119,2.215-2.718
				c-0.034-1.613,0.084-3.405-2.267-3.076c-3.224,0.45-3.032-1.622-2.817-3.611c0.273-2.53-0.692-3.6-3.262-3.603
				c-2.605-0.004-3.479,1.187-3.375,3.655c0.063,1.507,0.604,3.04-1.961,3.822c-2.284,0.695-2.063,4.204-0.563,4.804
				c3.444,1.375,2.449,3.84,2.544,6.124c0.118,2.816-0.114,5.659,0.172,8.453C147.126,601.178,149.184,602.941,155.673,602.968z
				M323.797,532.028c0,3.675,0.082,7.351-0.028,11.022c-0.075,2.499,1.132,3.061,3.381,3.084c2.296,0.022,3.357-0.559,3.258-3.083
				c-0.166-4.233,0.178-8.493-0.106-12.714c-0.291-4.307,1.494-6.383,5.693-6.39c1.911-0.003,2.878-0.592,2.885-2.657
				c0.01-2.918-1.694-4.03-4.9-2.844c-1.66,0.614-2.692,1.512-4.798-0.088c-2.661-2.022-5.332,0.008-5.378,3.492
				C323.76,525.244,323.795,528.636,323.797,532.028z M192.16,588.817c0,3.392,0.052,6.784-0.018,10.175
				c-0.049,2.327,0.049,4.042,3.262,4.084c3.104,0.04,3.454-1.354,3.365-3.86c-0.146-4.094,0.188-8.213-0.102-12.291
				c-0.302-4.247,1.712-6.064,5.584-6.05c2.6,0.01,3.248-1.252,2.946-3.42c-0.508-3.655-3.037-2.636-5.13-1.953
				c-1.579,0.515-2.447,1.459-4.428-0.219c-2.471-2.095-5.417,0-5.468,3.358C192.12,582.033,192.16,585.425,192.16,588.817z
				M326.074,599.878c0.508-2.781-1.216-2.832-3.276-2.902c-2.324-0.081-3.311,0.666-3.296,3.101c0.016,2.591,1.389,2.896,3.508,2.951
				C325.372,603.089,326.511,602.343,326.074,599.878z"/>
			<path fill-rule="evenodd" clip-rule="evenodd" fill="#FBFBFB" d="M256.479,524.331c0,1.696-0.264,3.443,0.046,5.082
				c1.331,7.043-1.526,11.639-7.606,15.115c-2.599,1.487-4.451,2.238-6.59-0.086c-2.99-3.248-5.873-3.212-8.858,0.003
				c-1.944,2.093-3.687,1.757-6.234,0.313c-6.309-3.579-9.19-8.218-8.2-15.718c0.733-5.561,0.24-11.298,0.102-16.951
				c-0.063-2.568,0.806-3.459,3.414-3.465c2.569-0.006,3.469,0.758,3.407,3.39c-0.159,6.643,0.118,13.298-0.121,19.937
				c-0.128,3.551,2.195,5.949,4.565,5.98c2.064,0.027,4.26-2.578,4.137-5.911c-0.246-6.638,0.014-13.293-0.116-19.938
				c-0.05-2.575,0.822-3.448,3.421-3.458c2.578-0.01,3.461,0.772,3.399,3.396c-0.158,6.644,0.118,13.299-0.121,19.938
				c-0.128,3.554,2.2,5.947,4.573,5.973c2.053,0.022,4.264-2.568,4.133-5.918c-0.259-6.638,0.012-13.293-0.12-19.938
				c-0.051-2.585,0.84-3.437,3.429-3.45s3.506,0.786,3.388,3.405C256.343,516.122,256.479,520.229,256.479,524.331z"/>
			<path fill-rule="evenodd" clip-rule="evenodd" fill="#FBFBFB" d="M272.614,577.46c1.389-0.741,2.098-1.182,2.854-1.515
				c6.498-2.859,11.829,0.143,12.276,7.247c0.354,5.632,0.05,11.303,0.192,16.953c0.057,2.289-0.889,2.922-3.018,2.874
				c-2.039-0.046-3.653-0.14-3.606-2.836c0.083-4.805,0.12-9.614-0.032-14.414c-0.061-1.927,0.642-4.588-2.592-4.896
				c-2.488-0.236-5.987,2.807-6.044,5.363c-0.101,4.521-0.124,9.047,0.01,13.566c0.069,2.332-0.627,3.254-3.103,3.245
				c-2.507-0.01-3.565-0.731-3.543-3.371c0.092-10.883,0.098-21.766,0-32.647c-0.026-2.83,1.407-3.119,3.714-3.19
				c2.679-0.084,2.991,1.269,2.921,3.407C272.537,570.475,272.614,573.71,272.614,577.46z"/>
			<path fill-rule="evenodd" clip-rule="evenodd" fill="#FBFBFB" d="M285.969,532.478c0,3.526-0.007,7.054,0.003,10.58
				c0.004,1.341-0.134,2.767-1.753,2.884c-1.567,0.113-3.921,1.041-4.527-0.929c-0.812-2.64-1.744-1.18-2.855-0.613
				c-8.356,4.261-14.38,0.85-15.297-8.542c-0.4-4.106-0.373-8.139,0.819-12.115c1.11-3.701,3.637-5.598,7.467-5.658
				c4.372-0.068,8.746,0.016,13.118-0.058c2.153-0.036,3.077,0.877,3.042,3.026C285.924,524.859,285.968,528.669,285.969,532.478z
				M279.397,530.162c0-1.411-0.009-2.821,0.002-4.232c0.009-1.046-0.094-1.735-1.466-2.045c-7.937-1.792-10.429,0.089-10.403,8.123
				c0.005,1.545,0.109,3.095,0.263,4.633c0.312,3.125,2.274,3.91,5.072,3.489C277.356,539.455,279.403,536.352,279.397,530.162z"/>
			<path fill-rule="evenodd" clip-rule="evenodd" fill="#FBFBFB" d="M316.544,532.21c0,3.526-0.005,7.054,0.002,10.58
				c0.002,1.294,0.063,2.822-1.498,3.099c-1.578,0.279-4.015,1.024-4.645-0.652c-0.928-2.472-1.712-1.534-3.146-0.79
				c-8.097,4.208-14.228,0.753-15.149-8.319c-0.389-3.826-0.401-7.619,0.479-11.328c1.123-4.733,3.576-6.618,8.389-6.728
				c3.948-0.09,7.904,0.091,11.847-0.067c2.705-0.107,3.886,0.812,3.759,3.628C316.424,525.151,316.544,528.684,316.544,532.21z
				M309.969,530.713c0-2.097-0.027-3.509,0.008-4.918c0.029-1.146-0.271-1.896-1.616-1.871c-2.539,0.045-5.414-0.729-7.545,0.209
				c-4.019,1.771-2.591,5.98-2.65,9.282c-0.045,2.52-0.61,5.667,2.888,6.666c1.81,0.517,3.613-0.069,5.274-0.999
				C309.991,537.035,310.561,533.771,309.969,530.713z"/>
			<path fill-rule="evenodd" clip-rule="evenodd" fill="#FBFBFB" d="M209.764,587.371c-0.896-13.421,8.717-13.983,18.296-11.341
				c3.849,1.061,6.628,10.783,4.725,14.552c-0.639,1.264-1.709,1.281-2.859,1.279c-3.526-0.007-7.055-0.055-10.58,0.033
				c-0.988,0.025-2.496-0.686-2.841,0.9c-0.335,1.542,0.598,2.717,1.95,3.416c3.322,1.718,6.603,0.922,9.771-0.432
				c1.824-0.778,3.057-0.894,4.084,1.216c0.972,1.995,0.53,2.947-1.385,3.945C219.175,607.066,209.646,600.993,209.764,587.371z
				M221.395,587.093c1.593-1.29,4.919,1.72,5.128-2.071c0.184-3.344-2.185-4.304-5.362-4.272c-3.063,0.03-5.134,1.043-4.902,4.22
				C216.538,588.79,219.794,585.825,221.395,587.093z"/>
			<path fill-rule="evenodd" clip-rule="evenodd" fill="#FBFBFB" d="M177.744,591.857c-1.693,0.003-3.392-0.084-5.077,0.036
				c-0.998,0.071-2.493-0.688-2.863,0.874c-0.365,1.543,0.573,2.716,1.914,3.43c3.155,1.679,6.292,0.907,9.396-0.209
				c1.165-0.42,2.276-1.331,3.557-0.435c1.989,1.391,1.736,4.166-0.451,5.334c-11.39,6.081-21.185,0.234-21.159-12.642
				c0.003-1.69-0.023-3.396,0.172-5.071c0.616-5.271,3.271-7.772,8.526-8.156c0.983-0.072,1.974-0.038,2.96-0.076
				c11.204-0.44,11.586,6.167,11.523,14.783c-0.012,1.552-1.074,2.161-2.574,2.136C181.694,591.83,179.719,591.854,177.744,591.857z
				M174.624,587.096c1.619-1.299,4.932,1.722,5.191-2.021c0.229-3.308-2.097-4.368-5.308-4.325c-3.024,0.041-5.143,0.943-4.957,4.168
				C169.775,588.813,173.055,585.812,174.624,587.096z"/>
			<path fill-rule="evenodd" clip-rule="evenodd" fill="#FBFBFB" d="M250.333,574.946c1.696-0.002,3.398,0.092,5.085-0.025
				c2.148-0.149,3.149,0.687,3.116,2.886c-0.031,2.065-0.784,3.149-3.034,3.039c-2.396-0.118-4.828,0.191-7.2-0.077
				c-3.425-0.389-4.979,1.071-5.229,4.344c-0.171,2.248-0.4,4.47,0.223,6.714c1.292,4.65,4.973,6.468,9.386,4.482
				c1.153-0.52,2.304-1.101,3.328-1.831c1.765-1.26,2.773-0.457,3.785,1.027c1.087,1.596,0.916,2.736-0.684,3.909
				c-4.773,3.502-9.909,4.802-15.519,2.477c-5.138-2.129-6.611-6.684-6.868-11.697c-0.136-2.652,0.032-5.381,0.506-7.993
				c0.916-5.046,3.612-7.114,8.864-7.248C247.506,574.916,248.92,574.947,250.333,574.946z"/>
			<path fill-rule="evenodd" clip-rule="evenodd" fill="#FBFBFB" d="M324.582,563.903c10.263-0.01,15.236,7.039,11.667,16.534
				c-0.771,2.053-1.984,3.808-4.015,4.69c-2.747,1.195-5.855,1.498-6.578,5.528c-0.27,1.506-3.039,0.864-4.632,0.613
				c-1.69-0.268-1.49-1.684-1.259-3.024c0.653-3.793,2.468-6.728,6.394-7.538c4.176-0.863,4.432-3.729,4.168-7.022
				c-0.216-2.704-1.67-3.991-4.454-3.925c-3.125,0.074-6.481-0.513-6.66,4.25c-0.111,2.956-2.535,1.973-4.18,2.109
				c-2.105,0.176-2.531-1.085-2.508-2.948C312.601,567.13,316.727,563.911,324.582,563.903z"/>
			<path fill-rule="evenodd" clip-rule="evenodd" fill="#FBFBFB" d="M304.159,602.974c-6.295-0.044-8.301-1.733-9.038-8.06
				c-0.308-2.646-0.056-5.354-0.228-8.024c-0.163-2.504,1.199-5.431-2.638-6.902c-1.374-0.526-1.315-4.012,0.052-4.372
				c3.325-0.875,2.557-3.097,2.61-5.172c0.061-2.386,1.628-2.648,3.472-2.639c1.913,0.012,3.321,0.447,3.121,2.856
				c-0.199,2.398-0.538,4.835,3.386,4.389c2.124-0.241,1.595,1.831,1.68,3.147c0.089,1.381-0.142,2.802-1.901,2.56
				c-3.206-0.442-3.349,1.365-3.211,3.73c0.122,2.108,0.055,4.23,0.019,6.346c-0.062,3.706,0.298,6.906,5.396,6.316
				c2.332-0.27,2.132,1.626,2.192,3.206c0.065,1.708-0.48,2.725-2.373,2.623C305.854,602.934,305.006,602.971,304.159,602.974z"/>
			<path fill-rule="evenodd" clip-rule="evenodd" fill="#FBFBFB" d="M155.673,602.972c-6.489-0.03-8.547-1.794-9.221-8.342
				c-0.287-2.794-0.055-5.637-0.172-8.453c-0.095-2.284,0.9-4.749-2.544-6.124c-1.5-0.6-1.722-4.108,0.563-4.804
				c2.565-0.782,2.024-2.315,1.961-3.822c-0.104-2.469,0.77-3.659,3.375-3.655c2.57,0.003,3.535,1.072,3.262,3.603
				c-0.215,1.989-0.407,4.062,2.817,3.611c2.351-0.329,2.232,1.463,2.267,3.076c0.033,1.599-0.236,3.001-2.215,2.718
				c-3.131-0.45-2.971,1.496-2.911,3.571c0.065,2.255,0.038,4.515,0.01,6.771c-0.044,3.586,0.443,6.597,5.26,6.013
				c2.282-0.277,2.312,1.425,2.331,3.088c0.019,1.606-0.255,2.828-2.243,2.75C157.367,602.94,156.52,602.968,155.673,602.972z"/>
			<path fill-rule="evenodd" clip-rule="evenodd" fill="#FBFBFB" d="M323.796,532.028c-0.001-3.393-0.037-6.784,0.008-10.177
				c0.046-3.484,2.717-5.515,5.378-3.492c2.105,1.6,3.138,0.702,4.798,0.088c3.206-1.187,4.91-0.074,4.9,2.844
				c-0.007,2.065-0.974,2.654-2.885,2.657c-4.199,0.007-5.984,2.083-5.693,6.39c0.285,4.221-0.06,8.48,0.106,12.714
				c0.099,2.524-0.962,3.105-3.258,3.083c-2.25-0.023-3.456-0.585-3.381-3.084C323.879,539.379,323.797,535.703,323.796,532.028z"/>
			<path fill-rule="evenodd" clip-rule="evenodd" fill="#FBFBFB" d="M192.16,588.817c0-3.393-0.04-6.784,0.011-10.176
				c0.051-3.358,2.997-5.453,5.468-3.358c1.98,1.678,2.849,0.733,4.428,0.219c2.094-0.683,4.623-1.702,5.13,1.953
				c0.301,2.168-0.347,3.43-2.946,3.42c-3.873-0.015-5.886,1.803-5.584,6.05c0.29,4.078-0.043,8.197,0.102,12.291
				c0.089,2.507-0.261,3.9-3.365,3.86c-3.212-0.042-3.311-1.757-3.262-4.084C192.212,595.602,192.16,592.209,192.16,588.817z"/>
			<path fill-rule="evenodd" clip-rule="evenodd" fill="#FBFBFB" d="M326.074,599.878c0.437,2.465-0.702,3.211-3.064,3.149
				c-2.119-0.055-3.492-0.36-3.508-2.951c-0.015-2.435,0.972-3.182,3.296-3.101C324.858,597.046,326.582,597.097,326.074,599.878z"/>
			<path fill-rule="evenodd" clip-rule="evenodd" fill="#E14F3A" d="M279.4,530.162c0.003,6.189-2.043,9.293-6.534,9.968
				c-2.798,0.421-4.76-0.364-5.072-3.489c-0.154-1.538-0.258-3.088-0.263-4.633c-0.026-8.034,2.466-9.915,10.403-8.123
				c1.373,0.31,1.475,0.999,1.466,2.045C279.389,527.341,279.397,528.751,279.4,530.162z"/>
			<path fill-rule="evenodd" clip-rule="evenodd" fill="#E14F3A" d="M309.969,530.713c0.592,3.058,0.022,6.322-3.641,8.369
				c-1.662,0.93-3.465,1.516-5.274,0.999c-3.498-0.999-2.933-4.146-2.888-6.666c0.059-3.302-1.368-7.512,2.65-9.282
				c2.131-0.938,5.006-0.164,7.545-0.209c1.345-0.024,1.645,0.726,1.616,1.871C309.942,527.204,309.969,528.616,309.969,530.713z"/>
			<path fill-rule="evenodd" clip-rule="evenodd" fill="#E14F3A" d="M221.395,587.093c-1.601-1.268-4.857,1.697-5.136-2.124
				c-0.231-3.177,1.84-4.189,4.902-4.22c3.177-0.031,5.546,0.929,5.362,4.272C226.314,588.813,222.988,585.803,221.395,587.093z"/>
			<path fill-rule="evenodd" clip-rule="evenodd" fill="#E14F3A" d="M174.624,587.096c-1.569-1.284-4.849,1.717-5.073-2.179
				c-0.186-3.225,1.933-4.127,4.957-4.168c3.211-0.043,5.537,1.018,5.308,4.325C179.556,588.817,176.243,585.797,174.624,587.096z"/>
		</g>
	</a>
	<a xlink:href="../hoe-reageren" target='_top'>
		<g id="hoe">
			<path fill-rule="evenodd" clip-rule="evenodd" fill="#FBFBFB" d="M632.247,395.649c42.454,0,84.91-0.064,127.364,0.1
				c4.222,0.016,5.329-1.186,4.973-5.231c-0.557-6.328-0.399-12.695-0.887-19.056c-2.204-28.793-7.936-56.889-17.419-84.084
				c-34.174-98.003-98.009-169.79-191.827-214.342c-43.816-20.807-90.146-32.159-138.818-33.31c-3.522-0.083-4.869,0.46-4.863,4.455
				c0.121,85.051,0.106,170.103,0.014,255.155c-0.004,3.501,1.069,4.822,4.536,4.811c2.225-0.007,4.474,0.586,6.674,1.076
				c41.749,9.285,72.332,42.928,77.416,85.258c0.45,3.751,1.499,5.329,5.897,5.306C547.619,395.558,589.934,395.649,632.247,395.649z"
				/>
			<path fill-rule="evenodd" clip-rule="evenodd" fill="#1491D0" d="M632.247,395.649c-42.313,0-84.628-0.091-126.94,0.137
				c-4.398,0.023-5.447-1.554-5.897-5.306c-5.084-42.33-35.667-75.973-77.416-85.258c-2.2-0.49-4.449-1.083-6.674-1.076
				c-3.467,0.011-4.54-1.31-4.536-4.811c0.093-85.052,0.107-170.104-0.014-255.155c-0.006-3.995,1.341-4.538,4.863-4.455
				c48.673,1.151,95.002,12.503,138.818,33.31c93.818,44.552,157.653,116.339,191.827,214.342
				c9.483,27.195,15.215,55.291,17.419,84.084c0.487,6.361,0.33,12.728,0.887,19.056c0.356,4.045-0.751,5.247-4.973,5.231
				C717.157,395.585,674.701,395.649,632.247,395.649z M556.862,287.492c0.275,6.042-0.069,6.426-5.528,6.436
				c-1.696,0.003-3.395,0.047-5.09,0c-2.366-0.067-2.728,1.347-2.749,3.303c-0.022,2.145,1.092,2.629,2.935,2.576
				c2.402-0.068,4.808-0.011,7.212-0.015c7.05-0.011,9.615-2.076,9.903-9.132c0.341-8.33,0.07-16.683,0.135-25.026
				c0.018-2.366-1.008-3.29-3.334-3.239c-4.1,0.091-8.203,0.045-12.304,0.034c-4.46-0.012-7.198,2.237-8.221,6.479
				c-1.175,4.87-1.269,9.814,0.013,14.666c1.553,5.875,6.82,8.396,12.548,6.146C553.809,289.159,555.141,288.357,556.862,287.492z
				M490.022,214.438c0-5.377-0.097-10.757,0.043-16.131c0.067-2.597-1.188-3.024-3.383-3.028c-2.253-0.004-3.469,0.616-3.393,3.108
				c0.104,3.393,0.061,6.792-0.004,10.187c-0.02,1.029,0.487,2.69-1.072,2.789c-3.52,0.224-7.068,0.214-10.591,0.025
				c-1.641-0.088-1.082-1.737-1.103-2.751c-0.07-3.395-0.135-6.796,0.007-10.187c0.102-2.436-0.872-3.236-3.237-3.173
				c-2.122,0.057-3.545,0.365-3.53,2.967c0.061,10.471,0.063,20.942-0.005,31.414c-0.017,2.503,1.176,3.086,3.412,3.091
				c2.215,0.003,3.485-0.465,3.361-3.047c-0.155-3.247,0.089-6.513-0.066-9.761c-0.167-3.494,2.538-2.898,4.019-2.398
				c2.907,0.981,7.499-3.149,8.704,2.361c0.681,3.107,0.209,6.485,0.105,9.736c-0.079,2.491,1.139,3.112,3.393,3.108
				c2.195-0.004,3.455-0.431,3.383-3.028C489.923,224.628,490.022,219.532,490.022,214.438z M533.09,276.449c0-1.131,0-2.264,0-3.396
				c0.002-10.637-0.008-10.35-10.754-10.718c-10.714-0.366-13.982,1.308-13.904,15.627c0.005,0.984,0.196,1.966,0.302,2.949
				c0.914,8.513,7.267,11.93,14.845,8.023c1.186-0.611,2.514-2.702,3.405,0.628c0.436,1.633,2.759,0.896,4.231,0.766
				c1.613-0.142,1.868-1.48,1.868-2.844C533.082,283.807,533.083,280.127,533.09,276.449z M536.218,204.667
				c-8.367,0.018-11.12,2.724-11.36,11.184c-0.027,0.99-0.009,1.981-0.021,2.971c-0.068,5.065,0.953,9.708,5.88,12.27
				c5.186,2.695,10.355,1.947,15.445-0.6c1.885-0.943,1.92-2.061,1.138-3.763c-1.01-2.199-2.42-1.786-4.178-1.084
				c-3.216,1.284-6.522,1.978-9.822,0.229c-1.223-0.648-1.938-1.777-1.732-3.147c0.253-1.673,1.743-1.103,2.748-1.125
				c3.394-0.075,6.791-0.037,10.187-0.029c1.636,0.004,3.318-0.068,3.378-2.238C548.108,210.834,547.716,204.267,536.218,204.667z
				M481.525,275.111c-0.097,12.843,8.211,18.747,19.585,13.851c1.638-0.705,4.21-0.892,3.142-3.932
				c-1.041-2.96-2.911-2.291-5.069-1.424c-2.957,1.188-6.023,1.617-9.03,0.104c-1.375-0.693-2.256-1.893-1.819-3.454
				c0.421-1.506,1.892-0.879,2.906-0.904c3.395-0.083,6.792-0.025,10.188-0.042c1.129-0.006,2.246,0.018,2.925-1.223
				c2.467-4.514-0.987-13.543-5.806-15.093C487.913,259.573,481.609,264.061,481.525,275.111z M568.999,275.342
				c-0.067,13.078,9.69,19.126,20.993,13.086c1.876-1.002,2.451-1.984,1.455-3.994c-1.084-2.19-2.477-1.713-4.204-1.019
				c-3.079,1.236-6.248,1.866-9.45,0.392c-1.409-0.648-2.304-1.813-2.052-3.373c0.264-1.634,1.77-1.062,2.778-1.084
				c3.395-0.074,6.792-0.022,10.188-0.037c1.119-0.005,2.277,0.088,3.026-1.056c2.755-4.2-0.941-13.985-5.937-15.313
				c-3.452-0.917-7.023-0.834-10.507-0.029c-2.638,0.609-4.507,2.205-5.407,4.879C569.053,270.262,569.004,272.793,568.999,275.342z
				M615.708,275.089c-0.101,12.858,8.188,18.768,19.564,13.882c1.635-0.702,4.223-0.879,3.17-3.919
				c-1.02-2.941-2.877-2.337-5.057-1.453c-2.951,1.198-6.02,1.625-9.032,0.124c-1.379-0.688-2.261-1.883-1.846-3.444
				c0.404-1.521,1.878-0.901,2.892-0.925c3.395-0.081,6.792-0.024,10.188-0.042c1.124-0.006,2.248,0.032,2.937-1.202
				c2.483-4.455-0.974-13.549-5.775-15.104C622.129,259.563,615.794,264.055,615.708,275.089z M644.836,276.374
				c0,3.672,0.06,7.346-0.021,11.018c-0.054,2.454,1.151,3.079,3.407,3.114c2.396,0.037,3.269-0.816,3.198-3.208
				c-0.129-4.375-0.09-8.757-0.015-13.135c0.05-2.94,3.316-6.09,6.024-5.805c3.482,0.367,2.553,3.251,2.63,5.277
				c0.178,4.655,0.09,9.321,0.055,13.982c-0.018,2.235,1.119,2.931,3.197,2.859c1.805-0.063,3.422,0.007,3.376-2.556
				c-0.104-5.789,0.217-11.603-0.205-17.365c-0.509-6.947-5.623-9.801-12.023-7.227c-1.235,0.497-2.136,2.154-3.876-0.341
				c-1.653-2.372-5.65-0.29-5.73,2.792C644.761,269.309,644.831,272.842,644.836,276.374z M496.646,219.597
				c0.014,0.263,0.068,1.39,0.132,2.518c0.446,7.964,3.105,10.516,11.053,10.578c1.271,0.009,2.552,0.018,3.81-0.127
				c4.705-0.542,7.441-3.155,7.981-7.875c0.467-4.075,0.493-8.194-0.009-12.268c-0.474-3.852-2.521-6.435-6.488-7.404
				c-10.94-2.676-16.26,1.306-16.478,12.44C496.64,217.882,496.646,218.306,496.646,219.597z M683.975,251.376
				c-7.758-0.003-11.813,2.933-12.152,8.791c-0.093,1.613-0.226,3.379,2.038,3.397c1.795,0.015,4.367,0.908,4.572-2.209
				c0.314-4.792,3.751-4.031,6.821-4.118c2.583-0.073,4.055,1.16,4.271,3.664c0.277,3.205,0.329,6.282-3.923,7.222
				c-3.882,0.859-5.894,3.599-6.539,7.464c-0.224,1.336-0.506,2.755,1.172,3.086c1.699,0.334,4.307,1.185,4.842-0.974
				c0.775-3.12,2.74-3.833,5.289-4.626c2.536-0.789,4.208-2.763,5.134-5.299C698.922,258.397,693.992,251.379,683.975,251.376z
				M598.122,276.473c0,3.538,0.085,7.079-0.028,10.614c-0.083,2.593,1.018,3.427,3.552,3.429c2.538,0.001,3.119-1.11,3.062-3.36
				c-0.11-4.243,0.211-8.509-0.1-12.732c-0.314-4.274,1.699-6.018,5.574-6.105c2.183-0.049,3.155-0.928,2.973-3.08
				c-0.307-3.601-2.673-3.071-4.941-2.32c-1.625,0.538-2.614,1.714-4.704-0.154c-2.378-2.126-5.322,0.042-5.377,3.518
				C598.079,269.679,598.121,273.076,598.122,276.473z M463.946,276.074c0,3.821,0.05,7.644-0.019,11.464
				c-0.045,2.577,1.425,2.943,3.561,2.956c2.144,0.012,3.093-0.688,3.033-2.94c-0.11-4.102,0.224-8.228-0.097-12.308
				c-0.362-4.604,1.274-7.021,6.025-6.972c2.124,0.022,2.669-1.27,2.514-3.061c-0.314-3.598-2.707-3.056-4.955-2.277
				c-1.646,0.571-2.638,1.592-4.7-0.185c-2.431-2.095-5.305,0.06-5.359,3.558C463.898,269.563,463.938,272.819,463.946,276.074z
				M682.348,290.417c2.537,0.397,3.036-0.986,3.056-3.229c0.021-2.435-1.257-2.687-3.211-2.734c-2.244-0.054-3.448,0.561-3.421,3.054
				C678.799,290.044,680.131,290.676,682.348,290.417z"/>
			<path fill-rule="evenodd" clip-rule="evenodd" fill="#FBFBFB" d="M556.862,287.492c-1.722,0.865-3.054,1.667-4.48,2.228
				c-5.728,2.25-10.995-0.271-12.548-6.146c-1.281-4.852-1.188-9.796-0.013-14.666c1.022-4.241,3.761-6.491,8.221-6.479
				c4.101,0.011,8.204,0.057,12.304-0.034c2.326-0.051,3.352,0.873,3.334,3.239c-0.064,8.343,0.206,16.696-0.135,25.026
				c-0.288,7.056-2.854,9.121-9.903,9.132c-2.404,0.004-4.81-0.054-7.212,0.015c-1.843,0.053-2.957-0.431-2.935-2.576
				c0.021-1.956,0.383-3.37,2.749-3.303c1.695,0.047,3.394,0.003,5.09,0C556.793,293.917,557.138,293.534,556.862,287.492z
				M557.096,275.188c0-2.047-0.011-3.456,0.004-4.864c0.01-1.083-0.182-2.006-1.54-2.007c-2.534-0.002-5.418-0.759-7.53,0.19
				c-4.706,2.114-2.398,6.83-2.709,10.465c-0.194,2.28-0.134,5.038,3.153,5.55c1.865,0.291,3.585-0.245,5.243-1.186
				C557.286,281.309,557.469,278.052,557.096,275.188z"/>
			<path fill-rule="evenodd" clip-rule="evenodd" fill="#FBFBFB" d="M490.022,214.438c0,5.094-0.1,10.191,0.043,15.282
				c0.072,2.597-1.188,3.024-3.383,3.028c-2.254,0.004-3.472-0.617-3.393-3.108c0.104-3.251,0.575-6.629-0.105-9.736
				c-1.205-5.511-5.797-1.38-8.704-2.361c-1.48-0.5-4.186-1.095-4.019,2.398c0.155,3.248-0.089,6.514,0.066,9.761
				c0.124,2.583-1.146,3.051-3.361,3.047c-2.236-0.004-3.429-0.587-3.412-3.091c0.068-10.471,0.065-20.943,0.005-31.414
				c-0.015-2.603,1.408-2.91,3.53-2.967c2.365-0.063,3.339,0.737,3.237,3.173c-0.142,3.39-0.077,6.792-0.007,10.187
				c0.021,1.015-0.538,2.664,1.103,2.751c3.522,0.189,7.071,0.199,10.591-0.025c1.56-0.099,1.053-1.76,1.072-2.789
				c0.064-3.395,0.107-6.794,0.004-10.187c-0.076-2.492,1.14-3.112,3.393-3.108c2.195,0.004,3.45,0.432,3.383,3.028
				C489.926,203.68,490.022,209.06,490.022,214.438z"/>
			<path fill-rule="evenodd" clip-rule="evenodd" fill="#FBFBFB" d="M533.086,276.449c-0.003,3.679-0.004,7.358-0.003,11.036
				c0,1.364-0.255,2.702-1.868,2.844c-1.473,0.13-3.796,0.868-4.231-0.766c-0.892-3.331-2.22-1.239-3.405-0.628
				c-7.578,3.907-13.931,0.489-14.845-8.023c-0.105-0.983-0.297-1.965-0.302-2.949c-0.078-14.319,3.19-15.993,13.904-15.627
				c10.746,0.368,10.756,0.081,10.754,10.718C533.09,274.185,533.09,275.317,533.086,276.449z M526.521,275.54
				c0-2.166-0.016-3.715,0.005-5.264c0.014-1.112-0.26-1.965-1.589-1.962c-2.533,0.005-5.36-0.695-7.538,0.192
				c-4.214,1.718-2.533,5.968-2.674,9.242c-0.107,2.532-0.661,5.663,2.816,6.691c1.785,0.528,3.609,0.031,5.275-0.923
				C526.219,281.568,527.225,278.622,526.521,275.54z"/>
			<path fill-rule="evenodd" clip-rule="evenodd" fill="#FBFBFB" d="M536.218,204.667c11.498-0.4,11.891,6.167,11.661,14.667
				c-0.06,2.17-1.742,2.242-3.378,2.238c-3.396-0.008-6.793-0.045-10.187,0.029c-1.005,0.022-2.495-0.548-2.748,1.125
				c-0.206,1.371,0.51,2.5,1.732,3.147c3.3,1.749,6.606,1.056,9.822-0.229c1.758-0.702,3.168-1.115,4.178,1.084
				c0.782,1.702,0.747,2.82-1.138,3.763c-5.09,2.547-10.26,3.295-15.445,0.6c-4.927-2.562-5.948-7.205-5.88-12.27
				c0.013-0.99-0.006-1.981,0.021-2.971C525.098,207.392,527.851,204.685,536.218,204.667z M536.216,216.807
				c1.676-1.33,5.004,1.786,5.404-1.926c0.358-3.317-1.987-4.388-5.208-4.425c-3.279-0.039-5.479,1.146-5.218,4.416
				C531.47,218.328,534.623,215.613,536.216,216.807z"/>
			<path fill-rule="evenodd" clip-rule="evenodd" fill="#FBFBFB" d="M481.525,275.111c0.084-11.05,6.388-15.539,17.021-12.117
				c4.818,1.55,8.272,10.579,5.806,15.093c-0.679,1.241-1.796,1.217-2.925,1.223c-3.396,0.017-6.793-0.04-10.188,0.042
				c-1.015,0.024-2.485-0.602-2.906,0.904c-0.437,1.561,0.444,2.761,1.819,3.454c3.007,1.513,6.073,1.084,9.03-0.104
				c2.158-0.867,4.028-1.536,5.069,1.424c1.068,3.04-1.504,3.227-3.142,3.932C489.736,293.858,481.429,287.955,481.525,275.111z
				M493.304,274.818c1.173-2.158,4.782,1.802,5.024-2.315c0.2-3.406-2.215-4.281-5.364-4.291c-3.054-0.01-5.172,1.013-5.07,4.134
				C488.023,276.393,491.446,273.232,493.304,274.818z"/>
			<path fill-rule="evenodd" clip-rule="evenodd" fill="#FBFBFB" d="M569,275.342c0.004-2.549,0.053-5.08,0.883-7.547
				c0.9-2.674,2.77-4.271,5.407-4.879c3.483-0.805,7.055-0.888,10.507,0.029c4.995,1.328,8.691,11.113,5.937,15.313
				c-0.749,1.144-1.907,1.051-3.026,1.056c-3.396,0.015-6.793-0.038-10.188,0.037c-1.009,0.022-2.515-0.55-2.778,1.084
				c-0.252,1.56,0.643,2.725,2.052,3.373c3.202,1.474,6.371,0.844,9.45-0.392c1.728-0.694,3.12-1.171,4.204,1.019
				c0.996,2.01,0.421,2.991-1.455,3.994C578.689,294.468,568.932,288.42,569,275.342z M580.545,274.575
				c1.624-1.343,5.02,1.807,5.25-2.113c0.2-3.416-2.271-4.234-5.398-4.251c-3.083-0.017-5.168,1.088-5.031,4.174
				C575.541,276.371,578.941,273.246,580.545,274.575z"/>
			<path fill-rule="evenodd" clip-rule="evenodd" fill="#FBFBFB" d="M615.708,275.089c0.086-11.034,6.421-15.526,17.041-12.085
				c4.802,1.555,8.259,10.649,5.775,15.104c-0.688,1.234-1.813,1.196-2.937,1.202c-3.396,0.019-6.794-0.039-10.188,0.042
				c-1.014,0.024-2.487-0.596-2.892,0.925c-0.415,1.561,0.467,2.757,1.846,3.444c3.013,1.501,6.081,1.075,9.032-0.124
				c2.18-0.884,4.037-1.488,5.057,1.453c1.053,3.04-1.535,3.217-3.17,3.919C623.896,293.857,615.607,287.947,615.708,275.089z
				M627.421,274.578c1.552-1.353,4.995,1.83,5.085-2.268c0.068-3.175-2.147-4.043-5.135-4.1c-3.226-0.061-5.558,1.01-5.3,4.323
				C622.369,276.366,625.749,273.233,627.421,274.578z"/>
			<path fill-rule="evenodd" clip-rule="evenodd" fill="#FBFBFB" d="M644.833,276.374c-0.002-3.532-0.072-7.064,0.02-10.594
				c0.08-3.082,4.077-5.164,5.73-2.792c1.74,2.496,2.641,0.838,3.876,0.341c6.4-2.575,11.515,0.279,12.023,7.227
				c0.422,5.762,0.102,11.576,0.205,17.365c0.046,2.563-1.571,2.493-3.376,2.556c-2.078,0.072-3.215-0.624-3.197-2.859
				c0.035-4.662,0.123-9.328-0.055-13.982c-0.077-2.025,0.853-4.91-2.63-5.277c-2.708-0.286-5.975,2.865-6.024,5.805
				c-0.075,4.378-0.114,8.76,0.015,13.135c0.07,2.391-0.803,3.245-3.198,3.208c-2.256-0.035-3.461-0.661-3.407-3.114
				C644.896,283.72,644.836,280.046,644.833,276.374z"/>
			<path fill-rule="evenodd" clip-rule="evenodd" fill="#FBFBFB" d="M496.646,219.597c0-1.292-0.007-1.715,0.001-2.139
				c0.218-11.134,5.537-15.116,16.478-12.44c3.967,0.97,6.015,3.553,6.488,7.404c0.502,4.074,0.476,8.193,0.009,12.268
				c-0.54,4.721-3.276,7.333-7.981,7.875c-1.258,0.145-2.539,0.136-3.81,0.127c-7.947-0.062-10.606-2.614-11.053-10.578
				C496.715,220.987,496.66,219.86,496.646,219.597z M513.797,218.414c-0.178-2.301,0.774-5.432-1.821-7.154
				c-2.164-1.437-5.452-1.639-7.234-0.029c-3.598,3.249-1.814,7.917-1.691,12.027c0.058,1.946,1.167,3.294,3.46,3.58
				C512.438,227.579,513.785,226.156,513.797,218.414z"/>
			<path fill-rule="evenodd" clip-rule="evenodd" fill="#FBFBFB" d="M683.975,251.376c10.018,0.003,14.947,7.021,11.524,16.398
				c-0.926,2.536-2.598,4.511-5.134,5.299c-2.549,0.793-4.514,1.506-5.289,4.626c-0.535,2.158-3.143,1.308-4.842,0.974
				c-1.678-0.331-1.396-1.75-1.172-3.086c0.646-3.866,2.657-6.605,6.539-7.464c4.252-0.94,4.2-4.017,3.923-7.222
				c-0.216-2.504-1.688-3.737-4.271-3.664c-3.07,0.087-6.507-0.674-6.821,4.118c-0.205,3.117-2.777,2.224-4.572,2.209
				c-2.264-0.018-2.131-1.784-2.038-3.397C672.162,254.309,676.217,251.373,683.975,251.376z"/>
			<path fill-rule="evenodd" clip-rule="evenodd" fill="#FBFBFB" d="M598.121,276.473c0-3.397-0.042-6.794,0.011-10.19
				c0.055-3.476,2.999-5.644,5.377-3.518c2.09,1.868,3.079,0.692,4.704,0.154c2.269-0.751,4.635-1.281,4.941,2.32
				c0.183,2.151-0.79,3.031-2.973,3.08c-3.875,0.087-5.889,1.831-5.574,6.105c0.311,4.223-0.011,8.489,0.1,12.732
				c0.058,2.25-0.523,3.361-3.062,3.36c-2.534-0.001-3.635-0.835-3.552-3.429C598.207,283.552,598.122,280.011,598.121,276.473z"/>
			<path fill-rule="evenodd" clip-rule="evenodd" fill="#FBFBFB" d="M463.942,276.074c-0.004-3.255-0.044-6.512,0.007-9.766
				c0.055-3.498,2.929-5.652,5.359-3.558c2.063,1.777,3.054,0.756,4.7,0.185c2.248-0.779,4.641-1.321,4.955,2.277
				c0.155,1.792-0.39,3.083-2.514,3.061c-4.751-0.049-6.388,2.369-6.025,6.972c0.32,4.08-0.014,8.206,0.097,12.308
				c0.06,2.251-0.89,2.952-3.033,2.94c-2.136-0.012-3.605-0.378-3.561-2.956C463.996,283.718,463.946,279.896,463.942,276.074z"/>
			<path fill-rule="evenodd" clip-rule="evenodd" fill="#FBFBFB" d="M682.348,290.417c-2.217,0.259-3.549-0.373-3.576-2.91
				c-0.027-2.493,1.177-3.107,3.421-3.054c1.954,0.047,3.231,0.299,3.211,2.734C685.384,289.431,684.885,290.814,682.348,290.417z"/>
			<path fill-rule="evenodd" clip-rule="evenodd" fill="#1491D0" d="M557.096,275.188c0.373,2.863,0.19,6.121-3.379,8.147
				c-1.658,0.941-3.378,1.477-5.243,1.186c-3.287-0.512-3.348-3.27-3.153-5.55c0.311-3.635-1.997-8.351,2.709-10.465
				c2.112-0.949,4.996-0.192,7.53-0.19c1.358,0.001,1.55,0.925,1.54,2.007C557.085,271.733,557.096,273.141,557.096,275.188z"/>
			<path fill-rule="evenodd" clip-rule="evenodd" fill="#1491D0" d="M526.521,275.54c0.703,3.082-0.303,6.028-3.704,7.977
				c-1.666,0.954-3.49,1.451-5.275,0.923c-3.478-1.028-2.924-4.159-2.816-6.691c0.141-3.274-1.54-7.524,2.674-9.242
				c2.178-0.888,5.005-0.187,7.538-0.192c1.329-0.003,1.603,0.85,1.589,1.962C526.506,271.825,526.521,273.375,526.521,275.54z"/>
			<path fill-rule="evenodd" clip-rule="evenodd" fill="#1491D0" d="M536.216,216.807c-1.593-1.194-4.746,1.521-5.021-1.936
				c-0.261-3.27,1.938-4.455,5.218-4.416c3.221,0.038,5.566,1.108,5.208,4.425C541.22,218.593,537.892,215.477,536.216,216.807z"/>
			<path fill-rule="evenodd" clip-rule="evenodd" fill="#1491D0" d="M493.304,274.818c-1.857-1.585-5.28,1.575-5.41-2.473
				c-0.102-3.121,2.017-4.144,5.07-4.134c3.149,0.01,5.564,0.885,5.364,4.291C498.086,276.62,494.477,272.66,493.304,274.818z"/>
			<path fill-rule="evenodd" clip-rule="evenodd" fill="#1491D0" d="M580.545,274.575c-1.604-1.33-5.004,1.795-5.18-2.19
				c-0.137-3.086,1.948-4.191,5.031-4.174c3.128,0.017,5.599,0.836,5.398,4.251C585.564,276.382,582.169,273.232,580.545,274.575z"/>
			<path fill-rule="evenodd" clip-rule="evenodd" fill="#1491D0" d="M627.421,274.578c-1.672-1.344-5.052,1.788-5.35-2.044
				c-0.258-3.313,2.074-4.384,5.3-4.323c2.987,0.057,5.203,0.925,5.135,4.1C632.416,276.407,628.973,273.225,627.421,274.578z"/>
			<path fill-rule="evenodd" clip-rule="evenodd" fill="#1491D0" d="M513.797,218.414c-0.012,7.742-1.358,9.165-7.287,8.424
				c-2.293-0.286-3.402-1.634-3.46-3.58c-0.123-4.11-1.906-8.779,1.691-12.027c1.782-1.61,5.07-1.408,7.234,0.029
				C514.571,212.982,513.619,216.113,513.797,218.414z"/>
		</g>
	</a>
</svg>
