<?xml version="1.0" encoding="utf-8"?>
<?xml-stylesheet type="text/css" href="../css/main.css" ?>
<!-- Generator: Adobe Illustrator 16.0.0, SVG Export Plug-In . SVG Version: 6.00 Build 0)  -->
<!DOCTYPE svg PUBLIC "-//W3C//DTD SVG 1.1//EN" "http://www.w3.org/Graphics/SVG/1.1/DTD/svg11.dtd">
<svg version="1.1" id="Layer_1" xmlns="http://www.w3.org/2000/svg" xmlns:xlink="http://www.w3.org/1999/xlink" x="0px" y="0px"
	 width="300px" height="300px" viewBox="0 0 500 500" enable-background="new 0 0 500 500" xml:space="preserve">
	<a xlink:href="../wat-is-het" target='_top'>
		<g id="HUNPAGE-wat" class="svgnavani">
			<path fill-rule="evenodd" clip-rule="evenodd" fill="#F8E44A" d="M395-1c0.025,12.554,4.005,24.156,8.897,35.456
				c1.488,3.436,1.154,5.055-2.173,7.03c-86.573,51.384-173.086,102.87-259.568,154.406c-2.968,1.769-4.374,1.459-6.081-1.669
				C110.607,147.548,94.062,97.952,86.936,45.24C84.862,29.898,83.331,14.518,84-1C187.667-1,291.334-1,395-1z M183.035,84.173
				c0.182,1.633-0.216,3.447-2.049,3.851c-2.01,0.443-3.409-0.905-4.008-2.896c-1.339-4.447-2.666-8.897-4.003-13.344
				c-0.434-1.44-0.729-3.047-2.889-2.533c-2.141,0.509-2.49,1.964-1.945,3.805c1.599,5.406,3.041,10.87,4.92,16.178
				c1.554,4.389,9.232,5.536,12.353,1.933c1.311-1.513,2.505-1.687,4.319-1.203c5.137,1.371,10.546-4.213,9.087-9.367
				c-1.445-5.104-3.165-10.131-4.559-15.248c-0.566-2.077-1.551-2.786-3.545-2.181c-2.071,0.629-1.677,2.026-1.204,3.585
				c1.301,4.282,2.399,8.628,3.791,12.88c0.778,2.376,0.738,4.643-1.77,5.301c-2.13,0.56-3.466-1.25-4.065-3.433
				c-1.186-4.316-2.512-8.595-3.792-12.885c-0.506-1.697-1.138-3.127-3.442-2.412c-2.421,0.752-1.768,2.306-1.28,3.95
				C180.323,74.767,181.646,79.391,183.035,84.173z M288.893,50.837c-0.566-3.095,0.652-4.997,2.863-5.642
				c2.496-0.729,2.805,1.667,3.345,3.369c0.953,3.009,1.896,6.023,2.776,9.054c0.421,1.444,0.917,2.493,2.754,1.821
				c1.626-0.594,2.527-1.288,1.813-3.291c-1.394-3.906-2.277-8.014-3.893-11.817c-1.895-4.464-4.825-5.475-8.76-2.932
				c-2.605,1.685-3.676,1.6-4.176-1.512c-0.157-0.976-0.559-1.913-0.842-2.869c-0.516-1.747-1.621-2.428-3.402-1.883
				c-1.823,0.558-1.58,2.009-1.211,3.268c2.195,7.494,4.508,14.954,6.698,22.449c0.45,1.54,1.103,2.387,2.796,1.891
				c1.73-0.508,2.424-1.466,1.793-3.354C290.448,56.396,289.632,53.342,288.893,50.837z M308.812,48.348
				c3.163-0.945,5.983-1.708,8.744-2.648c1.296-0.441,3.415-0.564,2.88-2.662c-0.893-3.5-1.641-7.313-5.897-8.499
				c-3.416-0.952-10.103,1.774-11.404,4.533c-1.557,3.296,0.859,11.98,4.206,14.631c4.032,3.193,8.149,2.113,11.975-0.343
				c1.397-0.897,4.243-1.765,2.514-4.377c-1.545-2.334-3.057-0.341-4.587,0.521C314.455,51.074,311.575,52.422,308.812,48.348z
				M218.914,83.096c2.871,0.193,4.135-0.79,3.135-3.816c-0.937-2.839-1.593-5.771-2.543-8.604c-3.094-9.228-0.685-8.417-10.483-5.613
				c-7.222,2.066-8.462,4.451-6.435,11.761c0.486,1.752,1.053,3.526,1.892,5.127c2.336,4.458,6.197,5.33,10.405,2.524
				C216.111,83.658,216.861,81.423,218.914,83.096z M266.47,47.593c-1.581,0.515-3.534,0.981-5.339,1.782
				c-2.348,1.041-4.417,2.506-4.078,5.554c0.352,3.164,2.227,5.022,5.238,5.894c2.104,0.608,5.755-0.87,6.044,1.76
				c0.276,2.514-3.546,2.192-5.556,3.081c-1.468,0.649-2.176,1.372-1.713,2.973c0.436,1.503,1.59,1.596,2.771,1.268
				c2.537-0.706,5.218-1.151,7.311-2.918c1.719-1.453,2.867-3.204,2.18-5.648c-0.701-2.484-2.183-4.002-4.847-4.288
				c-2.224-0.239-5.699,0.496-6.102-1.934c-0.491-2.966,3.305-2.247,5.185-3.189c1.275-0.639,1.685-1.471,1.391-2.774
				C268.695,48.006,267.963,47.504,266.47,47.593z M344.189,16.542c-5.57-0.019-10.729,3.457-10.936,7.509
				c-0.08,1.583-0.295,3.635,2.019,3.888c1.809,0.198,3.382-0.493,3.201-2.781c-0.245-3.102,2.211-3.351,4.197-3.954
				c1.741-0.529,2.762,0.431,3.4,2.063c0.852,2.176,1.27,4.096-1.181,5.61c-2.138,1.321-3.241,3.302-2.969,5.897
				c0.123,1.179,0.233,2.468,1.87,2.383c1.131-0.059,2.818-0.071,2.802-1.464c-0.032-2.663,1.974-3.61,3.42-5.126
				c2.761-2.896,1.912-6.147,0.623-9.333C349.479,18.369,347.37,16.688,344.189,16.542z M334.454,44.626
				c-2.485,1.057-3.664-0.687-3.85-2.473c-0.29-2.787-3.486-5.318-0.878-8.373c5.201-6.09-5.682-3.17-4.307-7.56
				c0.275-0.876-3.112-0.656-3.229,0.031c-0.493,2.914-3.007,7.129-0.963,8.535c3.939,2.708,3.581,6.658,5.008,10.056
				c1.972,4.693,4.176,5.843,8.861,4.211c1.222-0.425,2.854-0.505,2.453-2.391C337.224,45.124,336.512,43.739,334.454,44.626z
				M235.055,74.36c-3.173,1.313-4.322-0.522-4.469-2.259c-0.236-2.783-3.561-5.313-0.806-8.345c1.477-1.625,0.939-2.565-4.172-7.528
				c-1.26-1.224-3.249-0.729-3.479,0.068c-0.782,2.703-2.167,7.331-1.094,8.096c4.04,2.879,3.902,7.23,5.426,10.958
				c1.714,4.191,4.512,5.429,8.7,3.699c1.193-0.493,2.821-0.537,2.38-2.443C237.173,75.022,236.413,73.745,235.055,74.36z
				M248.493,53.33c-1.345,0.892-3.797,0.166-4.456,2.373c-0.313,1.051,0.07,2.131,1.194,3.004c4.042,3.14,5.513,7.069,3.425,12.072
				c-0.606,1.453-0.191,3.427,1.645,3.338c2.59-0.125,5.713-0.444,7.305-2.549c1.709-2.261-0.873-3.096-2.496-4.215
				c-0.773-0.534-0.877-2.077-1.226-3.18c-0.902-2.854-1.794-5.71-2.646-8.579C250.84,54.254,250.487,52.951,248.493,53.33z
				M246.811,45.351c-1.099,0.55-2.786,0.329-2.761,2.185c0.018,1.406,0.417,2.625,2.174,2.539c1.323-0.064,2.728-0.215,2.683-2.035
				C248.874,46.688,248.485,45.478,246.811,45.351z M346.529,40.925c-1.414,0.121-2.665,0.529-2.428,2.276
				c0.174,1.286,0.575,2.735,2.359,2.33c1.172-0.267,2.682-0.479,2.516-2.332C348.842,41.701,348.202,40.757,346.529,40.925z"/>
			<path fill-rule="evenodd" clip-rule="evenodd" fill="#FEFEFE" d="M183.035,84.173c-1.389-4.782-2.712-9.406-4.082-14.016
				c-0.488-1.644-1.141-3.198,1.28-3.95c2.304-0.715,2.936,0.715,3.442,2.412c1.28,4.291,2.606,8.569,3.792,12.885
				c0.6,2.184,1.935,3.993,4.065,3.433c2.508-0.659,2.548-2.925,1.77-5.301c-1.392-4.251-2.49-8.598-3.791-12.88
				c-0.474-1.56-0.868-2.957,1.204-3.585c1.994-0.605,2.979,0.104,3.545,2.181c1.394,5.117,3.114,10.144,4.559,15.248
				c1.459,5.154-3.95,10.737-9.087,9.367c-1.813-0.484-3.008-0.311-4.319,1.203c-3.121,3.603-10.799,2.456-12.353-1.933
				c-1.88-5.308-3.321-10.772-4.92-16.178c-0.545-1.841-0.195-3.296,1.945-3.805c2.16-0.514,2.455,1.093,2.889,2.533
				c1.338,4.447,2.665,8.897,4.003,13.344c0.599,1.991,1.999,3.339,4.008,2.896C182.819,87.62,183.217,85.806,183.035,84.173z"/>
			<path fill-rule="evenodd" clip-rule="evenodd" fill="#FEFEFE" d="M288.893,50.837c0.739,2.504,1.556,5.558,2.555,8.551
				c0.631,1.888-0.063,2.846-1.793,3.354c-1.693,0.497-2.346-0.351-2.796-1.891c-2.19-7.495-4.503-14.955-6.698-22.449
				c-0.369-1.259-0.612-2.71,1.211-3.268c1.781-0.544,2.887,0.136,3.402,1.883c0.283,0.956,0.685,1.893,0.842,2.869
				c0.5,3.112,1.57,3.197,4.176,1.512c3.935-2.543,6.865-1.532,8.76,2.932c1.615,3.804,2.499,7.911,3.893,11.817
				c0.715,2.003-0.187,2.696-1.813,3.291c-1.837,0.672-2.333-0.376-2.754-1.821c-0.881-3.031-1.823-6.044-2.776-9.054
				c-0.54-1.702-0.849-4.097-3.345-3.369C289.545,45.84,288.326,47.742,288.893,50.837z"/>
			<path fill-rule="evenodd" clip-rule="evenodd" fill="#FEFEFE" d="M308.812,48.348c2.764,4.074,5.644,2.726,8.43,1.156
				c1.53-0.862,3.042-2.855,4.587-0.521c1.729,2.612-1.116,3.48-2.514,4.377c-3.825,2.456-7.942,3.536-11.975,0.343
				c-3.347-2.65-5.763-11.335-4.206-14.631c1.302-2.759,7.988-5.485,11.404-4.533c4.257,1.186,5.005,5,5.897,8.499
				c0.535,2.098-1.584,2.221-2.88,2.662C314.795,46.64,311.975,47.403,308.812,48.348z M315.031,41.617
				c-0.478-1.992-1.551-2.913-3.31-2.575c-1.939,0.373-4.128,0.693-4.389,3.261c-0.155,1.541,0.93,2.1,2.272,1.726
				C311.543,43.488,313.898,43.678,315.031,41.617z"/>
			<path fill-rule="evenodd" clip-rule="evenodd" fill="#FEFEFE" d="M218.914,83.096c-2.053-1.673-2.803,0.562-4.028,1.379
				c-4.208,2.805-8.069,1.933-10.405-2.524c-0.839-1.602-1.406-3.375-1.892-5.127c-2.028-7.311-0.788-9.695,6.435-11.761
				c9.798-2.803,7.39-3.614,10.483,5.613c0.95,2.833,1.606,5.766,2.543,8.604C223.048,82.306,221.784,83.29,218.914,83.096z
				M206.25,72.979c1.534,2.842,0.145,7.729,4.804,8.19c2.735,0.271,5.254-2.26,4.755-5.201c-0.426-2.515,0.18-6.675-3.789-6.893
				C209.926,68.96,206.38,68.968,206.25,72.979z"/>
			<path fill-rule="evenodd" clip-rule="evenodd" fill="#FEFEFE" d="M266.47,47.593c1.493-0.089,2.226,0.413,2.485,1.56
				c0.294,1.303-0.115,2.135-1.391,2.774c-1.88,0.943-5.676,0.223-5.185,3.189c0.402,2.43,3.878,1.695,6.102,1.934
				c2.664,0.286,4.146,1.803,4.847,4.288c0.688,2.444-0.461,4.195-2.18,5.648c-2.093,1.767-4.773,2.212-7.311,2.918
				c-1.182,0.328-2.336,0.235-2.771-1.268c-0.463-1.601,0.245-2.324,1.713-2.973c2.01-0.888,5.832-0.566,5.556-3.081
				c-0.289-2.63-3.94-1.151-6.044-1.76c-3.012-0.872-4.887-2.73-5.238-5.894c-0.339-3.048,1.73-4.513,4.078-5.554
				C262.936,48.574,264.889,48.108,266.47,47.593z"/>
			<path fill-rule="evenodd" clip-rule="evenodd" fill="#FEFEFE" d="M344.193,16.537c3.177,0.151,5.285,1.833,6.443,4.697
				c1.289,3.187,2.138,6.438-0.623,9.333c-1.446,1.516-3.452,2.463-3.42,5.126c0.017,1.394-1.671,1.405-2.802,1.464
				c-1.637,0.085-1.747-1.204-1.87-2.383c-0.272-2.595,0.831-4.576,2.969-5.897c2.45-1.514,2.032-3.434,1.181-5.61
				c-0.639-1.631-1.659-2.592-3.4-2.063c-1.986,0.604-4.442,0.853-4.197,3.954c0.181,2.288-1.393,2.979-3.201,2.781
				c-2.313-0.253-2.099-2.306-2.019-3.888C333.46,19.999,338.619,16.523,344.193,16.537z"/>
			<path fill-rule="evenodd" clip-rule="evenodd" fill="#FEFEFE" d="M334.454,44.626c2.058-0.887,2.77,0.498,3.097,2.036
				c0.401,1.885-1.231,1.965-2.453,2.391c-4.686,1.632-6.89,0.482-8.861-4.211c-1.427-3.398-1.068-7.348-5.008-10.056
				c-2.044-1.405,0.47-5.621,0.963-8.535c0.116-0.687,3.504-0.908,3.229-0.031c-1.375,4.389,9.508,1.469,4.307,7.56
				c-2.608,3.055,0.588,5.586,0.878,8.373C330.79,43.939,331.969,45.683,334.454,44.626z"/>
			<path fill-rule="evenodd" clip-rule="evenodd" fill="#FEFEFE" d="M235.055,74.36c1.357-0.615,2.118,0.662,2.485,2.245
				c0.441,1.907-1.187,1.95-2.38,2.443c-4.188,1.73-6.986,0.492-8.7-3.699c-1.524-3.728-1.386-8.079-5.426-10.958
				c-1.074-0.766,0.312-5.394,1.094-8.096c0.23-0.797,2.219-1.292,3.479-0.068c5.111,4.963,5.649,5.903,4.172,7.528
				c-2.754,3.032,0.57,5.562,0.806,8.345C230.733,73.837,231.882,75.673,235.055,74.36z"/>
			<path fill-rule="evenodd" clip-rule="evenodd" fill="#FEFEFE" d="M248.493,53.33c1.995-0.379,2.348,0.924,2.746,2.263
				c0.852,2.869,1.743,5.726,2.646,8.579c0.349,1.104,0.452,2.646,1.226,3.18c1.623,1.12,4.205,1.955,2.496,4.215
				c-1.592,2.105-4.715,2.424-7.305,2.549c-1.836,0.088-2.251-1.886-1.645-3.338c2.088-5.002,0.617-8.932-3.425-12.072
				c-1.124-0.873-1.507-1.953-1.194-3.004C244.696,53.496,247.147,54.221,248.493,53.33z"/>
			<path fill-rule="evenodd" clip-rule="evenodd" fill="#FBEDE9" d="M246.811,45.351c1.675,0.127,2.063,1.338,2.096,2.688
				c0.044,1.82-1.36,1.971-2.683,2.035c-1.757,0.086-2.156-1.132-2.174-2.539C244.025,45.68,245.711,45.9,246.811,45.351z"/>
			<path fill-rule="evenodd" clip-rule="evenodd" fill="#FBEDE9" d="M346.53,40.922c1.672-0.165,2.312,0.778,2.446,2.277
				c0.166,1.854-1.344,2.065-2.516,2.332c-1.784,0.406-2.186-1.044-2.359-2.33C343.864,41.455,345.115,41.046,346.53,40.922z"/>
			<path fill-rule="evenodd" clip-rule="evenodd" fill="#F8E44A" d="M315.031,41.617c-1.133,2.061-3.488,1.871-5.426,2.411
				c-1.343,0.374-2.428-0.185-2.272-1.726c0.261-2.568,2.449-2.888,4.389-3.261C313.48,38.704,314.554,39.625,315.031,41.617z"/>
			<path fill-rule="evenodd" clip-rule="evenodd" fill="#F8E44A" d="M206.25,72.979c0.131-4.011,3.677-4.019,5.77-3.904
				c3.969,0.218,3.363,4.378,3.789,6.893c0.499,2.941-2.021,5.472-4.755,5.201C206.394,80.708,207.783,75.821,206.25,72.979z"/>
		</g>
	</a>
	<a xlink:href="../waar-kan-je-terecht" target='_top'>
		<g id="HUNPAGE-waar" class="svgnavani">
			<path fill-rule="evenodd" clip-rule="evenodd" fill="#FBEDE9" d="M447.286,177.826c1.179,0.282,2.021,0.382,2.782,0.684
				c2.716,1.078,4.233,1.054,4.089-2.723c-0.151-3.99,2.263-6.03,6.37-5.819c4.697,0.241,9.001,2.153,13.521,3.152
				c1.651,0.365,2.037,1.375,1.466,2.99c-0.537,1.515-1.412,2.199-2.976,1.794c-3.044-0.79-6.068-1.654-9.115-2.43
				c-1.685-0.429-3.906-1.605-4.65,0.864c-0.725,2.404,0.259,4.627,3.027,5.412c2.87,0.814,5.768,1.536,8.651,2.301
				c1.597,0.424,2.756,0.996,2.059,3.104c-0.628,1.895-1.805,2.178-3.442,1.739c-7.519-2.017-15.03-4.056-22.549-6.073
				c-1.605-0.431-2.81-1.066-2.209-3.09C444.834,177.968,445.827,177.215,447.286,177.826z"/>
			<path fill-rule="evenodd" clip-rule="evenodd" fill="#FBEDE9" d="M458.821,207.142c-0.671-0.156-2.317-0.405-3.872-0.926
				c-6.61-2.218-7.938-4.446-5.926-11.078c0.679-2.239-0.456-7.012,3.826-5.91c4.501,1.158,0.39,4.585,0.409,6.976
				c0.014,1.598-1.096,3.407,0.819,4.452c2.672,1.458,5.629,2.387,8.587,1.12c1.79-0.767,2.473-2.655,2.283-4.613
				c-0.11-1.138-0.589-2.236-0.812-3.369c-0.286-1.458,0.678-2.117,1.849-2.5c1.152-0.376,1.88,0.208,2.345,1.242
				c1.581,3.518,1.826,7.002-0.197,10.453C466.256,206.188,463.438,207.506,458.821,207.142z"/>
			<path fill-rule="evenodd" clip-rule="evenodd" fill="#FBEDE9" d="M463.783,132.018c3.924,0.016,7.315,2.71,8.123,7.628
				c0.194,1.185,0.166,2.358,1.385,2.962c2.304,1.142,1.436,2.94,0.514,4.173c-1.508,2.019-2.953,0.152-4.163-0.691
				c-1.727-1.203-2.687-3.041-2.552-5.162c0.183-2.861-1.995-3.143-3.83-3.716c-1.664-0.521-2.857,0.091-3.446,1.888
				c-0.677,2.066-1.889,4.22,0.948,5.546c2.589,1.21,1.682,3.201,0.769,4.547c-1.149,1.694-2.779,0.251-3.955-0.454
				c-4.149-2.486-3.666-6.216-2.54-10.122C456.142,134.78,458.017,131.92,463.783,132.018z"/>
			<path fill-rule="evenodd" clip-rule="evenodd" fill="#FBEDE9" d="M473.041,166.457c-2.071-0.481-4.823-1.09-7.559-1.768
				c-1.376-0.341-2.596-1.342-3.914,0.482c-1.022,1.416-2.396,0.239-3.487-0.471c-0.224-0.146-0.372-0.559-0.384-0.856
				c-0.115-2.719-7.108-1.794-3.504-6.092c1.476-1.76,5.367-0.023,6.901-3.189c0.187-0.384,2.334,0.153,2.98,1.737
				c2.169,5.317,8.345,6.227,11.899,1.742c0.799-1.007,1.568-1.053,2.557-0.857c1.083,0.214,1.637,0.8,1.727,2.032
				C480.54,163.114,477.563,166.502,473.041,166.457z"/>
			<path fill-rule="evenodd" clip-rule="evenodd" fill="#FBEDE9" d="M479.986,144.531c1.077,0.542,2.898,0.145,2.872,2.03
				c-0.02,1.447-0.22,3.151-2.155,3.229c-1.224,0.049-2.823-0.152-2.778-1.972C477.959,146.419,477.927,144.761,479.986,144.531z"/>
			<path fill-rule="evenodd" clip-rule="evenodd" fill="#E1503B" d="M503,416c-9.011-1.729-18.175-0.949-27.263-1.646
				c-49.005-3.764-95.7-16.245-140.447-36.318c-7.589-3.404-14.926-7.372-22.5-10.813c-3.295-1.498-3.418-2.976-1.718-5.98
				c31.038-54.865,61.972-109.791,92.929-164.703c18.542-32.889,37.129-65.753,55.562-98.703c1.779-3.181,3.116-4.045,6.783-2.447
				c11.65,5.078,24.005,7.569,36.654,8.611C503,208,503,312,503,416z M415.446,370.104c4.882,0.351,9.831-5.52,8.39-9.52
				c-0.614-1.704-0.915-2.814,0.749-4.276c4.348-3.82,2.321-11.537-3.334-13.146c-4.781-1.358-9.59-2.624-14.4-3.875
				c-1.749-0.455-3.568-1.117-4.43,1.503c-0.932,2.832,1.072,2.97,2.845,3.458c4.313,1.189,8.582,2.56,12.938,3.546
				c2.389,0.542,3.845,2.152,3.281,4.007c-0.566,1.867-2.66,2.459-5.017,1.688c-4.246-1.388-8.649-2.288-12.944-3.536
				c-1.999-0.581-3.422-0.742-4.08,1.803c-0.647,2.505,0.965,2.763,2.626,3.198c3.848,1.011,7.684,2.064,11.532,3.07
				c2.463,0.645,5.693,1.527,5.038,4.357c-0.68,2.934-3.922,2.188-6.381,1.51c-4.15-1.145-8.327-2.201-12.438-3.475
				c-2.042-0.632-2.575,0.338-3.166,1.966c-0.619,1.705-0.025,2.554,1.498,2.978C404.063,367.005,409.982,368.608,415.446,370.104z
				M447.286,177.826c-1.459-0.61-2.452,0.142-2.977,1.906c-0.601,2.023,0.604,2.659,2.209,3.09c7.519,2.017,15.03,4.056,22.549,6.073
				c1.638,0.439,2.814,0.155,3.442-1.739c0.697-2.108-0.462-2.681-2.059-3.104c-2.884-0.766-5.781-1.487-8.651-2.301
				c-2.769-0.785-3.752-3.008-3.027-5.412c0.744-2.469,2.966-1.292,4.65-0.864c3.047,0.776,6.071,1.641,9.115,2.43
				c1.563,0.405,2.438-0.279,2.976-1.794c0.571-1.616,0.186-2.625-1.466-2.99c-4.52-0.999-8.823-2.911-13.521-3.152
				c-4.107-0.211-6.521,1.829-6.37,5.819c0.145,3.777-1.373,3.801-4.089,2.723C449.307,178.208,448.465,178.107,447.286,177.826z
				M425.082,339.732c4.829,0.135,7.935-3.023,7.82-7.591c-0.028-1.141-0.91-2.861-0.436-3.322c6.91-6.71-1.188-5.331-3.659-6.673
				c-1.558-0.846-3.49-1.001-5.254-1.466c-10.303-2.714-7.97-3.071-10.56,6.186c-1.95,6.971-0.651,9.256,6.225,11.461
				C421.266,338.983,423.408,339.339,425.082,339.732z M431.692,317.758c4.621-0.128,7.387-3.408,7.259-8.069
				c-0.03-1.1-1.365-2.267-0.217-3.237c5.312-4.492,0.702-4.966-2.398-5.983c-1.729-0.567-3.513-0.983-5.287-1.401
				c-11.974-2.822-8.899-5.056-12.747,8.143c-1.021,3.504,0.318,6.131,3.635,7.818C425.111,316.642,428.537,317.192,431.692,317.758z
				M441.55,241.958c-2.316-0.532-4.597,0.54-5.769,3.395c-1.385,3.373-2.994,6.86-0.841,10.467
				c1.772,2.968,10.044,5.346,14.204,4.146c4.752-1.37,6.197-5.279,6.539-9.585c0.16-2.033,0.947-5.295-2.445-5.449
				c-3.665-0.167-1.751,3.083-2.182,4.873c-0.115,0.479,0,1.013-0.123,1.487c-0.512,1.962-1.195,4.556-3.574,3.928
				c-2.735-0.722,0.076-2.954-0.261-4.521c-0.118-0.55,0.439-1.225,0.617-1.862C449.33,243.05,448.549,242.071,441.55,241.958z
				M449.967,208.959c-3.637-0.685-5.703,1.496-6.938,5.066c-2.839,8.216,0.066,12.045,10.027,13.099
				c7.301,0.772,12.969-6.701,10.318-13.531c-0.48-1.237-0.947-1.995-2.474-1.745c-1.423,0.233-1.938,0.871-1.938,2.3
				c0.002,1.812-0.014,3.677-0.431,5.421c-0.398,1.663-1.565,3.365-3.523,2.681c-1.965-0.687-0.17-2.243-0.094-3.392
				c0.064-0.968,0.5-1.911,0.767-2.867C457.313,210.143,456.543,209.114,449.967,208.959z M458.821,207.142
				c4.616,0.365,7.435-0.953,9.312-4.153c2.023-3.45,1.778-6.935,0.197-10.453c-0.465-1.034-1.192-1.619-2.345-1.242
				c-1.171,0.382-2.135,1.041-1.849,2.5c0.223,1.133,0.701,2.231,0.812,3.369c0.189,1.958-0.493,3.846-2.283,4.613
				c-2.958,1.268-5.915,0.338-8.587-1.12c-1.915-1.045-0.806-2.854-0.819-4.452c-0.02-2.391,4.092-5.818-0.409-6.976
				c-4.282-1.102-3.147,3.671-3.826,5.91c-2.012,6.631-0.685,8.86,5.926,11.078C456.504,206.737,458.15,206.985,458.821,207.142z
				M463.783,132.018c-5.767-0.097-7.642,2.762-8.748,6.599c-1.126,3.905-1.609,7.635,2.54,10.122
				c1.176,0.705,2.806,2.148,3.955,0.454c0.913-1.347,1.82-3.337-0.769-4.547c-2.837-1.326-1.625-3.48-0.948-5.546
				c0.589-1.797,1.782-2.409,3.446-1.888c1.835,0.574,4.013,0.855,3.83,3.716c-0.135,2.121,0.825,3.958,2.552,5.162
				c1.21,0.843,2.655,2.71,4.163,0.691c0.922-1.233,1.79-3.031-0.514-4.173c-1.219-0.604-1.19-1.777-1.385-2.962
				C471.099,134.728,467.707,132.034,463.783,132.018z M444.052,272.458c4.515,0.038,7.505-3.381,7.208-7.257
				c-0.095-1.236-0.667-1.807-1.743-2.02c-0.992-0.196-1.754-0.134-2.548,0.874c-3.551,4.511-9.679,3.591-11.897-1.772
				c-0.653-1.578-2.817-2.097-2.992-1.721c-1.503,3.22-5.419,1.416-6.897,3.2c-3.571,4.309,3.438,3.359,3.507,6.099
				c0.005,0.164,0.013,0.383,0.112,0.479c1.103,1.064,2.565,2.306,3.766,0.803c1.4-1.753,2.563-0.782,3.932-0.447
				C439.234,271.365,441.985,271.979,444.052,272.458z M473.041,166.457c4.522,0.046,7.499-3.343,7.217-7.24
				c-0.09-1.232-0.644-1.818-1.727-2.032c-0.988-0.196-1.758-0.15-2.557,0.857c-3.555,4.485-9.73,3.576-11.899-1.742
				c-0.646-1.584-2.794-2.121-2.98-1.737c-1.534,3.166-5.426,1.429-6.901,3.189c-3.604,4.298,3.389,3.373,3.504,6.092
				c0.012,0.297,0.16,0.71,0.384,0.856c1.091,0.71,2.465,1.887,3.487,0.471c1.318-1.824,2.538-0.824,3.914-0.482
				C468.218,165.367,470.97,165.976,473.041,166.457z M442.001,225.89c-0.32,0.123-1.312,0.222-1.428,0.593
				c-0.906,2.906-1.719,5.85-2.343,8.827c-0.076,0.367,1.051,1.27,1.75,1.469c5.106,1.455,10.248,2.789,15.376,4.17
				c1.862,0.501,2.748-0.38,3.242-2.085c0.532-1.839-0.59-2.39-1.968-2.767c-2.725-0.746-5.455-1.469-8.192-2.167
				c-2.811-0.716-5.21-1.752-4.105-5.389C444.909,226.645,443.802,226.209,442.001,225.89z M427.184,281.955
				c-0.914-0.098-1.977,0.206-1.963,1.06c0.044,2.728-1.118,5.026-2.029,7.464c-0.503,1.347,0.711,2.043,1.937,2.376
				c4.966,1.347,9.928,2.704,14.898,4.03c1.612,0.431,2.827,0.225,3.474-1.699c0.707-2.104-0.416-2.701-2.027-3.13
				c-2.891-0.769-5.782-1.533-8.675-2.293c-2.529-0.664-4.414-1.923-3.539-4.893C429.878,282.769,428.976,282.137,427.184,281.955z
				M479.986,144.531c-2.06,0.23-2.027,1.888-2.062,3.286c-0.045,1.82,1.555,2.021,2.778,1.972c1.936-0.077,2.136-1.781,2.155-3.229
				C482.885,144.675,481.063,145.073,479.986,144.531z"/>
			<path fill-rule="evenodd" clip-rule="evenodd" fill="#FBEDE9" d="M415.446,370.104c-5.464-1.495-11.384-3.099-17.292-4.743
				c-1.523-0.424-2.117-1.272-1.498-2.978c0.591-1.628,1.124-2.598,3.166-1.966c4.11,1.273,8.287,2.33,12.438,3.475
				c2.459,0.678,5.701,1.424,6.381-1.51c0.655-2.83-2.575-3.713-5.038-4.357c-3.849-1.006-7.685-2.06-11.532-3.07
				c-1.661-0.436-3.273-0.693-2.626-3.198c0.658-2.545,2.081-2.384,4.08-1.803c4.295,1.248,8.698,2.148,12.944,3.536
				c2.356,0.771,4.45,0.179,5.017-1.688c0.563-1.854-0.893-3.465-3.281-4.007c-4.356-0.986-8.626-2.356-12.938-3.546
				c-1.772-0.488-3.776-0.626-2.845-3.458c0.861-2.62,2.681-1.958,4.43-1.503c4.811,1.251,9.619,2.517,14.4,3.875
				c5.655,1.608,7.682,9.325,3.334,13.146c-1.664,1.462-1.363,2.572-0.749,4.276C425.277,364.584,420.328,370.454,415.446,370.104z"/>
			<path fill-rule="evenodd" clip-rule="evenodd" fill="#FBEDE9" d="M425.082,339.732c-1.674-0.394-3.816-0.749-5.863-1.405
				c-6.876-2.205-8.175-4.49-6.225-11.461c2.59-9.257,0.257-8.899,10.56-6.186c1.764,0.465,3.696,0.62,5.254,1.466
				c2.472,1.342,10.569-0.037,3.659,6.673c-0.475,0.461,0.407,2.182,0.436,3.322C433.017,336.709,429.911,339.867,425.082,339.732z
				M428.426,331.311c0.063-3.618-2.966-5.979-8.099-6.325c-3.895-0.263-2.765,3.138-3.263,4.949c-0.659,2.398,3.981,4.98,8.263,5.021
				C427.972,334.98,428.126,333.144,428.426,331.311z"/>
			<path fill-rule="evenodd" clip-rule="evenodd" fill="#FBEDE9" d="M431.692,317.758c-3.155-0.565-6.581-1.116-9.756-2.73
				c-3.316-1.688-4.656-4.314-3.635-7.818c3.848-13.198,0.773-10.965,12.747-8.143c1.774,0.418,3.558,0.834,5.287,1.401
				c3.101,1.018,7.71,1.491,2.398,5.983c-1.148,0.971,0.187,2.138,0.217,3.237C439.079,314.35,436.313,317.63,431.692,317.758z
				M423.133,307.157c-0.816,2.771,0.577,3.944,2.561,4.266c2.62,0.423,5.148,2.809,7.951,0.59c0.232-0.185,0.344-0.567,0.435-0.88
				c0.597-2.04,0.506-4.108-1.031-5.604c-2.128-2.071-5.148-2.549-7.841-2.452C423.105,303.152,423.952,306.104,423.133,307.157z"/>
			<path fill-rule="evenodd" clip-rule="evenodd" fill="#FBEDE9" d="M441.55,241.958c6.999,0.113,7.78,1.092,6.166,6.879
				c-0.178,0.638-0.735,1.313-0.617,1.862c0.337,1.567-2.475,3.8,0.261,4.521c2.379,0.628,3.063-1.966,3.574-3.928
				c0.123-0.475,0.008-1.009,0.123-1.487c0.431-1.79-1.483-5.039,2.182-4.873c3.393,0.154,2.605,3.416,2.445,5.449
				c-0.342,4.306-1.787,8.215-6.539,9.585c-4.16,1.199-12.432-1.179-14.204-4.146c-2.153-3.607-0.544-7.095,0.841-10.467
				C436.953,242.498,439.233,241.426,441.55,241.958z M443.39,249.201c0.736-1.348,0.614-2.257-1.099-2.383
				c-2.461-0.181-2.979,1.55-3.327,3.42c-0.289,1.551-0.264,3.498,1.516,3.604C443.711,254.035,442.47,250.775,443.39,249.201z"/>
			<path fill-rule="evenodd" clip-rule="evenodd" fill="#FBEDE9" d="M449.967,208.959c6.576,0.155,7.347,1.184,5.716,7.033
				c-0.267,0.956-0.702,1.898-0.767,2.867c-0.076,1.148-1.871,2.705,0.094,3.392c1.958,0.684,3.125-1.018,3.523-2.681
				c0.417-1.744,0.433-3.609,0.431-5.421c-0.001-1.43,0.515-2.067,1.938-2.3c1.526-0.25,1.993,0.508,2.474,1.745
				c2.65,6.83-3.018,14.303-10.318,13.531c-9.961-1.053-12.866-4.882-10.027-13.099C444.264,210.455,446.33,208.274,449.967,208.959z
				M451.637,215.61c0.503-1.829-0.715-1.784-1.649-1.768c-2.785,0.047-2.821,2.263-3.105,4.19c-0.218,1.479,0.409,3.081,1.876,2.867
				C451.833,220.449,450.485,217.148,451.637,215.61z"/>
			<path fill-rule="evenodd" clip-rule="evenodd" fill="#FBEDE9" d="M444.052,272.458c-2.066-0.479-4.817-1.093-7.554-1.762
				c-1.369-0.335-2.531-1.306-3.932,0.447c-1.2,1.503-2.663,0.262-3.766-0.803c-0.1-0.097-0.107-0.315-0.112-0.479
				c-0.068-2.739-7.078-1.79-3.507-6.099c1.479-1.784,5.395,0.02,6.897-3.2c0.175-0.376,2.339,0.143,2.992,1.721
				c2.219,5.363,8.347,6.283,11.897,1.772c0.794-1.008,1.556-1.07,2.548-0.874c1.076,0.213,1.648,0.783,1.743,2.02
				C451.557,269.077,448.566,272.496,444.052,272.458z"/>
			<path fill-rule="evenodd" clip-rule="evenodd" fill="#FBEDE9" d="M442.001,225.89c1.801,0.32,2.908,0.755,2.332,2.652
				c-1.104,3.637,1.295,4.673,4.105,5.389c2.737,0.697,5.468,1.421,8.192,2.167c1.378,0.377,2.5,0.928,1.968,2.767
				c-0.494,1.706-1.38,2.587-3.242,2.085c-5.128-1.381-10.27-2.715-15.376-4.17c-0.699-0.199-1.826-1.103-1.75-1.469
				c0.624-2.978,1.437-5.921,2.343-8.827C440.689,226.111,441.681,226.013,442.001,225.89z"/>
			<path fill-rule="evenodd" clip-rule="evenodd" fill="#FBEDE9" d="M427.187,281.948c1.789,0.188,2.691,0.82,2.072,2.922
				c-0.875,2.97,1.01,4.229,3.539,4.893c2.893,0.76,5.784,1.524,8.675,2.293c1.611,0.429,2.734,1.025,2.027,3.13
				c-0.646,1.924-1.861,2.13-3.474,1.699c-4.971-1.326-9.933-2.684-14.898-4.03c-1.226-0.333-2.439-1.029-1.937-2.376
				c0.911-2.438,2.073-4.736,2.029-7.464C425.207,282.161,426.27,281.857,427.187,281.948z"/>
			<path fill-rule="evenodd" clip-rule="evenodd" fill="#E1503B" d="M428.432,331.315c-0.306,1.828-0.46,3.665-3.104,3.64
				c-4.281-0.04-8.922-2.622-8.263-5.021c0.498-1.812-0.632-5.212,3.263-4.949C425.46,325.332,428.488,327.692,428.432,331.315z"/>
			<path fill-rule="evenodd" clip-rule="evenodd" fill="#E1503B" d="M423.133,307.157c0.819-1.054-0.027-4.005,2.074-4.081
				c2.692-0.097,5.713,0.381,7.841,2.452c1.537,1.496,1.628,3.564,1.031,5.604c-0.091,0.313-0.202,0.695-0.435,0.88
				c-2.803,2.219-5.331-0.167-7.951-0.59C423.71,311.102,422.316,309.928,423.133,307.157z"/>
			<path fill-rule="evenodd" clip-rule="evenodd" fill="#E1503B" d="M443.39,249.201c-0.92,1.574,0.321,4.834-2.91,4.642
				c-1.779-0.106-1.805-2.054-1.516-3.604c0.349-1.87,0.866-3.602,3.327-3.42C444.004,246.944,444.126,247.854,443.39,249.201z"/>
			<path fill-rule="evenodd" clip-rule="evenodd" fill="#E1503B" d="M451.637,215.61c-1.151,1.539,0.196,4.839-2.879,5.289
				c-1.467,0.214-2.094-1.388-1.876-2.867c0.284-1.927,0.32-4.144,3.105-4.19C450.922,213.826,452.14,213.781,451.637,215.61z"/>
		</g>
	</a>
	<a xlink:href="../hoe-reageren" target='_top'>
		<g id="HUNPAGE-hoe" class="svgnavani">
			<path fill-rule="evenodd" clip-rule="evenodd" fill="#F3F8FC" d="M344.209,183.622c-0.748,3.685-4.23,5.883-7.207,8.407
				c-0.897,0.761-1.846-0.197-2.5-0.962c-0.842-0.985-0.35-1.832,0.389-2.598c1.15-1.196,2.369-2.333,3.464-3.577
				c1.04-1.182,1.096-2.628-0.259-3.437c-1.707-1.02-1.649,0.833-2.161,1.72c-3.183,5.519-6.749,6.323-11.734,2.509
				c-1.567-1.199-3.006-2.624-4.29-4.127c-3.856-4.513-3.757-6.828,0.264-11.191c6.476-7.027,6.474-7.024,13.274-0.592
				c2.289,2.165,4.657,4.25,6.872,6.487C342.177,178.134,344.133,180.022,344.209,183.622z M333.114,178.293
				c-0.065-3.894-3.381-5.654-5.872-7.286c-2.073-1.358-3.5,1.806-4.48,3.346c-2.404,3.777,1.796,4.955,3.447,7.007
				c0.947,1.178,2.493,2.44,4.324,1.482C332.277,181.93,333.007,180.277,333.114,178.293z"/>
			<path fill-rule="evenodd" clip-rule="evenodd" fill="#F3F8FC" d="M344.088,171.181c-3.577-0.072-10.497-5.242-11.72-9.06
				c-1.456-4.545,1.815-7.104,4.669-9.578c3.726-3.229,10.062-1.469,12.076,3.049c0.54,1.212,0.004,1.912-0.622,2.634
				c-1.41,1.625-2.973,3.122-4.337,4.782c-0.741,0.901-2.76,1.584-1.543,3.094c1.405,1.743,3.064,0.451,4.374-0.511
				c1.648-1.21,2.496-3.029,3.262-4.896c0.505-1.23,1.414-1.73,2.796-1.039c1.228,0.613,1.538,1.281,1.231,2.736
				C353.317,166.93,348.454,171.27,344.088,171.181z M338.995,162.598c1.53-1.704,3.973-2.845,4.639-5.287
				c0.316-1.163-1.439-1.982-2.467-1.743c-2.164,0.502-3.792,1.955-4.143,4.282C336.851,161.003,337.426,162.037,338.995,162.598z"/>
			<path fill-rule="evenodd" clip-rule="evenodd" fill="#F3F8FC" d="M368.27,146.183c-3.707,0.001-11.016-5.513-12.021-9.351
				c-1.125-4.299,1.909-6.789,4.645-9.178c3.804-3.321,9.788-1.798,12.122,2.783c0.72,1.413,0.021,2.189-0.724,3.035
				c-1.424,1.614-3.001,3.097-4.355,4.764c-0.689,0.848-2.753,1.469-1.119,3.092c1.208,1.201,2.505,0.358,3.619-0.342
				c1.909-1.2,2.912-3.089,3.729-5.131c0.467-1.166,1.258-1.949,2.706-1.264c1.145,0.541,1.741,1.063,1.464,2.626
				C377.552,141.625,372.623,146.181,368.27,146.183z M367.807,132.375c-0.546-1.391-1.715-2.137-2.742-1.791
				c-2.211,0.745-4.157,2.095-3.991,4.856c0.055,0.913,0.714,2.339,1.687,1.893C364.979,136.315,366.573,134.43,367.807,132.375z"/>
			<path fill-rule="evenodd" clip-rule="evenodd" fill="#F3F8FC" d="M393.393,123.714c-0.461,0.606-0.859,1.357-1.461,1.871
				c-1.179,1.005-2.223,0.22-3.077-0.569c-2.323-2.146-4.548-4.396-6.866-6.548c-1.353-1.256-3.036-2.851-4.609-0.768
				c-1.135,1.502-1.851,3.628,0.056,5.443c2.292,2.181,4.516,4.434,6.81,6.611c1.215,1.153,1.951,2.167,0.422,3.713
				c-1.418,1.434-2.489,1.161-3.769-0.111c-3.659-3.641-7.366-7.233-11.063-10.836c-1.039-1.013-2.028-2.435-0.309-3.2
				c2.755-1.226,3.733-3.766,5.424-5.813c1.625-1.97,3.757-2.724,6.226-1.461c4.708,2.408,7.801,6.678,11.584,10.151
				C393.086,122.497,393.144,123.092,393.393,123.714z"/>
			<path fill-rule="evenodd" clip-rule="evenodd" fill="#F3F8FC" d="M397.071,99.444c-0.29,2.729-2.01,5.238-0.904,8.21
				c0.375,1.007-0.91,2.131-2.039,2.489c-1.505,0.477-1.95-0.93-2.493-1.872c-1.156-2.006-1.233-4.2-0.167-6.191
				c1.357-2.538,0.108-4.094-1.675-5.519c-1.315-1.051-2.789-1.168-4.038,0.087c-1.465,1.472-3.59,2.869-1.601,5.373
				c1.591,2.002,0.056,3.145-1.265,4.015c-1.928,1.271-2.545-0.715-3.356-1.811c-2.309-3.118-1.168-6.038,0.918-8.624
				c2.569-3.187,5.582-6.135,10.142-4.279C394.091,92.747,396.648,95.334,397.071,99.444z"/>
			<path fill-rule="evenodd" clip-rule="evenodd" fill="#F3F8FC" d="M362.296,155.252c-1.083,1.304-1.652,2.096-2.331,2.779
				c-0.935,0.94-1.835,0.462-2.602-0.282c-3.936-3.822-7.834-7.682-11.786-11.485c-1.275-1.227-1.239-2.438,0.193-3.229
				c1.915-1.058,3.27-2.443,4.232-4.404c0.478-0.975,1.604-1.152,2.588-0.494c0.833,0.558,1.871,1.435,1.051,2.39
				c-4.18,4.861,0.396,7.025,2.947,9.706C358.288,152.017,360.294,153.512,362.296,155.252z"/>
			<path fill-rule="evenodd" clip-rule="evenodd" fill="#F3F8FC" d="M399.943,116.079c-1.406-0.217-2.621-1.037-2.519-2.457
				c0.092-1.274,1.147-2.498,2.602-2.543c1.452-0.045,2.682,1.026,2.584,2.395C402.522,114.702,401.476,115.806,399.943,116.079z"/>
			<path fill-rule="evenodd" clip-rule="evenodd" fill="#FEFEFE" d="M290.884,354.772c1.753-0.333,1.999-1.821,2.612-2.909
				c49.725-88.164,99.417-176.346,149.196-264.479c1.559-2.759,1.401-4.249-1.259-6.062c-8.18-5.577-15.363-12.39-21.254-20.264
				c-3.335-4.456-5.636-4.202-9.988-1.597c-59.293,35.471-118.703,70.747-178.084,106.071c-26.471,15.747-52.904,31.557-79.46,47.159
				c-3.451,2.028-3.921,3.56-1.551,6.758c3.765,5.081,7.023,10.533,10.687,15.693c33.814,47.633,75.58,86.791,125.327,117.425
				C288.377,353.347,289.68,354.07,290.884,354.772z"/>
			<path fill-rule="evenodd" clip-rule="evenodd" fill="#1792D0" d="M290.884,354.772c-1.204-0.702-2.507-1.426-3.775-2.207
				c-49.747-30.634-91.512-69.792-125.327-117.425c-3.663-5.16-6.921-10.612-10.687-15.693c-2.37-3.198-1.9-4.73,1.551-6.758
				c26.556-15.602,52.99-31.412,79.46-47.159c59.381-35.324,118.792-70.6,178.084-106.071c4.353-2.604,6.653-2.859,9.988,1.597
				c5.891,7.874,13.074,14.688,21.254,20.264c2.66,1.813,2.817,3.303,1.259,6.062c-49.779,88.133-99.472,176.315-149.196,264.479
				C292.883,352.951,292.637,354.439,290.884,354.772z M237.988,264.136c-1.992,1.494-3.906,3.108-5.996,4.45
				c-2.121,1.362-2.791-1.011-3.968-1.906c-1.183-0.899-2.231-1.99-3.268-3.065c-1.291-1.339-2.464-2.168-4.11-0.363
				c-1.61,1.767-0.708,2.896,0.631,4.153c4.354,4.094,8.542,8.378,13.067,12.271c1.657,1.426,2.914,5.817,6.039,2.809
				c3.566-3.432-1.583-4.259-2.716-6.313c-0.792-1.435-3.429-1.874-2.289-4.351c2.213-4.806,5.396-5.526,9.359-2.099
				c0.626,0.542,1.323,1.015,1.89,1.612c1.249,1.318,2.328,2.245,4.092,0.481c1.852-1.852,0.574-2.866-0.652-4.044
				c-5.149-4.946-10.286-9.905-15.46-14.824c-0.774-0.735-1.582-2.034-2.883-0.875c-0.712,0.634-1.513,1.482-1.677,2.348
				c-0.289,1.522,1.251,2.157,2.12,3.107C233.81,259.325,236.011,260.646,237.988,264.136z M344.209,183.622
				c-0.076-3.6-2.032-5.488-3.889-7.362c-2.215-2.237-4.583-4.322-6.872-6.487c-6.801-6.432-6.799-6.435-13.274,0.592
				c-4.021,4.364-4.12,6.679-0.264,11.191c1.284,1.503,2.723,2.928,4.29,4.127c4.985,3.813,8.552,3.009,11.734-2.509
				c0.512-0.887,0.454-2.74,2.161-1.72c1.354,0.809,1.299,2.255,0.259,3.437c-1.095,1.245-2.313,2.381-3.464,3.577
				c-0.738,0.767-1.23,1.613-0.389,2.598c0.654,0.766,1.603,1.723,2.5,0.962C339.979,189.505,343.461,187.307,344.209,183.622z
				M313.389,204.167c0.973-0.229,1.653-0.289,2.248-0.546c4.232-1.833,4.827-7.227,9.062-9.242c1.038-0.495-0.279-2.034-1.124-2.831
				c-2.295-2.166-4.601-4.319-6.909-6.471c-5.876-5.478-5.905-5.503-11.482,0.291c-2.388,2.481-5.579,4.903-3.397,8.964
				C304.371,199.143,308.097,202.787,313.389,204.167z M344.088,171.181c4.366,0.089,9.229-4.251,10.187-8.789
				c0.307-1.455-0.004-2.123-1.231-2.736c-1.382-0.691-2.291-0.191-2.796,1.039c-0.766,1.867-1.613,3.687-3.262,4.896
				c-1.31,0.961-2.969,2.253-4.374,0.511c-1.217-1.51,0.802-2.193,1.543-3.094c1.364-1.66,2.927-3.157,4.337-4.782
				c0.626-0.722,1.162-1.421,0.622-2.634c-2.015-4.518-8.351-6.278-12.076-3.049c-2.854,2.474-6.125,5.032-4.669,9.578
				C333.591,165.938,340.511,171.108,344.088,171.181z M368.27,146.183c4.354-0.002,9.282-4.558,10.066-8.965
				c0.277-1.563-0.319-2.086-1.464-2.626c-1.448-0.685-2.239,0.098-2.706,1.264c-0.817,2.042-1.82,3.931-3.729,5.131
				c-1.114,0.7-2.411,1.543-3.619,0.342c-1.634-1.623,0.43-2.244,1.119-3.092c1.354-1.667,2.932-3.15,4.355-4.764
				c0.745-0.845,1.443-1.622,0.724-3.035c-2.334-4.581-8.318-6.104-12.122-2.783c-2.735,2.389-5.77,4.879-4.645,9.178
				C357.254,140.669,364.563,146.184,368.27,146.183z M269.289,249.183c4.35-0.011,9.289-4.592,10.053-8.983
				c0.273-1.573-0.35-2.082-1.487-2.615c-1.456-0.682-2.229,0.126-2.696,1.288c-0.818,2.041-1.823,3.928-3.738,5.123
				c-1.119,0.699-2.42,1.533-3.617,0.32c-1.613-1.634,0.461-2.243,1.148-3.093c1.35-1.669,2.927-3.154,4.353-4.766
				c0.752-0.85,1.427-1.631,0.701-3.036c-2.368-4.586-8.317-6.087-12.126-2.754c-2.734,2.392-5.766,4.886-4.625,9.184
				C258.275,243.701,265.578,249.192,269.289,249.183z M299.11,218.181c4.367,0.077,9.232-4.284,10.172-8.811
				c0.306-1.47-0.044-2.119-1.26-2.723c-1.391-0.692-2.289-0.155-2.786,1.066c-0.762,1.871-1.617,3.684-3.268,4.891
				c-1.313,0.959-2.979,2.245-4.368,0.481c-1.188-1.509,0.825-2.189,1.568-3.093c1.364-1.66,2.926-3.158,4.336-4.782
				c0.629-0.725,1.143-1.431,0.597-2.636c-2.052-4.528-8.348-6.261-12.082-3.016c-2.85,2.476-6.121,5.037-4.643,9.583
				C288.625,212.979,295.524,218.118,299.11,218.181z M252.46,242.674c-3.781-0.04-9.478,5.717-9.455,9.553
				c0.024,3.942,7.993,11.638,12.19,11.772c3.788,0.121,9.519-5.588,9.491-9.457C264.66,250.746,256.387,242.715,252.46,242.674z
				M393.393,123.714c-0.249-0.622-0.307-1.217-0.634-1.518c-3.783-3.473-6.876-7.743-11.584-10.151
				c-2.469-1.263-4.601-0.509-6.226,1.461c-1.69,2.047-2.669,4.588-5.424,5.813c-1.72,0.765-0.73,2.187,0.309,3.2
				c3.697,3.603,7.404,7.195,11.063,10.836c1.279,1.272,2.351,1.545,3.769,0.111c1.529-1.546,0.793-2.561-0.422-3.713
				c-2.294-2.178-4.518-4.43-6.81-6.611c-1.906-1.815-1.19-3.941-0.056-5.443c1.573-2.083,3.257-0.488,4.609,0.768
				c2.318,2.152,4.543,4.402,6.866,6.548c0.854,0.79,1.898,1.574,3.077,0.569C392.533,125.071,392.932,124.32,393.393,123.714z
				M397.071,99.444c-0.423-4.11-2.98-6.697-6.479-8.121c-4.56-1.856-7.572,1.092-10.142,4.279c-2.086,2.586-3.227,5.505-0.918,8.624
				c0.812,1.096,1.429,3.082,3.356,1.811c1.32-0.871,2.855-2.013,1.265-4.015c-1.989-2.503,0.136-3.9,1.601-5.373
				c1.249-1.255,2.723-1.138,4.038-0.087c1.783,1.425,3.032,2.98,1.675,5.519c-1.066,1.992-0.989,4.186,0.167,6.191
				c0.543,0.942,0.988,2.349,2.493,1.872c1.129-0.358,2.414-1.482,2.039-2.489C395.062,104.683,396.781,102.173,397.071,99.444z
				M283.691,208.736c-3.031,0.323-2.479,4.39-5.531,5.055c-1.898,0.413-1.916,2.282-0.265,3.835
				c3.754,3.529,7.421,7.153,11.067,10.794c1.334,1.333,2.402,1.375,3.759-0.013c1.554-1.59,0.637-2.596-0.533-3.701
				c-1.691-1.598-3.332-3.251-5.034-4.836c-2.4-2.234-4.779-4.311-1.785-7.906C286.82,210.222,285.129,209.4,283.691,208.736z
				M362.296,155.252c-2.002-1.74-4.008-3.235-5.707-5.021c-2.552-2.681-7.127-4.845-2.947-9.706c0.82-0.955-0.218-1.832-1.051-2.39
				c-0.983-0.658-2.11-0.48-2.588,0.494c-0.963,1.961-2.317,3.347-4.232,4.404c-1.433,0.791-1.469,2.002-0.193,3.229
				c3.952,3.803,7.851,7.664,11.786,11.485c0.767,0.744,1.667,1.222,2.602,0.282C360.644,157.348,361.213,156.556,362.296,155.252z
				M399.943,116.079c1.532-0.272,2.579-1.376,2.667-2.605c0.098-1.369-1.132-2.44-2.584-2.395c-1.454,0.046-2.51,1.269-2.602,2.543
				C397.322,115.042,398.537,115.861,399.943,116.079z"/>
			<path fill-rule="evenodd" clip-rule="evenodd" fill="#F3F8FC" d="M237.988,264.136c-1.977-3.489-4.178-4.811-5.821-6.607
				c-0.869-0.95-2.409-1.585-2.12-3.107c0.164-0.865,0.965-1.714,1.677-2.348c1.301-1.159,2.109,0.14,2.883,0.875
				c5.175,4.919,10.312,9.878,15.46,14.824c1.227,1.178,2.504,2.192,0.652,4.044c-1.764,1.764-2.843,0.837-4.092-0.481
				c-0.566-0.598-1.263-1.07-1.89-1.612c-3.963-3.428-7.146-2.707-9.359,2.099c-1.14,2.477,1.497,2.916,2.289,4.351
				c1.133,2.054,6.283,2.881,2.716,6.313c-3.125,3.009-4.382-1.383-6.039-2.809c-4.525-3.894-8.713-8.178-13.067-12.271
				c-1.339-1.258-2.241-2.387-0.631-4.153c1.646-1.805,2.819-0.976,4.11,0.363c1.037,1.075,2.085,2.166,3.268,3.065
				c1.177,0.896,1.847,3.269,3.968,1.906C234.082,267.244,235.996,265.63,237.988,264.136z"/>
			<path fill-rule="evenodd" clip-rule="evenodd" fill="#F3F8FC" d="M269.289,249.183c-3.711,0.01-11.014-5.481-12.035-9.332
				c-1.141-4.298,1.891-6.792,4.625-9.184c3.809-3.333,9.758-1.832,12.126,2.754c0.726,1.405,0.051,2.187-0.701,3.036
				c-1.426,1.611-3.003,3.096-4.353,4.766c-0.688,0.85-2.762,1.459-1.148,3.093c1.197,1.212,2.498,0.378,3.617-0.32
				c1.915-1.195,2.92-3.083,3.738-5.123c0.467-1.162,1.24-1.97,2.696-1.288c1.138,0.533,1.761,1.042,1.487,2.615
				C278.578,244.59,273.639,249.172,269.289,249.183z M265.628,233.384c-1.322,1.417-3.868,2.124-3.57,5.028
				c0.096,0.934,0.753,2.362,1.673,1.918c2.182-1.052,4.217-2.704,4.873-5.106C268.911,234.095,267.203,233.7,265.628,233.384z"/>
			<path fill-rule="evenodd" clip-rule="evenodd" fill="#F3F8FC" d="M299.11,218.181c-3.586-0.063-10.485-5.203-11.733-9.041
				c-1.479-4.546,1.793-7.107,4.643-9.583c3.734-3.245,10.03-1.512,12.082,3.016c0.546,1.206,0.032,1.912-0.597,2.636
				c-1.41,1.625-2.972,3.122-4.336,4.782c-0.743,0.904-2.757,1.584-1.568,3.093c1.39,1.764,3.056,0.478,4.368-0.481
				c1.65-1.207,2.506-3.02,3.268-4.891c0.497-1.221,1.396-1.758,2.786-1.066c1.216,0.604,1.565,1.253,1.26,2.723
				C308.343,213.897,303.478,218.258,299.11,218.181z M298.808,204.576c-0.307-1.5-1.518-2.202-2.533-2.02
				c-2.218,0.398-3.784,1.919-4.251,4.184c-0.24,1.169,0.571,2.868,1.52,2.603C295.965,208.664,297.297,206.389,298.808,204.576z"/>
			<path fill-rule="evenodd" clip-rule="evenodd" fill="#F3F8FC" d="M252.46,242.674c3.927,0.041,12.2,8.072,12.227,11.869
				c0.027,3.869-5.703,9.578-9.491,9.457c-4.197-0.135-12.166-7.83-12.19-11.772C242.982,248.391,248.679,242.635,252.46,242.674z
				M252.06,247.553c-1.934,0.732-3.707,1.946-4.029,4.321c-0.27,1.986,5.364,7.518,7.417,7.212c2.313-0.344,3.853-2.01,4.257-4.249
				C260.045,252.947,254.223,247.487,252.06,247.553z"/>
			<path fill-rule="evenodd" clip-rule="evenodd" fill="#F3F8FC" d="M283.691,208.736c1.438,0.665,3.129,1.486,1.678,3.228
				c-2.994,3.595-0.615,5.672,1.785,7.906c1.702,1.585,3.343,3.238,5.034,4.836c1.17,1.104,2.087,2.11,0.533,3.701
				c-1.356,1.389-2.425,1.346-3.759,0.013c-3.646-3.641-7.313-7.265-11.067-10.794c-1.651-1.553-1.634-3.422,0.265-3.835
				C281.213,213.126,280.66,209.059,283.691,208.736z"/>
			<path fill-rule="evenodd" clip-rule="evenodd" fill="#1792D0" d="M333.114,178.293c-0.107,1.984-0.837,3.637-2.581,4.549
				c-1.831,0.958-3.377-0.305-4.324-1.482c-1.651-2.052-5.852-3.229-3.447-7.007c0.98-1.54,2.407-4.704,4.48-3.346
				C329.733,172.64,333.049,174.399,333.114,178.293z"/>
			<path fill-rule="evenodd" clip-rule="evenodd" fill="#1792D0" d="M338.995,162.598c-1.569-0.562-2.145-1.595-1.971-2.748
				c0.351-2.327,1.979-3.78,4.143-4.282c1.027-0.239,2.783,0.581,2.467,1.743C342.968,159.753,340.525,160.895,338.995,162.598z"/>
			<path fill-rule="evenodd" clip-rule="evenodd" fill="#1792D0" d="M367.807,132.375c-1.233,2.055-2.828,3.94-5.047,4.958
				c-0.973,0.446-1.632-0.98-1.687-1.893c-0.166-2.761,1.78-4.111,3.991-4.856C366.092,130.238,367.261,130.984,367.807,132.375z"/>
			<path fill-rule="evenodd" clip-rule="evenodd" fill="#1792D0" d="M317.053,194.564c-0.084,1.761-0.813,3.216-2.291,4.159
				c-1.813,1.157-3.418-0.023-4.346-1.2c-1.701-2.155-6.263-3.265-3.528-7.36c0.98-1.469,1.921-3.685,4.261-3.443
				C312.973,186.908,317.189,192.821,317.053,194.564z"/>
			<path fill-rule="evenodd" clip-rule="evenodd" fill="#1792D0" d="M265.628,233.384c1.575,0.316,3.283,0.711,2.976,1.841
				c-0.656,2.402-2.691,4.054-4.873,5.106c-0.92,0.444-1.577-0.985-1.673-1.918C261.76,235.508,264.306,234.801,265.628,233.384z"/>
			<path fill-rule="evenodd" clip-rule="evenodd" fill="#1792D0" d="M252.06,247.553c2.163-0.066,7.985,5.394,7.645,7.284
				c-0.404,2.239-1.944,3.905-4.257,4.249c-2.053,0.306-7.686-5.226-7.417-7.212C248.353,249.499,250.125,248.286,252.06,247.553z"/>
			<path fill-rule="evenodd" clip-rule="evenodd" fill="#1792D0" d="M298.808,204.576c-1.511,1.813-2.843,4.088-5.265,4.766
				c-0.948,0.265-1.76-1.434-1.52-2.603c0.467-2.264,2.033-3.785,4.251-4.184C297.29,202.374,298.501,203.076,298.808,204.576z"/>
			<path fill-rule="evenodd" clip-rule="evenodd" fill="#F3F8FC" d="M313.389,204.167c-5.292-1.38-9.018-5.024-11.604-9.836
				c-2.182-4.061,1.01-6.482,3.397-8.964c5.577-5.793,5.606-5.769,11.482-0.291c2.309,2.152,4.614,4.306,6.909,6.471
				c0.845,0.797,2.162,2.336,1.124,2.831c-4.234,2.016-4.829,7.41-9.062,9.242C315.042,203.878,314.361,203.938,313.389,204.167z
				M317.054,194.565c0.136-1.744-4.081-7.657-5.905-7.845c-2.34-0.241-3.28,1.975-4.261,3.443c-2.734,4.095,1.827,5.205,3.528,7.36
				c0.928,1.177,2.532,2.357,4.346,1.2C316.24,197.78,316.969,196.326,317.054,194.565z"/>
		</g>
	</a>
</svg>
