<?xml version="1.0" encoding="utf-8"?>
<?xml-stylesheet type="text/css" href="../css/main.css" ?>
<!-- Generator: Adobe Illustrator 16.0.0, SVG Export Plug-In . SVG Version: 6.00 Build 0)  -->
<!DOCTYPE svg PUBLIC "-//W3C//DTD SVG 1.1//EN" "http://www.w3.org/Graphics/SVG/1.1/DTD/svg11.dtd">
<svg version="1.1" id="Layer_1" xmlns="http://www.w3.org/2000/svg" xmlns:xlink="http://www.w3.org/1999/xlink" x="0px" y="0px"
	width="300px" height="300px" viewBox="0 0 500 500" enable-background="new 0 0 500 500" xml:space="preserve">
	<a xlink:href="../hoe-reageren" target='_top'>
		<g id="WATPAGE-hoe" class="svgnavani">
			<path fill-rule="evenodd" clip-rule="evenodd" fill="#1591D0" d="M395-1c0.027,12.553,4.002,24.158,8.898,35.456
				c1.489,3.436,1.153,5.056-2.174,7.031C315.15,92.871,228.636,144.355,142.153,195.893c-2.969,1.77-4.372,1.459-6.077-1.667
				C110.61,147.55,94.048,97.958,86.935,45.241C84.864,29.898,83.329,14.519,84-1C187.667-1,291.334-1,395-1z M264.553,65.171
				c1.017,2.916,0.942,4.589-1.924,5.056c-1.455,0.237-2.86,0.813-4.265,1.303c-1.091,0.381-1.497,1.222-1.292,2.353
				c0.15,0.831,0.381,1.934,1.297,1.868c3.471-0.248,6.911-1.023,9.875-2.824c2.426-1.474,2.532-4.106,1.859-6.689
				c-1.041-4.001-2.117-7.993-3.184-11.988c-2.256-8.455-2.254-8.446-10.459-6.232c-3.426,0.924-6.852,1.807-7.444,6.155
				c-0.625,4.594,2.397,12.891,5.508,14.277C258.372,70.164,261.568,68.605,264.553,65.171z M129.653,104.839
				c2.437-0.343,2.416-1.958,1.9-4.298c-0.533-2.424-3.044-5.056-0.857-7.377c3.312-3.516,7.932-2.015,9.272,2.662
				c0.183,0.638,0.307,1.295,0.521,1.921c0.569,1.669,0.704,3.848,3.464,3.06c2.618-0.748,2.024-2.509,1.487-4.37
				c-1.75-6.06-3.398-12.15-5.17-18.204c-0.552-1.886-0.255-4.901-3.677-4.014c-3.975,1.03-1.267,3.64-1.069,5.605
				c0.099,0.98,0.307,2.008,0.728,2.889c1.448,3.031-0.055,3.843-2.75,4.783c-4.12,1.436-6.536,1.089-6.769-3.895
				c-0.06-1.289-0.701-2.553-1.092-3.823c-0.591-1.924-2.025-2.018-3.591-1.511c-1.61,0.521-1.713,1.621-1.26,3.166
				c2.104,7.17,4.105,14.37,6.1,21.571C127.248,104.292,127.811,105.124,129.653,104.839z M226.962,61.432
				c0.156,3.894,1.236,7.549,3.308,10.822c2.182,3.446,5.426,3.557,8.739,1.962c1.983-0.955,3.211-3.338,6.221-1.752
				c1.073,0.565,3.046-0.935,2.201-3.3c-0.891-2.494-1.511-5.086-2.226-7.642c-3.046-10.893-3.337-11.011-13.821-6.567
				C228.461,56.193,226.811,58.151,226.962,61.432z M309.024,46.377c3.474-0.961,6.345-1.74,9.205-2.553
				c1.277-0.363,2.989-0.774,2.516-2.446c-0.97-3.424-1.468-7.325-5.675-8.677c-3.194-1.027-10.166,1.451-11.582,4.084
				c-1.705,3.17,0.429,11.887,3.618,14.783c3.183,2.888,8.144,3.003,12.388-0.069c1.325-0.959,4.295-1.656,2.537-4.369
				c-1.563-2.413-3.103-0.359-4.604,0.429C314.592,49.048,311.738,50.47,309.024,46.377z M276.098,55.387
				c3.245-0.907,6.223-1.723,9.189-2.578c1.277-0.368,2.947-0.789,2.456-2.491c-1.036-3.588-1.617-7.675-6.2-8.784
				c-3.159-0.764-9.811,1.865-11.084,4.3c-1.676,3.205,0.498,11.909,3.688,14.771c3.193,2.864,8.145,2.929,12.399-0.122
				c1.281-0.918,3.858-1.626,2.697-3.977c-1.429-2.894-3.203-0.818-4.873,0.075C281.547,58.091,278.666,59.481,276.098,55.387z
				M214.171,73.364c3.211-0.897,6.216-1.717,9.209-2.581c1.291-0.373,2.873-0.843,2.354-2.564c-1.079-3.582-1.678-7.667-6.288-8.713
				c-3.214-0.729-9.825,1.969-11.038,4.413c-1.619,3.264,0.628,11.958,3.813,14.75c3.212,2.816,8.182,2.829,12.409-0.241
				c1.269-0.922,3.832-1.65,2.567-4.008c-1.545-2.88-3.258-0.605-4.908,0.216C219.45,76.051,216.537,77.574,214.171,73.364z
				M172.142,84.376c3.22-0.901,6.211-1.719,9.188-2.58c1.281-0.371,2.917-0.806,2.41-2.525c-1.058-3.585-1.646-7.671-6.242-8.75
				c-3.184-0.748-9.817,1.914-11.062,4.353c-1.651,3.235,0.555,11.93,3.746,14.761c3.202,2.841,8.163,2.883,12.404-0.177
				c1.275-0.92,3.848-1.635,2.637-3.991c-1.483-2.887-3.227-0.712-4.891,0.139C177.507,87.049,174.601,88.57,172.142,84.376z
				M146.952,84.393c0.11,8.065,3.658,13.666,8.632,13.626c6.283-0.05,10.299-3.167,10.148-7.878
				c-0.255-7.967-4.047-13.916-8.78-13.775C151.028,76.542,146.891,79.863,146.952,84.393z M327.855,36
				c-0.067-2.277,1.153-4.137,3.408-4.69c2.302-0.565,2.414,1.767,2.889,3.238c1.021,3.162,1.952,6.354,2.827,9.56
				c0.462,1.694,1.464,2.066,2.994,1.58c1.479-0.47,2.237-1.329,1.726-2.985c-1.273-4.125-2.293-8.344-3.836-12.363
				c-1.157-3.015-3.47-5.165-7.037-3.759c-2.515,0.992-4.825,2.354-7.673,2.375c-1.686,0.013-2.152,1.098-1.64,2.791
				c1.494,4.93,2.908,9.885,4.252,14.858c0.46,1.701,1.133,2.756,3.091,2.184c1.84-0.539,2.205-1.675,1.649-3.448
				C329.561,42.329,328.773,39.27,327.855,36z M359.015,23.219c0.036-5.493-3.21-9.585-7.533-9.665
				c-5.599-0.104-10.685,3.333-10.852,7.523c-0.06,1.499-0.483,3.665,1.938,3.881c1.773,0.158,3.409-0.489,3.259-2.766
				c-0.209-3.168,2.335-3.192,4.286-3.836c1.936-0.639,2.638,0.738,3.271,2.19c0.97,2.22,1.077,4.124-1.402,5.523
				c-1.836,1.037-2.976,2.67-2.97,4.868c0.004,1.444-0.315,3.339,1.778,3.498c1.455,0.11,3.146-0.391,3.119-2.413
				c-0.024-1.849,1.22-2.527,2.476-3.391C358.306,27.311,359.225,25.423,359.015,23.219z M202.222,63.016
				c-1.216,2.395-4.141,1.305-6.562,2.006c-1.52,0.44-1.523,1.417-1.137,2.725c1.506,5.094,2.978,10.199,4.376,15.324
				c0.452,1.657,1.381,2.154,2.937,1.715c1.493-0.42,2.287-1.294,1.809-2.944c-0.554-1.914-1.135-3.821-1.641-5.748
				c-0.941-3.588-3.183-7.497,2.543-9.38c1.106-0.364,0.742-1.692,0.385-2.648C204.59,63.146,203.831,62.921,202.222,63.016z
				M297.401,36.019c-1.583,1.683-4.089,1.489-6.413,1.929c-1.798,0.34-1.892,1.382-1.415,2.953c1.493,4.924,2.917,9.872,4.23,14.847
				c0.484,1.834,1.366,2.583,3.191,2c1.859-0.594,2.033-1.834,1.464-3.541c-0.683-2.044-1.047-4.195-1.736-6.237
				c-1.133-3.355-2.121-6.532,2.534-8.076c1.201-0.398,1.072-1.475,0.791-2.513C299.72,36.166,298.887,35.875,297.401,36.019z
				M353.189,42.807c1.281-0.342,2.818-0.435,2.826-2.207c0.006-1.303-0.108-2.867-2.034-2.707c-1.266,0.105-2.866,0.174-2.876,2.024
				C351.099,41.274,351.513,42.553,353.189,42.807z"/>
			<path fill-rule="evenodd" clip-rule="evenodd" fill="#EFF5FB" d="M264.553,65.171c-2.984,3.434-6.181,4.992-10.027,3.278
				c-3.111-1.386-6.134-9.683-5.508-14.277c0.592-4.349,4.018-5.231,7.444-6.155c8.205-2.213,8.203-2.223,10.459,6.232
				c1.066,3.995,2.143,7.987,3.184,11.988c0.673,2.583,0.566,5.216-1.859,6.689c-2.964,1.8-6.404,2.576-9.875,2.824
				c-0.916,0.065-1.146-1.038-1.297-1.868c-0.205-1.131,0.201-1.972,1.292-2.353c1.404-0.49,2.81-1.066,4.265-1.303
				C265.495,69.76,265.569,68.087,264.553,65.171z M253.775,56.563c1.096,2.537-0.06,7.022,4.152,7.756
				c2.859,0.498,5.306-2.118,4.953-5.001c-0.314-2.559,0.412-6.728-3.537-7.143C257.213,51.951,253.656,52.131,253.775,56.563z"/>
			<path fill-rule="evenodd" clip-rule="evenodd" fill="#EFF5FB" d="M129.653,104.839c-1.843,0.285-2.406-0.547-2.763-1.835
				c-1.995-7.201-3.997-14.401-6.1-21.571c-0.453-1.545-0.351-2.645,1.26-3.166c1.566-0.507,3-0.414,3.591,1.511
				c0.391,1.271,1.032,2.535,1.092,3.823c0.233,4.983,2.649,5.331,6.769,3.895c2.694-0.939,4.198-1.752,2.75-4.783
				c-0.421-0.881-0.628-1.908-0.728-2.889c-0.198-1.965-2.906-4.576,1.069-5.605c3.422-0.887,3.125,2.128,3.677,4.014
				c1.772,6.054,3.42,12.144,5.17,18.204c0.538,1.861,1.131,3.623-1.487,4.37c-2.76,0.788-2.895-1.391-3.464-3.06
				c-0.214-0.626-0.338-1.283-0.521-1.921c-1.34-4.677-5.96-6.178-9.272-2.662c-2.187,2.322,0.324,4.953,0.857,7.377
				C132.069,102.881,132.09,104.496,129.653,104.839z"/>
			<path fill-rule="evenodd" clip-rule="evenodd" fill="#EFF5FB" d="M226.962,61.432c-0.152-3.28,1.499-5.238,4.422-6.478
				c10.484-4.444,10.775-4.326,13.821,6.567c0.714,2.556,1.334,5.147,2.226,7.642c0.845,2.366-1.128,3.866-2.201,3.3
				c-3.01-1.585-4.238,0.798-6.221,1.752c-3.313,1.595-6.557,1.484-8.739-1.962C228.198,68.981,227.119,65.325,226.962,61.432z
				M231.813,62.716c1.171,2.425-0.143,6.997,4.223,7.595c2.887,0.396,5.251-2.203,4.839-5.107c-0.36-2.54,0.436-6.736-3.64-7.026
				C235.063,58.024,231.511,58.195,231.813,62.716z"/>
			<path fill-rule="evenodd" clip-rule="evenodd" fill="#EFF5FB" d="M309.024,46.377c2.714,4.093,5.567,2.671,8.403,1.183
				c1.501-0.788,3.041-2.841,4.604-0.429c1.758,2.713-1.212,3.409-2.537,4.369c-4.244,3.072-9.205,2.957-12.388,0.069
				c-3.189-2.896-5.323-11.613-3.618-14.783c1.416-2.634,8.388-5.111,11.582-4.084c4.207,1.353,4.705,5.253,5.675,8.677
				c0.474,1.672-1.238,2.083-2.516,2.446C315.369,44.637,312.498,45.416,309.024,46.377z M310.58,41.937
				c1.248-0.811,3.991,0.012,4.373-2.452c0.251-1.616-1.205-2.773-2.954-2.273c-1.729,0.495-4.189,0.371-4.14,3.226
				C307.888,42.069,308.974,42.2,310.58,41.937z"/>
			<path fill-rule="evenodd" clip-rule="evenodd" fill="#EFF5FB" d="M276.098,55.387c2.568,4.095,5.449,2.705,8.273,1.194
				c1.67-0.893,3.444-2.969,4.873-0.075c1.161,2.35-1.416,3.058-2.697,3.977c-4.255,3.051-9.206,2.985-12.399,0.122
				c-3.19-2.862-5.364-11.566-3.688-14.771c1.273-2.435,7.925-5.064,11.084-4.3c4.583,1.109,5.164,5.196,6.2,8.784
				c0.491,1.702-1.179,2.123-2.456,2.491C282.32,53.664,279.343,54.479,276.098,55.387z M277.58,50.937
				c1.248-0.811,3.991,0.012,4.373-2.452c0.25-1.616-1.205-2.773-2.954-2.273c-1.729,0.495-4.189,0.371-4.14,3.226
				C274.888,51.069,275.973,51.2,277.58,50.937z"/>
			<path fill-rule="evenodd" clip-rule="evenodd" fill="#EFF5FB" d="M214.171,73.364c2.366,4.21,5.278,2.687,8.12,1.273
				c1.65-0.821,3.363-3.096,4.908-0.216c1.265,2.357-1.298,3.085-2.567,4.008c-4.228,3.07-9.197,3.057-12.409,0.241
				c-3.185-2.792-5.432-11.487-3.813-14.75c1.213-2.444,7.824-5.142,11.038-4.413c4.609,1.045,5.208,5.131,6.288,8.713
				c0.519,1.721-1.064,2.191-2.354,2.564C220.388,71.646,217.382,72.467,214.171,73.364z M216.894,64.112
				c-1.044,1.018-3.814,0.122-4.032,2.986c-0.108,1.43,0.571,2.332,2.016,1.896c1.85-0.559,4.625,0.157,5.065-2.648
				C220.162,64.949,218.891,64.057,216.894,64.112z"/>
			<path fill-rule="evenodd" clip-rule="evenodd" fill="#EFF5FB" d="M172.142,84.376c2.458,4.193,5.365,2.672,8.19,1.229
				c1.665-0.851,3.408-3.025,4.891-0.139c1.211,2.356-1.362,3.071-2.637,3.991c-4.241,3.06-9.202,3.018-12.404,0.177
				c-3.191-2.831-5.397-11.525-3.746-14.761c1.245-2.438,7.878-5.101,11.062-4.353c4.596,1.079,5.185,5.166,6.242,8.75
				c0.507,1.719-1.129,2.154-2.41,2.525C178.353,82.658,175.362,83.475,172.142,84.376z M173.242,79.988
				c1.261-0.951,4.223,0.233,4.714-2.579c0.242-1.386-1.055-2.578-2.551-2.243c-1.764,0.395-4.164,0.207-4.523,2.866
				C170.696,79.405,171.285,80.242,173.242,79.988z"/>
			<path fill-rule="evenodd" clip-rule="evenodd" fill="#EFF5FB" d="M146.952,84.393c-0.062-4.53,4.076-7.851,10-8.027
				c4.733-0.141,8.524,5.808,8.78,13.775c0.151,4.71-3.865,7.828-10.148,7.878C150.61,98.058,147.063,92.458,146.952,84.393z
				M151.923,85.893c1.133,2.217-0.431,6.899,4.525,7.339c1.958,0.174,4.433-0.244,4.513-3.359c0.099-3.879-2.542-9.036-4.746-8.679
				C154.049,81.544,151.345,81.809,151.923,85.893z"/>
			<path fill-rule="evenodd" clip-rule="evenodd" fill="#EFF5FB" d="M327.855,36c0.918,3.27,1.705,6.33,2.65,9.34
				c0.556,1.773,0.19,2.91-1.649,3.448c-1.958,0.573-2.631-0.482-3.091-2.184c-1.344-4.973-2.758-9.928-4.252-14.858
				c-0.513-1.693-0.046-2.778,1.64-2.791c2.848-0.022,5.158-1.384,7.673-2.375c3.567-1.406,5.88,0.744,7.037,3.759
				c1.543,4.02,2.563,8.239,3.836,12.363c0.512,1.656-0.246,2.515-1.726,2.985c-1.53,0.486-2.532,0.114-2.994-1.58
				c-0.875-3.206-1.806-6.398-2.827-9.56c-0.475-1.472-0.587-3.803-2.889-3.238C329.009,31.863,327.788,33.722,327.855,36z"/>
			<path fill-rule="evenodd" clip-rule="evenodd" fill="#EFF5FB" d="M359.015,23.219c0.21,2.204-0.709,4.092-2.629,5.412
				c-1.256,0.864-2.5,1.542-2.476,3.391c0.027,2.022-1.664,2.523-3.119,2.413c-2.094-0.158-1.774-2.053-1.778-3.498
				c-0.006-2.198,1.134-3.832,2.97-4.868c2.479-1.399,2.372-3.303,1.402-5.523c-0.634-1.453-1.336-2.829-3.271-2.19
				c-1.951,0.644-4.495,0.667-4.286,3.836c0.15,2.277-1.485,2.924-3.259,2.766c-2.422-0.216-1.998-2.382-1.938-3.881
				c0.167-4.19,5.253-7.626,10.852-7.523C355.805,13.634,359.051,17.726,359.015,23.219z"/>
			<path fill-rule="evenodd" clip-rule="evenodd" fill="#EFF5FB" d="M202.222,63.016c1.609-0.095,2.368,0.13,2.711,1.049
				c0.357,0.957,0.722,2.285-0.385,2.648c-5.726,1.884-3.484,5.792-2.543,9.38c0.505,1.927,1.086,3.834,1.641,5.748
				c0.478,1.65-0.316,2.524-1.809,2.944c-1.556,0.438-2.485-0.058-2.937-1.715c-1.398-5.125-2.87-10.23-4.376-15.324
				c-0.387-1.307-0.383-2.284,1.137-2.725C198.081,64.32,201.006,65.41,202.222,63.016z"/>
			<path fill-rule="evenodd" clip-rule="evenodd" fill="#EFF5FB" d="M297.401,36.019c1.485-0.145,2.318,0.147,2.646,1.362
				c0.281,1.038,0.41,2.115-0.791,2.513c-4.655,1.544-3.667,4.721-2.534,8.076c0.689,2.042,1.054,4.193,1.736,6.237
				c0.569,1.706,0.396,2.947-1.464,3.541c-1.825,0.583-2.707-0.166-3.191-2c-1.313-4.975-2.737-9.922-4.23-14.847
				c-0.477-1.571-0.383-2.612,1.415-2.953C293.313,37.508,295.818,37.702,297.401,36.019z"/>
			<path fill-rule="evenodd" clip-rule="evenodd" fill="#EFF5FB" d="M353.189,42.807c-1.677-0.254-2.091-1.532-2.084-2.89
				c0.01-1.85,1.61-1.919,2.876-2.024c1.926-0.16,2.04,1.404,2.034,2.707C356.008,42.372,354.471,42.465,353.189,42.807z"/>
			<path fill-rule="evenodd" clip-rule="evenodd" fill="#1591D0" d="M253.775,56.563c-0.119-4.432,3.438-4.611,5.568-4.387
				c3.949,0.415,3.223,4.583,3.537,7.143c0.353,2.883-2.094,5.499-4.953,5.001C253.716,63.584,254.871,59.1,253.775,56.563z"/>
			<path fill-rule="evenodd" clip-rule="evenodd" fill="#1591D0" d="M231.813,62.716c-0.301-4.521,3.25-4.692,5.422-4.538
				c4.076,0.29,3.28,4.486,3.64,7.026c0.412,2.905-1.953,5.503-4.839,5.107C231.669,69.713,232.984,65.141,231.813,62.716z"/>
			<path fill-rule="evenodd" clip-rule="evenodd" fill="#1591D0" d="M310.58,41.937c-1.606,0.264-2.692,0.133-2.721-1.499
				c-0.05-2.855,2.411-2.731,4.14-3.226c1.749-0.5,3.205,0.657,2.954,2.273C314.571,41.948,311.828,41.126,310.58,41.937z"/>
			<path fill-rule="evenodd" clip-rule="evenodd" fill="#1591D0" d="M277.58,50.937c-1.607,0.264-2.692,0.133-2.721-1.499
				c-0.05-2.855,2.41-2.731,4.14-3.226c1.749-0.5,3.204,0.657,2.954,2.273C281.571,50.948,278.828,50.126,277.58,50.937z"/>
			<path fill-rule="evenodd" clip-rule="evenodd" fill="#1591D0" d="M216.894,64.112c1.997-0.055,3.268,0.836,3.049,2.234
				c-0.44,2.805-3.215,2.09-5.065,2.648c-1.445,0.436-2.124-0.466-2.016-1.896C213.079,64.234,215.85,65.13,216.894,64.112z"/>
			<path fill-rule="evenodd" clip-rule="evenodd" fill="#1591D0" d="M173.242,79.988c-1.958,0.254-2.546-0.583-2.36-1.956
				c0.36-2.659,2.76-2.471,4.523-2.866c1.496-0.335,2.793,0.856,2.551,2.243C177.465,80.221,174.503,79.037,173.242,79.988z"/>
			<path fill-rule="evenodd" clip-rule="evenodd" fill="#1591D0" d="M151.923,85.893c-0.579-4.084,2.125-4.348,4.292-4.699
				c2.204-0.356,4.845,4.8,4.746,8.679c-0.08,3.115-2.555,3.533-4.513,3.359C151.493,92.792,153.056,88.109,151.923,85.893z"/>
		</g>
	</a>
	<a xlink:href="../hun-verhaal" target='_top'>
		<g id="WATPAGE-hun" class="svgnavani">
			<path fill-rule="evenodd" clip-rule="evenodd" fill="#EFF5FB" d="M421.271,358.861c-7.278-1.979-14.469-3.95-21.669-5.88
				c-1.538-0.412-2.17-1.107-1.801-2.84c0.409-1.92,1.36-2.503,3.152-2.028c1.279,0.339,2.647,0.493,3.823,1.051
				c4.123,1.955,5.44,0.375,6.705-3.746c1.331-4.336-0.989-4.42-3.723-5.451c-2.238-0.844-6.917,0.334-6.001-3.838
				c1.1-5.005,4.949-1.274,7.281-0.81c5.672,1.132,11.189,3.026,16.802,4.484c1.842,0.479,3.021,0.854,2.355,3.266
				c-0.698,2.53-2.205,1.931-3.828,1.529c-0.804-0.198-1.594-0.454-2.396-0.659c-4.771-1.217-7.892,1.698-7.309,6.613
				c0.204,1.725,1.478,1.551,2.45,1.887c1.72,0.592,3.484,1.067,5.253,1.5c1.636,0.399,2.783,0.898,2.112,3.021
				C423.91,358.76,422.956,359.395,421.271,358.861z"/>
			<path fill-rule="evenodd" clip-rule="evenodd" fill="#EFF5FB" d="M424.717,334.306c-3.187-0.871-7.323-2.085-11.508-3.105
				c-1.908-0.466-2.51-1.396-1.886-3.195c0.639-1.841,1.817-1.94,3.544-1.391c2.996,0.956,6.057,1.745,9.135,2.395
				c1.484,0.313,3.611,1.189,4.104-1.237c0.403-1.979,0.006-4.137-2.324-4.916c-2.985-0.999-6.026-1.854-9.086-2.594
				c-1.889-0.456-3.115-1.078-2.407-3.334c0.61-1.946,1.837-1.931,3.503-1.455c4.783,1.364,9.613,2.566,14.396,3.935
				c1.012,0.289,3.031,0.843,2.238,2.001c-2.262,3.303-1.023,7.411-2.94,10.661C430.201,334.246,427.965,334.304,424.717,334.306z"/>
			<g>
				<path fill-rule="evenodd" clip-rule="evenodd" fill="#72C04D" d="M503,416c-9.278-0.597-18.562-1.123-27.833-1.803
					c-48.87-3.582-95.417-16.196-140.027-36.226c-7.441-3.341-14.62-7.266-22.063-10.603c-3.499-1.567-3.749-3.085-1.907-6.332
					c21.845-38.508,43.552-77.095,65.294-115.661c27.626-49.006,55.282-97.996,82.811-147.058c1.939-3.456,3.267-4.625,7.508-2.768
					c11.479,5.028,23.721,7.442,36.218,8.449C503,208,503,312,503,416z M421.271,358.861c1.685,0.533,2.639-0.102,3.208-1.901
					c0.671-2.122-0.477-2.621-2.112-3.021c-1.769-0.433-3.533-0.908-5.253-1.5c-0.973-0.336-2.246-0.162-2.45-1.887
					c-0.583-4.915,2.538-7.83,7.309-6.613c0.803,0.205,1.593,0.461,2.396,0.659c1.623,0.401,3.13,1.001,3.828-1.529
					c0.665-2.412-0.514-2.787-2.355-3.266c-5.612-1.458-11.13-3.353-16.802-4.484c-2.332-0.465-6.182-4.195-7.281,0.81
					c-0.916,4.172,3.763,2.994,6.001,3.838c2.733,1.031,5.054,1.115,3.723,5.451c-1.265,4.121-2.582,5.701-6.705,3.746
					c-1.176-0.558-2.544-0.712-3.823-1.051c-1.792-0.475-2.743,0.108-3.152,2.028c-0.369,1.732,0.263,2.428,1.801,2.84
					C406.803,354.911,413.993,356.882,421.271,358.861z M433.717,219.669c-1.018-0.469-1.878,0.524-2.354,2.233
					c-0.611,2.2,1.041,2.51,2.466,2.901c7.193,1.978,14.394,3.927,21.602,5.851c1.592,0.425,3.169,1.003,3.953-1.428
					c0.823-2.552-0.851-2.79-2.482-3.232c-2.723-0.737-5.454-1.44-8.172-2.196c-2.783-0.774-3.729-3.029-3.118-5.397
					c0.634-2.462,2.957-1.485,4.644-1.078c3.06,0.739,6.072,1.667,9.113,2.485c1.48,0.398,2.464,0.046,3.022-1.615
					c0.547-1.627,0.23-2.613-1.399-3.023c-4.335-1.091-8.641-2.399-13.041-3.092c-4.202-0.661-6.866,1.559-6.746,5.875
					c0.09,3.208-0.991,3.78-3.7,2.806C436.57,220.426,435.597,220.206,433.717,219.669z M458.071,210.635
					c4.768-0.146,7.11-2.273,7.649-6.026c0.363-2.524-0.556-5.08,1.784-7.382c1.316-1.295-0.283-2.643-1.948-3.082
					c-2.73-0.72-5.463-1.436-8.189-2.169c-9.204-2.478-9.203-2.481-11.498,6.611c-1.514,5.999-0.454,8.237,5.285,10.298
					C453.64,209.777,456.294,210.197,458.071,210.635z M461.243,159.933c-2.77-0.48-4.618,1.411-5.845,4.27
					c-3.507,8.174-0.409,12.743,9.389,13.845c7.414,0.834,13.033-6.322,10.535-13.324c-0.458-1.282-0.963-1.979-2.436-1.787
					c-1.488,0.195-1.939,1.023-1.853,2.381c0.054,0.829,0.076,1.663,0.055,2.493c-0.058,2.238-0.459,4.362-2.69,5.489
					c-0.482,0.243-1.588,0.214-1.78-0.089c-1.156-1.813,0.599-3.412,0.584-5.184c-0.002-0.31,0.229-0.618,0.331-0.934
					C469.372,161.34,469.866,160.717,461.243,159.933z M441.533,264.231c6.9,0.121,11.367-5.952,9.984-12.567
					c-0.295-1.409-0.391-3.068-2.671-2.729c-1.899,0.282-1.849,1.529-1.793,2.917c0.08,1.994,0.204,3.995-0.898,5.819
					c-0.745,1.233-1.805,2.275-3.211,1.737c-1.558-0.596-0.553-1.941-0.291-2.986c0.483-1.932,0.781-3.942,1.525-5.77
					c1.059-2.599-0.021-3.55-2.368-4.227c-6.03-1.74-9.106-0.317-10.857,5.242c-2.107,6.686-0.894,9.242,5.534,11.334
					C438.369,263.613,440.341,263.946,441.533,264.231z M424.717,334.306c3.248-0.002,5.484-0.06,6.77-2.236
					c1.917-3.25,0.679-7.358,2.94-10.661c0.793-1.158-1.227-1.712-2.238-2.001c-4.783-1.368-9.613-2.57-14.396-3.935
					c-1.666-0.476-2.893-0.491-3.503,1.455c-0.708,2.256,0.519,2.878,2.407,3.334c3.06,0.74,6.101,1.595,9.086,2.594
					c2.33,0.779,2.728,2.938,2.324,4.916c-0.493,2.427-2.62,1.55-4.104,1.237c-3.078-0.649-6.139-1.438-9.135-2.395
					c-1.727-0.55-2.905-0.45-3.544,1.391c-0.624,1.8-0.022,2.729,1.886,3.195C417.394,332.221,421.53,333.435,424.717,334.306z
					M468.11,140.042c-2.891-0.092-4.756-0.141-6.173,1.324c-3.174,3.284-0.746,8.32-3.632,11.81
					c-0.444,0.537,1.113,1.395,2.088,1.663c4.797,1.316,9.599,2.614,14.393,3.941c1.854,0.514,3.187,0.302,3.714-1.915
					c0.539-2.266-1.064-2.444-2.483-2.841c-2.876-0.804-5.783-1.5-8.64-2.367c-2.548-0.774-3.297-3.047-2.813-5.162
					c0.572-2.503,2.898-1.612,4.591-1.206c3.061,0.735,6.08,1.644,9.107,2.511c1.834,0.525,2.732-0.225,3.252-1.981
					c0.548-1.854-0.488-2.377-1.905-2.75C475.446,141.974,471.283,140.877,468.11,140.042z M439.647,301.206
					c0.213-1.269-0.655-1.78-1.657-2.032c-4.335-1.089-8.657-2.267-13.041-3.116c-2.378-0.461-4.607,0.177-5.976,2.578
					c-1.782,3.129,0.168,7.146-2.649,10.168c-0.78,0.836,1.046,1.744,2.17,2.055c4.795,1.325,9.591,2.646,14.397,3.927
					c1.521,0.405,2.816,0.519,3.489-1.541c0.829-2.537-0.818-2.804-2.463-3.247c-2.724-0.733-5.457-1.435-8.173-2.194
					c-2.771-0.776-3.738-3.029-3.135-5.397c0.628-2.464,2.954-1.489,4.642-1.082c2.898,0.701,5.769,1.531,8.621,2.405
					C438.22,304.447,439.308,303.452,439.647,301.206z M439.623,276.756c-4.522,1.102-8.097,2.256-11.894,1.157
					c-1.957-0.566-3.206-0.316-3.636,1.918c-0.391,2.033,0.848,2.529,2.41,3.032c6.297,2.025,12.109-0.61,17.954-2.067
					c1.979-0.493,2.567-3.752,1.121-5.085c-4.437-4.09-8.115-9.379-14.664-10.618c-1.72-0.325-2.804-0.051-3.354,1.854
					c-0.597,2.06,0.36,2.716,2.092,3.056C433.652,270.786,435.937,273.949,439.623,276.756z M447.949,183.775
					c1.205,0.362,2.149,0.676,3.109,0.93c5.449,1.445,10.908,2.856,16.352,4.327c1.426,0.385,2.744,0.553,3.072-1.283
					c0.301-1.681,1.925-3.463,0.245-5.08c-0.998-0.96-2.462-1.072-3.523,0.22c-1.382,1.681-2.819,0.243-4.051-0.057
					c-5.637-1.371-11.205-3.019-16.812-4.518c-1.238-0.331-2.766-0.931-3.34,0.908c-0.563,1.803-2.097,3.793-0.417,5.535
					c1.025,1.062,2.668,1.265,3.766-0.549C446.581,183.829,447.524,183.878,447.949,183.775z M438.546,229.962
					c-0.259,0.191-1.192,0.568-1.187,0.928c0.05,2.858-1.209,5.309-2.092,7.901c-0.389,1.141,0.861,1.692,1.818,1.958
					c5.119,1.419,10.25,2.794,15.383,4.161c1.546,0.412,2.4-0.171,2.942-1.755c0.605-1.771-0.18-2.529-1.624-2.939
					c-2.876-0.817-5.765-1.593-8.671-2.295c-2.738-0.662-4.731-1.875-3.917-5.125C441.723,230.706,440.745,230.074,438.546,229.962z"
					/>
				<path fill-rule="evenodd" clip-rule="evenodd" fill="#EFF5FB" d="M433.717,219.669c1.88,0.537,2.854,0.757,3.787,1.092
					c2.709,0.974,3.79,0.402,3.7-2.806c-0.12-4.317,2.544-6.537,6.746-5.875c4.4,0.692,8.706,2.001,13.041,3.092
					c1.63,0.41,1.946,1.396,1.399,3.023c-0.559,1.661-1.542,2.013-3.022,1.615c-3.041-0.818-6.054-1.746-9.113-2.485
					c-1.687-0.408-4.01-1.385-4.644,1.078c-0.61,2.368,0.335,4.623,3.118,5.397c2.718,0.755,5.449,1.458,8.172,2.196
					c1.632,0.442,3.306,0.68,2.482,3.232c-0.784,2.432-2.361,1.854-3.953,1.428c-7.208-1.924-14.408-3.873-21.602-5.851
					c-1.425-0.392-3.077-0.702-2.466-2.901C431.839,220.193,432.699,219.201,433.717,219.669z"/>
				<path fill-rule="evenodd" clip-rule="evenodd" fill="#EFF5FB" d="M458.071,210.635c-1.777-0.438-4.432-0.858-6.917-1.75
					c-5.739-2.061-6.799-4.299-5.285-10.298c2.295-9.092,2.294-9.089,11.498-6.611c2.727,0.734,5.459,1.45,8.189,2.169
					c1.665,0.439,3.265,1.786,1.948,3.082c-2.34,2.303-1.421,4.858-1.784,7.382C465.182,208.362,462.839,210.489,458.071,210.635z
					M450.114,200.067c-0.902,2.826,0.396,4.049,2.422,4.379c2.741,0.446,5.451,3.067,8.32,0.36c0.218-0.206,0.263-0.602,0.371-0.915
					c0.721-2.097,0.27-4.123-1.244-5.521c-2.15-1.987-5.163-2.554-7.864-2.362C450.081,196.152,450.786,199.026,450.114,200.067z"/>
				<path fill-rule="evenodd" clip-rule="evenodd" fill="#EFF5FB" d="M461.243,159.933c8.623,0.785,8.129,1.408,6.29,7.159
					c-0.102,0.316-0.333,0.624-0.331,0.934c0.015,1.772-1.74,3.371-0.584,5.184c0.192,0.303,1.298,0.332,1.78,0.089
					c2.231-1.126,2.633-3.25,2.69-5.489c0.021-0.83-0.001-1.664-0.055-2.493c-0.087-1.358,0.364-2.186,1.853-2.381
					c1.473-0.192,1.978,0.505,2.436,1.787c2.498,7.002-3.121,14.158-10.535,13.324c-9.798-1.102-12.896-5.67-9.389-13.845
					C456.625,161.344,458.474,159.453,461.243,159.933z M461.298,172.189c2.228-1.129,1.581-3.835,2.416-5.763
					c0.586-1.35-0.588-1.671-1.608-1.683c-2.742-0.032-2.944,2.089-3.279,4.045C458.536,170.48,459.091,171.674,461.298,172.189z"/>
				<path fill-rule="evenodd" clip-rule="evenodd" fill="#EFF5FB" d="M441.533,264.231c-1.192-0.285-3.164-0.618-5.046-1.23
					c-6.428-2.092-7.642-4.648-5.534-11.334c1.751-5.559,4.827-6.982,10.857-5.242c2.347,0.677,3.427,1.628,2.368,4.227
					c-0.744,1.827-1.042,3.838-1.525,5.77c-0.262,1.045-1.267,2.391,0.291,2.986c1.406,0.538,2.466-0.504,3.211-1.737
					c1.103-1.824,0.979-3.825,0.898-5.819c-0.056-1.388-0.106-2.635,1.793-2.917c2.28-0.339,2.376,1.32,2.671,2.729
					C452.9,258.279,448.434,264.353,441.533,264.231z M437.345,258.161c2.2-1.212,1.597-3.89,2.388-5.862
					c0.543-1.353-0.785-1.594-1.754-1.549c-3.032,0.143-2.95,2.615-3.199,4.656C434.599,256.896,435.467,257.862,437.345,258.161z"/>
				<path fill-rule="evenodd" clip-rule="evenodd" fill="#EFF5FB" d="M468.11,140.042c3.173,0.835,7.336,1.932,11.499,3.027
					c1.417,0.373,2.453,0.896,1.905,2.75c-0.52,1.756-1.418,2.506-3.252,1.981c-3.027-0.868-6.047-1.776-9.107-2.511
					c-1.692-0.407-4.019-1.298-4.591,1.206c-0.484,2.114,0.265,4.388,2.813,5.162c2.856,0.867,5.764,1.563,8.64,2.367
					c1.419,0.397,3.022,0.575,2.483,2.841c-0.527,2.217-1.859,2.429-3.714,1.915c-4.794-1.328-9.596-2.625-14.393-3.941
					c-0.975-0.268-2.532-1.125-2.088-1.663c2.886-3.489,0.458-8.525,3.632-11.81C463.354,139.901,465.22,139.95,468.11,140.042z"/>
				<path fill-rule="evenodd" clip-rule="evenodd" fill="#EFF5FB" d="M439.647,301.206c-0.34,2.246-1.428,3.241-3.774,2.522
					c-2.853-0.874-5.723-1.704-8.621-2.405c-1.688-0.407-4.014-1.382-4.642,1.082c-0.604,2.368,0.363,4.621,3.135,5.397
					c2.716,0.76,5.449,1.461,8.173,2.194c1.645,0.443,3.292,0.71,2.463,3.247c-0.673,2.06-1.969,1.946-3.489,1.541
					c-4.807-1.281-9.603-2.602-14.397-3.927c-1.124-0.311-2.95-1.219-2.17-2.055c2.817-3.021,0.867-7.039,2.649-10.168
					c1.368-2.401,3.598-3.039,5.976-2.578c4.384,0.85,8.706,2.027,13.041,3.116C438.992,299.426,439.86,299.938,439.647,301.206z"/>
				<path fill-rule="evenodd" clip-rule="evenodd" fill="#EFF5FB" d="M439.623,276.756c-3.687-2.807-5.971-5.97-9.971-6.753
					c-1.731-0.34-2.688-0.996-2.092-3.056c0.551-1.905,1.635-2.18,3.354-1.854c6.549,1.239,10.228,6.528,14.664,10.618
					c1.446,1.333,0.858,4.592-1.121,5.085c-5.845,1.457-11.657,4.093-17.954,2.067c-1.563-0.503-2.801-0.999-2.41-3.032
					c0.43-2.234,1.679-2.484,3.636-1.918C431.526,279.012,435.101,277.857,439.623,276.756z"/>
				<path fill-rule="evenodd" clip-rule="evenodd" fill="#EFF5FB" d="M447.949,183.775c-0.425,0.103-1.368,0.053-1.599,0.434
					c-1.098,1.814-2.74,1.611-3.766,0.549c-1.68-1.742-0.146-3.732,0.417-5.535c0.574-1.838,2.102-1.239,3.34-0.908
					c5.606,1.499,11.175,3.147,16.812,4.518c1.231,0.299,2.669,1.738,4.051,0.057c1.062-1.292,2.525-1.18,3.523-0.22
					c1.68,1.617,0.056,3.399-0.245,5.08c-0.328,1.836-1.646,1.668-3.072,1.283c-5.443-1.471-10.902-2.881-16.352-4.327
					C450.099,184.451,449.154,184.138,447.949,183.775z"/>
				<path fill-rule="evenodd" clip-rule="evenodd" fill="#EFF5FB" d="M438.546,229.962c2.199,0.112,3.177,0.744,2.653,2.832
					c-0.814,3.25,1.179,4.464,3.917,5.125c2.906,0.702,5.795,1.478,8.671,2.295c1.444,0.411,2.229,1.168,1.624,2.939
					c-0.542,1.584-1.396,2.167-2.942,1.755c-5.133-1.367-10.264-2.741-15.383-4.161c-0.957-0.266-2.207-0.816-1.818-1.958
					c0.883-2.592,2.142-5.043,2.092-7.901C437.354,230.53,438.287,230.153,438.546,229.962z"/>
				<path fill-rule="evenodd" clip-rule="evenodd" fill="#72C04D" d="M450.114,200.067c0.672-1.041-0.033-3.915,2.005-4.06
					c2.701-0.192,5.714,0.375,7.864,2.362c1.514,1.398,1.965,3.424,1.244,5.521c-0.108,0.313-0.153,0.709-0.371,0.915
					c-2.869,2.707-5.579,0.086-8.32-0.36C450.511,204.116,449.212,202.893,450.114,200.067z"/>
				<path fill-rule="evenodd" clip-rule="evenodd" fill="#72C04D" d="M461.298,172.189c-2.207-0.516-2.762-1.709-2.472-3.401
					c0.335-1.957,0.537-4.078,3.279-4.045c1.021,0.012,2.194,0.333,1.608,1.683C462.879,168.354,463.525,171.06,461.298,172.189z"/>
				<path fill-rule="evenodd" clip-rule="evenodd" fill="#72C04D" d="M437.345,258.161c-1.878-0.299-2.746-1.265-2.565-2.755
					c0.249-2.041,0.167-4.514,3.199-4.656c0.969-0.045,2.297,0.196,1.754,1.549C438.941,254.271,439.545,256.949,437.345,258.161z"/>
			</g>
		</g>
	</a>
	<a xlink:href="../waar-kan-je-terecht" target='_top'>
		<g id="WATPAGE-waar" class="svgnavani">
			<path fill-rule="evenodd" clip-rule="evenodd" fill="#FCEFEC" d="M261.213,258.153c-5.219-1.289-8.922-4.939-11.489-9.723
				c-2.283-4.255,1.127-6.728,3.616-9.301c5.344-5.529,5.383-5.511,11.018-0.387c2.445,2.224,4.852,4.491,7.26,6.757
				c0.836,0.787,2.185,2.321,1.213,2.809c-4.246,2.129-4.844,7.678-9.279,9.443C262.954,257.988,262.26,257.981,261.213,258.153z
				M265.091,247.327c-0.489-2.855-3.45-4.873-6.099-6.408c-1.716-0.994-3.092,1.955-4.082,3.435
				c-2.611,3.903,1.889,4.871,3.404,6.972c0.861,1.195,2.434,2.572,4.295,1.484C264.305,251.819,264.99,250.122,265.091,247.327z"/>
			<path fill-rule="evenodd" clip-rule="evenodd" fill="#FCEFEC" d="M277.106,242.143c-5.161-1.355-8.875-4.984-11.424-9.789
				c-2.128-4.01,0.968-6.454,3.364-8.938c5.633-5.842,5.662-5.84,11.767-0.31c2.327,2.108,4.59,4.288,6.866,6.452
				c0.836,0.795,2.137,2.361,1.115,2.823c-4.395,1.985-4.789,7.75-9.326,9.396C278.863,241.998,278.174,241.986,277.106,242.143z
				M281.037,230.837c-0.698-2.202-3.252-4.405-5.792-5.792c-2.155-1.177-3.462,1.932-4.456,3.491
				c-2.293,3.592,1.793,4.651,3.322,6.596c1.031,1.311,2.635,2.904,4.686,1.561C280.418,235.63,281.085,233.911,281.037,230.837z"/>
			<path fill-rule="evenodd" clip-rule="evenodd" fill="#FCEFEC" d="M318.169,198.395c-3.533-0.024-10.428-5.197-11.794-9.103
				c-1.59-4.544,1.573-7.162,4.455-9.665c3.855-3.35,10.256-1.688,12.586,2.956c0.644,1.284-0.036,1.883-0.657,2.566
				c-1.679,1.844-3.503,3.559-5.133,5.443c-0.602,0.695-2.443,1.253-0.874,2.686c1.029,0.941,2.071,0.559,3.196-0.026
				c2.072-1.077,3.174-2.921,3.988-4.921c0.659-1.619,1.263-2.612,3.255-1.706c2.107,0.958,1.252,2.333,0.787,3.716
				C326.463,194.849,322.105,198.422,318.169,198.395z M312.661,189.497c2.036-1.147,3.766-2.774,4.851-4.743
				c0.744-1.349-0.987-2.063-2.006-2.003c-2.37,0.138-3.836,1.772-4.461,3.933C310.71,187.841,311.564,188.801,312.661,189.497z"/>
			<path fill-rule="evenodd" clip-rule="evenodd" fill="#FCEFEC" d="M310.078,208.57c-2.554-0.292-4.427-2.499-6.62-4.23
				c-2.104-1.662-3.188-5.077-7.061-3.932c-0.659,0.195-2.686-1.252-1.946-2.813c0.725-1.527-0.104-2.148-0.924-2.883
				c-1.332-1.194-1.694-2.216-0.191-3.654c1.447-1.386,2.719-1.307,3.709,0.194c1.771,2.683,7.179-3.017,6.476,1.999
				c-0.555,3.958,1.232,5.169,3.172,7.101c1.865,1.857,3.625,4.311,6.427,1.039c0.952-1.112,2.035-0.54,2.988,0.382
				c1.07,1.035,1.043,1.955,0.017,2.952C314.47,206.331,313.081,208.311,310.078,208.57z"/>
			<path fill-rule="evenodd" clip-rule="evenodd" fill="#FCEFEC" d="M297.253,224.575c-1.047,1.149-1.672,1.904-2.369,2.586
				c-0.997,0.975-1.841,0.298-2.567-0.399c-3.959-3.797-7.871-7.643-11.847-11.423c-1.271-1.208-1.247-2.293,0.134-3.23
				c1.736-1.178,3.482-2.198,4.252-4.402c0.396-1.136,1.601-1.779,2.826-0.775c0.885,0.726,2.025,1.676,0.919,2.886
				c-3.655,4-0.334,6.166,2.13,8.562C292.838,220.431,294.994,222.433,297.253,224.575z"/>
			<path fill-rule="evenodd" clip-rule="evenodd" fill="#FEFEFE" d="M444.121,84.581c-0.183-2.002-1.821-2.479-2.961-3.312
				c-8.257-6.036-15.666-13.011-21.8-21.147c-2.639-3.501-4.382-3.472-7.927-1.357C325.297,110.151,239.095,161.43,152.828,212.6
				c-3.611,2.142-3.926,3.522-1.65,7.023c35.536,54.653,80.988,99.097,136.446,133.364c3.153,1.948,4.41,1.734,6.271-1.576
				c49.468-88.015,99.052-175.963,148.614-263.924C443.075,86.48,443.63,85.466,444.121,84.581z"/>
			<path fill-rule="evenodd" clip-rule="evenodd" fill="#E1503B" d="M444.121,84.581c-0.491,0.885-1.046,1.899-1.612,2.906
				c-49.563,87.961-99.146,175.91-148.614,263.924c-1.86,3.311-3.117,3.524-6.271,1.576c-55.458-34.268-100.91-78.711-136.446-133.364
				c-2.276-3.5-1.961-4.881,1.65-7.023c86.267-51.17,172.469-102.449,258.605-153.835c3.545-2.115,5.288-2.145,7.927,1.357
				c6.134,8.136,13.543,15.111,21.8,21.147C442.3,82.102,443.938,82.579,444.121,84.581z M254.908,264.055
				c0.369-2.289,0.805-4.206-1.288-6.026c-4.009-3.486-7.683-7.358-11.505-11.061c-1.191-1.153-2.209-2.472-4.086-0.656
				c-1.904,1.842-1.184,3.025,0.378,4.463c3.301,3.04,6.459,6.235,9.798,9.231c1.715,1.54,2.68,3.768,1.395,5.218
				c-1.552,1.75-3.911,0.917-5.646-0.812c-3.182-3.168-6.422-6.277-9.621-9.428c-1.215-1.196-2.238-2.465-4.07-0.642
				c-1.86,1.852-1.131,3.074,0.45,4.512c3.195,2.907,6.235,5.987,9.47,8.848c1.871,1.655,2.86,4.02,1.436,5.627
				c-1.639,1.85-3.941,0.412-5.581-1.165c-3.355-3.228-6.744-6.422-10.011-9.735c-1.408-1.429-2.422-1.235-3.719,0.089
				c-1.348,1.376-1.283,2.45,0.102,3.753c4.236,3.988,8.305,8.16,12.632,12.044c3.565,3.198,11.173,0.263,11.931-4.531
				c0.268-1.694,0.678-2.912,2.625-2.887C254.531,270.964,255.18,267.75,254.908,264.055z M360.513,130.144
				c-1.841-1.647-3.327-2.959-4.792-4.293c-1.207-1.1-2.163-2.641-3.997-0.55c-1.557,1.774-0.887,2.802,0.493,4.11
				c5.551,5.262,11.067,10.561,16.54,15.903c1.461,1.426,2.594,1.658,4.109,0.014c1.559-1.69,0.451-2.607-0.654-3.676
				c-2.151-2.079-4.286-4.175-6.438-6.253c-1.963-1.896-1.593-4.182-0.164-5.832c1.732-1.999,3.271-0.025,4.564,1.149
				c2.338,2.121,4.6,4.325,6.855,6.533c1.393,1.363,2.567,1.153,3.787-0.245c1.134-1.3,0.83-2.316-0.333-3.392
				c-2.563-2.37-5.002-4.878-7.621-7.182C367.126,121.386,363.545,122.386,360.513,130.144z M261.213,258.153
				c1.047-0.172,1.741-0.165,2.338-0.402c4.436-1.766,5.033-7.314,9.279-9.443c0.972-0.487-0.377-2.022-1.213-2.809
				c-2.408-2.266-4.814-4.533-7.26-6.757c-5.635-5.125-5.674-5.143-11.018,0.387c-2.488,2.574-5.899,5.046-3.616,9.301
				C252.291,253.214,255.994,256.864,261.213,258.153z M277.106,242.143c1.067-0.157,1.757-0.146,2.362-0.366
				c4.537-1.646,4.932-7.411,9.326-9.396c1.021-0.462-0.279-2.028-1.115-2.823c-2.276-2.164-4.539-4.344-6.866-6.452
				c-6.104-5.531-6.134-5.533-11.767,0.31c-2.396,2.485-5.492,4.928-3.364,8.938C268.231,237.159,271.945,240.788,277.106,242.143z
				M318.169,198.395c3.937,0.027,8.294-3.546,9.81-8.053c0.465-1.382,1.32-2.757-0.787-3.716c-1.992-0.906-2.596,0.087-3.255,1.706
				c-0.814,2-1.916,3.844-3.988,4.921c-1.125,0.585-2.167,0.967-3.196,0.026c-1.569-1.433,0.272-1.991,0.874-2.686
				c1.63-1.884,3.454-3.599,5.133-5.443c0.621-0.684,1.301-1.283,0.657-2.566c-2.33-4.644-8.73-6.306-12.586-2.956
				c-2.882,2.503-6.045,5.121-4.455,9.665C307.741,193.198,314.636,198.371,318.169,198.395z M342.102,173.394
				c4.363,0.072,9.771-4.988,10.399-9.395c0.24-1.684-0.703-2.008-1.718-2.518c-1.442-0.726-2.221,0.127-2.656,1.324
				c-0.756,2.082-1.813,3.949-3.688,5.172c-1.088,0.709-2.403,1.56-3.62,0.33c-1.58-1.599,0.423-2.208,1.112-3.021
				c1.505-1.771,3.226-3.357,4.784-5.085c0.613-0.68,1.341-1.272,0.736-2.56c-2.16-4.602-8.742-6.356-12.57-3.057
				c-2.891,2.492-6.056,5.102-4.534,9.647C331.632,168.067,338.587,173.335,342.102,173.394z M356.079,158.344
				c4.414,0.117,8.667-3.65,9.612-8.619c0.297-1.563,0.983-3.4-1.567-3.92c-2.176-0.444-2.627,1.148-2.86,2.598
				c-0.455,2.825-1.893,4.919-4.738,4.912c-3.281-0.008-5.299-2.562-6.979-5.082c-1.666-2.499,1.11-3.427,2.09-4.924
				c0.717-1.094,1.844-1.913,2.738-2.9c0.972-1.073,0.766-2.108-0.248-3.043c-0.774-0.714-1.48-1.038-2.616-0.421
				c-3.42,1.857-7.917,8.526-7.376,11.199C344.998,152.418,351.806,158.231,356.079,158.344z M396.066,99.975
				c-0.336-3.897-3.13-6.519-6.831-7.873c-4.913-1.797-7.691,1.877-10.308,5.105c-2.233,2.754-2.35,5.784-0.066,8.677
				c0.791,1.001,1.575,2.476,3.146,1.141c1.068-0.908,2.828-1.902,1.422-3.614c-2.213-2.694-0.291-4.198,1.381-5.813
				c1.324-1.279,2.682-0.952,4.015,0.091c2.102,1.645,2.779,3.39,1.304,5.989c-1.123,1.98-0.629,4.227,0.693,6.13
				c0.537,0.773,1.073,1.94,2.247,1.522c1.254-0.447,2.95-1.807,2.424-2.732C393.789,105.602,396.096,103.159,396.066,99.975z
				M310.078,208.57c3.003-0.259,4.392-2.24,6.046-3.845c1.026-0.997,1.054-1.917-0.017-2.952c-0.953-0.921-2.036-1.494-2.988-0.382
				c-2.802,3.272-4.562,0.818-6.427-1.039c-1.939-1.932-3.727-3.143-3.172-7.101c0.703-5.016-4.705,0.684-6.476-1.999
				c-0.99-1.501-2.262-1.58-3.709-0.194c-1.503,1.438-1.141,2.459,0.191,3.654c0.82,0.735,1.648,1.356,0.924,2.883
				c-0.739,1.561,1.287,3.008,1.946,2.813c3.873-1.145,4.957,2.271,7.061,3.932C305.651,206.072,307.524,208.278,310.078,208.57z
				M371.642,111.011c-1.854,0.136-3.321,2.14-3.213,2.252c2.215,2.3,0.769,7.729,3.745,7.794c4.91,0.107,6.332,3.971,9.271,6.071
				c4.447,3.179,7.187,3.061,10.476-1.164c0.759-0.975,1.531-1.772,0.405-2.963c-1.008-1.066-2.049-1.788-3.354-0.498
				c-1.104,1.091-2.713,2.494-3.74,0.998c-1.941-2.825-8.066-3.204-5.392-8.913c0.54-1.153-0.911-2.63-1.802-2.49
				C375.607,112.481,373.191,114,371.642,111.011z M297.253,224.575c-2.259-2.142-4.415-4.144-6.522-6.195
				c-2.464-2.396-5.785-4.562-2.13-8.562c1.106-1.21-0.034-2.161-0.919-2.886c-1.226-1.004-2.43-0.361-2.826,0.775
				c-0.77,2.204-2.516,3.224-4.252,4.402c-1.381,0.937-1.404,2.022-0.134,3.23c3.976,3.78,7.888,7.626,11.847,11.423
				c0.727,0.697,1.57,1.374,2.567,0.399C295.581,226.479,296.206,225.724,297.253,224.575z M333.918,185.932
				c0.883-0.806,1.639-1.43,2.315-2.129c0.962-0.993,0.336-1.802-0.418-2.53c-1.315-1.271-2.769-2.418-3.955-3.797
				c-2.457-2.853-7.619-4.885-3.058-10.042c0.88-0.995-0.474-2.125-1.48-2.723c-1.104-0.656-2.002,0.036-2.452,0.931
				c-0.893,1.771-1.825,3.242-3.831,4.134c-1.819,0.81-1.992,2.307-0.29,3.885c3.778,3.503,7.418,7.154,11.138,10.721
				C332.457,184.93,333.147,185.351,333.918,185.932z M399.022,111.847c-1.442,0.472-2.744,1.341-2.7,2.932
				c0.036,1.319,1.148,2.479,2.555,2.412c1.6-0.076,2.797-1.375,2.831-2.854C401.738,113.029,400.411,112.232,399.022,111.847z"/>
			<path fill-rule="evenodd" clip-rule="evenodd" fill="#FCEFEC" d="M360.513,130.144c3.032-7.758,6.613-8.758,12.35-3.713
				c2.619,2.304,5.058,4.813,7.621,7.182c1.163,1.076,1.467,2.092,0.333,3.392c-1.22,1.398-2.395,1.608-3.787,0.245
				c-2.256-2.208-4.518-4.412-6.855-6.533c-1.294-1.175-2.832-3.148-4.564-1.149c-1.429,1.649-1.799,3.936,0.164,5.832
				c2.152,2.078,4.287,4.174,6.438,6.253c1.105,1.069,2.213,1.986,0.654,3.676c-1.516,1.644-2.648,1.412-4.109-0.014
				c-5.473-5.343-10.989-10.642-16.54-15.903c-1.38-1.309-2.05-2.336-0.493-4.11c1.834-2.09,2.79-0.549,3.997,0.55
				C357.186,127.185,358.672,128.497,360.513,130.144z"/>
			<path fill-rule="evenodd" clip-rule="evenodd" fill="#FCEFEC" d="M342.102,173.394c-3.515-0.058-10.47-5.327-11.755-9.162
				c-1.521-4.545,1.644-7.155,4.534-9.647c3.828-3.299,10.41-1.545,12.57,3.057c0.604,1.288-0.123,1.88-0.736,2.56
				c-1.559,1.728-3.279,3.313-4.784,5.085c-0.689,0.813-2.692,1.422-1.112,3.021c1.217,1.23,2.532,0.38,3.62-0.33
				c1.876-1.223,2.933-3.091,3.688-5.172c0.436-1.197,1.214-2.049,2.656-1.324c1.015,0.51,1.958,0.834,1.718,2.518
				C351.873,168.405,346.465,173.466,342.102,173.394z M339.286,157.607c-2.079,0.656-3.781,1.895-4.24,4.182
				c-0.224,1.116,0.591,2.775,1.636,2.469c2.24-0.657,3.838-2.633,4.877-4.61C342.201,158.426,340.469,157.983,339.286,157.607z"/>
			<path fill-rule="evenodd" clip-rule="evenodd" fill="#FCEFEC" d="M356.079,158.344c-4.273-0.113-11.081-5.926-11.945-10.2
				c-0.541-2.672,3.956-9.341,7.376-11.199c1.136-0.617,1.842-0.293,2.616,0.421c1.014,0.935,1.22,1.971,0.248,3.043
				c-0.895,0.987-2.021,1.806-2.738,2.9c-0.979,1.497-3.756,2.425-2.09,4.924c1.681,2.52,3.698,5.073,6.979,5.082
				c2.846,0.007,4.283-2.086,4.738-4.912c0.233-1.45,0.685-3.042,2.86-2.598c2.551,0.52,1.864,2.356,1.567,3.92
				C364.746,154.693,360.493,158.46,356.079,158.344z"/>
			<path fill-rule="evenodd" clip-rule="evenodd" fill="#FCEFEC" d="M396.066,99.975c0.029,3.184-2.277,5.626-0.573,8.623
				c0.526,0.925-1.17,2.285-2.424,2.732c-1.174,0.418-1.71-0.749-2.247-1.522c-1.322-1.904-1.816-4.15-0.693-6.13
				c1.476-2.599,0.798-4.345-1.304-5.989c-1.333-1.043-2.69-1.37-4.015-0.091c-1.672,1.615-3.594,3.118-1.381,5.813
				c1.406,1.712-0.354,2.707-1.422,3.614c-1.571,1.335-2.355-0.139-3.146-1.141c-2.283-2.893-2.167-5.922,0.066-8.677
				c2.616-3.228,5.395-6.902,10.308-5.105C392.937,93.457,395.73,96.078,396.066,99.975z"/>
			<path fill-rule="evenodd" clip-rule="evenodd" fill="#FCEFEC" d="M371.642,111.011c1.55,2.988,3.966,1.47,6.397,1.087
				c0.891-0.14,2.342,1.337,1.802,2.49c-2.675,5.709,3.45,6.088,5.392,8.913c1.027,1.496,2.637,0.093,3.74-0.998
				c1.305-1.29,2.346-0.568,3.354,0.498c1.126,1.191,0.354,1.988-0.405,2.963c-3.289,4.224-6.028,4.343-10.476,1.164
				c-2.939-2.101-4.361-5.964-9.271-6.071c-2.977-0.065-1.53-5.494-3.745-7.794C368.32,113.151,369.787,111.147,371.642,111.011z"/>
			<path fill-rule="evenodd" clip-rule="evenodd" fill="#FCEFEC" d="M333.918,185.932c-0.771-0.582-1.461-1.002-2.031-1.55
				c-3.72-3.567-7.359-7.218-11.138-10.721c-1.702-1.579-1.529-3.075,0.29-3.885c2.006-0.892,2.938-2.362,3.831-4.134
				c0.45-0.895,1.348-1.587,2.452-0.931c1.007,0.597,2.36,1.728,1.48,2.723c-4.562,5.157,0.601,7.189,3.058,10.042
				c1.187,1.378,2.64,2.526,3.955,3.797c0.754,0.729,1.38,1.537,0.418,2.53C335.557,184.502,334.801,185.126,333.918,185.932z"/>
			<path fill-rule="evenodd" clip-rule="evenodd" fill="#FCEFEC" d="M399.022,111.847c1.389,0.385,2.716,1.182,2.686,2.489
				c-0.034,1.479-1.231,2.778-2.831,2.854c-1.406,0.067-2.519-1.093-2.555-2.412C396.278,113.188,397.58,112.319,399.022,111.847z"/>
			<path fill-rule="evenodd" clip-rule="evenodd" fill="#FCEFEC" d="M254.908,264.055c0.271,3.695-0.377,6.909-5.313,6.843
				c-1.946-0.025-2.357,1.192-2.625,2.887c-0.758,4.794-8.366,7.729-11.931,4.531c-4.328-3.884-8.396-8.056-12.632-12.044
				c-1.384-1.303-1.45-2.377-0.102-3.753c1.297-1.324,2.312-1.518,3.719-0.089c3.268,3.313,6.656,6.508,10.011,9.735
				c1.639,1.577,3.941,3.015,5.581,1.165c1.424-1.607,0.435-3.972-1.436-5.627c-3.235-2.86-6.275-5.94-9.47-8.848
				c-1.581-1.438-2.31-2.66-0.45-4.512c1.832-1.823,2.855-0.555,4.07,0.642c3.199,3.15,6.439,6.26,9.621,9.428
				c1.736,1.729,4.095,2.562,5.646,0.812c1.285-1.45,0.321-3.678-1.395-5.218c-3.338-2.996-6.497-6.191-9.798-9.231
				c-1.562-1.438-2.282-2.621-0.378-4.463c1.877-1.816,2.896-0.498,4.086,0.656c3.823,3.702,7.496,7.574,11.505,11.061
				C255.713,259.849,255.277,261.766,254.908,264.055z"/>
			<path fill-rule="evenodd" clip-rule="evenodd" fill="#E1503B" d="M339.286,157.607c1.183,0.376,2.915,0.819,2.272,2.041
				c-1.039,1.977-2.637,3.953-4.877,4.61c-1.045,0.306-1.859-1.353-1.636-2.469C335.505,159.502,337.207,158.264,339.286,157.607z"/>
			<path fill-rule="evenodd" clip-rule="evenodd" fill="#E1503B" d="M312.661,189.497c-1.097-0.696-1.951-1.656-1.616-2.813
				c0.625-2.161,2.091-3.795,4.461-3.933c1.019-0.06,2.75,0.654,2.006,2.003C316.427,186.723,314.697,188.35,312.661,189.497z"/>
			<path fill-rule="evenodd" clip-rule="evenodd" fill="#E1503B" d="M265.091,247.327c-0.101,2.795-0.786,4.493-2.481,5.483
				c-1.861,1.088-3.434-0.289-4.295-1.484c-1.516-2.102-6.016-3.069-3.404-6.972c0.99-1.48,2.366-4.429,4.082-3.435
				C261.641,242.454,264.602,244.472,265.091,247.327z"/>
			<path fill-rule="evenodd" clip-rule="evenodd" fill="#E1503B" d="M281.037,230.837c0.048,3.074-0.619,4.793-2.24,5.855
				c-2.051,1.344-3.654-0.25-4.686-1.561c-1.529-1.944-5.615-3.004-3.322-6.596c0.994-1.559,2.301-4.667,4.456-3.491
				C277.785,226.432,280.339,228.635,281.037,230.837z"/>
		</g>
	</a>
</svg>
